<svg xmlns="http://www.w3.org/2000/svg" xmlns:xlink="http://www.w3.org/1999/xlink" width="500" zoomAndPan="magnify" viewBox="0 0 375 374.999991" height="500" preserveAspectRatio="xMidYMid meet" version="1.0"><path fill="rgb(100%, 100%, 100%)" d="M 375 187.5 C 375 190.570312 374.925781 193.636719 374.773438 196.699219 C 374.625 199.765625 374.398438 202.824219 374.097656 205.878906 C 373.796875 208.933594 373.421875 211.976562 372.96875 215.011719 C 372.519531 218.046875 371.996094 221.070312 371.398438 224.078125 C 370.796875 227.089844 370.125 230.082031 369.378906 233.058594 C 368.636719 236.035156 367.816406 238.992188 366.925781 241.929688 C 366.035156 244.863281 365.074219 247.777344 364.039062 250.667969 C 363.003906 253.554688 361.902344 256.417969 360.726562 259.253906 C 359.554688 262.089844 358.308594 264.890625 356.996094 267.667969 C 355.6875 270.441406 354.304688 273.179688 352.859375 275.886719 C 351.414062 278.59375 349.902344 281.261719 348.324219 283.894531 C 346.746094 286.527344 345.105469 289.117188 343.402344 291.667969 C 341.695312 294.222656 339.929688 296.730469 338.101562 299.195312 C 336.273438 301.660156 334.386719 304.078125 332.4375 306.449219 C 330.492188 308.820312 328.488281 311.144531 326.429688 313.417969 C 324.367188 315.691406 322.253906 317.914062 320.082031 320.082031 C 317.914062 322.253906 315.691406 324.367188 313.417969 326.429688 C 311.144531 328.488281 308.820312 330.492188 306.449219 332.4375 C 304.078125 334.386719 301.660156 336.273438 299.195312 338.101562 C 296.730469 339.929688 294.222656 341.695312 291.667969 343.402344 C 289.117188 345.105469 286.527344 346.746094 283.894531 348.324219 C 281.261719 349.902344 278.59375 351.414062 275.886719 352.859375 C 273.179688 354.308594 270.441406 355.6875 267.667969 356.996094 C 264.890625 358.308594 262.089844 359.554688 259.253906 360.726562 C 256.417969 361.902344 253.554688 363.003906 250.667969 364.039062 C 247.777344 365.074219 244.863281 366.035156 241.929688 366.925781 C 238.992188 367.816406 236.035156 368.636719 233.058594 369.378906 C 230.082031 370.125 227.089844 370.796875 224.078125 371.398438 C 221.070312 371.996094 218.046875 372.519531 215.011719 372.96875 C 211.976562 373.421875 208.933594 373.796875 205.878906 374.097656 C 202.824219 374.398438 199.765625 374.625 196.699219 374.773438 C 193.636719 374.925781 190.570312 375 187.5 375 C 184.429688 375 181.363281 374.925781 178.300781 374.773438 C 175.234375 374.625 172.175781 374.398438 169.121094 374.097656 C 166.066406 373.796875 163.023438 373.421875 159.988281 372.96875 C 156.953125 372.519531 153.929688 371.996094 150.921875 371.398438 C 147.910156 370.796875 144.917969 370.125 141.941406 369.378906 C 138.964844 368.636719 136.007812 367.816406 133.070312 366.925781 C 130.136719 366.035156 127.222656 365.074219 124.332031 364.039062 C 121.445312 363.003906 118.582031 361.902344 115.746094 360.726562 C 112.910156 359.554688 110.105469 358.308594 107.332031 356.996094 C 104.558594 355.6875 101.820312 354.308594 99.113281 352.859375 C 96.40625 351.414062 93.738281 349.902344 91.105469 348.324219 C 88.472656 346.746094 85.882812 345.105469 83.332031 343.402344 C 80.777344 341.695312 78.269531 339.929688 75.804688 338.101562 C 73.339844 336.273438 70.921875 334.386719 68.550781 332.4375 C 66.179688 330.492188 63.855469 328.488281 61.582031 326.429688 C 59.308594 324.367188 57.085938 322.253906 54.917969 320.082031 C 52.746094 317.914062 50.632812 315.691406 48.570312 313.417969 C 46.511719 311.144531 44.507812 308.820312 42.558594 306.449219 C 40.613281 304.078125 38.726562 301.660156 36.898438 299.195312 C 35.070312 296.730469 33.304688 294.222656 31.597656 291.667969 C 29.894531 289.117188 28.253906 286.527344 26.675781 283.894531 C 25.097656 281.261719 23.585938 278.59375 22.140625 275.886719 C 20.691406 273.179688 19.3125 270.441406 18.003906 267.667969 C 16.691406 264.890625 15.445312 262.089844 14.273438 259.253906 C 13.097656 256.417969 11.996094 253.554688 10.960938 250.667969 C 9.925781 247.777344 8.964844 244.863281 8.074219 241.929688 C 7.183594 238.992188 6.363281 236.035156 5.617188 233.058594 C 4.875 230.082031 4.203125 227.089844 3.601562 224.078125 C 3.003906 221.070312 2.480469 218.046875 2.03125 215.011719 C 1.578125 211.976562 1.203125 208.933594 0.902344 205.878906 C 0.601562 202.824219 0.375 199.765625 0.226562 196.699219 C 0.0742188 193.636719 0 190.570312 0 187.5 C 0 184.429688 0.0742188 181.363281 0.226562 178.300781 C 0.375 175.234375 0.601562 172.175781 0.902344 169.121094 C 1.203125 166.066406 1.578125 163.023438 2.03125 159.988281 C 2.480469 156.953125 3.003906 153.929688 3.601562 150.921875 C 4.203125 147.910156 4.875 144.917969 5.617188 141.941406 C 6.363281 138.964844 7.183594 136.007812 8.074219 133.070312 C 8.964844 130.136719 9.925781 127.222656 10.960938 124.332031 C 11.996094 121.445312 13.097656 118.582031 14.273438 115.746094 C 15.445312 112.910156 16.691406 110.105469 18.003906 107.332031 C 19.3125 104.558594 20.691406 101.820312 22.140625 99.113281 C 23.585938 96.40625 25.097656 93.738281 26.675781 91.105469 C 28.253906 88.472656 29.894531 85.882812 31.597656 83.332031 C 33.304688 80.777344 35.070312 78.269531 36.898438 75.804688 C 38.726562 73.339844 40.613281 70.921875 42.558594 68.550781 C 44.507812 66.179688 46.511719 63.855469 48.570312 61.582031 C 50.632812 59.308594 52.746094 57.085938 54.917969 54.917969 C 57.085938 52.746094 59.308594 50.632812 61.582031 48.570312 C 63.855469 46.511719 66.179688 44.507812 68.550781 42.558594 C 70.921875 40.613281 73.339844 38.726562 75.804688 36.898438 C 78.269531 35.070312 80.777344 33.304688 83.332031 31.597656 C 85.882812 29.894531 88.472656 28.253906 91.105469 26.675781 C 93.738281 25.097656 96.40625 23.585938 99.113281 22.140625 C 101.820312 20.691406 104.558594 19.3125 107.332031 18.003906 C 110.105469 16.691406 112.910156 15.445312 115.746094 14.273438 C 118.582031 13.097656 121.445312 11.996094 124.332031 10.960938 C 127.222656 9.925781 130.136719 8.964844 133.070312 8.074219 C 136.007812 7.183594 138.964844 6.363281 141.941406 5.617188 C 144.917969 4.875 147.910156 4.203125 150.921875 3.601562 C 153.929688 3.003906 156.953125 2.480469 159.988281 2.03125 C 163.023438 1.578125 166.066406 1.203125 169.121094 0.902344 C 172.175781 0.601562 175.234375 0.375 178.300781 0.226562 C 181.363281 0.0742188 184.429688 0 187.5 0 C 190.570312 0 193.636719 0.0742188 196.699219 0.226562 C 199.765625 0.375 202.824219 0.601562 205.878906 0.902344 C 208.933594 1.203125 211.976562 1.578125 215.011719 2.03125 C 218.046875 2.480469 221.070312 3.003906 224.078125 3.601562 C 227.089844 4.203125 230.082031 4.875 233.058594 5.617188 C 236.035156 6.363281 238.992188 7.183594 241.929688 8.074219 C 244.863281 8.964844 247.777344 9.925781 250.667969 10.960938 C 253.554688 11.996094 256.417969 13.097656 259.253906 14.273438 C 262.089844 15.445312 264.890625 16.691406 267.667969 18.003906 C 270.441406 19.3125 273.179688 20.691406 275.886719 22.140625 C 278.59375 23.585938 281.261719 25.097656 283.894531 26.675781 C 286.527344 28.253906 289.117188 29.894531 291.667969 31.597656 C 294.222656 33.304688 296.730469 35.070312 299.195312 36.898438 C 301.660156 38.726562 304.078125 40.613281 306.449219 42.558594 C 308.820312 44.507812 311.144531 46.511719 313.417969 48.570312 C 315.691406 50.632812 317.914062 52.746094 320.082031 54.917969 C 322.253906 57.085938 324.367188 59.308594 326.429688 61.582031 C 328.488281 63.855469 330.492188 66.179688 332.4375 68.550781 C 334.386719 70.921875 336.273438 73.339844 338.101562 75.804688 C 339.929688 78.269531 341.695312 80.777344 343.402344 83.332031 C 345.105469 85.882812 346.746094 88.472656 348.324219 91.105469 C 349.902344 93.738281 351.414062 96.40625 352.859375 99.113281 C 354.304688 101.820312 355.6875 104.558594 356.996094 107.332031 C 358.308594 110.105469 359.554688 112.910156 360.726562 115.746094 C 361.902344 118.582031 363.003906 121.445312 364.039062 124.332031 C 365.074219 127.222656 366.035156 130.136719 366.925781 133.070312 C 367.816406 136.007812 368.636719 138.964844 369.378906 141.941406 C 370.125 144.917969 370.796875 147.910156 371.398438 150.921875 C 371.996094 153.929688 372.519531 156.953125 372.96875 159.988281 C 373.421875 163.023438 373.796875 166.066406 374.097656 169.121094 C 374.398438 172.175781 374.625 175.234375 374.773438 178.300781 C 374.925781 181.363281 375 184.429688 375 187.5 Z M 375 187.5 " fill-opacity="1" fill-rule="nonzero"/><path fill="rgb(100%, 100%, 100%)" d="M 100.789062 81.296875 C 159.332031 33.535156 245.484375 42.269531 293.246094 100.792969 C 341.007812 159.320312 332.277344 245.488281 273.746094 293.25 C 215.214844 341.003906 129.050781 332.269531 81.296875 273.738281 C 33.535156 215.21875 42.265625 129.054688 100.789062 81.296875 Z M 100.789062 81.296875 " fill-opacity="1" fill-rule="evenodd"/><path fill="rgb(0%, 0%, 0%)" d="M 103.71875 84.882812 C 47.183594 131.007812 38.746094 214.28125 84.886719 270.820312 C 131.015625 327.355469 214.28125 335.792969 270.816406 289.65625 C 327.355469 243.527344 335.792969 160.261719 289.660156 103.726562 C 243.527344 47.183594 160.261719 38.746094 103.71875 84.882812 Z M 101.007812 81.550781 C 42.625 129.179688 33.917969 215.160156 81.550781 273.535156 C 129.1875 331.90625 215.15625 340.621094 273.527344 292.988281 C 331.910156 245.351562 340.625 159.378906 292.988281 101.007812 C 245.355469 42.632812 159.378906 33.917969 101.007812 81.550781 Z M 101.007812 81.550781 " fill-opacity="1" fill-rule="evenodd"/><path fill="rgb(0%, 0%, 0%)" d="M 64.972656 190.492188 C 65.460938 178.734375 66.777344 166.808594 68.925781 154.730469 C 71.070312 142.660156 74.050781 130.398438 77.855469 117.933594 L 83.511719 119.660156 C 79.773438 131.867188 76.859375 143.914062 74.75 155.777344 C 72.640625 167.628906 71.347656 179.285156 70.871094 190.730469 Z M 64.972656 190.492188 " fill-opacity="1" fill-rule="nonzero"/><path fill="rgb(0%, 0%, 0%)" d="M 118.292969 91.28125 C 127.445312 98.871094 136.40625 106.707031 145.121094 114.828125 C 153.824219 122.910156 162.207031 131.230469 170.226562 139.816406 L 165.894531 143.851562 C 157.9375 135.335938 149.648438 127.105469 141.085938 119.136719 C 132.546875 111.191406 123.667969 103.4375 114.5 95.835938 Z M 118.292969 91.28125 " fill-opacity="1" fill-rule="nonzero"/><path fill="rgb(0%, 0%, 0%)" d="M 196.585938 127.804688 C 201.796875 119.128906 207.140625 110.660156 212.675781 102.535156 C 218.292969 94.3125 224.128906 86.402344 230.273438 78.9375 L 234.847656 82.710938 C 228.765625 90.097656 223.039062 97.859375 217.558594 105.875 C 212.011719 113.992188 206.746094 122.355469 201.640625 130.859375 Z M 196.585938 127.804688 " fill-opacity="1" fill-rule="nonzero"/><path fill="rgb(0%, 0%, 0%)" d="M 272.824219 86.597656 C 279.011719 97.660156 285.082031 108.847656 290.875 120.292969 C 296.648438 131.722656 302.160156 143.414062 307.210938 155.523438 L 301.761719 157.816406 C 296.789062 145.914062 291.34375 134.335938 285.597656 122.976562 C 279.863281 111.652344 273.824219 100.523438 267.652344 89.5 Z M 272.824219 86.597656 " fill-opacity="1" fill-rule="nonzero"/><path fill="rgb(0%, 0%, 0%)" d="M 213.277344 167.746094 C 228.179688 170.367188 242.625 173.339844 256.613281 176.664062 C 270.628906 179.996094 284.210938 183.6875 297.335938 187.742188 L 295.589844 193.390625 C 282.574219 189.378906 269.121094 185.71875 255.246094 182.414062 C 241.335938 179.113281 227.011719 176.167969 212.265625 173.578125 Z M 213.277344 167.746094 " fill-opacity="1" fill-rule="nonzero"/><path fill="rgb(0%, 0%, 0%)" d="M 191.808594 203.246094 C 193.15625 216.210938 195.027344 228.371094 197.226562 240.046875 C 199.414062 251.667969 201.925781 262.863281 204.5625 273.90625 L 198.8125 275.292969 C 196.179688 264.234375 193.644531 252.972656 191.417969 241.140625 C 189.203125 229.351562 187.300781 217.039062 185.933594 203.859375 Z M 191.808594 203.246094 " fill-opacity="1" fill-rule="nonzero"/><path fill="rgb(0%, 0%, 0%)" d="M 151.132812 183.867188 C 141.570312 187.957031 131.851562 193.007812 122.015625 198.863281 C 112.15625 204.726562 102.234375 211.371094 92.285156 218.640625 L 88.777344 213.871094 C 98.9375 206.453125 109.019531 199.710938 118.972656 193.773438 C 128.949219 187.835938 138.902344 182.671875 148.804688 178.441406 Z M 151.132812 183.867188 " fill-opacity="1" fill-rule="nonzero"/><path fill="rgb(0%, 0%, 0%)" d="M 96.710938 252.109375 C 107.921875 260.265625 119.484375 267.898438 131.496094 274.890625 C 143.484375 281.886719 155.957031 288.269531 169.007812 293.933594 L 166.648438 299.363281 C 153.433594 293.621094 140.742188 287.128906 128.511719 279.996094 C 116.28125 272.867188 104.554688 265.125 93.230469 256.898438 Z M 96.710938 252.109375 " fill-opacity="1" fill-rule="nonzero"/><path fill="rgb(0%, 0%, 0%)" d="M 228.460938 285.796875 C 240.941406 277.488281 252.675781 268.640625 263.78125 259.332031 C 274.871094 250.039062 285.375 240.25 295.398438 230.066406 L 299.601562 234.226562 C 289.5 244.488281 278.867188 254.394531 267.570312 263.871094 C 256.289062 273.308594 244.390625 282.285156 231.75 290.703125 Z M 228.460938 285.796875 " fill-opacity="1" fill-rule="nonzero"/><path fill="rgb(0%, 0%, 0%)" d="M 69.886719 179.53125 C 64.429688 186.984375 58.976562 194.449219 53.527344 201.917969 C 56.554688 226.984375 64.992188 251.023438 83.066406 273.191406 C 92.160156 269.785156 101.191406 267.101562 110.144531 265.152344 C 106.683594 246.953125 104.339844 228.328125 103.945312 208.964844 C 91.742188 199.851562 80.492188 189.957031 69.886719 179.53125 Z M 69.886719 179.53125 " fill-opacity="1" fill-rule="evenodd"/><path fill="rgb(0%, 0%, 0%)" d="M 68.589844 126.867188 C 71.714844 127.832031 74.84375 128.792969 77.976562 129.757812 C 93.488281 115.738281 109.636719 108.253906 125.875 101.710938 C 131.738281 86.539062 138.050781 73.367188 144.429688 60.464844 C 106.40625 73.085938 82.617188 96.34375 68.589844 126.867188 Z M 68.589844 126.867188 " fill-opacity="1" fill-rule="evenodd"/><path fill="rgb(0%, 0%, 0%)" d="M 152.0625 127.039062 C 147.152344 145.921875 144.421875 164.726562 140.160156 184.441406 C 157.546875 194.550781 174.570312 204.164062 190.511719 214.140625 C 206.257812 196.921875 220.785156 185.40625 235.136719 174.703125 C 228.003906 154.882812 217.835938 136.488281 206.832031 118.488281 C 190.042969 119.550781 172.210938 121.886719 152.0625 127.039062 Z M 152.0625 127.039062 " fill-opacity="1" fill-rule="evenodd"/><path fill="rgb(0%, 0%, 0%)" d="M 226.40625 88.957031 C 218.644531 77.054688 210.007812 65.859375 201.417969 54.628906 C 234.230469 56.25 259.695312 71.574219 282.507812 91.875 C 280.378906 93.777344 278.253906 95.675781 276.128906 97.585938 C 260.757812 93.722656 244.996094 90.183594 226.40625 88.957031 Z M 226.40625 88.957031 " fill-opacity="1" fill-rule="evenodd"/><path fill="rgb(0%, 0%, 0%)" d="M 301.101562 148.492188 C 308.410156 152.734375 314.515625 157.957031 319.414062 164.171875 C 324.65625 187.511719 320.003906 213.394531 310.859375 240.433594 C 302.121094 241.203125 293.375 241.976562 284.632812 242.75 C 283.96875 223.011719 282.046875 203.742188 278.3125 185.164062 C 287.367188 173.089844 294.964844 160.863281 301.101562 148.492188 Z M 301.101562 148.492188 " fill-opacity="1" fill-rule="evenodd"/><path fill="rgb(0%, 0%, 0%)" d="M 198.1875 261.085938 C 214.164062 266.617188 230.898438 271.539062 249.289062 275.113281 C 248.011719 286.363281 243.070312 298.761719 236.464844 311.679688 C 215.957031 319.433594 195.863281 323.035156 176.296875 321.617188 C 168.742188 312.054688 161.847656 301.953125 155.894531 291.074219 C 171.492188 282.199219 186.023438 272.523438 198.1875 261.085938 Z M 198.1875 261.085938 " fill-opacity="1" fill-rule="evenodd"/></svg>