
<svg width="128" height="128" viewBox="0 0 128 128" fill="none" xmlns="http://www.w3.org/2000/svg">
<mask id="mask0_3393_19126" style="mask-type:alpha" maskUnits="userSpaceOnUse" x="0" y="0" width="128" height="128">
<path d="M64 128C99.3462 128 128 99.3462 128 64C128 28.6538 99.3462 0 64 0C28.6538 0 0 28.6538 0 64C0 99.3462 28.6538 128 64 128Z" fill="white"/>
</mask>
<g mask="url(#mask0_3393_19126)">
<path d="M64 128C99.3462 128 128 99.3462 128 64C128 28.6538 99.3462 0 64 0C28.6538 0 0 28.6538 0 64C0 99.3462 28.6538 128 64 128Z" fill="white"/>
<path d="M98.6892 171.06C70.3519 209.779 7.58087 212.041 -41.5128 176.111C-90.6066 140.181 -107.439 79.6632 -79.1016 40.9447C-50.7643 2.22622 12.0068 -0.0363141 61.1035 35.8938C110.2 71.824 127.027 132.339 98.6892 171.06Z" fill="url(#paint0_radial_3393_19126)"/>
<path d="M172.187 -55.0853C224.655 -10.5737 237.215 60.8419 200.242 104.425C163.269 148.008 90.7598 147.26 38.2918 102.748C-14.1762 58.2368 -26.7358 -13.1788 10.237 -56.7619C47.2097 -100.345 119.719 -99.5968 172.187 -55.0853Z" fill="url(#paint1_radial_3393_19126)"/>
<path d="M100.041 39.7316C99.861 38.3224 99.1459 37.0424 98.0221 36.174C93.9958 33.0702 82.7492 25.937 64.4326 25.937C46.116 25.937 34.8694 33.0702 30.8431 36.174C29.7194 37.0424 29.0043 38.3224 28.824 39.7316C27.7543 48.1026 26.1138 78.9879 56.7707 95.682C61.5301 98.272 67.3352 98.272 72.0946 95.682C102.751 78.9879 101.111 48.1026 100.041 39.7316Z" fill="url(#paint2_linear_3393_19126)"/>
<path d="M80.2434 59.818C79.9609 58.9136 79.5733 58.1023 79.0926 57.4082C78.6178 56.7141 78.056 56.1102 77.428 55.6054C76.812 55.1156 76.151 54.701 75.4569 54.3705C74.7718 54.046 74.0717 53.8026 73.3746 53.6463C72.6745 53.4931 72.0075 53.406 71.3465 53.3909H57.7623C56.7557 53.3909 55.9955 53.1085 55.4426 52.5286C54.8928 51.9487 54.6133 51.1434 54.6133 50.1339C54.6133 49.1363 54.8928 48.325 55.4456 47.7271C56.0015 47.1261 56.7617 46.8347 57.7623 46.8347H78.2963C79.1196 46.8347 79.7837 46.1677 79.7837 45.3474V42.1714C79.7837 41.3511 79.1136 40.6841 78.2963 40.6841H57.7623C56.8248 40.6841 55.8092 40.8523 54.7365 41.1859C53.6518 41.5194 52.6362 42.0662 51.7138 42.8114C50.7884 43.5596 50.0071 44.5421 49.3912 45.735C48.7752 46.9308 48.4627 48.4122 48.4627 50.1369C48.4627 51.8616 48.7752 53.3429 49.3912 54.5477C50.0071 55.7466 50.7884 56.7292 51.7138 57.4713C52.6392 58.2105 53.6548 58.7543 54.7365 59.0878C55.8062 59.4184 56.8248 59.5866 57.7623 59.5866H71.3465C71.8272 59.5866 72.2719 59.6677 72.6715 59.83C73.0592 59.9862 73.3927 60.2146 73.6631 60.5031C73.9395 60.7975 74.1438 61.14 74.2971 61.5457C74.4443 61.9513 74.5194 62.402 74.5194 62.8888C74.5194 63.8863 74.24 64.6886 73.6871 65.2715C73.1313 65.8604 72.3681 66.1459 71.3495 66.1459H48.1352C47.0866 66.1459 46.4045 67.2456 46.8702 68.1831L48.5168 71.5123C48.7542 71.993 49.2469 72.2995 49.7818 72.2995H71.3495C71.9715 72.2995 72.6415 72.2244 73.3386 72.0771C74.0387 71.9299 74.7418 71.6985 75.4208 71.3861C76.0999 71.0766 76.7669 70.6739 77.4009 70.1872C78.0409 69.6944 78.6088 69.0905 79.0836 68.3904C79.5553 67.6963 79.9399 66.885 80.2314 65.9716C80.5198 65.0552 80.667 64.0185 80.667 62.8888C80.667 61.759 80.5288 60.7254 80.2434 59.818Z" fill="url(#paint3_linear_3393_19126)"/>
<path d="M65.5473 51.0832C70.5373 51.0832 74.5824 47.1363 74.5824 42.2674C74.5824 37.3986 70.5373 33.4517 65.5473 33.4517C60.5574 33.4517 56.5122 37.3986 56.5122 42.2674C56.5122 47.1363 60.5574 51.0832 65.5473 51.0832Z" fill="url(#paint4_linear_3393_19126)"/>
</g>
<defs>
<radialGradient id="paint0_radial_3393_19126" cx="0" cy="0" r="1" gradientUnits="userSpaceOnUse" gradientTransform="translate(9.79437 106.002) rotate(36.1991) scale(110.159 86.8772)">
<stop stop-color="#88F5F8" stop-opacity="0.7"/>
<stop offset="0.7282" stop-color="#88F5F8" stop-opacity="0"/>
</radialGradient>
<radialGradient id="paint1_radial_3393_19126" cx="0" cy="0" r="1" gradientUnits="userSpaceOnUse" gradientTransform="translate(105.239 23.8315) rotate(-49.6886) scale(103.488 124.582)">
<stop stop-color="#B4A7FE" stop-opacity="0.7"/>
<stop offset="0.4628" stop-color="#B4A7FE" stop-opacity="0"/>
</radialGradient>
<linearGradient id="paint2_linear_3393_19126" x1="38.9624" y1="26.5177" x2="120.679" y2="115.08" gradientUnits="userSpaceOnUse">
<stop stop-color="#8697FF"/>
<stop offset="0.2873" stop-color="#7A7BF5"/>
<stop offset="0.7565" stop-color="#6853E7"/>
<stop offset="1" stop-color="#6144E1"/>
</linearGradient>
<linearGradient id="paint3_linear_3393_19126" x1="51.0129" y1="43.4501" x2="77.6196" y2="70.0568" gradientUnits="userSpaceOnUse">
<stop offset="2.59639e-07" stop-color="#AFFFFF"/>
<stop offset="0.6776" stop-color="#5ADFE6"/>
<stop offset="1" stop-color="#36D1DC"/>
</linearGradient>
<linearGradient id="paint4_linear_3393_19126" x1="71.859" y1="48.5792" x2="59.2356" y2="35.9557" gradientUnits="userSpaceOnUse">
<stop stop-color="#F7971E"/>
<stop offset="0.161" stop-color="#F9A616"/>
<stop offset="0.4715" stop-color="#FCBE0A"/>
<stop offset="0.7592" stop-color="#FECD03"/>
<stop offset="1" stop-color="#FFD200"/>
</linearGradient>
</defs>
</svg>
