<svg xmlns="http://www.w3.org/2000/svg" width="375" viewBox="0 0 375 375" height="375" version="1.0"><defs><clipPath id="a"><path d="M 3.550781 3.550781 L 371.800781 3.550781 L 371.800781 371.800781 L 3.550781 371.800781 Z M 3.550781 3.550781"/></clipPath></defs><g clip-path="url(#a)"><path fill="#FFF" d="M 371.800781 187.675781 C 371.800781 190.691406 371.726562 193.699219 371.578125 196.710938 C 371.429688 199.71875 371.210938 202.726562 370.914062 205.722656 C 370.617188 208.722656 370.25 211.710938 369.808594 214.691406 C 369.367188 217.671875 368.851562 220.640625 368.261719 223.597656 C 367.675781 226.550781 367.015625 229.492188 366.28125 232.414062 C 365.550781 235.339844 364.746094 238.242188 363.871094 241.125 C 362.996094 244.007812 362.054688 246.867188 361.039062 249.707031 C 360.023438 252.542969 358.9375 255.355469 357.785156 258.136719 C 356.632812 260.921875 355.410156 263.675781 354.125 266.398438 C 352.835938 269.125 351.480469 271.816406 350.058594 274.472656 C 348.640625 277.128906 347.15625 279.75 345.605469 282.335938 C 344.054688 284.921875 342.445312 287.464844 340.769531 289.96875 C 339.097656 292.476562 337.363281 294.9375 335.566406 297.359375 C 333.773438 299.78125 331.917969 302.15625 330.007812 304.484375 C 328.09375 306.8125 326.128906 309.09375 324.105469 311.328125 C 322.082031 313.558594 320.003906 315.742188 317.871094 317.871094 C 315.742188 320.003906 313.558594 322.082031 311.328125 324.105469 C 309.09375 326.128906 306.8125 328.09375 304.484375 330.007812 C 302.15625 331.917969 299.78125 333.773438 297.359375 335.566406 C 294.9375 337.363281 292.476562 339.097656 289.96875 340.769531 C 287.464844 342.445312 284.917969 344.054688 282.335938 345.605469 C 279.75 347.15625 277.128906 348.640625 274.472656 350.058594 C 271.816406 351.480469 269.125 352.835938 266.398438 354.125 C 263.675781 355.410156 260.921875 356.632812 258.136719 357.785156 C 255.355469 358.9375 252.542969 360.023438 249.707031 361.039062 C 246.867188 362.054688 244.007812 363 241.125 363.871094 C 238.242188 364.746094 235.335938 365.550781 232.414062 366.28125 C 229.492188 367.015625 226.550781 367.675781 223.597656 368.261719 C 220.640625 368.851562 217.671875 369.367188 214.691406 369.808594 C 211.710938 370.25 208.722656 370.621094 205.722656 370.914062 C 202.726562 371.210938 199.71875 371.429688 196.710938 371.578125 C 193.699219 371.726562 190.691406 371.800781 187.675781 371.800781 C 184.664062 371.800781 181.652344 371.726562 178.640625 371.578125 C 175.632812 371.429688 172.628906 371.210938 169.628906 370.914062 C 166.628906 370.621094 163.640625 370.25 160.660156 369.808594 C 157.679688 369.367188 154.710938 368.851562 151.753906 368.261719 C 148.800781 367.675781 145.859375 367.015625 142.9375 366.28125 C 140.015625 365.550781 137.109375 364.746094 134.226562 363.871094 C 131.34375 363 128.484375 362.054688 125.644531 361.039062 C 122.808594 360.023438 120 358.9375 117.214844 357.785156 C 114.429688 356.632812 111.675781 355.410156 108.953125 354.125 C 106.226562 352.835938 103.539062 351.480469 100.878906 350.058594 C 98.222656 348.640625 95.601562 347.15625 93.015625 345.605469 C 90.433594 344.054688 87.886719 342.445312 85.382812 340.769531 C 82.875 339.097656 80.414062 337.363281 77.992188 335.566406 C 75.574219 333.773438 73.199219 331.917969 70.867188 330.007812 C 68.539062 328.09375 66.257812 326.128906 64.023438 324.105469 C 61.792969 322.082031 59.609375 320.003906 57.480469 317.871094 C 55.347656 315.742188 53.273438 313.558594 51.25 311.328125 C 49.226562 309.09375 47.257812 306.8125 45.34375 304.484375 C 43.433594 302.15625 41.582031 299.78125 39.785156 297.359375 C 37.992188 294.9375 36.257812 292.476562 34.582031 289.96875 C 32.90625 287.464844 31.296875 284.921875 29.746094 282.335938 C 28.199219 279.75 26.710938 277.128906 25.292969 274.472656 C 23.871094 271.816406 22.515625 269.125 21.230469 266.398438 C 19.941406 263.675781 18.71875 260.921875 17.566406 258.136719 C 16.414062 255.355469 15.328125 252.542969 14.3125 249.707031 C 13.300781 246.867188 12.355469 244.007812 11.480469 241.125 C 10.605469 238.242188 9.800781 235.339844 9.070312 232.414062 C 8.335938 229.492188 7.675781 226.550781 7.089844 223.597656 C 6.5 220.640625 5.984375 217.671875 5.542969 214.691406 C 5.101562 211.710938 4.734375 208.722656 4.4375 205.722656 C 4.140625 202.726562 3.921875 199.71875 3.773438 196.710938 C 3.625 193.699219 3.550781 190.691406 3.550781 187.675781 C 3.550781 184.664062 3.625 181.652344 3.773438 178.640625 C 3.921875 175.632812 4.140625 172.628906 4.4375 169.628906 C 4.734375 166.628906 5.101562 163.640625 5.542969 160.660156 C 5.984375 157.679688 6.5 154.710938 7.089844 151.753906 C 7.675781 148.800781 8.335938 145.859375 9.070312 142.9375 C 9.800781 140.015625 10.605469 137.109375 11.480469 134.226562 C 12.355469 131.34375 13.300781 128.484375 14.3125 125.644531 C 15.328125 122.808594 16.414062 120 17.566406 117.214844 C 18.71875 114.429688 19.941406 111.675781 21.230469 108.953125 C 22.515625 106.230469 23.871094 103.539062 25.292969 100.878906 C 26.710938 98.222656 28.199219 95.601562 29.746094 93.015625 C 31.296875 90.433594 32.90625 87.886719 34.582031 85.382812 C 36.257812 82.875 37.992188 80.414062 39.785156 77.992188 C 41.582031 75.574219 43.433594 73.199219 45.34375 70.867188 C 47.257812 68.539062 49.226562 66.257812 51.25 64.027344 C 53.273438 61.792969 55.347656 59.609375 57.480469 57.480469 C 59.609375 55.347656 61.792969 53.273438 64.023438 51.25 C 66.257812 49.226562 68.539062 47.257812 70.867188 45.34375 C 73.199219 43.433594 75.574219 41.582031 77.992188 39.785156 C 80.414062 37.992188 82.875 36.257812 85.382812 34.582031 C 87.886719 32.90625 90.433594 31.296875 93.015625 29.746094 C 95.601562 28.199219 98.222656 26.714844 100.878906 25.292969 C 103.539062 23.871094 106.226562 22.519531 108.953125 21.230469 C 111.675781 19.941406 114.429688 18.71875 117.214844 17.566406 C 120 16.414062 122.808594 15.328125 125.644531 14.3125 C 128.484375 13.300781 131.34375 12.355469 134.226562 11.480469 C 137.109375 10.605469 140.015625 9.800781 142.9375 9.070312 C 145.859375 8.335938 148.800781 7.675781 151.753906 7.089844 C 154.710938 6.5 157.679688 5.984375 160.660156 5.542969 C 163.640625 5.101562 166.628906 4.734375 169.628906 4.4375 C 172.628906 4.140625 175.632812 3.921875 178.640625 3.773438 C 181.652344 3.625 184.664062 3.550781 187.675781 3.550781 C 190.691406 3.550781 193.699219 3.625 196.710938 3.773438 C 199.71875 3.921875 202.726562 4.140625 205.722656 4.4375 C 208.722656 4.734375 211.710938 5.101562 214.691406 5.542969 C 217.671875 5.984375 220.640625 6.5 223.597656 7.089844 C 226.550781 7.675781 229.492188 8.335938 232.414062 9.070312 C 235.335938 9.800781 238.242188 10.605469 241.125 11.480469 C 244.007812 12.355469 246.867188 13.300781 249.707031 14.3125 C 252.542969 15.328125 255.355469 16.414062 258.136719 17.566406 C 260.921875 18.71875 263.675781 19.941406 266.398438 21.230469 C 269.125 22.519531 271.816406 23.871094 274.472656 25.292969 C 277.128906 26.714844 279.75 28.199219 282.335938 29.746094 C 284.921875 31.296875 287.464844 32.90625 289.96875 34.582031 C 292.476562 36.257812 294.9375 37.992188 297.359375 39.785156 C 299.78125 41.582031 302.15625 43.433594 304.484375 45.34375 C 306.8125 47.257812 309.09375 49.226562 311.328125 51.25 C 313.558594 53.273438 315.742188 55.347656 317.871094 57.480469 C 320.003906 59.609375 322.082031 61.792969 324.105469 64.027344 C 326.128906 66.257812 328.09375 68.539062 330.007812 70.867188 C 331.917969 73.199219 333.773438 75.574219 335.566406 77.992188 C 337.363281 80.414062 339.097656 82.875 340.769531 85.382812 C 342.445312 87.886719 344.054688 90.433594 345.605469 93.015625 C 347.15625 95.601562 348.640625 98.222656 350.058594 100.878906 C 351.480469 103.539062 352.835938 106.230469 354.125 108.953125 C 355.410156 111.675781 356.632812 114.429688 357.785156 117.214844 C 358.9375 120 360.023438 122.808594 361.039062 125.644531 C 362.054688 128.484375 362.996094 131.34375 363.871094 134.226562 C 364.746094 137.109375 365.550781 140.015625 366.28125 142.9375 C 367.015625 145.859375 367.675781 148.800781 368.261719 151.753906 C 368.851562 154.710938 369.367188 157.679688 369.808594 160.660156 C 370.25 163.640625 370.617188 166.628906 370.914062 169.628906 C 371.210938 172.628906 371.429688 175.632812 371.578125 178.640625 C 371.726562 181.652344 371.800781 184.664062 371.800781 187.675781 Z M 371.800781 187.675781"/></g><path fill="#35302A" d="M 375 187.839844 C 375 214.226562 369.527344 239.441406 359.652344 262.269531 C 356.507812 269.550781 352.917969 276.589844 348.917969 283.335938 C 347.527344 285.6875 346.085938 287.996094 344.59375 290.285156 C 331.109375 310.949219 313.6875 328.769531 293.355469 342.710938 C 291.160156 344.203125 288.933594 345.664062 286.671875 347.070312 L 286.660156 347.082031 C 284.652344 348.339844 282.613281 349.554688 280.550781 350.738281 C 277.261719 352.625 273.695312 353.605469 270.164062 353.75 C 257.703125 353.570312 247.660156 343.421875 247.660156 330.898438 L 247.660156 323.269531 C 249.421875 318.285156 252.898438 313.890625 257.847656 311.058594 C 271.175781 303.421875 283.179688 293.652344 293.355469 282.230469 C 295.398438 279.957031 297.347656 277.613281 299.230469 275.207031 C 305.953125 266.617188 311.691406 257.238281 316.304688 247.246094 C 319.472656 240.410156 322.089844 233.285156 324.140625 225.914062 C 327.496094 213.8125 329.292969 201.066406 329.300781 187.839844 C 329.292969 173.097656 327.0625 158.957031 322.925781 145.640625 C 318.792969 132.324219 312.738281 119.859375 305.09375 108.527344 C 289.800781 85.867188 268.101562 67.855469 242.6875 57.09375 C 225.738281 49.925781 207.132812 45.964844 187.496094 45.953125 C 172.761719 45.964844 158.628906 48.195312 145.320312 52.332031 C 132.023438 56.46875 119.550781 62.527344 108.226562 70.175781 C 85.589844 85.476562 67.578125 107.1875 56.832031 132.617188 C 53.777344 139.855469 51.292969 147.414062 49.457031 155.222656 C 47.003906 165.671875 45.699219 176.589844 45.699219 187.839844 C 45.699219 209.429688 50.480469 229.761719 59.050781 248.039062 C 64.414062 259.46875 59.496094 273.074219 48.074219 278.441406 C 36.648438 283.804688 23.039062 278.898438 17.679688 267.464844 C 8.816406 248.585938 3.011719 227.953125 0.894531 206.296875 C 0.300781 200.21875 0 194.0625 0 187.839844 C 0 171.425781 2.109375 155.457031 6.097656 140.242188 C 6.8125 137.488281 7.589844 134.757812 8.425781 132.058594 C 13.910156 114.414062 21.925781 97.898438 32.035156 82.933594 C 52.242188 53 80.828125 29.246094 114.5 14.984375 C 136.949219 5.484375 161.671875 0.230469 187.496094 0.230469 C 206.867188 0.230469 225.613281 3.183594 243.246094 8.671875 C 260.878906 14.160156 277.386719 22.175781 292.34375 32.292969 C 322.257812 52.511719 346 81.117188 360.253906 114.804688 C 369.75 137.265625 375 162 375 187.839844"/><path fill="#808080" d="M 329.304688 187.84375 C 329.296875 201.070312 327.5 213.816406 324.144531 225.917969 C 322.09375 233.289062 319.476562 240.414062 316.308594 247.25 C 318.773438 236.800781 320.066406 225.894531 320.078125 214.640625 C 320.066406 199.898438 317.835938 185.757812 313.703125 172.441406 C 309.566406 159.128906 303.515625 146.660156 295.871094 135.328125 C 280.578125 112.667969 258.875 94.65625 233.464844 83.894531 C 216.511719 76.726562 197.910156 72.765625 178.269531 72.753906 C 163.535156 72.765625 149.402344 74.996094 136.09375 79.132812 C 122.796875 83.269531 110.324219 89.328125 99 96.976562 C 77.613281 111.429688 60.359375 131.605469 49.460938 155.226562 C 51.296875 147.417969 53.78125 139.855469 56.835938 132.617188 C 67.582031 107.191406 85.59375 85.480469 108.230469 70.179688 C 119.554688 62.527344 132.027344 56.472656 145.324219 52.335938 C 158.632812 48.199219 172.765625 45.96875 187.5 45.957031 C 207.136719 45.96875 225.742188 49.925781 242.691406 57.097656 C 268.105469 67.859375 289.804688 85.871094 305.097656 108.53125 C 312.742188 119.859375 318.796875 132.328125 322.929688 145.644531 C 327.066406 158.960938 329.296875 173.101562 329.304688 187.84375"/><path fill="#35302A" d="M 293.355469 162.914062 L 293.355469 330.898438 C 293.355469 337.210938 290.804688 342.933594 286.667969 347.070312 L 286.660156 347.082031 C 284.652344 348.339844 282.613281 349.554688 280.550781 350.738281 C 277.261719 352.621094 273.695312 353.605469 270.164062 353.75 C 257.703125 353.570312 247.660156 343.421875 247.660156 330.898438 L 247.660156 162.914062 C 247.660156 150.292969 257.890625 140.054688 270.507812 140.054688 C 283.136719 140.054688 293.355469 150.292969 293.355469 162.914062"/><path fill="#35302A" d="M 210.347656 330.90625 L 210.347656 214.605469 C 210.347656 201.980469 200.117188 191.746094 187.5 191.746094 C 174.878906 191.746094 164.652344 201.980469 164.652344 214.605469 L 164.652344 330.90625 C 164.652344 343.535156 174.878906 353.769531 187.5 353.769531 C 200.117188 353.769531 210.347656 343.535156 210.347656 330.90625"/><path fill="#35302A" d="M 127.332031 330.90625 L 127.332031 266.289062 C 127.332031 253.664062 117.101562 243.429688 104.484375 243.429688 C 91.863281 243.429688 81.632812 253.664062 81.632812 266.289062 L 81.632812 330.90625 C 81.632812 343.535156 91.863281 353.769531 104.484375 353.769531 C 117.101562 353.769531 127.332031 343.535156 127.332031 330.90625"/><path fill="#808080" d="M 232.710938 119.433594 C 232.710938 119.324219 232.703125 119.210938 232.703125 119.097656 C 232.679688 118.875 232.667969 118.664062 232.644531 118.441406 C 232.601562 118.085938 232.558594 117.71875 232.488281 117.359375 C 232.410156 116.980469 232.3125 116.613281 232.199219 116.246094 C 232.175781 116.15625 232.144531 116.066406 232.109375 115.988281 C 232.089844 115.910156 232.054688 115.832031 232.03125 115.753906 C 231.820312 115.117188 231.542969 114.515625 231.21875 113.925781 C 231.195312 113.867188 231.175781 113.824219 231.140625 113.769531 C 231.109375 113.714844 231.0625 113.644531 231.019531 113.578125 C 229.582031 111.136719 227.328125 109.164062 224.664062 108.148438 C 220.753906 106.566406 216.0625 107.066406 212.515625 109.453125 C 208.9375 111.792969 206.609375 116.011719 206.699219 120.382812 C 206.730469 124.707031 209.238281 129.09375 213.296875 130.929688 C 213.488281 131.019531 213.730469 130.988281 213.886719 130.832031 C 214.101562 130.617188 214.101562 130.285156 213.886719 130.074219 C 211.167969 127.351562 209.742188 123.257812 210.621094 119.488281 C 211.445312 115.710938 214.613281 112.5625 218.433594 111.828125 C 220.339844 111.449219 222.371094 111.640625 224.175781 112.386719 C 225.980469 113.15625 227.574219 114.425781 228.710938 116.054688 C 231.019531 119.300781 231.261719 123.828125 229.59375 127.472656 L 229.601562 127.550781 L 229.691406 127.542969 C 230.972656 126.226562 231.910156 124.574219 232.355469 122.800781 C 232.5 122.253906 232.589844 121.699219 232.65625 121.128906 C 232.65625 121.117188 232.667969 121.105469 232.667969 121.09375 C 232.667969 121.027344 232.667969 120.960938 232.679688 120.894531 C 232.703125 120.628906 232.734375 120.359375 232.734375 120.082031 C 232.734375 119.867188 232.722656 119.644531 232.710938 119.433594"/><path fill="#808080" d="M 173.160156 103.789062 C 173.0625 103.597656 172.949219 103.417969 172.839844 103.242188 C 172.828125 103.21875 172.804688 103.195312 172.792969 103.175781 C 172.671875 102.972656 172.527344 102.785156 172.382812 102.59375 C 172.382812 102.582031 172.371094 102.570312 172.371094 102.5625 C 170.921875 100.675781 168.738281 99.347656 166.375 98.96875 C 163.53125 98.523438 160.445312 99.328125 158.261719 101.300781 C 156.0625 103.242188 154.769531 106.273438 155.082031 109.273438 C 155.328125 112.253906 157.269531 115.175781 160.175781 116.277344 C 160.34375 116.34375 160.554688 116.3125 160.699219 116.175781 C 160.914062 115.988281 160.933594 115.664062 160.757812 115.453125 C 159.085938 113.511719 158.28125 110.835938 158.863281 108.382812 C 159.394531 105.917969 161.480469 103.875 163.964844 103.386719 C 166.441406 102.851562 169.214844 103.957031 170.710938 106.105469 C 172.269531 108.226562 172.527344 111.160156 171.632812 113.679688 L 171.65625 113.78125 L 171.789062 113.78125 C 172.457031 113.167969 173.027344 112.429688 173.441406 111.617188 C 173.832031 110.800781 174.085938 109.921875 174.210938 109.019531 C 174.421875 107.210938 174.03125 105.371094 173.160156 103.789062"/><path fill="#808080" d="M 134.765625 144.539062 C 134.441406 143.132812 133.875 141.804688 133.171875 140.554688 C 132.957031 140.164062 132.714844 139.796875 132.457031 139.441406 C 132.414062 139.375 132.367188 139.308594 132.3125 139.25 C 132.265625 139.195312 132.222656 139.128906 132.179688 139.074219 C 132.121094 138.972656 132.042969 138.882812 131.976562 138.792969 C 131.890625 138.695312 131.8125 138.59375 131.722656 138.492188 C 131.386719 138.089844 131.03125 137.703125 130.652344 137.34375 C 130.550781 137.246094 130.460938 137.144531 130.363281 137.054688 C 130.328125 137.019531 130.296875 136.996094 130.261719 136.964844 C 128.089844 135.011719 125.335938 133.6875 122.425781 133.273438 C 117.988281 132.648438 113.253906 134.011719 109.921875 137.109375 C 108.257812 138.648438 106.910156 140.542969 106.097656 142.675781 C 105.25 144.804688 104.9375 147.125 105.105469 149.410156 C 105.207031 150.570312 105.484375 151.675781 105.828125 152.769531 C 106.175781 153.859375 106.699219 154.929688 107.335938 155.878906 C 108.582031 157.820312 110.386719 159.425781 112.460938 160.460938 C 112.652344 160.5625 112.894531 160.519531 113.050781 160.363281 C 113.242188 160.148438 113.230469 159.839844 113.03125 159.648438 C 111.335938 158.042969 110.042969 156.011719 109.328125 153.804688 C 108.625 151.585938 108.472656 149.1875 108.984375 146.933594 C 109.21875 145.808594 109.675781 144.738281 110.234375 143.699219 C 110.769531 142.71875 111.523438 141.75 112.328125 140.9375 C 113.152344 140.15625 114.121094 139.429688 115.125 138.90625 C 116.152344 138.382812 117.289062 137.992188 118.414062 137.757812 C 119.550781 137.546875 120.742188 137.488281 121.890625 137.589844 C 123.039062 137.710938 124.210938 138.023438 125.28125 138.460938 C 127.441406 139.375 129.359375 140.914062 130.707031 142.855469 C 133.425781 146.765625 133.660156 152.175781 131.578125 156.503906 L 131.597656 156.605469 L 131.722656 156.605469 C 132.691406 155.535156 133.492188 154.316406 134.0625 152.992188 C 134.609375 151.664062 134.953125 150.246094 135.085938 148.820312 C 135.175781 147.382812 135.066406 145.941406 134.765625 144.539062"/><path fill="#808080" d="M 93.144531 190.160156 C 92.800781 188.820312 91.996094 187.617188 90.9375 186.746094 C 90.792969 186.636719 90.660156 186.523438 90.515625 186.433594 C 90.449219 186.390625 90.394531 186.347656 90.328125 186.3125 C 90.269531 186.28125 90.203125 186.234375 90.148438 186.203125 C 90.125 186.179688 90.09375 186.15625 90.070312 186.144531 C 90.023438 186.121094 89.980469 186.101562 89.949219 186.078125 C 88.363281 185.175781 86.4375 184.894531 84.652344 185.308594 C 82.480469 185.8125 80.484375 187.316406 79.503906 189.402344 C 78.5 191.464844 78.476562 194.050781 79.660156 196.136719 C 80.773438 198.199219 83.148438 199.726562 85.679688 199.394531 C 85.835938 199.371094 85.980469 199.28125 86.066406 199.125 C 86.226562 198.871094 86.136719 198.546875 85.878906 198.390625 L 85.867188 198.378906 C 84.40625 197.5 83.257812 196.070312 83.003906 194.410156 C 82.714844 192.769531 83.394531 190.996094 84.777344 190.027344 C 86.136719 189.023438 88.121094 188.957031 89.644531 189.835938 C 91.183594 190.707031 92.210938 192.390625 92.511719 194.175781 L 92.511719 194.1875 L 92.554688 194.253906 L 92.699219 194.21875 C 93.402344 192.980469 93.480469 191.496094 93.144531 190.160156"/></svg>