<svg xmlns="http://www.w3.org/2000/svg" width="375" viewBox="0 0 375 375" height="375" version="1.0"><path transform="matrix(2.04954 0 0 2.04974 -34.114 -7.83)" fill="none" d="M 59.539363 56.99036 L 59.529833 56.999888" stroke="#FFF1AA" stroke-width=".25" stroke-miterlimit="10"/><path transform="matrix(2.04954 0 0 2.04974 -34.114 -7.83)" fill="none" d="M 105.060271 128.310447 L 104.999282 129.000321" stroke="#FFF1AA" stroke-width=".25" stroke-miterlimit="10"/><path transform="matrix(2.04954 0 0 2.04974 -34.114 -7.83)" fill="none" d="M 105.969393 115.730715 C 106.097089 116.012763 106.146643 116.310057 106.11996 116.620691 L 105.969393 118.330132" stroke="#FFF1AA" stroke-width=".25" stroke-miterlimit="10"/><path transform="matrix(2.04954 0 0 2.04974 -34.114 -7.83)" fill="none" d="M 138.000224 163.000473 C 137.859187 162.97951 137.720055 162.969981 137.580923 162.950924" stroke="#FFF1AA" stroke-width=".25" stroke-miterlimit="10"/><path transform="matrix(2.04954 0 0 2.04974 -34.114 -7.83)" fill="none" d="M 124.359581 109.71051 C 124.359581 109.71051 123.839265 110.310815 122.989227 111.370401" stroke="#FFF1AA" stroke-width=".25" stroke-miterlimit="10"/><path transform="matrix(2.04954 0 0 2.04974 -34.114 -7.83)" fill="none" d="M 157.880839 94.08923 C 158.555533 94.094948 159.228322 94.138779 159.899204 94.220726" stroke="#FFF1AA" stroke-width=".25" stroke-miterlimit="10"/><path transform="matrix(2.04954 0 0 2.04974 -34.114 -7.83)" fill="none" d="M 147.890025 148.05954 L 147.769952 142.410952" stroke="#FFF1AA" stroke-width=".25" stroke-miterlimit="10"/><path transform="matrix(2.04954 0 0 2.04974 -34.114 -7.83)" fill="none" d="M 148.980209 131.910373 L 148.429399 136.71091" stroke="#FFF1AA" stroke-width=".25" stroke-miterlimit="10"/><path transform="matrix(2.04954 0 0 2.04974 -34.114 -7.83)" fill="none" d="M 43.520135 148.730357 L 43.510606 148.730357" stroke="#A4ECFF" stroke-width=".25" stroke-miterlimit="10"/><path transform="matrix(2.04954 0 0 2.04974 -34.114 -7.83)" fill="none" d="M 147.880495 54.549118 C 147.198177 56.546324 146.260466 58.413941 145.071174 60.155779 C 143.881883 61.897618 142.481034 63.448883 140.870535 64.809575" stroke="#A4ECFF" stroke-width=".25" stroke-miterlimit="10"/><path d="M 373.703125 183.347656 C 371.859375 83.628906 290.492188 2.253906 190.78125 0.410156 C 187.65625 0.347656 184.53125 0.367188 181.40625 0.464844 C 178.28125 0.5625 175.160156 0.738281 172.046875 0.992188 C 168.929688 1.25 165.820312 1.582031 162.722656 1.992188 C 159.625 2.402344 156.535156 2.890625 153.460938 3.457031 C 150.386719 4.023438 147.328125 4.664062 144.289062 5.386719 C 141.246094 6.105469 138.222656 6.902344 135.21875 7.773438 C 132.21875 8.644531 129.238281 9.589844 126.285156 10.613281 C 123.332031 11.632812 120.402344 12.730469 117.503906 13.898438 C 114.605469 15.066406 111.738281 16.308594 108.898438 17.621094 C 106.0625 18.933594 103.261719 20.316406 100.492188 21.773438 C 97.726562 23.226562 94.996094 24.75 92.304688 26.339844 C 89.613281 27.933594 86.964844 29.589844 84.355469 31.3125 C 81.75 33.039062 79.1875 34.828125 76.667969 36.679688 C 74.152344 38.535156 71.683594 40.449219 69.261719 42.429688 C 66.839844 44.40625 64.46875 46.441406 62.148438 48.539062 C 59.832031 50.636719 57.566406 52.789062 55.355469 55 C 53.144531 57.210938 50.992188 59.476562 48.894531 61.796875 C 46.796875 64.113281 44.761719 66.484375 42.785156 68.90625 C 40.804688 71.328125 38.890625 73.796875 37.039062 76.316406 C 35.183594 78.835938 33.394531 81.398438 31.671875 84.003906 C 29.945312 86.613281 28.289062 89.261719 26.699219 91.953125 C 25.105469 94.644531 23.585938 97.375 22.128906 100.140625 C 20.675781 102.910156 19.292969 105.710938 17.980469 108.550781 C 16.667969 111.386719 15.425781 114.257812 14.257812 117.15625 C 13.089844 120.054688 11.992188 122.984375 10.972656 125.9375 C 9.949219 128.894531 9.003906 131.871094 8.132812 134.875 C 7.261719 137.875 6.464844 140.898438 5.746094 143.941406 C 5.023438 146.984375 4.382812 150.042969 3.816406 153.117188 C 3.25 156.191406 2.761719 159.28125 2.351562 162.378906 C 1.941406 165.476562 1.609375 168.585938 1.355469 171.703125 C 1.097656 174.816406 0.921875 177.9375 0.824219 181.0625 C 0.726562 184.1875 0.710938 187.3125 0.769531 190.441406 C 2.613281 290.160156 83.980469 371.535156 183.691406 373.378906 C 186.816406 373.4375 189.941406 373.421875 193.066406 373.324219 C 196.191406 373.226562 199.3125 373.050781 202.425781 372.792969 C 205.542969 372.539062 208.648438 372.207031 211.75 371.796875 C 214.847656 371.386719 217.933594 370.898438 221.007812 370.332031 C 224.085938 369.765625 227.140625 369.121094 230.183594 368.402344 C 233.226562 367.683594 236.25 366.886719 239.25 366.015625 C 242.253906 365.144531 245.230469 364.195312 248.1875 363.175781 C 251.140625 362.152344 254.066406 361.058594 256.96875 359.890625 C 259.867188 358.722656 262.734375 357.480469 265.574219 356.167969 C 268.410156 354.855469 271.210938 353.46875 273.980469 352.015625 C 276.746094 350.5625 279.476562 349.039062 282.167969 347.449219 C 284.859375 345.855469 287.507812 344.199219 290.117188 342.472656 C 292.722656 340.75 295.285156 338.960938 297.804688 337.105469 C 300.320312 335.253906 302.789062 333.339844 305.210938 331.359375 C 307.632812 329.382812 310.003906 327.34375 312.320312 325.25 C 314.640625 323.152344 316.90625 320.996094 319.117188 318.789062 C 321.328125 316.578125 323.480469 314.3125 325.578125 311.992188 C 327.671875 309.671875 329.710938 307.304688 331.6875 304.882812 C 333.664062 302.460938 335.582031 299.988281 337.433594 297.472656 C 339.289062 294.953125 341.078125 292.390625 342.800781 289.785156 C 344.523438 287.175781 346.183594 284.527344 347.773438 281.835938 C 349.367188 279.144531 350.886719 276.414062 352.34375 273.644531 C 353.796875 270.878906 355.179688 268.074219 356.492188 265.238281 C 357.804688 262.402344 359.046875 259.53125 360.214844 256.632812 C 361.382812 253.734375 362.480469 250.804688 363.5 247.851562 C 364.523438 244.894531 365.46875 241.917969 366.339844 238.914062 C 367.210938 235.910156 368.007812 232.890625 368.726562 229.847656 C 369.445312 226.804688 370.089844 223.746094 370.65625 220.671875 C 371.222656 217.597656 371.710938 214.507812 372.121094 211.410156 C 372.53125 208.308594 372.863281 205.203125 373.117188 202.085938 C 373.371094 198.96875 373.546875 195.847656 373.644531 192.722656 C 373.742188 189.597656 373.761719 186.472656 373.703125 183.347656 Z M 186.824219 359.070312 C 180.554688 359.050781 174.304688 358.6875 168.074219 357.980469 C 161.839844 357.277344 155.667969 356.234375 149.550781 354.855469 C 143.433594 353.472656 137.410156 351.765625 131.480469 349.726562 C 125.546875 347.691406 119.746094 345.335938 114.074219 342.664062 C 108.398438 339.992188 102.886719 337.019531 97.539062 333.742188 C 92.191406 330.46875 87.039062 326.914062 82.078125 323.078125 C 77.117188 319.238281 72.378906 315.144531 67.867188 310.789062 C 63.355469 306.433594 59.09375 301.847656 55.082031 297.027344 C 52.273438 293.707031 49.609375 290.269531 47.089844 286.71875 C 48.289062 286.191406 49.535156 285.804688 50.824219 285.5625 C 52.113281 285.320312 53.410156 285.222656 54.722656 285.277344 C 56.03125 285.332031 57.320312 285.53125 58.585938 285.878906 C 59.851562 286.222656 61.058594 286.707031 62.214844 287.332031 L 64.265625 285.28125 C 62.800781 284.476562 61.269531 283.832031 59.667969 283.347656 C 58.066406 282.867188 56.433594 282.558594 54.769531 282.421875 C 53.101562 282.285156 51.441406 282.324219 49.785156 282.542969 C 48.128906 282.757812 46.511719 283.144531 44.9375 283.703125 C 42.886719 280.667969 40.941406 277.59375 39.074219 274.4375 C 45 272.59375 51.617188 272.984375 58.113281 272.984375 C 60.976562 272.902344 63.792969 273.207031 66.570312 273.898438 C 69.347656 274.585938 71.980469 275.632812 74.46875 277.042969 C 75.105469 277.40625 75.699219 277.828125 76.257812 278.300781 C 76.8125 278.777344 77.324219 279.300781 77.78125 279.871094 C 78.242188 280.4375 78.644531 281.046875 78.992188 281.691406 C 79.339844 282.335938 79.628906 283.003906 79.851562 283.703125 C 80.074219 284.398438 80.230469 285.109375 80.324219 285.835938 C 80.414062 286.5625 80.441406 287.292969 80.398438 288.023438 C 80.355469 288.753906 80.246094 289.476562 80.066406 290.183594 C 79.890625 290.894531 79.652344 291.585938 79.347656 292.25 C 77.488281 296.210938 76.558594 300.378906 76.5625 304.753906 L 80.660156 303.730469 C 80.660156 291.859375 94.414062 283.230469 106.277344 283.230469 C 113.617188 283.230469 121.753906 285.261719 125.75 291.429688 L 131.261719 288.644531 C 129.578125 286.046875 127.542969 283.765625 125.15625 281.796875 C 123.617188 280.523438 121.964844 279.425781 120.195312 278.496094 C 118.949219 277.863281 117.78125 277.109375 116.6875 276.234375 C 115.597656 275.363281 114.605469 274.386719 113.714844 273.308594 C 112.820312 272.230469 112.046875 271.074219 111.394531 269.839844 C 110.738281 268.605469 110.214844 267.316406 109.824219 265.972656 C 109.53125 264.914062 109.375 263.832031 109.355469 262.734375 C 109.355469 238.648438 122.492188 214.300781 155.324219 221.003906 C 154.628906 223.257812 153.890625 225.777344 153.214844 228.441406 C 151.171875 235.714844 150.214844 243.128906 150.34375 250.683594 L 150.753906 257.261719 L 162.722656 250.417969 C 161.15625 258.636719 160.371094 266.929688 160.367188 275.300781 C 160.53125 299.546875 169.078125 316.292969 185.0625 323.773438 L 185.515625 324.226562 L 188.179688 357.636719 C 187.625 358.210938 187.378906 358.476562 186.824219 359.070312 Z M 207.425781 357.84375 C 203.941406 358.253906 200.433594 358.578125 196.871094 358.785156 L 197.441406 332.773438 C 200.664062 334.507812 203.992188 336.011719 207.425781 337.285156 Z M 248.722656 346.773438 C 238.953125 351.089844 228.820312 354.238281 218.328125 356.222656 C 218.050781 356.269531 217.777344 356.253906 217.507812 356.175781 C 217.238281 356.09375 217 355.960938 216.792969 355.769531 C 216.585938 355.578125 216.433594 355.351562 216.332031 355.089844 C 216.230469 354.828125 216.191406 354.554688 216.21875 354.277344 L 217.34375 342.898438 C 217.375 342.59375 217.46875 342.308594 217.625 342.039062 C 217.78125 341.773438 217.984375 341.554688 218.234375 341.375 C 218.484375 341.195312 218.761719 341.078125 219.0625 341.019531 C 219.367188 340.957031 219.667969 340.964844 219.96875 341.035156 C 229.40625 343.402344 238.992188 344.632812 248.722656 344.722656 C 248.96875 345.277344 248.433594 346.261719 248.722656 346.773438 Z M 259.316406 225.492188 C 257.578125 235.351562 255.875 246.027344 254.398438 256.933594 C 251.386719 279.195312 246.960938 306.292969 247.863281 326.175781 C 247.992188 329.609375 248.351562 333.015625 248.949219 336.402344 C 205.25 334.863281 189.203125 316.640625 189.203125 316.640625 C 189.125 316.613281 189.050781 316.578125 188.976562 316.539062 C 187.707031 315.9375 186.488281 315.242188 185.328125 314.445312 C 184.167969 313.652344 183.078125 312.773438 182.054688 311.804688 C 181.035156 310.835938 180.09375 309.796875 179.238281 308.679688 C 178.382812 307.5625 177.621094 306.386719 176.949219 305.148438 C 176.28125 303.910156 175.714844 302.628906 175.246094 301.300781 C 174.78125 299.976562 174.421875 298.621094 174.171875 297.234375 C 173.921875 295.851562 173.78125 294.457031 173.75 293.046875 C 173.722656 291.640625 173.804688 290.242188 173.996094 288.847656 C 174.203125 286.976562 174.53125 285.125 174.980469 283.292969 C 180.554688 261.402344 191.417969 242.277344 205.578125 229.425781 C 209.355469 225.964844 213.472656 222.980469 217.9375 220.46875 C 217.9375 220.453125 217.945312 220.449219 217.957031 220.449219 C 228.328125 214.648438 239.027344 212.863281 249.050781 215.40625 C 251.1875 215.960938 253.253906 216.699219 255.261719 217.621094 C 255.984375 217.964844 256.632812 218.414062 257.207031 218.96875 C 257.78125 219.523438 258.25 220.160156 258.617188 220.871094 C 258.984375 221.582031 259.226562 222.332031 259.347656 223.121094 C 259.46875 223.914062 259.457031 224.703125 259.316406 225.492188 Z M 339.210938 251.050781 C 339.207031 254.105469 338.972656 257.140625 338.503906 260.160156 C 338.035156 263.179688 337.339844 266.144531 336.417969 269.058594 C 335.492188 271.96875 334.355469 274.792969 332.996094 277.53125 C 331.640625 280.269531 330.085938 282.886719 328.328125 285.382812 C 321.101562 295.703125 312.851562 305.121094 303.574219 313.644531 C 294.296875 322.164062 284.210938 329.585938 273.316406 335.910156 L 273.296875 325.949219 L 267.167969 326.277344 L 270.796875 337.367188 C 269.382812 338.144531 267.96875 338.902344 266.53125 339.640625 C 255.136719 317.6875 261.921875 235.351562 275.367188 176.644531 L 269.21875 176.644531 C 269.175781 176.851562 266.859375 186.585938 263.847656 201.46875 C 263.800781 201.714844 263.703125 201.945312 263.5625 202.152344 C 263.417969 202.359375 263.242188 202.535156 263.027344 202.667969 C 262.816406 202.804688 262.585938 202.894531 262.335938 202.933594 C 262.085938 202.972656 261.839844 202.964844 261.59375 202.902344 L 254.871094 201.242188 L 254.871094 203.292969 L 262.699219 207.269531 C 262.148438 210.054688 261.59375 213.007812 261.019531 216.0625 C 257.59375 213.980469 253.9375 212.445312 250.054688 211.449219 C 234.582031 207.515625 217.816406 212.824219 202.832031 226.390625 C 193.890625 234.65625 186.691406 244.226562 181.230469 255.109375 C 181.21875 255.109375 181.210938 255.117188 181.210938 255.128906 L 181.210938 255.171875 C 176.785156 263.824219 173.382812 272.863281 171.003906 282.289062 C 170.511719 284.238281 170.082031 286.183594 169.671875 288.152344 C 166.085938 267.285156 172.625 243.734375 172.726562 243.363281 L 175.492188 233.691406 L 158.582031 243.34375 C 160.570312 216.039062 183.628906 194.230469 183.875 193.984375 L 166.804688 195.585938 C 169.078125 164.429688 195.375 151.988281 197.8125 150.902344 L 198.039062 150.839844 C 201.097656 149.921875 204.226562 149.46875 207.425781 149.488281 C 209.695312 149.484375 211.941406 149.730469 214.160156 150.21875 C 216.378906 150.707031 218.519531 151.425781 220.578125 152.378906 C 222.640625 153.335938 224.574219 154.5 226.382812 155.875 C 228.191406 157.25 229.832031 158.804688 231.300781 160.535156 C 236.589844 166.828125 242.941406 170.496094 249.746094 170.496094 C 252.601562 170.410156 255.339844 169.800781 257.960938 168.671875 C 260.585938 167.542969 262.910156 165.972656 264.933594 163.957031 C 266.015625 162.96875 267.207031 162.132812 268.507812 161.453125 C 269.808594 160.773438 271.171875 160.273438 272.601562 159.949219 C 274.03125 159.625 275.480469 159.492188 276.945312 159.546875 C 278.410156 159.597656 279.847656 159.839844 281.25 160.269531 L 287.867188 162.296875 C 288.8125 169.84375 289.34375 177.421875 289.46875 185.027344 C 289.53125 189.308594 289.839844 193.574219 290.390625 197.820312 L 285.613281 199.191406 L 283.5625 203.292969 L 290.839844 200.914062 C 291.867188 207.484375 293.753906 213.796875 296.496094 219.855469 L 291.761719 223.789062 L 291.515625 226.003906 L 297.765625 222.417969 C 299.226562 225.195312 300.933594 227.8125 302.890625 230.265625 C 304.707031 232.535156 306.648438 234.695312 308.710938 236.742188 L 306.109375 246.335938 L 308.160156 248.386719 L 311.234375 239.082031 C 315.742188 243.132812 320.867188 246.136719 326.605469 248.097656 L 326.605469 254.535156 L 328.652344 256.585938 L 329.25 248.898438 C 332.515625 249.75 335.835938 250.242188 339.210938 250.375 Z M 213.410156 123.433594 C 213.046875 122.078125 212.554688 120.769531 211.933594 119.507812 C 211.308594 118.25 210.570312 117.0625 209.714844 115.949219 C 208.859375 114.835938 207.898438 113.816406 206.84375 112.894531 C 205.785156 111.96875 204.644531 111.15625 203.425781 110.460938 C 203.246094 110.363281 203.058594 110.285156 202.859375 110.234375 C 202.660156 110.183594 202.457031 110.152344 202.253906 110.148438 C 202.046875 110.144531 201.84375 110.164062 201.644531 110.210938 C 201.445312 110.253906 201.25 110.320312 201.066406 110.410156 C 200.882812 110.503906 200.710938 110.613281 200.554688 110.742188 C 200.394531 110.875 200.253906 111.023438 200.132812 111.1875 C 200.011719 111.351562 199.910156 111.527344 199.828125 111.71875 C 199.746094 111.90625 199.691406 112.101562 199.65625 112.304688 L 198.835938 117.140625 C 199.710938 117.316406 200.566406 117.5625 201.398438 117.878906 C 200.597656 121.035156 197.851562 125.957031 195.433594 127.453125 C 178.566406 137.925781 125.605469 121.898438 87.914062 108.984375 C 79.859375 106.257812 72.503906 103.632812 66.332031 101.460938 C 78.363281 93.550781 98.410156 89.960938 124.949219 91.070312 C 140.09375 91.757812 155.097656 93.605469 169.957031 96.605469 L 174.367188 97.566406 L 174.898438 93.117188 C 174.917969 92.953125 176.886719 78.136719 188.976562 70.121094 C 196.273438 65.28125 205.824219 63.890625 217.425781 65.898438 C 217.859375 65.976562 218.28125 66.097656 218.6875 66.269531 C 219.097656 66.441406 219.480469 66.652344 219.839844 66.910156 C 220.199219 67.164062 220.527344 67.457031 220.824219 67.785156 C 221.121094 68.113281 221.375 68.46875 221.59375 68.855469 C 221.808594 69.242188 221.980469 69.644531 222.109375 70.066406 C 222.234375 70.492188 222.3125 70.921875 222.34375 71.363281 C 222.375 71.804688 222.359375 72.242188 222.292969 72.679688 C 222.226562 73.117188 222.113281 73.542969 221.957031 73.953125 C 217.828125 85.273438 215.816406 96.957031 215.929688 109.003906 C 215.898438 117.179688 216.808594 125.25 218.65625 133.210938 C 212.777344 135.996094 206.746094 138.386719 200.558594 140.386719 C 168.808594 150.695312 135.527344 149.609375 105.683594 134.460938 C 94.164062 128.546875 83.546875 121.304688 73.835938 112.734375 C 77.996094 114.148438 82.75 115.6875 87.894531 117.304688 L 87.914062 117.328125 C 114.292969 125.585938 151.371094 135.507812 177.542969 135.507812 C 187.480469 135.507812 195.863281 134.074219 201.480469 130.585938 C 203.003906 129.675781 204.355469 128.554688 205.535156 127.226562 C 206.714844 125.898438 207.664062 124.421875 208.386719 122.800781 C 208.832031 123.429688 209.191406 124.109375 209.472656 124.828125 C 209.542969 125.015625 209.640625 125.1875 209.769531 125.339844 C 209.902344 125.492188 210.054688 125.617188 210.226562 125.714844 C 210.402344 125.8125 210.589844 125.878906 210.789062 125.910156 C 210.984375 125.9375 211.183594 125.933594 211.378906 125.894531 L 211.996094 125.769531 C 212.25 125.71875 212.480469 125.617188 212.691406 125.46875 C 212.90625 125.320312 213.078125 125.132812 213.210938 124.910156 C 213.347656 124.691406 213.429688 124.449219 213.464844 124.195312 C 213.5 123.9375 213.480469 123.683594 213.410156 123.433594 Z M 224.128906 109.003906 C 224.128906 77.601562 237.632812 55.710938 249.746094 55.710938 C 258.5 55.710938 267.96875 67.128906 272.558594 85.328125 C 274.472656 93.105469 275.40625 100.996094 275.367188 109.003906 C 275.367188 140.40625 261.859375 162.296875 249.746094 162.296875 C 241.628906 162.296875 232.859375 152.4375 228 136.46875 L 227.980469 136.46875 C 225.335938 127.503906 224.050781 118.351562 224.128906 109.003906 Z M 338.941406 221.207031 L 338.902344 221.492188 L 339.148438 243.40625 C 335.984375 243.199219 332.855469 242.75 329.761719 242.054688 L 330.375 234.039062 L 326.605469 231.988281 L 326.605469 241.230469 C 321.574219 239.773438 316.976562 237.457031 312.8125 234.285156 L 317.359375 220.425781 L 313.40625 219.363281 L 310.023438 231.90625 C 308.617188 230.605469 307.3125 229.210938 306.109375 227.726562 C 304.28125 225.429688 302.679688 222.984375 301.3125 220.386719 L 306.109375 217.640625 L 304.058594 213.539062 L 299.753906 217.128906 C 297.347656 211.5 295.691406 205.660156 294.796875 199.601562 L 302.644531 197.039062 L 299.960938 195.09375 L 294.386719 196.691406 C 293.929688 192.90625 293.671875 189.105469 293.605469 185.292969 C 293.492188 178.304688 293.921875 171.351562 294.898438 164.429688 L 300.964844 166.253906 C 302.746094 166.726562 344.539062 178.285156 338.941406 221.207031 Z M 347.40625 249.902344 L 347.101562 221.984375 C 353.414062 172.074219 303.546875 158.464844 303.199219 158.382812 L 279.628906 151.230469 C 279.347656 151.144531 279.078125 151.03125 278.820312 150.890625 C 278.5625 150.746094 278.324219 150.582031 278.097656 150.390625 C 277.875 150.199219 277.675781 149.984375 277.496094 149.753906 C 277.316406 149.519531 277.164062 149.269531 277.035156 149.003906 C 276.910156 148.742188 276.8125 148.464844 276.742188 148.179688 C 276.671875 147.894531 276.632812 147.605469 276.621094 147.3125 C 276.613281 147.015625 276.632812 146.726562 276.683594 146.4375 C 276.734375 146.144531 276.8125 145.863281 276.925781 145.59375 C 277.167969 145.019531 277.394531 144.402344 277.621094 143.808594 C 285.183594 143.582031 309.511719 141.921875 319.042969 129.359375 C 323.511719 123.433594 324.699219 116.238281 322.527344 107.960938 C 318.917969 94.183594 309.285156 83.238281 294.671875 76.351562 C 288.734375 73.566406 282.539062 71.589844 276.082031 70.429688 C 269.875 56.449219 260.382812 47.511719 249.746094 47.511719 C 242.347656 47.511719 235.503906 51.859375 229.929688 59.175781 C 212.835938 54.890625 194.984375 56.304688 184.449219 63.273438 C 182.375 64.734375 180.445312 66.367188 178.664062 68.171875 C 176.882812 69.976562 175.277344 71.921875 173.84375 74.015625 C 172.410156 76.109375 171.175781 78.3125 170.136719 80.625 C 169.097656 82.941406 168.273438 85.328125 167.664062 87.789062 C 150.097656 84.40625 81.765625 73.398438 55.226562 99.964844 L 50.695312 104.472656 C 53.851562 105.636719 56.589844 107.433594 58.914062 109.863281 C 71.421875 122.8125 85.679688 133.402344 101.6875 141.636719 C 110.875 146.410156 120.492188 150.042969 130.542969 152.53125 C 140.589844 155.023438 150.792969 156.304688 161.144531 156.375 C 166.667969 156.363281 172.167969 155.988281 177.644531 155.246094 C 176.007812 156.773438 174.464844 158.386719 173.007812 160.082031 C 171.550781 161.78125 170.191406 163.554688 168.933594 165.402344 C 167.671875 167.25 166.519531 169.164062 165.472656 171.136719 C 164.421875 173.113281 163.488281 175.140625 162.664062 177.222656 C 161.839844 179.300781 161.132812 181.421875 160.546875 183.578125 C 159.957031 185.738281 159.488281 187.921875 159.144531 190.128906 C 158.796875 192.339844 158.574219 194.5625 158.472656 196.796875 C 158.371094 199.03125 158.394531 201.265625 158.542969 203.496094 L 158.851562 209.625 C 157.394531 209.523438 155.917969 209.441406 154.445312 209.441406 C 153.4375 209.441406 152.433594 209.46875 151.433594 209.523438 C 150.429688 209.578125 149.429688 209.660156 148.429688 209.773438 C 147.433594 209.886719 146.4375 210.027344 145.449219 210.195312 C 144.457031 210.363281 143.472656 210.558594 142.496094 210.785156 C 141.515625 211.007812 140.542969 211.257812 139.578125 211.539062 C 138.613281 211.816406 137.65625 212.125 136.710938 212.457031 C 135.761719 212.789062 134.824219 213.152344 133.898438 213.539062 C 132.96875 213.925781 132.054688 214.335938 131.152344 214.773438 C 130.246094 215.210938 129.355469 215.675781 128.480469 216.164062 C 127.601562 216.652344 126.738281 217.167969 125.890625 217.703125 C 125.042969 218.242188 124.210938 218.804688 123.390625 219.386719 C 122.574219 219.972656 121.777344 220.582031 120.992188 221.210938 C 120.210938 221.839844 119.449219 222.492188 118.703125 223.164062 C 117.957031 223.839844 117.230469 224.53125 116.523438 225.246094 C 115.820312 225.960938 115.132812 226.695312 114.46875 227.449219 C 113.804688 228.203125 113.160156 228.972656 112.539062 229.761719 C 111.917969 230.550781 111.320312 231.359375 110.746094 232.183594 C 110.171875 233.007812 109.621094 233.84375 109.09375 234.699219 C 108.5625 235.554688 108.0625 236.421875 107.582031 237.304688 C 107.105469 238.191406 106.652344 239.085938 106.222656 239.996094 C 105.796875 240.902344 105.394531 241.824219 105.019531 242.753906 C 104.640625 243.6875 104.292969 244.628906 103.972656 245.578125 C 103.648438 246.53125 103.351562 247.492188 103.085938 248.460938 C 102.816406 249.425781 102.578125 250.402344 102.363281 251.382812 C 102.152344 252.367188 101.964844 253.351562 101.808594 254.34375 C 101.652344 255.335938 101.523438 256.332031 101.421875 257.332031 C 101.320312 258.332031 101.25 259.332031 101.207031 260.335938 C 101.164062 261.339844 101.148438 262.34375 101.160156 263.347656 C 101.171875 264.355469 101.214844 265.355469 101.285156 266.359375 C 101.355469 267.359375 101.453125 268.359375 101.578125 269.355469 C 101.703125 270.355469 101.859375 271.347656 102.042969 272.332031 C 102.222656 273.320312 102.433594 274.304688 102.671875 275.277344 C 99.199219 275.699219 95.90625 276.710938 92.792969 278.3125 C 91.316406 276.953125 89.761719 275.683594 88.136719 274.507812 C 86.507812 273.328125 84.820312 272.25 83.066406 271.273438 C 81.3125 270.292969 79.507812 269.421875 77.648438 268.65625 C 75.792969 267.890625 73.898438 267.234375 71.964844 266.691406 C 70.03125 266.148438 68.074219 265.722656 66.089844 265.40625 C 64.105469 265.09375 62.109375 264.902344 60.105469 264.824219 C 58.097656 264.746094 56.09375 264.785156 54.089844 264.941406 C 52.089844 265.101562 50.101562 265.375 48.132812 265.769531 C 47.222656 265.957031 46.300781 266.070312 45.371094 266.105469 C 44.441406 266.136719 43.511719 266.09375 42.589844 265.96875 C 41.667969 265.847656 40.761719 265.644531 39.871094 265.367188 C 38.984375 265.09375 38.125 264.742188 37.292969 264.320312 C 36.464844 263.894531 35.675781 263.40625 34.929688 262.851562 C 34.183594 262.292969 33.488281 261.679688 32.847656 261.003906 C 32.203125 260.332031 31.621094 259.605469 31.101562 258.835938 C 30.582031 258.0625 30.132812 257.25 29.75 256.402344 C 28.324219 253.175781 26.996094 249.90625 25.769531 246.597656 C 24.546875 243.289062 23.421875 239.945312 22.402344 236.566406 C 21.382812 233.1875 20.464844 229.78125 19.65625 226.347656 C 18.84375 222.914062 18.140625 219.460938 17.539062 215.980469 C 16.941406 212.503906 16.449219 209.011719 16.066406 205.503906 C 15.683594 201.996094 15.40625 198.480469 15.238281 194.957031 C 15.070312 191.429688 15.011719 187.902344 15.0625 184.375 C 15.109375 180.847656 15.269531 177.324219 15.535156 173.804688 C 15.800781 170.285156 16.171875 166.78125 16.652344 163.285156 C 17.136719 159.789062 17.722656 156.3125 18.417969 152.851562 C 19.113281 149.390625 19.914062 145.957031 20.820312 142.546875 C 21.726562 139.136719 22.734375 135.757812 23.851562 132.410156 C 24.964844 129.0625 26.179688 125.75 27.496094 122.476562 C 28.8125 119.203125 30.230469 115.972656 31.746094 112.785156 C 33.261719 109.601562 34.875 106.464844 36.582031 103.375 C 38.292969 100.289062 40.09375 97.257812 41.988281 94.28125 C 43.886719 91.304688 45.871094 88.390625 47.945312 85.535156 C 50.019531 82.679688 52.179688 79.890625 54.425781 77.171875 C 56.667969 74.449219 58.996094 71.800781 61.40625 69.222656 C 63.8125 66.640625 66.300781 64.140625 68.863281 61.714844 C 71.425781 59.289062 74.058594 56.945312 76.765625 54.679688 C 79.472656 52.417969 82.246094 50.238281 85.085938 48.144531 C 87.925781 46.050781 90.828125 44.046875 93.792969 42.132812 C 96.757812 40.21875 99.777344 38.398438 102.851562 36.667969 C 105.925781 34.9375 109.054688 33.304688 112.230469 31.769531 C 115.40625 30.230469 118.625 28.792969 121.890625 27.453125 C 125.152344 26.117188 128.457031 24.878906 131.796875 23.742188 C 135.136719 22.605469 138.511719 21.574219 141.914062 20.644531 C 145.316406 19.71875 148.746094 18.894531 152.203125 18.175781 C 155.65625 17.457031 159.128906 16.847656 162.621094 16.34375 C 166.113281 15.839844 169.617188 15.441406 173.132812 15.15625 C 176.652344 14.867188 180.171875 14.683594 183.699219 14.613281 C 187.226562 14.542969 190.753906 14.578125 194.28125 14.722656 C 197.804688 14.867188 201.324219 15.121094 204.832031 15.480469 C 208.34375 15.839844 211.835938 16.308594 215.320312 16.886719 C 218.800781 17.460938 222.257812 18.144531 225.699219 18.933594 C 229.136719 19.71875 232.550781 20.613281 235.933594 21.613281 C 239.316406 22.609375 242.667969 23.710938 245.984375 24.917969 C 249.300781 26.121094 252.578125 27.425781 255.8125 28.832031 C 259.050781 30.238281 262.238281 31.742188 265.382812 33.34375 C 268.527344 34.945312 271.617188 36.640625 274.65625 38.433594 C 277.699219 40.226562 280.679688 42.109375 283.601562 44.085938 C 286.527344 46.058594 289.386719 48.125 292.183594 50.273438 C 294.980469 52.425781 297.707031 54.660156 300.367188 56.980469 C 303.027344 59.296875 305.613281 61.695312 308.125 64.175781 C 310.636719 66.652344 313.070312 69.203125 315.425781 71.832031 C 317.78125 74.460938 320.054688 77.15625 322.242188 79.925781 C 324.433594 82.691406 326.535156 85.523438 328.550781 88.417969 C 330.566406 91.316406 332.488281 94.273438 334.324219 97.285156 C 336.15625 100.300781 337.894531 103.371094 339.539062 106.492188 C 341.183594 109.613281 342.734375 112.78125 344.183594 116 C 345.632812 119.214844 346.984375 122.472656 348.234375 125.773438 C 349.484375 129.074219 350.628906 132.410156 351.675781 135.777344 C 352.71875 139.148438 353.660156 142.546875 354.496094 145.976562 C 355.332031 149.40625 356.0625 152.855469 356.6875 156.328125 C 357.308594 159.800781 357.824219 163.289062 358.234375 166.796875 C 358.644531 170.300781 358.945312 173.816406 359.140625 177.339844 C 359.332031 180.859375 359.417969 184.386719 359.394531 187.914062 C 359.371094 191.445312 359.238281 194.96875 359 198.488281 C 358.757812 202.007812 358.410156 205.519531 357.953125 209.019531 C 357.5 212.519531 356.933594 216 356.265625 219.464844 C 355.59375 222.929688 354.820312 226.367188 353.9375 229.785156 C 353.058594 233.203125 352.070312 236.589844 350.980469 239.945312 C 349.894531 243.300781 348.699219 246.621094 347.40625 249.902344 Z M 283.113281 99.082031 C 282.8125 95.589844 282.332031 92.117188 281.679688 88.671875 C 281.582031 88.199219 281.550781 87.726562 281.585938 87.246094 C 281.621094 86.765625 281.71875 86.300781 281.878906 85.847656 C 282.042969 85.394531 282.261719 84.972656 282.539062 84.582031 C 282.816406 84.1875 283.140625 83.839844 283.515625 83.539062 C 283.886719 83.234375 284.292969 82.988281 284.734375 82.796875 C 285.175781 82.605469 285.632812 82.476562 286.109375 82.410156 C 286.585938 82.34375 287.0625 82.34375 287.539062 82.40625 C 288.011719 82.46875 288.472656 82.597656 288.914062 82.789062 C 298.957031 87.070312 310.699219 95.148438 314.59375 110.050781 C 316.109375 115.828125 315.433594 120.523438 312.503906 124.398438 C 304.960938 134.359375 285.285156 136.164062 280 136.46875 C 282.417969 127.476562 283.605469 118.320312 283.5625 109.003906 C 283.5625 105.621094 283.421875 102.300781 283.113281 99.082031 Z M 283.113281 99.082031"/><path fill="#B6625D" d="M 207.425781 337.285156 L 207.425781 357.84375 C 203.941406 358.253906 200.433594 358.578125 196.871094 358.785156 L 197.441406 332.773438 C 200.664062 334.507812 203.992188 336.011719 207.425781 337.285156 Z M 207.425781 337.285156"/><path fill="#8B948E" d="M 255.261719 217.621094 C 253.253906 216.699219 251.1875 215.960938 249.050781 215.40625 C 239.027344 212.863281 228.328125 214.648438 217.957031 220.449219 C 217.945312 220.449219 217.9375 220.453125 217.9375 220.46875 C 204.226562 237.75 149.011719 314.921875 247.863281 326.175781 C 246.960938 306.292969 251.386719 279.195312 254.398438 256.933594 C 255.875 246.03125 257.578125 235.351562 259.316406 225.492188 C 259.457031 224.703125 259.46875 223.914062 259.347656 223.121094 C 259.226562 222.332031 258.984375 221.582031 258.617188 220.871094 C 258.25 220.160156 257.78125 219.523438 257.207031 218.96875 C 256.632812 218.414062 255.984375 217.964844 255.261719 217.621094 Z M 225.664062 307.707031 L 229.785156 311.292969 C 230.253906 311.695312 230.488281 312.210938 230.480469 312.828125 C 230.480469 313.339844 230.316406 313.792969 229.988281 314.183594 C 229.808594 314.386719 229.597656 314.546875 229.355469 314.667969 C 229.113281 314.789062 228.855469 314.859375 228.585938 314.878906 C 228.316406 314.898438 228.050781 314.863281 227.792969 314.777344 C 227.539062 314.695312 227.304688 314.5625 227.097656 314.386719 L 222.097656 310.042969 C 221.914062 309.878906 221.703125 309.753906 221.472656 309.667969 C 221.242188 309.578125 221.003906 309.535156 220.757812 309.535156 C 220.507812 309.535156 220.269531 309.578125 220.039062 309.667969 C 219.808594 309.753906 219.597656 309.878906 219.414062 310.042969 L 214.433594 314.386719 C 214.050781 314.714844 213.605469 314.878906 213.101562 314.878906 C 212.472656 314.878906 211.945312 314.648438 211.523438 314.183594 C 211.347656 313.976562 211.214844 313.746094 211.132812 313.488281 C 211.046875 313.230469 211.015625 312.964844 211.035156 312.695312 C 211.050781 312.425781 211.121094 312.167969 211.242188 311.925781 C 211.363281 311.683594 211.523438 311.472656 211.726562 311.292969 L 215.847656 307.707031 C 216.070312 307.511719 216.246094 307.277344 216.371094 307.007812 C 216.492188 306.738281 216.554688 306.457031 216.554688 306.160156 C 216.554688 305.863281 216.492188 305.578125 216.371094 305.308594 C 216.246094 305.039062 216.070312 304.804688 215.847656 304.609375 L 211.726562 301.023438 C 211.265625 300.605469 211.035156 300.085938 211.03125 299.464844 C 211.03125 299.0625 211.140625 298.691406 211.359375 298.355469 C 211.578125 298.015625 211.871094 297.765625 212.234375 297.597656 C 212.601562 297.433594 212.984375 297.378906 213.382812 297.441406 C 213.78125 297.5 214.132812 297.664062 214.433594 297.929688 L 219.414062 302.273438 C 219.597656 302.4375 219.808594 302.5625 220.039062 302.648438 C 220.269531 302.738281 220.507812 302.78125 220.757812 302.78125 C 221.003906 302.78125 221.242188 302.738281 221.472656 302.648438 C 221.707031 302.5625 221.914062 302.4375 222.097656 302.273438 L 227.097656 297.929688 C 227.492188 297.601562 227.941406 297.4375 228.453125 297.4375 C 229.074219 297.429688 229.585938 297.664062 229.988281 298.132812 C 230.167969 298.339844 230.300781 298.570312 230.386719 298.828125 C 230.472656 299.085938 230.507812 299.351562 230.488281 299.621094 C 230.46875 299.890625 230.398438 300.148438 230.273438 300.390625 C 230.152344 300.636719 229.988281 300.847656 229.785156 301.023438 L 225.664062 304.609375 C 225.441406 304.804688 225.265625 305.039062 225.144531 305.308594 C 225.019531 305.578125 224.957031 305.859375 224.957031 306.160156 C 224.957031 306.457031 225.019531 306.738281 225.144531 307.007812 C 225.265625 307.277344 225.441406 307.511719 225.664062 307.707031 Z M 225.664062 307.707031"/><path fill="#B6625D" d="M 329.761719 242.054688 L 330.375 234.039062 L 326.605469 231.988281 L 326.605469 241.230469 C 321.574219 239.773438 316.976562 237.457031 312.8125 234.285156 L 317.359375 220.425781 L 313.40625 219.363281 L 310.023438 231.90625 C 308.617188 230.605469 307.3125 229.210938 306.109375 227.726562 C 304.28125 225.429688 302.679688 222.984375 301.3125 220.386719 L 306.109375 217.640625 L 304.058594 213.539062 L 299.753906 217.128906 C 297.347656 211.5 295.691406 205.660156 294.796875 199.601562 L 302.644531 197.039062 L 299.960938 195.09375 L 294.386719 196.691406 C 293.929688 192.90625 293.671875 189.105469 293.605469 185.292969 C 305.617188 186.628906 339.128906 194.582031 329.761719 242.054688 Z M 329.761719 242.054688"/><path fill="#6A6057" d="M 339.210938 250.375 L 339.210938 251.050781 C 339.207031 254.105469 338.972656 257.140625 338.503906 260.160156 C 338.035156 263.179688 337.339844 266.144531 336.417969 269.058594 C 335.492188 271.96875 334.355469 274.792969 332.996094 277.53125 C 331.640625 280.269531 330.085938 282.886719 328.328125 285.382812 C 321.101562 295.703125 312.851562 305.121094 303.574219 313.644531 C 294.296875 322.164062 284.210938 329.585938 273.316406 335.910156 L 273.296875 325.949219 L 269.21875 305.777344 L 268.992188 295.652344 L 269.21875 295.53125 L 271.265625 283.230469 L 268.746094 284.074219 L 270.097656 272.390625 L 271.265625 272.984375 L 271.226562 262.550781 L 271.265625 236.089844 L 271.265625 244.285156 L 273.316406 246.335938 L 275.367188 240.1875 L 271.265625 236.089844 L 287.867188 162.296875 C 288.8125 169.84375 289.34375 177.421875 289.464844 185.027344 C 289.53125 189.308594 289.839844 193.574219 290.390625 197.820312 L 285.613281 199.191406 L 283.5625 203.292969 L 290.839844 200.914062 C 291.867188 207.484375 293.753906 213.796875 296.496094 219.855469 L 291.761719 223.789062 L 291.515625 226.003906 L 297.765625 222.417969 C 299.226562 225.195312 300.933594 227.8125 302.890625 230.265625 C 304.707031 232.535156 306.648438 234.695312 308.710938 236.742188 L 306.109375 246.335938 L 308.160156 248.386719 L 311.234375 239.082031 C 315.742188 243.132812 320.867188 246.136719 326.605469 248.097656 L 326.605469 254.535156 L 328.652344 256.585938 L 329.25 248.898438 C 332.515625 249.75 335.835938 250.242188 339.210938 250.375 Z M 339.210938 250.375"/><path fill="#6A6057" d="M 264.933594 163.957031 C 262.910156 165.972656 260.585938 167.542969 257.960938 168.671875 C 255.339844 169.800781 252.601562 170.410156 249.746094 170.496094 C 242.941406 170.496094 236.589844 166.828125 231.300781 160.535156 C 229.832031 158.804688 228.191406 157.25 226.382812 155.875 C 224.574219 154.5 222.640625 153.335938 220.578125 152.378906 C 218.519531 151.425781 216.378906 150.707031 214.160156 150.21875 C 211.941406 149.730469 209.695312 149.484375 207.425781 149.488281 L 188.015625 172.546875 C 187.546875 173.101562 187.261719 173.738281 187.167969 174.460938 C 187.070312 175.179688 187.175781 175.871094 187.480469 176.527344 C 187.785156 177.1875 188.242188 177.714844 188.855469 178.105469 C 189.46875 178.496094 190.136719 178.695312 190.863281 178.695312 C 191.183594 178.695312 191.496094 178.730469 191.804688 178.808594 C 192.113281 178.890625 192.40625 179.003906 192.683594 179.160156 C 192.964844 179.3125 193.21875 179.5 193.449219 179.71875 C 193.679688 179.9375 193.882812 180.183594 194.050781 180.453125 C 194.21875 180.722656 194.347656 181.007812 194.445312 181.3125 C 194.539062 181.617188 194.59375 181.929688 194.609375 182.246094 C 194.625 182.5625 194.601562 182.878906 194.535156 183.191406 C 194.46875 183.503906 194.367188 183.800781 194.226562 184.085938 L 175.882812 221.554688 C 175.757812 221.808594 175.664062 222.078125 175.597656 222.351562 C 175.535156 222.628906 175.503906 222.910156 175.5 223.191406 C 175.5 223.476562 175.53125 223.757812 175.59375 224.035156 C 175.65625 224.308594 175.75 224.574219 175.875 224.832031 C 175.996094 225.085938 176.148438 225.324219 176.324219 225.546875 C 176.503906 225.769531 176.703125 225.96875 176.925781 226.144531 C 177.148438 226.320312 177.386719 226.46875 177.644531 226.589844 C 177.898438 226.710938 178.167969 226.804688 178.445312 226.863281 C 178.445312 226.863281 179.367188 227.046875 180.433594 227.273438 C 181.015625 227.394531 181.542969 227.640625 182.007812 228.011719 C 182.472656 228.382812 182.832031 228.839844 183.074219 229.386719 L 183.136719 227.890625 L 187.234375 221.738281 L 189.285156 223.789062 L 183.074219 234.714844 L 181.230469 255.109375 C 186.691406 244.226562 193.890625 234.65625 202.832031 226.394531 C 217.816406 212.824219 234.582031 207.515625 250.054688 211.449219 C 253.9375 212.445312 257.59375 213.980469 261.019531 216.0625 C 261.59375 213.007812 262.148438 210.054688 262.699219 207.269531 L 254.871094 203.292969 L 254.871094 201.242188 L 261.59375 202.902344 C 261.839844 202.964844 262.085938 202.972656 262.335938 202.933594 C 262.585938 202.894531 262.816406 202.804688 263.027344 202.667969 C 263.242188 202.535156 263.417969 202.359375 263.5625 202.152344 C 263.703125 201.945312 263.800781 201.714844 263.847656 201.46875 C 266.859375 186.585938 269.175781 176.851562 269.21875 176.644531 C 269.21875 176.644531 279.097656 165.597656 264.933594 163.957031 Z M 196.890625 217.046875 L 195.433594 213.539062 L 200.128906 207.984375 L 205.683594 209.441406 Z M 222.078125 205.34375 L 214.332031 207.554688 L 211.832031 203.292969 L 224.128906 201.242188 Z M 245.339844 203.292969 L 236.425781 203.292969 L 236.425781 199.191406 L 246.671875 201.242188 Z M 245.339844 203.292969"/><path fill="#B6625D" d="M 312.503906 124.398438 C 304.960938 134.359375 285.285156 136.164062 280 136.46875 C 282.417969 127.476562 283.605469 118.320312 283.5625 109.003906 C 283.5625 105.621094 283.421875 102.300781 283.113281 99.082031 C 283.113281 99.082031 302.503906 96.726562 312.503906 124.398438 Z M 312.503906 124.398438"/><path fill="#B6625D" d="M 215.929688 109.003906 C 215.898438 117.179688 216.808594 125.25 218.65625 133.210938 C 212.777344 135.996094 206.746094 138.386719 200.558594 140.386719 C 140.875 157.191406 89.246094 118.328125 87.914062 117.328125 C 114.292969 125.585938 151.367188 135.507812 177.542969 135.507812 C 187.480469 135.507812 195.863281 134.074219 201.480469 130.585938 C 203.003906 129.675781 204.355469 128.554688 205.535156 127.226562 C 206.714844 125.898438 207.664062 124.421875 208.386719 122.800781 C 208.832031 123.429688 209.191406 124.109375 209.472656 124.828125 C 209.542969 125.015625 209.640625 125.1875 209.769531 125.339844 C 209.902344 125.492188 210.054688 125.617188 210.226562 125.714844 C 210.402344 125.8125 210.589844 125.878906 210.789062 125.910156 C 210.984375 125.9375 211.183594 125.933594 211.378906 125.894531 L 211.996094 125.769531 C 212.25 125.71875 212.480469 125.617188 212.691406 125.46875 C 212.90625 125.320312 213.078125 125.132812 213.210938 124.910156 C 213.347656 124.691406 213.429688 124.449219 213.464844 124.195312 C 213.5 123.9375 213.480469 123.683594 213.410156 123.433594 C 213.046875 122.078125 212.554688 120.769531 211.933594 119.507812 C 211.308594 118.25 210.570312 117.0625 209.714844 115.949219 C 208.859375 114.835938 207.898438 113.816406 206.84375 112.894531 C 205.785156 111.96875 204.644531 111.15625 203.425781 110.460938 C 203.246094 110.363281 203.058594 110.285156 202.859375 110.234375 C 202.660156 110.183594 202.457031 110.152344 202.253906 110.148438 C 202.046875 110.144531 201.84375 110.164062 201.644531 110.210938 C 201.445312 110.253906 201.25 110.320312 201.066406 110.410156 C 200.882812 110.503906 200.710938 110.613281 200.554688 110.742188 C 200.394531 110.875 200.253906 111.023438 200.132812 111.1875 C 200.011719 111.351562 199.910156 111.527344 199.828125 111.71875 C 199.746094 111.90625 199.691406 112.101562 199.65625 112.304688 L 198.835938 117.140625 C 199.710938 117.316406 200.566406 117.5625 201.398438 117.878906 C 200.597656 121.035156 197.851562 125.957031 195.433594 127.453125 C 178.566406 137.925781 125.605469 121.898438 87.914062 108.984375 C 88.734375 108.164062 107.734375 90.207031 172.128906 105.234375 C 172.578125 105.339844 173.027344 105.402344 173.484375 105.425781 C 173.945312 105.449219 174.398438 105.429688 174.855469 105.367188 C 175.308594 105.304688 175.753906 105.203125 176.1875 105.058594 C 176.625 104.914062 177.042969 104.734375 177.445312 104.511719 C 177.847656 104.292969 178.222656 104.039062 178.578125 103.746094 C 178.933594 103.457031 179.257812 103.136719 179.554688 102.785156 C 179.851562 102.4375 180.109375 102.0625 180.339844 101.664062 C 180.566406 101.265625 180.753906 100.847656 180.902344 100.414062 C 184.53125 89.921875 194.878906 70.816406 221.953125 73.953125 C 217.824219 85.273438 215.816406 96.957031 215.929688 109.003906 Z M 215.929688 109.003906"/><path fill="#687DAD" d="M 248.722656 346.773438 C 238.953125 351.089844 228.820312 354.238281 218.328125 356.222656 C 218.050781 356.269531 217.777344 356.253906 217.507812 356.175781 C 217.238281 356.09375 217 355.960938 216.792969 355.769531 C 216.585938 355.578125 216.433594 355.351562 216.332031 355.089844 C 216.230469 354.828125 216.191406 354.554688 216.21875 354.277344 L 217.34375 342.898438 C 217.375 342.59375 217.46875 342.308594 217.625 342.039062 C 217.78125 341.773438 217.984375 341.554688 218.234375 341.375 C 218.484375 341.195312 218.761719 341.078125 219.0625 341.019531 C 219.367188 340.957031 219.667969 340.964844 219.96875 341.035156 C 229.40625 343.402344 238.992188 344.632812 248.722656 344.722656 C 248.96875 345.277344 248.433594 346.261719 248.722656 346.773438 Z M 248.722656 346.773438"/><path fill="#687DAD" d="M 76.5625 304.753906 L 74.695312 317.03125 C 67.609375 310.902344 61.070312 304.234375 55.082031 297.027344 C 55.738281 296.882812 70.554688 293.726562 76.5625 304.753906 Z M 76.5625 304.753906"/><path fill="#687DAD" d="M 185.515625 324.226562 L 185.0625 323.773438 C 169.078125 316.292969 160.53125 299.546875 160.367188 275.300781 C 160.371094 266.929688 161.15625 258.636719 162.722656 250.417969 L 150.753906 257.261719 L 150.34375 250.683594 C 150.214844 243.128906 151.171875 235.714844 153.214844 228.441406 C 119.191406 235.125 125.15625 281.796875 125.15625 281.796875 C 127.542969 283.765625 129.578125 286.046875 131.261719 288.644531 L 125.75 291.429688 L 130.359375 297.027344 L 125.75 300.367188 L 130.8125 306.148438 L 125.75 309.203125 C 125.75 309.203125 92.957031 307.847656 97.054688 333.46875 C 103.765625 337.628906 110.726562 341.304688 117.945312 344.496094 C 125.164062 347.6875 132.566406 350.363281 140.15625 352.527344 C 147.746094 354.695312 155.449219 356.324219 163.265625 357.417969 C 171.078125 358.515625 178.933594 359.066406 186.824219 359.070312 C 187.378906 358.476562 187.625 358.210938 188.179688 357.636719 Z M 136.386719 271.546875 L 132.617188 273.167969 C 126.589844 259.207031 137.597656 248.878906 138.046875 248.386719 L 140.484375 249.757812 L 140.507812 249.757812 C 140.117188 250.167969 131.40625 260.027344 136.386719 271.546875 Z M 136.386719 271.546875"/><path fill="#EDDED9" d="M 272.558594 85.328125 C 272.253906 91.71875 271.058594 97.9375 268.972656 103.980469 C 268.785156 102.929688 268.511719 101.898438 268.152344 100.890625 C 267.789062 99.886719 267.34375 98.917969 266.816406 97.988281 C 266.289062 97.054688 265.6875 96.175781 265.007812 95.351562 C 264.332031 94.523438 263.585938 93.761719 262.777344 93.058594 C 261.96875 92.359375 261.105469 91.734375 260.191406 91.183594 C 259.273438 90.632812 258.320312 90.160156 257.320312 89.773438 C 256.324219 89.386719 255.304688 89.085938 254.253906 88.871094 C 253.207031 88.660156 252.148438 88.539062 251.078125 88.507812 C 250.082031 88.492188 249.089844 88.554688 248.101562 88.699219 C 247.113281 88.84375 246.144531 89.066406 245.191406 89.371094 C 244.242188 89.671875 243.320312 90.046875 242.429688 90.5 C 241.539062 90.949219 240.691406 91.472656 239.886719 92.058594 C 239.082031 92.648438 238.328125 93.300781 237.628906 94.011719 C 236.929688 94.722656 236.289062 95.484375 235.714844 96.300781 C 235.136719 97.113281 234.628906 97.96875 234.191406 98.867188 C 233.753906 99.761719 233.390625 100.691406 233.105469 101.644531 L 245.277344 105.316406 C 245.6875 105.4375 246.023438 105.667969 246.285156 106.007812 C 246.546875 106.34375 246.6875 106.726562 246.707031 107.152344 C 246.726562 107.578125 246.617188 107.972656 246.386719 108.332031 C 246.152344 108.691406 245.839844 108.949219 245.441406 109.105469 L 233.679688 113.863281 C 234.019531 114.710938 234.421875 115.527344 234.886719 116.316406 C 235.347656 117.101562 235.867188 117.851562 236.441406 118.5625 C 237.015625 119.273438 237.640625 119.9375 238.3125 120.554688 C 238.988281 121.171875 239.703125 121.738281 240.460938 122.25 C 241.214844 122.757812 242.007812 123.210938 242.832031 123.605469 C 243.65625 124 244.507812 124.328125 245.378906 124.597656 C 246.253906 124.863281 247.140625 125.066406 248.046875 125.199219 C 248.949219 125.335938 249.859375 125.402344 250.773438 125.402344 C 252.0625 125.398438 253.339844 125.269531 254.605469 125.011719 C 250.808594 128.152344 246.648438 130.699219 242.125 132.648438 C 237.597656 134.597656 232.890625 135.871094 228 136.46875 L 227.980469 136.46875 C 225.335938 127.503906 224.050781 118.351562 224.128906 109.003906 C 224.128906 77.601562 237.632812 55.710938 249.746094 55.710938 C 258.5 55.710938 267.96875 67.128906 272.558594 85.328125 Z M 272.558594 85.328125"/><path fill="#F1DDC4" d="M 312.503906 124.398438 C 302.503906 96.726562 283.113281 99.082031 283.113281 99.082031 C 282.8125 95.589844 282.332031 92.117188 281.679688 88.671875 C 281.582031 88.199219 281.550781 87.726562 281.585938 87.246094 C 281.621094 86.765625 281.71875 86.300781 281.878906 85.847656 C 282.042969 85.394531 282.261719 84.972656 282.539062 84.582031 C 282.816406 84.1875 283.140625 83.839844 283.515625 83.539062 C 283.886719 83.234375 284.292969 82.988281 284.734375 82.796875 C 285.175781 82.605469 285.632812 82.476562 286.109375 82.410156 C 286.585938 82.34375 287.0625 82.34375 287.539062 82.40625 C 288.011719 82.46875 288.472656 82.597656 288.914062 82.789062 C 298.957031 87.070312 310.699219 95.148438 314.59375 110.050781 C 316.109375 115.828125 315.433594 120.523438 312.503906 124.398438 Z M 312.503906 124.398438"/><path fill="#F1DDC4" d="M 338.902344 221.492188 L 339.148438 243.40625 C 335.984375 243.199219 332.855469 242.75 329.761719 242.054688 C 339.128906 194.582031 305.617188 186.628906 293.605469 185.292969 C 293.492188 178.304688 293.921875 171.351562 294.898438 164.429688 L 300.964844 166.253906 C 302.746094 166.726562 344.539062 178.285156 338.941406 221.207031 Z M 338.902344 221.492188"/><path fill="#F1DDC4" d="M 273.296875 325.949219 L 267.167969 326.277344 L 270.796875 337.367188 C 269.382812 338.144531 267.96875 338.902344 266.53125 339.640625 C 255.136719 317.6875 261.921875 235.351562 275.367188 176.644531 L 269.21875 176.644531 C 269.21875 176.644531 279.097656 165.597656 264.933594 163.957031 C 266.015625 162.96875 267.207031 162.132812 268.507812 161.453125 C 269.808594 160.773438 271.171875 160.273438 272.601562 159.949219 C 274.03125 159.625 275.480469 159.492188 276.945312 159.546875 C 278.410156 159.597656 279.847656 159.839844 281.25 160.269531 L 287.867188 162.296875 L 271.265625 236.089844 L 271.226562 262.550781 L 269.21875 256.585938 L 267.167969 270.933594 L 270.097656 272.390625 L 268.746094 284.074219 L 265.117188 285.28125 L 264.851562 298.132812 L 268.992188 295.652344 L 269.21875 305.777344 L 265.117188 309.878906 L 267.167969 318.078125 L 271.265625 320.128906 L 269.21875 305.777344 Z M 273.296875 325.949219"/><path fill="#F1DDC4" d="M 248.949219 336.402344 C 205.25 334.863281 189.203125 316.640625 189.203125 316.640625 C 189.125 316.613281 189.050781 316.578125 188.976562 316.539062 C 187.707031 315.9375 186.488281 315.242188 185.328125 314.445312 C 184.167969 313.652344 183.078125 312.773438 182.054688 311.804688 C 181.035156 310.835938 180.09375 309.796875 179.238281 308.679688 C 178.382812 307.5625 177.621094 306.386719 176.949219 305.148438 C 176.28125 303.910156 175.714844 302.628906 175.246094 301.300781 C 174.78125 299.976562 174.421875 298.621094 174.171875 297.234375 C 173.921875 295.851562 173.78125 294.457031 173.75 293.046875 C 173.722656 291.640625 173.804688 290.242188 173.996094 288.847656 C 174.203125 286.976562 174.53125 285.125 174.980469 283.292969 C 180.554688 261.402344 191.417969 242.277344 205.578125 229.425781 C 209.355469 225.964844 213.472656 222.980469 217.9375 220.46875 C 204.226562 237.75 149.011719 314.921875 247.863281 326.175781 C 247.992188 329.609375 248.351562 333.015625 248.949219 336.402344 Z M 248.949219 336.402344"/><path fill="#F1DDC4" d="M 194.613281 182.425781 C 194.613281 183.007812 194.484375 183.5625 194.226562 184.085938 L 175.882812 221.554688 C 175.757812 221.808594 175.664062 222.078125 175.597656 222.351562 C 175.535156 222.628906 175.503906 222.910156 175.5 223.191406 C 175.5 223.476562 175.53125 223.757812 175.59375 224.035156 C 175.65625 224.308594 175.75 224.574219 175.875 224.832031 C 175.996094 225.085938 176.148438 225.324219 176.324219 225.546875 C 176.503906 225.769531 176.703125 225.96875 176.925781 226.144531 C 177.148438 226.320312 177.386719 226.46875 177.644531 226.589844 C 177.898438 226.710938 178.167969 226.804688 178.445312 226.863281 C 178.445312 226.863281 179.367188 227.046875 180.433594 227.273438 C 181.015625 227.394531 181.542969 227.640625 182.007812 228.011719 C 182.472656 228.382812 182.832031 228.839844 183.074219 229.386719 L 182.828125 235.125 L 183.074219 234.714844 L 181.230469 255.109375 C 181.214844 255.109375 181.210938 255.117188 181.210938 255.128906 L 181.210938 255.171875 C 176.785156 263.824219 173.382812 272.863281 171.003906 282.289062 C 170.511719 284.238281 170.082031 286.183594 169.671875 288.152344 C 166.085938 267.285156 172.621094 243.734375 172.726562 243.363281 L 175.492188 233.691406 L 158.582031 243.34375 C 160.570312 216.042969 183.628906 194.234375 183.875 193.984375 L 166.800781 195.585938 C 169.078125 164.429688 195.375 151.988281 197.8125 150.902344 L 198.039062 150.839844 C 201.097656 149.921875 204.226562 149.46875 207.425781 149.488281 L 188.015625 172.546875 C 187.546875 173.101562 187.261719 173.738281 187.167969 174.460938 C 187.070312 175.179688 187.175781 175.871094 187.480469 176.527344 C 187.785156 177.1875 188.242188 177.714844 188.855469 178.105469 C 189.46875 178.496094 190.136719 178.695312 190.863281 178.695312 C 191.359375 178.695312 191.835938 178.789062 192.292969 178.976562 C 192.753906 179.167969 193.15625 179.4375 193.507812 179.785156 C 193.859375 180.136719 194.132812 180.539062 194.324219 180.996094 C 194.515625 181.453125 194.613281 181.929688 194.613281 182.425781 Z M 194.613281 182.425781"/><path fill="#F1DDC4" d="M 200.558594 140.386719 C 168.808594 150.695312 135.527344 149.609375 105.683594 134.460938 C 94.164062 128.546875 83.546875 121.304688 73.835938 112.734375 C 77.996094 114.148438 82.75 115.6875 87.894531 117.304688 L 87.914062 117.328125 C 89.246094 118.328125 140.875 157.191406 200.558594 140.386719 Z M 200.558594 140.386719"/><path fill="#F1DDC4" d="M 221.957031 73.953125 C 194.878906 70.816406 184.53125 89.921875 180.902344 100.414062 C 180.753906 100.847656 180.566406 101.265625 180.339844 101.664062 C 180.113281 102.0625 179.851562 102.4375 179.554688 102.785156 C 179.257812 103.136719 178.933594 103.457031 178.578125 103.746094 C 178.222656 104.039062 177.847656 104.292969 177.445312 104.511719 C 177.042969 104.734375 176.625 104.914062 176.1875 105.058594 C 175.753906 105.203125 175.308594 105.304688 174.855469 105.367188 C 174.398438 105.429688 173.945312 105.449219 173.484375 105.425781 C 173.027344 105.402344 172.578125 105.339844 172.128906 105.234375 C 107.734375 90.207031 88.734375 108.164062 87.914062 108.984375 C 79.859375 106.257812 72.503906 103.632812 66.332031 101.460938 C 78.363281 93.550781 98.410156 89.960938 124.949219 91.070312 C 140.09375 91.757812 155.097656 93.605469 169.957031 96.605469 L 174.367188 97.566406 L 174.898438 93.117188 C 174.917969 92.953125 176.886719 78.136719 188.976562 70.121094 C 196.273438 65.28125 205.824219 63.890625 217.425781 65.898438 C 217.859375 65.976562 218.28125 66.097656 218.6875 66.269531 C 219.097656 66.441406 219.480469 66.652344 219.839844 66.910156 C 220.199219 67.164062 220.527344 67.457031 220.824219 67.785156 C 221.121094 68.113281 221.375 68.472656 221.59375 68.855469 C 221.808594 69.242188 221.980469 69.644531 222.109375 70.066406 C 222.234375 70.492188 222.3125 70.921875 222.34375 71.363281 C 222.375 71.804688 222.359375 72.242188 222.292969 72.679688 C 222.226562 73.117188 222.113281 73.542969 221.957031 73.953125 Z M 221.957031 73.953125"/><path fill="#3D2E40" d="M 359.398438 186.894531 C 359.402344 197.679688 358.394531 208.371094 356.378906 218.964844 C 354.363281 229.5625 351.371094 239.875 347.40625 249.902344 L 347.101562 221.984375 C 353.414062 172.074219 303.546875 158.464844 303.199219 158.382812 L 279.628906 151.230469 C 279.347656 151.144531 279.078125 151.03125 278.820312 150.890625 C 278.5625 150.746094 278.324219 150.582031 278.097656 150.390625 C 277.875 150.199219 277.675781 149.984375 277.496094 149.753906 C 277.316406 149.519531 277.164062 149.269531 277.035156 149.003906 C 276.910156 148.742188 276.8125 148.464844 276.742188 148.179688 C 276.671875 147.894531 276.632812 147.605469 276.621094 147.3125 C 276.613281 147.015625 276.632812 146.726562 276.683594 146.4375 C 276.734375 146.144531 276.8125 145.863281 276.925781 145.59375 C 277.167969 145.019531 277.394531 144.402344 277.621094 143.808594 C 285.183594 143.582031 309.511719 141.921875 319.042969 129.359375 C 323.511719 123.433594 324.699219 116.238281 322.527344 107.960938 C 318.917969 94.183594 309.285156 83.238281 294.671875 76.351562 C 288.734375 73.566406 282.539062 71.589844 276.082031 70.429688 C 269.875 56.449219 260.382812 47.511719 249.746094 47.511719 C 242.347656 47.511719 235.503906 51.859375 229.929688 59.175781 C 212.835938 54.890625 194.984375 56.304688 184.449219 63.273438 C 182.375 64.734375 180.445312 66.367188 178.664062 68.171875 C 176.882812 69.976562 175.277344 71.921875 173.84375 74.015625 C 172.410156 76.109375 171.175781 78.3125 170.136719 80.625 C 169.097656 82.941406 168.273438 85.328125 167.664062 87.789062 C 150.097656 84.40625 81.765625 73.398438 55.226562 99.964844 L 50.695312 104.472656 C 53.851562 105.636719 56.589844 107.433594 58.914062 109.863281 C 71.421875 122.8125 85.679688 133.402344 101.6875 141.636719 C 110.875 146.410156 120.492188 150.042969 130.542969 152.53125 C 140.589844 155.023438 150.792969 156.304688 161.144531 156.375 C 166.667969 156.363281 172.167969 155.988281 177.644531 155.246094 C 176.007812 156.773438 174.464844 158.386719 173.007812 160.082031 C 171.550781 161.78125 170.191406 163.554688 168.933594 165.402344 C 167.671875 167.25 166.519531 169.164062 165.472656 171.136719 C 164.421875 173.113281 163.488281 175.140625 162.664062 177.222656 C 161.839844 179.300781 161.132812 181.421875 160.546875 183.578125 C 159.957031 185.738281 159.488281 187.921875 159.144531 190.128906 C 158.796875 192.339844 158.574219 194.5625 158.472656 196.796875 C 158.371094 199.03125 158.394531 201.265625 158.542969 203.496094 L 158.851562 209.625 C 157.394531 209.523438 155.917969 209.441406 154.445312 209.441406 C 153.4375 209.441406 152.433594 209.46875 151.433594 209.523438 C 150.429688 209.578125 149.429688 209.660156 148.429688 209.773438 C 147.433594 209.886719 146.4375 210.027344 145.449219 210.195312 C 144.457031 210.363281 143.472656 210.558594 142.496094 210.785156 C 141.515625 211.007812 140.542969 211.257812 139.578125 211.539062 C 138.613281 211.816406 137.65625 212.125 136.710938 212.457031 C 135.761719 212.789062 134.824219 213.152344 133.898438 213.539062 C 132.96875 213.925781 132.054688 214.335938 131.152344 214.773438 C 130.246094 215.210938 129.355469 215.675781 128.480469 216.164062 C 127.601562 216.652344 126.738281 217.167969 125.890625 217.703125 C 125.042969 218.242188 124.210938 218.804688 123.390625 219.386719 C 122.574219 219.972656 121.777344 220.582031 120.992188 221.210938 C 120.210938 221.839844 119.449219 222.492188 118.703125 223.164062 C 117.957031 223.839844 117.230469 224.53125 116.523438 225.246094 C 115.820312 225.960938 115.132812 226.695312 114.46875 227.449219 C 113.804688 228.203125 113.160156 228.972656 112.539062 229.761719 C 111.917969 230.550781 111.320312 231.359375 110.746094 232.183594 C 110.171875 233.007812 109.621094 233.84375 109.09375 234.699219 C 108.5625 235.554688 108.0625 236.421875 107.582031 237.304688 C 107.105469 238.191406 106.652344 239.085938 106.222656 239.996094 C 105.796875 240.902344 105.394531 241.824219 105.019531 242.753906 C 104.640625 243.6875 104.292969 244.628906 103.972656 245.578125 C 103.648438 246.53125 103.351562 247.492188 103.085938 248.460938 C 102.816406 249.425781 102.578125 250.402344 102.363281 251.382812 C 102.152344 252.367188 101.964844 253.351562 101.808594 254.34375 C 101.652344 255.335938 101.523438 256.332031 101.421875 257.332031 C 101.320312 258.332031 101.25 259.332031 101.207031 260.335938 C 101.164062 261.339844 101.148438 262.34375 101.160156 263.347656 C 101.171875 264.355469 101.214844 265.355469 101.285156 266.359375 C 101.355469 267.359375 101.453125 268.359375 101.578125 269.355469 C 101.703125 270.355469 101.859375 271.347656 102.042969 272.332031 C 102.222656 273.320312 102.433594 274.304688 102.671875 275.277344 C 99.199219 275.699219 95.90625 276.710938 92.792969 278.3125 C 91.316406 276.953125 89.761719 275.683594 88.136719 274.507812 C 86.507812 273.328125 84.820312 272.25 83.066406 271.273438 C 81.3125 270.292969 79.507812 269.421875 77.648438 268.65625 C 75.792969 267.890625 73.898438 267.234375 71.964844 266.691406 C 70.03125 266.148438 68.074219 265.722656 66.089844 265.40625 C 64.105469 265.09375 62.109375 264.902344 60.105469 264.824219 C 58.097656 264.746094 56.09375 264.785156 54.089844 264.941406 C 52.089844 265.101562 50.101562 265.375 48.132812 265.769531 C 47.222656 265.957031 46.300781 266.070312 45.371094 266.105469 C 44.441406 266.136719 43.511719 266.09375 42.589844 265.96875 C 41.667969 265.847656 40.761719 265.644531 39.871094 265.367188 C 38.984375 265.09375 38.125 264.742188 37.292969 264.320312 C 36.464844 263.894531 35.675781 263.40625 34.929688 262.851562 C 34.183594 262.292969 33.488281 261.679688 32.847656 261.003906 C 32.203125 260.332031 31.621094 259.605469 31.101562 258.835938 C 30.582031 258.0625 30.132812 257.25 29.75 256.402344 C 28.460938 253.480469 27.253906 250.53125 26.132812 247.542969 C 25.007812 244.558594 23.96875 241.542969 23.011719 238.5 C 22.054688 235.453125 21.183594 232.386719 20.398438 229.292969 C 19.613281 226.203125 18.914062 223.089844 18.300781 219.957031 C 17.6875 216.828125 17.160156 213.679688 16.722656 210.519531 C 16.285156 207.359375 15.933594 204.191406 15.671875 201.011719 C 15.410156 197.832031 15.238281 194.644531 15.152344 191.457031 C 15.070312 188.265625 15.074219 185.078125 15.164062 181.886719 C 15.257812 178.699219 15.4375 175.515625 15.707031 172.335938 C 15.980469 169.15625 16.335938 165.988281 16.78125 162.828125 C 17.226562 159.667969 17.761719 156.523438 18.382812 153.394531 C 19.003906 150.261719 19.710938 147.152344 20.503906 144.0625 C 21.296875 140.972656 22.175781 137.90625 23.140625 134.863281 C 24.101562 131.824219 25.152344 128.8125 26.28125 125.828125 C 27.414062 122.84375 28.625 119.894531 29.921875 116.980469 C 31.21875 114.0625 32.59375 111.1875 34.046875 108.347656 C 35.503906 105.507812 37.035156 102.710938 38.648438 99.957031 C 40.257812 97.203125 41.945312 94.496094 43.707031 91.835938 C 45.46875 89.175781 47.300781 86.566406 49.207031 84.007812 C 51.113281 81.449219 53.089844 78.945312 55.136719 76.496094 C 57.179688 74.046875 59.292969 71.65625 61.472656 69.328125 C 63.648438 66.996094 65.890625 64.726562 68.195312 62.519531 C 70.5 60.3125 72.863281 58.171875 75.289062 56.097656 C 77.710938 54.023438 80.191406 52.015625 82.726562 50.078125 C 85.261719 48.140625 87.847656 46.277344 90.488281 44.484375 C 93.125 42.691406 95.8125 40.972656 98.546875 39.328125 C 101.28125 37.683594 104.058594 36.117188 106.878906 34.628906 C 109.699219 33.136719 112.5625 31.726562 115.460938 30.398438 C 118.359375 29.066406 121.296875 27.820312 124.265625 26.652344 C 127.234375 25.484375 130.234375 24.398438 133.261719 23.398438 C 136.292969 22.398438 139.347656 21.484375 142.425781 20.652344 C 145.507812 19.820312 148.609375 19.078125 151.730469 18.417969 C 154.851562 17.761719 157.988281 17.191406 161.144531 16.707031 C 164.296875 16.222656 167.460938 15.828125 170.636719 15.519531 C 173.8125 15.210938 176.992188 14.992188 180.179688 14.859375 C 183.367188 14.730469 186.554688 14.6875 189.746094 14.734375 C 192.9375 14.777344 196.121094 14.914062 199.304688 15.136719 C 202.488281 15.359375 205.660156 15.671875 208.824219 16.074219 C 211.992188 16.472656 215.144531 16.960938 218.28125 17.535156 C 221.417969 18.109375 224.539062 18.773438 227.640625 19.519531 C 230.742188 20.269531 233.820312 21.105469 236.875 22.023438 C 239.929688 22.945312 242.957031 23.949219 245.953125 25.035156 C 248.953125 26.125 251.917969 27.292969 254.855469 28.546875 C 257.789062 29.800781 260.683594 31.132812 263.542969 32.546875 C 266.402344 33.960938 269.222656 35.453125 272 37.027344 C 274.777344 38.597656 277.507812 40.242188 280.191406 41.964844 C 282.878906 43.6875 285.511719 45.484375 288.097656 47.355469 C 290.683594 49.222656 293.214844 51.164062 295.695312 53.171875 C 298.171875 55.183594 300.589844 57.261719 302.953125 59.40625 C 305.316406 61.550781 307.617188 63.757812 309.855469 66.03125 C 312.09375 68.304688 314.269531 70.636719 316.378906 73.03125 C 318.488281 75.421875 320.53125 77.875 322.503906 80.382812 C 324.476562 82.886719 326.378906 85.449219 328.210938 88.0625 C 330.042969 90.671875 331.800781 93.335938 333.484375 96.046875 C 335.167969 98.757812 336.773438 101.511719 338.304688 104.3125 C 339.832031 107.109375 341.285156 109.953125 342.65625 112.832031 C 344.03125 115.710938 345.320312 118.628906 346.53125 121.582031 C 347.742188 124.535156 348.867188 127.515625 349.914062 130.53125 C 350.957031 133.546875 351.917969 136.589844 352.792969 139.65625 C 353.667969 142.726562 354.457031 145.816406 355.160156 148.929688 C 355.863281 152.039062 356.480469 155.171875 357.007812 158.316406 C 357.539062 161.464844 357.980469 164.621094 358.335938 167.792969 C 358.6875 170.964844 358.953125 174.144531 359.132812 177.328125 C 359.308594 180.515625 359.398438 183.703125 359.398438 186.894531 Z M 359.398438 186.894531"/><path fill="#819CB3" d="M 275.367188 109.003906 C 275.367188 140.40625 261.859375 162.296875 249.746094 162.296875 C 241.628906 162.296875 232.859375 152.4375 228 136.46875 C 232.890625 135.871094 237.597656 134.597656 242.125 132.648438 C 246.648438 130.699219 250.808594 128.152344 254.605469 125.011719 C 255.652344 124.789062 256.671875 124.476562 257.667969 124.074219 C 258.660156 123.671875 259.613281 123.1875 260.523438 122.621094 C 261.429688 122.054688 262.285156 121.414062 263.082031 120.699219 C 263.878906 119.980469 264.609375 119.203125 265.273438 118.359375 C 265.933594 117.519531 266.519531 116.625 267.027344 115.679688 C 267.535156 114.734375 267.957031 113.753906 268.292969 112.738281 C 268.628906 111.71875 268.875 110.679688 269.027344 109.621094 C 269.183594 108.558594 269.246094 107.492188 269.21875 106.421875 C 269.199219 105.601562 269.117188 104.789062 268.972656 103.980469 C 271.058594 97.9375 272.253906 91.71875 272.558594 85.328125 C 274.472656 93.105469 275.40625 100.996094 275.367188 109.003906 Z M 275.367188 109.003906"/><path fill="#E8E2EF" d="M 109.355469 262.734375 C 109.375 263.832031 109.53125 264.914062 109.824219 265.972656 C 110.214844 267.316406 110.738281 268.605469 111.394531 269.839844 C 112.046875 271.074219 112.820312 272.230469 113.714844 273.308594 C 114.605469 274.386719 115.597656 275.363281 116.6875 276.234375 C 117.78125 277.109375 118.949219 277.863281 120.195312 278.496094 C 121.964844 279.425781 123.617188 280.523438 125.15625 281.796875 C 125.15625 281.796875 119.191406 235.125 153.214844 228.441406 C 153.890625 225.777344 154.628906 223.257812 155.324219 221.003906 C 122.492188 214.300781 109.355469 238.648438 109.355469 262.734375 Z M 142.144531 229.9375 C 132.964844 231.1875 127.390625 237.851562 124.4375 247.339844 C 122.953125 252.371094 122.023438 257.503906 121.652344 262.734375 L 118.597656 262.261719 C 118.578125 261.957031 116.261719 230.59375 142.1875 227.089844 Z M 142.144531 229.9375"/><path fill="#E8E2EF" d="M 79.347656 292.25 C 77.488281 296.210938 76.558594 300.378906 76.5625 304.753906 C 70.554688 293.726562 55.738281 296.882812 55.082031 297.027344 C 52.273438 293.707031 49.609375 290.269531 47.089844 286.71875 C 48.289062 286.191406 49.535156 285.804688 50.824219 285.5625 C 52.113281 285.320312 53.410156 285.222656 54.722656 285.277344 C 56.03125 285.332031 57.320312 285.53125 58.585938 285.878906 C 59.851562 286.222656 61.058594 286.707031 62.214844 287.332031 L 64.265625 285.28125 C 62.800781 284.476562 61.269531 283.832031 59.667969 283.347656 C 58.066406 282.867188 56.433594 282.558594 54.769531 282.421875 C 53.101562 282.285156 51.441406 282.324219 49.785156 282.542969 C 48.128906 282.757812 46.511719 283.144531 44.9375 283.703125 C 42.886719 280.667969 40.941406 277.59375 39.074219 274.4375 C 45 272.59375 51.617188 272.984375 58.113281 272.984375 C 60.976562 272.902344 63.792969 273.207031 66.570312 273.898438 C 69.347656 274.585938 71.980469 275.632812 74.46875 277.042969 C 75.105469 277.40625 75.699219 277.828125 76.257812 278.300781 C 76.8125 278.777344 77.324219 279.300781 77.78125 279.871094 C 78.242188 280.4375 78.644531 281.046875 78.992188 281.691406 C 79.339844 282.335938 79.628906 283.003906 79.851562 283.703125 C 80.074219 284.398438 80.230469 285.109375 80.324219 285.835938 C 80.414062 286.5625 80.441406 287.292969 80.398438 288.023438 C 80.355469 288.753906 80.246094 289.476562 80.066406 290.183594 C 79.890625 290.894531 79.652344 291.585938 79.347656 292.25 Z M 79.347656 292.25"/><path fill="#E8E2EF" d="M 125.75 300.367188 L 130.359375 297.027344 L 125.75 291.429688 C 121.753906 285.261719 113.617188 283.230469 106.277344 283.230469 C 94.414062 283.230469 80.660156 291.859375 80.660156 303.730469 L 76.5625 304.753906 L 74.695312 317.03125 C 81.703125 323.121094 89.15625 328.601562 97.054688 333.46875 C 92.957031 307.847656 125.75 309.203125 125.75 309.203125 L 130.8125 306.148438 Z M 109.355469 303.730469 C 109.3125 303.21875 105.253906 299.628906 98.675781 300.367188 L 97.054688 297.578125 C 107.304688 295.53125 111.402344 299.628906 113.453125 301.679688 Z M 121.117188 305.144531 C 118.882812 293.707031 101.542969 293.992188 101.359375 293.992188 L 101.257812 289.894531 C 102.117188 289.914062 122.246094 289.503906 125.15625 304.363281 Z M 121.117188 305.144531"/><path d="M 269.21875 106.421875 C 269.246094 107.492188 269.183594 108.558594 269.027344 109.621094 C 268.875 110.679688 268.628906 111.71875 268.292969 112.738281 C 267.957031 113.753906 267.535156 114.734375 267.027344 115.679688 C 266.519531 116.625 265.933594 117.519531 265.273438 118.359375 C 264.609375 119.203125 263.878906 119.980469 263.082031 120.699219 C 262.285156 121.414062 261.429688 122.054688 260.523438 122.621094 C 259.613281 123.1875 258.660156 123.671875 257.667969 124.074219 C 256.671875 124.476562 255.652344 124.789062 254.605469 125.011719 C 253.339844 125.269531 252.0625 125.398438 250.773438 125.402344 C 249.859375 125.402344 248.949219 125.335938 248.046875 125.199219 C 247.140625 125.066406 246.253906 124.863281 245.378906 124.597656 C 244.507812 124.328125 243.65625 124 242.832031 123.605469 C 242.007812 123.210938 241.214844 122.757812 240.460938 122.25 C 239.703125 121.738281 238.988281 121.171875 238.3125 120.554688 C 237.640625 119.9375 237.015625 119.273438 236.441406 118.5625 C 235.867188 117.851562 235.347656 117.101562 234.886719 116.316406 C 234.421875 115.527344 234.019531 114.710938 233.679688 113.863281 L 245.441406 109.105469 C 245.839844 108.949219 246.152344 108.691406 246.386719 108.332031 C 246.617188 107.972656 246.726562 107.578125 246.707031 107.152344 C 246.6875 106.726562 246.546875 106.34375 246.285156 106.007812 C 246.023438 105.667969 245.6875 105.4375 245.277344 105.316406 L 233.105469 101.644531 C 233.390625 100.691406 233.753906 99.765625 234.191406 98.867188 C 234.628906 97.96875 235.136719 97.113281 235.714844 96.300781 C 236.289062 95.484375 236.929688 94.722656 237.628906 94.011719 C 238.328125 93.300781 239.082031 92.648438 239.886719 92.058594 C 240.691406 91.472656 241.539062 90.949219 242.429688 90.5 C 243.320312 90.046875 244.242188 89.671875 245.191406 89.371094 C 246.144531 89.066406 247.113281 88.84375 248.101562 88.699219 C 249.089844 88.554688 250.082031 88.492188 251.078125 88.507812 C 252.148438 88.539062 253.207031 88.660156 254.253906 88.871094 C 255.304688 89.085938 256.324219 89.386719 257.320312 89.773438 C 258.320312 90.160156 259.273438 90.632812 260.191406 91.183594 C 261.105469 91.734375 261.96875 92.359375 262.777344 93.058594 C 263.585938 93.761719 264.332031 94.523438 265.007812 95.351562 C 265.6875 96.175781 266.289062 97.054688 266.816406 97.988281 C 267.34375 98.917969 267.789062 99.886719 268.152344 100.890625 C 268.511719 101.898438 268.785156 102.929688 268.972656 103.980469 C 269.117188 104.789062 269.199219 105.601562 269.21875 106.421875 Z M 269.21875 106.421875"/><path d="M 189.285156 223.789062 L 183.074219 234.714844 L 182.828125 235.125 L 183.074219 229.386719 L 183.136719 227.890625 L 187.234375 221.738281 Z M 189.285156 223.789062"/><path d="M 205.683594 209.441406 L 196.890625 217.046875 L 195.433594 213.539062 L 200.128906 207.984375 Z M 205.683594 209.441406"/><path d="M 224.128906 201.242188 L 222.078125 205.34375 L 214.332031 207.554688 L 211.832031 203.292969 Z M 224.128906 201.242188"/><path d="M 246.671875 201.242188 L 245.339844 203.292969 L 236.425781 203.292969 L 236.425781 199.191406 Z M 246.671875 201.242188"/><path d="M 275.367188 240.1875 L 273.316406 246.335938 L 271.265625 244.285156 L 271.265625 236.089844 Z M 275.367188 240.1875"/><path d="M 271.265625 272.984375 L 270.097656 272.390625 L 267.167969 270.933594 L 269.21875 256.585938 L 271.226562 262.550781 Z M 271.265625 272.984375"/><path d="M 271.265625 283.230469 L 269.21875 295.53125 L 268.992188 295.652344 L 264.851562 298.132812 L 265.117188 285.28125 L 268.746094 284.074219 Z M 271.265625 283.230469"/><path d="M 271.265625 320.128906 L 267.167969 318.078125 L 265.117188 309.878906 L 269.21875 305.777344 Z M 271.265625 320.128906"/><path d="M 229.785156 311.292969 C 230.253906 311.695312 230.488281 312.210938 230.480469 312.828125 C 230.480469 313.339844 230.316406 313.792969 229.988281 314.183594 C 229.808594 314.386719 229.597656 314.546875 229.355469 314.667969 C 229.113281 314.789062 228.855469 314.859375 228.585938 314.878906 C 228.316406 314.898438 228.050781 314.863281 227.792969 314.777344 C 227.539062 314.695312 227.304688 314.5625 227.097656 314.386719 L 222.097656 310.042969 C 221.914062 309.878906 221.703125 309.753906 221.472656 309.667969 C 221.242188 309.578125 221.003906 309.535156 220.757812 309.535156 C 220.507812 309.535156 220.269531 309.578125 220.039062 309.667969 C 219.808594 309.753906 219.597656 309.878906 219.414062 310.042969 L 214.433594 314.386719 C 214.050781 314.714844 213.605469 314.878906 213.101562 314.878906 C 212.472656 314.878906 211.945312 314.648438 211.523438 314.183594 C 211.347656 313.976562 211.214844 313.746094 211.132812 313.488281 C 211.046875 313.230469 211.015625 312.964844 211.035156 312.695312 C 211.050781 312.425781 211.121094 312.167969 211.242188 311.925781 C 211.363281 311.683594 211.523438 311.472656 211.726562 311.292969 L 215.847656 307.707031 C 216.070312 307.511719 216.246094 307.277344 216.371094 307.007812 C 216.492188 306.738281 216.554688 306.457031 216.554688 306.160156 C 216.554688 305.863281 216.492188 305.578125 216.371094 305.308594 C 216.246094 305.039062 216.070312 304.804688 215.847656 304.609375 L 211.726562 301.023438 C 211.265625 300.605469 211.035156 300.085938 211.03125 299.464844 C 211.03125 299.0625 211.140625 298.691406 211.359375 298.355469 C 211.578125 298.015625 211.871094 297.765625 212.234375 297.597656 C 212.601562 297.433594 212.984375 297.378906 213.382812 297.441406 C 213.78125 297.5 214.132812 297.664062 214.433594 297.929688 L 219.414062 302.273438 C 219.597656 302.4375 219.808594 302.5625 220.039062 302.648438 C 220.269531 302.738281 220.507812 302.78125 220.757812 302.78125 C 221.003906 302.78125 221.242188 302.738281 221.472656 302.648438 C 221.707031 302.5625 221.914062 302.4375 222.097656 302.273438 L 227.097656 297.929688 C 227.492188 297.601562 227.941406 297.4375 228.453125 297.4375 C 229.074219 297.429688 229.585938 297.664062 229.988281 298.132812 C 230.167969 298.339844 230.300781 298.570312 230.386719 298.828125 C 230.472656 299.085938 230.507812 299.351562 230.488281 299.621094 C 230.46875 299.890625 230.398438 300.148438 230.273438 300.390625 C 230.152344 300.636719 229.988281 300.847656 229.785156 301.023438 L 225.664062 304.609375 C 225.441406 304.804688 225.265625 305.039062 225.144531 305.308594 C 225.019531 305.578125 224.957031 305.859375 224.957031 306.160156 C 224.957031 306.457031 225.019531 306.738281 225.144531 307.007812 C 225.265625 307.277344 225.441406 307.511719 225.664062 307.707031 Z M 229.785156 311.292969"/><path d="M 142.1875 227.089844 L 142.144531 229.9375 C 132.964844 231.1875 127.390625 237.851562 124.4375 247.339844 C 122.953125 252.371094 122.023438 257.503906 121.652344 262.734375 L 118.597656 262.261719 C 118.578125 261.957031 116.261719 230.59375 142.1875 227.089844 Z M 142.1875 227.089844"/><path d="M 136.386719 271.546875 L 132.617188 273.167969 C 126.589844 259.207031 137.597656 248.878906 138.046875 248.386719 L 140.484375 249.757812 L 140.507812 249.757812 C 140.117188 250.167969 131.40625 260.027344 136.386719 271.546875 Z M 136.386719 271.546875"/><path d="M 125.15625 304.363281 L 121.117188 305.144531 C 118.882812 293.707031 101.542969 293.992188 101.359375 293.992188 L 101.257812 289.894531 C 102.117188 289.914062 122.246094 289.503906 125.15625 304.363281 Z M 125.15625 304.363281"/><path d="M 113.453125 301.679688 L 109.355469 303.730469 C 109.3125 303.21875 105.253906 299.628906 98.675781 300.367188 L 97.054688 297.578125 C 107.304688 295.53125 111.402344 299.628906 113.453125 301.679688 Z M 113.453125 301.679688"/><path fill="#EDDED9" d="M 113.453125 172.546875 C 113.453125 172.816406 113.402344 173.078125 113.296875 173.332031 C 113.191406 173.582031 113.042969 173.804688 112.851562 173.996094 C 112.660156 174.1875 112.4375 174.335938 112.1875 174.441406 C 111.9375 174.542969 111.675781 174.597656 111.402344 174.597656 C 111.132812 174.597656 110.871094 174.542969 110.617188 174.441406 C 110.367188 174.335938 110.144531 174.1875 109.953125 173.996094 C 109.761719 173.804688 109.613281 173.582031 109.507812 173.332031 C 109.40625 173.078125 109.355469 172.816406 109.355469 172.546875 C 109.355469 172.273438 109.40625 172.011719 109.507812 171.761719 C 109.613281 171.511719 109.761719 171.289062 109.953125 171.097656 C 110.144531 170.90625 110.367188 170.757812 110.617188 170.652344 C 110.871094 170.546875 111.132812 170.496094 111.402344 170.496094 C 111.675781 170.496094 111.9375 170.546875 112.1875 170.652344 C 112.4375 170.757812 112.660156 170.90625 112.851562 171.097656 C 113.042969 171.289062 113.191406 171.511719 113.296875 171.761719 C 113.402344 172.011719 113.453125 172.273438 113.453125 172.546875 Z M 113.453125 172.546875"/><path fill="#EDDED9" d="M 84.757812 204.316406 C 84.757812 204.726562 84.679688 205.117188 84.523438 205.492188 C 84.367188 205.871094 84.148438 206.203125 83.859375 206.492188 C 83.570312 206.78125 83.238281 207 82.859375 207.15625 C 82.484375 207.3125 82.09375 207.390625 81.683594 207.390625 C 81.277344 207.390625 80.886719 207.3125 80.507812 207.15625 C 80.132812 207 79.800781 206.78125 79.511719 206.492188 C 79.222656 206.203125 79 205.871094 78.84375 205.492188 C 78.6875 205.117188 78.609375 204.726562 78.609375 204.316406 C 78.609375 203.910156 78.6875 203.515625 78.84375 203.140625 C 79 202.761719 79.222656 202.429688 79.511719 202.144531 C 79.800781 201.855469 80.132812 201.632812 80.507812 201.476562 C 80.886719 201.320312 81.277344 201.242188 81.683594 201.242188 C 82.09375 201.242188 82.484375 201.320312 82.859375 201.476562 C 83.238281 201.632812 83.570312 201.855469 83.859375 202.144531 C 84.148438 202.429688 84.367188 202.761719 84.523438 203.140625 C 84.679688 203.515625 84.757812 203.910156 84.757812 204.316406 Z M 84.757812 204.316406"/><path fill="#EDDED9" d="M 144.195312 193.042969 C 144.195312 193.316406 144.144531 193.578125 144.039062 193.828125 C 143.9375 194.078125 143.789062 194.300781 143.59375 194.492188 C 143.402344 194.683594 143.179688 194.832031 142.929688 194.9375 C 142.679688 195.042969 142.417969 195.09375 142.144531 195.09375 C 141.875 195.09375 141.613281 195.042969 141.363281 194.9375 C 141.109375 194.832031 140.890625 194.683594 140.695312 194.492188 C 140.503906 194.300781 140.355469 194.078125 140.253906 193.828125 C 140.148438 193.578125 140.097656 193.316406 140.097656 193.042969 C 140.097656 192.773438 140.148438 192.511719 140.253906 192.257812 C 140.355469 192.007812 140.503906 191.785156 140.695312 191.59375 C 140.890625 191.402344 141.109375 191.253906 141.363281 191.148438 C 141.613281 191.046875 141.875 190.992188 142.144531 190.992188 C 142.417969 190.992188 142.679688 191.046875 142.929688 191.148438 C 143.179688 191.253906 143.402344 191.402344 143.59375 191.59375 C 143.789062 191.785156 143.9375 192.007812 144.039062 192.257812 C 144.144531 192.511719 144.195312 192.773438 144.195312 193.042969 Z M 144.195312 193.042969"/><path fill="#EDDED9" d="M 47.867188 250.4375 C 47.867188 250.707031 47.816406 250.96875 47.710938 251.21875 C 47.605469 251.472656 47.460938 251.691406 47.265625 251.886719 C 47.074219 252.078125 46.851562 252.226562 46.601562 252.328125 C 46.351562 252.433594 46.089844 252.484375 45.816406 252.484375 C 45.546875 252.484375 45.285156 252.433594 45.035156 252.328125 C 44.78125 252.226562 44.5625 252.078125 44.367188 251.886719 C 44.175781 251.691406 44.027344 251.472656 43.925781 251.21875 C 43.820312 250.96875 43.769531 250.707031 43.769531 250.4375 C 43.769531 250.164062 43.820312 249.902344 43.925781 249.652344 C 44.027344 249.402344 44.175781 249.179688 44.367188 248.988281 C 44.5625 248.792969 44.78125 248.644531 45.035156 248.542969 C 45.285156 248.4375 45.546875 248.386719 45.816406 248.386719 C 46.089844 248.386719 46.351562 248.4375 46.601562 248.542969 C 46.851562 248.644531 47.074219 248.792969 47.265625 248.988281 C 47.460938 249.179688 47.605469 249.402344 47.710938 249.652344 C 47.816406 249.902344 47.867188 250.164062 47.867188 250.4375 Z M 47.867188 250.4375"/><path fill="#EDDED9" d="M 29.421875 159.222656 C 29.421875 159.359375 29.394531 159.488281 29.34375 159.613281 C 29.292969 159.742188 29.21875 159.851562 29.121094 159.949219 C 29.023438 160.042969 28.914062 160.117188 28.789062 160.167969 C 28.664062 160.222656 28.53125 160.246094 28.398438 160.246094 C 28.261719 160.246094 28.128906 160.222656 28.003906 160.167969 C 27.878906 160.117188 27.769531 160.042969 27.671875 159.949219 C 27.574219 159.851562 27.503906 159.742188 27.449219 159.613281 C 27.398438 159.488281 27.371094 159.359375 27.371094 159.222656 C 27.371094 159.085938 27.398438 158.957031 27.449219 158.832031 C 27.503906 158.703125 27.574219 158.59375 27.671875 158.496094 C 27.769531 158.402344 27.878906 158.328125 28.003906 158.277344 C 28.128906 158.222656 28.261719 158.199219 28.398438 158.199219 C 28.53125 158.199219 28.664062 158.222656 28.789062 158.277344 C 28.914062 158.328125 29.023438 158.402344 29.121094 158.496094 C 29.21875 158.59375 29.292969 158.703125 29.34375 158.832031 C 29.394531 158.957031 29.421875 159.085938 29.421875 159.222656 Z M 29.421875 159.222656"/><path fill="#EDDED9" d="M 125.75 52.636719 C 125.75 52.773438 125.722656 52.902344 125.671875 53.027344 C 125.621094 53.152344 125.546875 53.265625 125.449219 53.359375 C 125.355469 53.457031 125.242188 53.53125 125.117188 53.582031 C 124.992188 53.636719 124.859375 53.660156 124.726562 53.660156 C 124.589844 53.660156 124.457031 53.636719 124.332031 53.582031 C 124.207031 53.53125 124.097656 53.457031 124 53.359375 C 123.90625 53.265625 123.832031 53.152344 123.777344 53.027344 C 123.726562 52.902344 123.699219 52.773438 123.699219 52.636719 C 123.699219 52.5 123.726562 52.371094 123.777344 52.242188 C 123.832031 52.117188 123.90625 52.007812 124 51.910156 C 124.097656 51.816406 124.207031 51.742188 124.332031 51.691406 C 124.457031 51.636719 124.589844 51.613281 124.726562 51.613281 C 124.859375 51.613281 124.992188 51.636719 125.117188 51.691406 C 125.242188 51.742188 125.355469 51.816406 125.449219 51.910156 C 125.546875 52.007812 125.621094 52.117188 125.671875 52.242188 C 125.722656 52.371094 125.75 52.5 125.75 52.636719 Z M 125.75 52.636719"/><path fill="#EDDED9" d="M 338.902344 144.875 C 338.902344 145.011719 338.875 145.140625 338.824219 145.265625 C 338.773438 145.390625 338.699219 145.503906 338.601562 145.597656 C 338.503906 145.695312 338.394531 145.769531 338.269531 145.820312 C 338.144531 145.875 338.011719 145.898438 337.878906 145.898438 C 337.742188 145.898438 337.609375 145.875 337.484375 145.820312 C 337.359375 145.769531 337.25 145.695312 337.152344 145.597656 C 337.054688 145.503906 336.980469 145.390625 336.929688 145.265625 C 336.878906 145.140625 336.851562 145.011719 336.851562 144.875 C 336.851562 144.738281 336.878906 144.609375 336.929688 144.480469 C 336.980469 144.355469 337.054688 144.246094 337.152344 144.148438 C 337.25 144.054688 337.359375 143.980469 337.484375 143.925781 C 337.609375 143.875 337.742188 143.851562 337.878906 143.851562 C 338.011719 143.851562 338.144531 143.875 338.269531 143.925781 C 338.394531 143.980469 338.503906 144.054688 338.601562 144.148438 C 338.699219 144.246094 338.773438 144.355469 338.824219 144.480469 C 338.875 144.609375 338.902344 144.738281 338.902344 144.875 Z M 338.902344 144.875"/><path fill="#EDDED9" d="M 318.40625 156.148438 C 318.40625 156.417969 318.355469 156.679688 318.25 156.933594 C 318.144531 157.183594 318 157.40625 317.804688 157.597656 C 317.613281 157.789062 317.390625 157.9375 317.140625 158.042969 C 316.890625 158.144531 316.628906 158.199219 316.355469 158.199219 C 316.085938 158.199219 315.824219 158.144531 315.574219 158.042969 C 315.320312 157.9375 315.101562 157.789062 314.90625 157.597656 C 314.714844 157.40625 314.566406 157.183594 314.464844 156.933594 C 314.359375 156.679688 314.308594 156.417969 314.308594 156.148438 C 314.308594 155.875 314.359375 155.613281 314.464844 155.363281 C 314.566406 155.113281 314.714844 154.890625 314.90625 154.699219 C 315.101562 154.507812 315.320312 154.359375 315.574219 154.253906 C 315.824219 154.148438 316.085938 154.097656 316.355469 154.097656 C 316.628906 154.097656 316.890625 154.148438 317.140625 154.253906 C 317.390625 154.359375 317.613281 154.507812 317.804688 154.699219 C 318 154.890625 318.144531 155.113281 318.25 155.363281 C 318.355469 155.613281 318.40625 155.875 318.40625 156.148438 Z M 318.40625 156.148438"/><path fill="#EDDED9" d="M 80.660156 245.3125 C 80.660156 245.449219 80.632812 245.578125 80.582031 245.703125 C 80.53125 245.828125 80.457031 245.941406 80.359375 246.035156 C 80.265625 246.132812 80.152344 246.207031 80.027344 246.257812 C 79.902344 246.3125 79.769531 246.335938 79.636719 246.335938 C 79.5 246.335938 79.367188 246.3125 79.242188 246.257812 C 79.117188 246.207031 79.007812 246.132812 78.910156 246.035156 C 78.816406 245.941406 78.742188 245.828125 78.6875 245.703125 C 78.636719 245.578125 78.609375 245.449219 78.609375 245.3125 C 78.609375 245.175781 78.636719 245.046875 78.6875 244.917969 C 78.742188 244.792969 78.816406 244.683594 78.910156 244.585938 C 79.007812 244.492188 79.117188 244.417969 79.242188 244.363281 C 79.367188 244.3125 79.5 244.285156 79.636719 244.285156 C 79.769531 244.285156 79.902344 244.3125 80.027344 244.363281 C 80.152344 244.417969 80.265625 244.492188 80.359375 244.585938 C 80.457031 244.683594 80.53125 244.792969 80.582031 244.917969 C 80.632812 245.046875 80.660156 245.175781 80.660156 245.3125 Z M 80.660156 245.3125"/><path fill="#EDDED9" d="M 193.382812 19.839844 C 193.382812 19.976562 193.359375 20.105469 193.304688 20.234375 C 193.253906 20.359375 193.179688 20.46875 193.085938 20.566406 C 192.988281 20.660156 192.878906 20.734375 192.753906 20.789062 C 192.625 20.839844 192.496094 20.867188 192.359375 20.867188 C 192.222656 20.867188 192.09375 20.839844 191.96875 20.789062 C 191.84375 20.734375 191.730469 20.660156 191.636719 20.566406 C 191.539062 20.46875 191.464844 20.359375 191.414062 20.234375 C 191.359375 20.105469 191.335938 19.976562 191.335938 19.839844 C 191.335938 19.703125 191.359375 19.574219 191.414062 19.449219 C 191.464844 19.324219 191.539062 19.210938 191.636719 19.117188 C 191.730469 19.019531 191.84375 18.945312 191.96875 18.894531 C 192.09375 18.839844 192.222656 18.816406 192.359375 18.816406 C 192.496094 18.816406 192.625 18.839844 192.753906 18.894531 C 192.878906 18.945312 192.988281 19.019531 193.085938 19.117188 C 193.179688 19.210938 193.253906 19.324219 193.304688 19.449219 C 193.359375 19.574219 193.382812 19.703125 193.382812 19.839844 Z M 193.382812 19.839844"/></svg>