<svg width="48" height="49" viewBox="0 0 48 49" fill="none" xmlns="http://www.w3.org/2000/svg">
<path d="M24 48.5C37.2548 48.5 48 37.7548 48 24.5C48 11.2452 37.2548 0.5 24 0.5C10.7452 0.5 0 11.2452 0 24.5C0 37.7548 10.7452 48.5 24 48.5Z" fill="url(#paint0_linear_5084_36695)"/>
<path d="M30.2951 32.7487H40.0799L38.4791 30.4999L31.6991 20.8999L24.4799 10.6975L17.2607 20.8999L10.4783 30.4855L8.87988 32.7487H18.6647L16.6847 29.8687H14.4215L17.0615 26.1535L21.7199 32.7367H27.2663L31.9199 26.1799L34.5479 29.8927H32.2847L30.2951 32.7487ZM25.7711 29.8687H23.1911L18.8063 23.6839L24.4799 15.6631L30.1559 23.6839L25.7711 29.8687Z" fill="#103F11"/>
<path d="M8.88039 32.7487L8.40039 32.0287L9.76839 31.5415L8.88039 32.7487Z" fill="#103F11"/>
<path d="M30.2954 32.7487L29.8154 32.0287L31.133 31.6543L30.2954 32.7487Z" fill="#103F11"/>
<path d="M29.8156 32.0287H39.6004L37.9996 29.7799L31.2196 20.1799L24.0004 9.97754L16.7812 20.1799L9.99879 29.7655L8.40039 32.0287H18.1852L16.2052 29.1487H13.942L16.582 25.4335L21.2404 32.0167H26.7868L31.4404 25.4599L34.0684 29.1727H31.8052L29.8156 32.0287ZM25.2916 29.1487H22.7116L18.3268 22.9639L24.0004 14.9431L29.6764 22.9639L25.2916 29.1487Z" fill="white"/>
<path opacity="0.4" d="M24.2403 4.82007L24.9435 5.22567V6.03687L24.2403 6.44487L23.5371 6.03687V5.22567L24.2403 4.82007ZM20.1915 5.60007L20.3331 6.39927L21.0963 6.67767L21.7179 6.15447L21.5763 5.35527L20.8131 5.07927L20.1915 5.60007ZM16.9683 6.54807L17.2443 7.31127L18.0459 7.45287L18.5667 6.83127L18.2883 6.06807L17.4891 5.92647L16.9683 6.54807ZM13.9563 8.04327L14.3643 8.74647H15.1755L15.5811 8.04327L15.1755 7.34007H14.3643L13.9563 8.04327ZM11.2515 10.0377L11.7747 10.6593L12.5739 10.5177L12.8523 9.75447L12.3291 9.14007L11.5203 9.27447L11.2515 10.0377ZM8.93311 12.4689L9.55711 12.9921L10.3203 12.7137L10.4595 11.9145L9.84031 11.3937L9.07711 11.6697L8.93311 12.4689ZM7.07311 15.2697L7.77631 15.6753L8.47951 15.2697V14.4561L7.77631 14.0505L7.07311 14.4561V15.2697ZM5.72911 18.3489L6.49231 18.6273L7.11391 18.1041L6.97231 17.3001L6.20911 17.0217L5.58751 17.5401L5.72911 18.3489ZM4.93711 21.6201L5.73631 21.7617L6.25951 21.1401L5.98111 20.3769L5.18191 20.2377L4.66111 20.8521L4.93711 21.6201ZM4.72591 24.9801H5.53711L5.94511 24.2601L5.53711 23.5569H4.72591L4.32031 24.2601L4.72591 24.9801ZM5.10031 28.3209L5.89951 28.1793L6.17791 27.4161L5.65471 26.7945L4.85551 26.9361L4.57951 27.6993L5.10031 28.3209ZM6.04831 31.5321L6.81151 31.2561L6.95311 30.4545L6.33151 29.9337L5.56831 30.2121L5.42671 31.0113L6.04831 31.5321ZM7.54351 34.5441L8.24671 34.1361V33.3249L7.54351 32.9193L6.84031 33.3249V34.1361L7.54351 34.5441ZM9.53791 37.2489L10.1595 36.7257L10.0179 35.9265L9.25471 35.6481L8.64031 36.1713L8.78191 36.9705L9.53791 37.2489ZM11.9691 39.5673L12.4923 38.9433L12.2139 38.1801L11.4147 38.0409L10.8939 38.6601L11.1699 39.4233L11.9691 39.5673ZM14.7699 41.4273L15.1755 40.7241L14.7699 40.0209H13.9563L13.5507 40.7241L13.9563 41.4273H14.7699ZM17.8491 42.7713L18.1275 42.0201L17.6043 41.3985L16.8003 41.5401L16.5219 42.3033L17.0403 42.9129L17.8491 42.7713ZM21.1203 43.5633L21.2619 42.7641L20.6403 42.2409L19.8771 42.5193L19.7379 43.3185L20.3595 43.8393L21.1203 43.5633ZM24.4803 43.7745V42.9633L23.7603 42.5553L23.0571 42.9633V43.7745L23.7603 44.1801L24.4803 43.7745ZM27.8211 43.4001L27.6795 42.6009L26.9163 42.3225L26.2947 42.8457L26.4363 43.6449L27.1995 43.9209L27.8211 43.4001ZM31.0443 42.4521L30.7683 41.6889L29.9667 41.5473L29.4459 42.1689L29.7243 42.9321L30.5235 43.0737L31.0443 42.4521ZM34.0563 40.9569L33.6483 40.2537H32.8371L32.4315 40.9569L32.8371 41.6601H33.6483L34.0563 40.9569ZM36.7611 38.9625L36.2379 38.3409L35.4387 38.4825L35.1603 39.2457L35.6835 39.8673L36.4827 39.7257L36.7611 38.9625ZM39.0795 36.5313L38.4555 36.0081L37.6803 36.2865L37.5411 37.0857L38.1627 37.6065L38.9259 37.3305L39.0795 36.5313ZM40.9395 33.7305L40.2363 33.3249L39.5331 33.7305V34.5441L40.2363 34.9497L40.9395 34.5441V33.7305ZM42.2835 30.6513L41.5203 30.3729L40.8987 30.8961L41.0403 31.7001L41.8035 31.9785L42.4251 31.4553L42.2835 30.6513ZM43.0755 27.3849L42.2763 27.2433L41.7531 27.8673L42.0315 28.6305L42.8307 28.7697L43.3515 28.1481L43.0755 27.3849ZM43.2867 24.0249H42.4755L42.0675 24.7281L42.4755 25.4313H43.2867L43.6803 24.7401L43.2867 24.0249ZM42.9123 20.6841L42.1131 20.8257L41.8347 21.5889L42.3579 22.2105L43.1571 22.0689L43.4331 21.3057L42.9123 20.6841ZM41.9523 17.4681L41.1891 17.7441L41.0403 18.5457L41.6619 19.0665L42.4251 18.7881L42.5667 17.9889L41.9523 17.4681ZM40.4571 14.4561L39.7539 14.8641V15.6753L40.4571 16.0809L41.1603 15.6753V14.8641L40.4571 14.4561ZM38.4627 11.7513L37.8411 12.2745L37.9827 13.0737L38.7459 13.3521L39.3603 12.8289L39.2259 12.0201L38.4627 11.7513ZM36.0315 9.43287L35.5203 10.0569L35.7867 10.8201L36.5859 10.9593L37.1067 10.3401L36.8307 9.57687L36.0315 9.43287ZM33.2307 7.57287L32.8251 8.27607L33.2307 8.97927H34.0443L34.4499 8.27607L34.0443 7.57287H33.2307ZM30.1515 6.22887L29.8731 6.99207L30.3963 7.61367L31.1955 7.47207L31.4739 6.70887L30.9603 6.08727L30.1515 6.22887ZM26.8803 5.43687L26.7387 6.23607L27.3627 6.75927L28.1259 6.48087L28.2651 5.68167L27.6435 5.16087L26.8803 5.43687Z" fill="white"/>
<path d="M24 3.38C28.1772 3.38 32.2605 4.61867 35.7337 6.93936C39.2068 9.26006 41.9138 12.5586 43.5123 16.4177C45.1109 20.2769 45.5291 24.5234 44.7142 28.6203C43.8993 32.7172 41.8878 36.4804 38.9341 39.4341C35.9804 42.3878 32.2172 44.3993 28.1203 45.2142C24.0234 46.0291 19.7769 45.6109 15.9177 44.0123C12.0586 42.4138 8.76007 39.7068 6.43937 36.2336C4.11868 32.7605 2.88001 28.6771 2.88001 24.5C2.88636 18.9006 5.11354 13.5323 9.07293 9.57292C13.0323 5.61353 18.4006 3.38635 24 3.38ZM24 0.5C19.2533 0.5 14.6131 1.90758 10.6663 4.54473C6.71955 7.18188 3.64341 10.9302 1.8269 15.3156C0.0103988 19.701 -0.464881 24.5266 0.461164 29.1822C1.38721 33.8377 3.67299 38.1141 7.02945 41.4706C10.3859 44.827 14.6623 47.1128 19.3178 48.0388C23.9734 48.9649 28.799 48.4896 33.1844 46.6731C37.5698 44.8566 41.3181 41.7805 43.9553 37.8337C46.5924 33.8869 48 29.2468 48 24.5C48 18.1348 45.4714 12.0303 40.9706 7.52944C36.4697 3.02856 30.3652 0.5 24 0.5V0.5Z" fill="#09722F"/>
<path d="M24.0001 4.10012C28.0349 4.10012 31.979 5.29656 35.3338 7.53814C38.6885 9.77972 41.3032 12.9658 42.8473 16.6934C44.3913 20.421 44.7953 24.5227 44.0081 28.48C43.221 32.4372 41.2781 36.0721 38.4251 38.9251C35.5721 41.7781 31.9372 43.721 27.98 44.5081C24.0228 45.2953 19.921 44.8913 16.1934 43.3473C12.4658 41.8032 9.27973 39.1885 7.03815 35.8338C4.79657 32.479 3.60013 28.5349 3.60013 24.5001C3.60648 19.0917 5.7578 13.9065 9.58216 10.0822C13.4065 6.25779 18.5917 4.10647 24.0001 4.10012ZM24.0001 3.62012C19.8705 3.62012 15.8335 4.84471 12.3998 7.13903C8.96612 9.43336 6.28988 12.6944 4.70952 16.5097C3.12916 20.325 2.71567 24.5233 3.52133 28.5736C4.32699 32.6239 6.31562 36.3444 9.23574 39.2645C12.1559 42.1846 15.8763 44.1733 19.9266 44.9789C23.977 45.7846 28.1752 45.3711 31.9906 43.7907C35.8059 42.2104 39.0669 39.5341 41.3612 36.1004C43.6555 32.6667 44.8801 28.6298 44.8801 24.5001C44.8801 18.9624 42.6803 13.6515 38.7645 9.73573C34.8488 5.81997 29.5378 3.62012 24.0001 3.62012Z" fill="white"/>
<path d="M24 3.14C28.2246 3.14 32.3544 4.39274 35.867 6.73981C39.3796 9.08688 42.1174 12.4229 43.7341 16.3259C45.3508 20.2289 45.7738 24.5237 44.9496 28.6671C44.1254 32.8106 42.0911 36.6166 39.1038 39.6038C36.1166 42.5911 32.3106 44.6254 28.1671 45.4496C24.0237 46.2738 19.7289 45.8508 15.8259 44.2341C11.9229 42.6174 8.58689 39.8796 6.23982 36.367C3.89275 32.8543 2.64001 28.7246 2.64001 24.5C2.647 18.8371 4.89966 13.4082 8.90393 9.40392C12.9082 5.39965 18.3371 3.14699 24 3.14ZM24 0.5C19.2533 0.5 14.6131 1.90758 10.6663 4.54473C6.71955 7.18188 3.64341 10.9302 1.8269 15.3156C0.0103988 19.701 -0.464881 24.5266 0.461164 29.1822C1.38721 33.8377 3.67299 38.1141 7.02945 41.4706C10.3859 44.827 14.6623 47.1128 19.3178 48.0388C23.9734 48.9649 28.799 48.4896 33.1844 46.6731C37.5698 44.8566 41.3181 41.7805 43.9553 37.8337C46.5924 33.8869 48 29.2468 48 24.5C48 18.1348 45.4714 12.0303 40.9706 7.52944C36.4697 3.02856 30.3652 0.5 24 0.5V0.5Z" fill="#2CCA6B"/>
<g style="mix-blend-mode:overlay">
<g style="mix-blend-mode:overlay" opacity="0.4">
<g style="mix-blend-mode:overlay" opacity="0.4">
<path d="M24.1199 1.1001H23.8799V2.4489H24.1199V1.1001Z" fill="white"/>
</g>
<g style="mix-blend-mode:overlay" opacity="0.4">
<path d="M22.1677 1.12098L21.9277 1.14258L22.0491 2.49138L22.2891 2.46978L22.1677 1.12098Z" fill="white"/>
</g>
<g style="mix-blend-mode:overlay" opacity="0.4">
<path d="M20.0557 1.4344L19.8193 1.47607L20.0536 2.80438L20.2899 2.76271L20.0557 1.4344Z" fill="white"/>
</g>
<g style="mix-blend-mode:overlay" opacity="0.4">
<path d="M18.058 1.86733L17.8262 1.92944L18.1753 3.23228L18.4071 3.17017L18.058 1.86733Z" fill="white"/>
</g>
<g style="mix-blend-mode:overlay" opacity="0.4">
<path d="M16.1083 2.47041L15.8828 2.55249L16.3441 3.81995L16.5697 3.73786L16.1083 2.47041Z" fill="white"/>
</g>
<g style="mix-blend-mode:overlay" opacity="0.4">
<path d="M14.2195 3.24212L14.002 3.34351L14.5718 4.56603L14.7893 4.46464L14.2195 3.24212Z" fill="white"/>
</g>
<g style="mix-blend-mode:overlay" opacity="0.4">
<path d="M12.4061 4.17565L12.1982 4.29565L12.8726 5.46375L13.0805 5.34375L12.4061 4.17565Z" fill="white"/>
</g>
<g style="mix-blend-mode:overlay" opacity="0.4">
<path d="M10.6751 5.26325L10.4785 5.40088L11.252 6.50589L11.4486 6.36826L10.6751 5.26325Z" fill="white"/>
</g>
<g style="mix-blend-mode:overlay" opacity="0.4">
<path d="M9.04811 6.49759L8.86426 6.65186L9.73125 7.6851L9.9151 7.53083L9.04811 6.49759Z" fill="white"/>
</g>
<g style="mix-blend-mode:overlay" opacity="0.4">
<path d="M7.53592 7.86789L7.36621 8.0376L8.31996 8.99134L8.48966 8.82164L7.53592 7.86789Z" fill="white"/>
</g>
<g style="mix-blend-mode:overlay" opacity="0.4">
<path d="M6.14939 9.36742L5.99512 9.55127L7.02836 10.4183L7.18263 10.2344L6.14939 9.36742Z" fill="white"/>
</g>
<g style="mix-blend-mode:overlay" opacity="0.4">
<path d="M4.90032 10.9794L4.7627 11.176L5.8677 11.9495L6.00533 11.7529L4.90032 10.9794Z" fill="white"/>
</g>
<g style="mix-blend-mode:overlay" opacity="0.4">
<path d="M3.79676 12.6952L3.67676 12.9031L4.84485 13.5775L4.96485 13.3696L3.79676 12.6952Z" fill="white"/>
</g>
<g style="mix-blend-mode:overlay" opacity="0.4">
<path d="M2.84065 14.5007L2.73926 14.7183L3.96179 15.2881L4.06318 15.0705L2.84065 14.5007Z" fill="white"/>
</g>
<g style="mix-blend-mode:overlay" opacity="0.4">
<path d="M2.04986 16.3826L1.96777 16.6082L3.23523 17.0695L3.31731 16.8439L2.04986 16.3826Z" fill="white"/>
</g>
<g style="mix-blend-mode:overlay" opacity="0.4">
<path d="M1.42833 18.327L1.36621 18.5588L2.66905 18.9079L2.73117 18.6761L1.42833 18.327Z" fill="white"/>
</g>
<g style="mix-blend-mode:overlay" opacity="0.4">
<path d="M0.977222 20.3174L0.935547 20.5537L2.26386 20.7879L2.30553 20.5516L0.977222 20.3174Z" fill="white"/>
</g>
<g style="mix-blend-mode:overlay" opacity="0.4">
<path d="M0.700647 22.3427L0.679688 22.5818L2.02333 22.6996L2.04429 22.4605L0.700647 22.3427Z" fill="white"/>
</g>
<g style="mix-blend-mode:overlay" opacity="0.4">
<path d="M1.94841 24.3801H0.599609V24.6201H1.94841V24.3801Z" fill="white"/>
</g>
<g style="mix-blend-mode:overlay" opacity="0.4">
<path d="M2.02132 26.3022L0.677734 26.4207L0.698819 26.6597L2.0424 26.5412L2.02132 26.3022Z" fill="white"/>
</g>
<g style="mix-blend-mode:overlay" opacity="0.4">
<path d="M2.25991 28.2114L0.931641 28.4458L0.973357 28.6821L2.30163 28.4477L2.25991 28.2114Z" fill="white"/>
</g>
<g style="mix-blend-mode:overlay" opacity="0.4">
<path d="M2.671 30.0913L1.36816 30.4404L1.43028 30.6722L2.73312 30.3232L2.671 30.0913Z" fill="white"/>
</g>
<g style="mix-blend-mode:overlay" opacity="0.4">
<path d="M3.23629 31.932L1.96875 32.3931L2.0508 32.6186L3.31833 32.1575L3.23629 31.932Z" fill="white"/>
</g>
<g style="mix-blend-mode:overlay" opacity="0.4">
<path d="M3.96208 33.7135L2.73926 34.2827L2.84053 34.5003L4.06336 33.9311L3.96208 33.7135Z" fill="white"/>
</g>
<g style="mix-blend-mode:overlay" opacity="0.4">
<path d="M4.84266 35.4221L3.6748 36.0969L3.79488 36.3047L4.96274 35.6299L4.84266 35.4221Z" fill="white"/>
</g>
<g style="mix-blend-mode:overlay" opacity="0.4">
<path d="M5.86686 37.0485L4.76172 37.8218L4.89931 38.0184L6.00445 37.2452L5.86686 37.0485Z" fill="white"/>
</g>
<g style="mix-blend-mode:overlay" opacity="0.4">
<path d="M7.03114 38.5813L5.99805 39.4485L6.15235 39.6323L7.18544 38.7651L7.03114 38.5813Z" fill="white"/>
</g>
<g style="mix-blend-mode:overlay" opacity="0.4">
<path d="M8.32191 40.0101L7.36816 40.9639L7.53787 41.1336L8.49162 40.1798L8.32191 40.0101Z" fill="white"/>
</g>
<g style="mix-blend-mode:overlay" opacity="0.4">
<path d="M9.73241 41.318L8.86523 42.3511L9.04906 42.5054L9.91623 41.4723L9.73241 41.318Z" fill="white"/>
</g>
<g style="mix-blend-mode:overlay" opacity="0.4">
<path d="M11.2527 42.4962L10.4795 43.6013L10.6761 43.7389L11.4494 42.6338L11.2527 42.4962Z" fill="white"/>
</g>
<g style="mix-blend-mode:overlay" opacity="0.4">
<path d="M12.8691 43.5336L12.1943 44.7014L12.4021 44.8215L13.077 43.6536L12.8691 43.5336Z" fill="white"/>
</g>
<g style="mix-blend-mode:overlay" opacity="0.4">
<path d="M14.5721 44.4337L14.0029 45.6565L14.2205 45.7578L14.7897 44.535L14.5721 44.4337Z" fill="white"/>
</g>
<g style="mix-blend-mode:overlay" opacity="0.4">
<path d="M16.3459 45.18L15.8848 46.4475L16.1103 46.5296L16.5714 45.262L16.3459 45.18Z" fill="white"/>
</g>
<g style="mix-blend-mode:overlay" opacity="0.4">
<path d="M18.1743 45.7694L17.8252 47.0723L18.057 47.1344L18.4061 45.8315L18.1743 45.7694Z" fill="white"/>
</g>
<g style="mix-blend-mode:overlay" opacity="0.4">
<path d="M20.0509 46.191L19.8164 47.5193L20.0528 47.561L20.2872 46.2327L20.0509 46.191Z" fill="white"/>
</g>
<g style="mix-blend-mode:overlay" opacity="0.4">
<path d="M21.9593 46.4538L21.8408 47.7974L22.0799 47.8184L22.1984 46.4749L21.9593 46.4538Z" fill="white"/>
</g>
<g style="mix-blend-mode:overlay" opacity="0.4">
<path d="M24.1199 46.5513H23.8799V47.9001H24.1199V46.5513Z" fill="white"/>
</g>
<g style="mix-blend-mode:overlay" opacity="0.4">
<path d="M26.2664 46.5614L26.0264 46.583L26.1478 47.9318L26.3878 47.9102L26.2664 46.5614Z" fill="white"/>
</g>
<g style="mix-blend-mode:overlay" opacity="0.4">
<path d="M27.9463 46.1937L27.71 46.2354L27.9442 47.5637L28.1805 47.522L27.9463 46.1937Z" fill="white"/>
</g>
<g style="mix-blend-mode:overlay" opacity="0.4">
<path d="M29.8236 45.7682L29.5918 45.8303L29.9409 47.1332L30.1727 47.071L29.8236 45.7682Z" fill="white"/>
</g>
<g style="mix-blend-mode:overlay" opacity="0.4">
<path d="M31.6552 45.1813L31.4297 45.2634L31.891 46.5309L32.1165 46.4488L31.6552 45.1813Z" fill="white"/>
</g>
<g style="mix-blend-mode:overlay" opacity="0.4">
<path d="M33.4265 44.4377L33.209 44.5391L33.7788 45.7616L33.9963 45.6602L33.4265 44.4377Z" fill="white"/>
</g>
<g style="mix-blend-mode:overlay" opacity="0.4">
<path d="M35.1297 43.5365L34.9219 43.6565L35.5963 44.8246L35.8041 44.7046L35.1297 43.5365Z" fill="white"/>
</g>
<g style="mix-blend-mode:overlay" opacity="0.4">
<path d="M36.7464 42.4998L36.5498 42.6375L37.3233 43.7425L37.5199 43.6048L36.7464 42.4998Z" fill="white"/>
</g>
<g style="mix-blend-mode:overlay" opacity="0.4">
<path d="M38.2669 41.3179L38.083 41.4722L38.95 42.5054L39.1339 42.3511L38.2669 41.3179Z" fill="white"/>
</g>
<g style="mix-blend-mode:overlay" opacity="0.4">
<path d="M39.6775 40.0088L39.5078 40.1785L40.4616 41.1322L40.6313 40.9625L39.6775 40.0088Z" fill="white"/>
</g>
<g style="mix-blend-mode:overlay" opacity="0.4">
<path d="M40.9697 38.5815L40.8154 38.7654L41.8487 39.6324L42.0029 39.4485L40.9697 38.5815Z" fill="white"/>
</g>
<g style="mix-blend-mode:overlay" opacity="0.4">
<path d="M42.1308 37.0451L41.9932 37.2417L43.0982 38.0151L43.2358 37.8185L42.1308 37.0451Z" fill="white"/>
</g>
<g style="mix-blend-mode:overlay" opacity="0.4">
<path d="M43.1581 35.4225L43.0381 35.6304L44.2062 36.3048L44.3262 36.0969L43.1581 35.4225Z" fill="white"/>
</g>
<g style="mix-blend-mode:overlay" opacity="0.4">
<path d="M44.034 33.7085L43.9326 33.926L45.1551 34.4958L45.2565 34.2783L44.034 33.7085Z" fill="white"/>
</g>
<g style="mix-blend-mode:overlay" opacity="0.4">
<path d="M44.7627 31.9295L44.6807 32.155L45.9481 32.6163L46.0302 32.3908L44.7627 31.9295Z" fill="white"/>
</g>
<g style="mix-blend-mode:overlay" opacity="0.4">
<path d="M45.3297 30.0919L45.2676 30.3237L46.5704 30.6728L46.6325 30.441L45.3297 30.0919Z" fill="white"/>
</g>
<g style="mix-blend-mode:overlay" opacity="0.4">
<path d="M45.736 28.2116L45.6943 28.448L47.0227 28.6822L47.0643 28.4459L45.736 28.2116Z" fill="white"/>
</g>
<g style="mix-blend-mode:overlay" opacity="0.4">
<path d="M45.9819 26.3056L45.9609 26.5447L47.3046 26.6625L47.3255 26.4234L45.9819 26.3056Z" fill="white"/>
</g>
<g style="mix-blend-mode:overlay" opacity="0.4">
<path d="M47.3996 24.3801H46.0508V24.6201H47.3996V24.3801Z" fill="white"/>
</g>
<g style="mix-blend-mode:overlay" opacity="0.4">
<path d="M47.2996 22.3444L45.9561 22.4629L45.9771 22.702L47.3207 22.5835L47.2996 22.3444Z" fill="white"/>
</g>
<g style="mix-blend-mode:overlay" opacity="0.4">
<path d="M47.0206 20.3232L45.6924 20.5576L45.7341 20.794L47.0624 20.5595L47.0206 20.3232Z" fill="white"/>
</g>
<g style="mix-blend-mode:overlay" opacity="0.4">
<path d="M46.5714 18.3282L45.2686 18.6772L45.3307 18.9091L46.6335 18.56L46.5714 18.3282Z" fill="white"/>
</g>
<g style="mix-blend-mode:overlay" opacity="0.4">
<path d="M45.9472 16.3863L44.6797 16.8474L44.7617 17.0729L46.0293 16.6119L45.9472 16.3863Z" fill="white"/>
</g>
<g style="mix-blend-mode:overlay" opacity="0.4">
<path d="M45.1564 14.5031L43.9336 15.0723L44.0349 15.2899L45.2577 14.7207L45.1564 14.5031Z" fill="white"/>
</g>
<g style="mix-blend-mode:overlay" opacity="0.4">
<path d="M44.204 12.6997L43.0361 13.3745L43.1562 13.5823L44.3241 12.9075L44.204 12.6997Z" fill="white"/>
</g>
<g style="mix-blend-mode:overlay" opacity="0.4">
<path d="M43.0993 10.9799L41.9941 11.7532L42.1317 11.9498L43.2369 11.1766L43.0993 10.9799Z" fill="white"/>
</g>
<g style="mix-blend-mode:overlay" opacity="0.4">
<path d="M41.8466 9.36378L40.8135 10.231L40.9678 10.4148L42.0009 9.5476L41.8466 9.36378Z" fill="white"/>
</g>
<g style="mix-blend-mode:overlay" opacity="0.4">
<path d="M40.4625 7.86656L39.5088 8.82031L39.6785 8.99002L40.6322 8.03627L40.4625 7.86656Z" fill="white"/>
</g>
<g style="mix-blend-mode:overlay" opacity="0.4">
<path d="M38.9502 6.49889L38.083 7.53198L38.2668 7.68628L39.134 6.65319L38.9502 6.49889Z" fill="white"/>
</g>
<g style="mix-blend-mode:overlay" opacity="0.4">
<path d="M37.3231 5.26302L36.5498 6.36816L36.7465 6.50575L37.5197 5.40061L37.3231 5.26302Z" fill="white"/>
</g>
<g style="mix-blend-mode:overlay" opacity="0.4">
<path d="M35.5957 4.17418L34.9209 5.34204L35.1287 5.46211L35.8035 4.29425L35.5957 4.17418Z" fill="white"/>
</g>
<g style="mix-blend-mode:overlay" opacity="0.4">
<path d="M33.7782 3.23909L33.209 4.46191L33.4266 4.56319L33.9957 3.34037L33.7782 3.23909Z" fill="white"/>
</g>
<g style="mix-blend-mode:overlay" opacity="0.4">
<path d="M31.8898 2.46855L31.4287 3.73608L31.6543 3.81813L32.1153 2.55059L31.8898 2.46855Z" fill="white"/>
</g>
<g style="mix-blend-mode:overlay" opacity="0.4">
<path d="M29.9419 1.86562L29.5928 3.16846L29.8246 3.23057L30.1737 1.92773L29.9419 1.86562Z" fill="white"/>
</g>
<g style="mix-blend-mode:overlay" opacity="0.4">
<path d="M27.9434 1.43418L27.709 2.76245L27.9453 2.80417L28.1798 1.4759L27.9434 1.43418Z" fill="white"/>
</g>
<g style="mix-blend-mode:overlay" opacity="0.4">
<path d="M25.9193 1.1801L25.8008 2.52368L26.0399 2.54477L26.1583 1.20118L25.9193 1.1801Z" fill="white"/>
</g>
</g>
<g style="mix-blend-mode:overlay" opacity="0.4">
<g style="mix-blend-mode:overlay" opacity="0.4">
<path d="M23.1509 1.11625L22.9111 1.12622L22.9671 2.47386L23.2069 2.46389L23.1509 1.11625Z" fill="white"/>
</g>
<g style="mix-blend-mode:overlay" opacity="0.4">
<path d="M21.115 1.27756L20.877 1.30835L21.05 2.64601L21.288 2.61522L21.115 1.27756Z" fill="white"/>
</g>
<g style="mix-blend-mode:overlay" opacity="0.4">
<path d="M19.1016 1.61944L18.8672 1.6709L19.1564 2.98833L19.3908 2.93688L19.1016 1.61944Z" fill="white"/>
</g>
<g style="mix-blend-mode:overlay" opacity="0.4">
<path d="M17.1275 2.1329L16.8984 2.20459L17.3013 3.49181L17.5304 3.42012L17.1275 2.1329Z" fill="white"/>
</g>
<g style="mix-blend-mode:overlay" opacity="0.4">
<path d="M15.2054 2.8169L14.9834 2.9082L15.4965 4.15559L15.7185 4.06429L15.2054 2.8169Z" fill="white"/>
</g>
<g style="mix-blend-mode:overlay" opacity="0.4">
<path d="M13.3469 3.66505L13.1338 3.77539L13.7539 4.9732L13.967 4.86286L13.3469 3.66505Z" fill="white"/>
</g>
<g style="mix-blend-mode:overlay" opacity="0.4">
<path d="M11.5366 4.59989L11.335 4.72949L12.0633 5.86248L12.2649 5.73288L11.5366 4.59989Z" fill="white"/>
</g>
<g style="mix-blend-mode:overlay" opacity="0.4">
<path d="M9.89093 5.83162L9.7002 5.97729L10.5189 7.04923L10.7096 6.90356L9.89093 5.83162Z" fill="white"/>
</g>
<g style="mix-blend-mode:overlay" opacity="0.4">
<path d="M8.31498 7.13144L8.1377 7.29321L9.04685 8.28956L9.22413 8.12779L8.31498 7.13144Z" fill="white"/>
</g>
<g style="mix-blend-mode:overlay" opacity="0.4">
<path d="M6.86371 8.56341L6.70117 8.73999L7.69354 9.65348L7.85609 9.4769L6.86371 8.56341Z" fill="white"/>
</g>
<g style="mix-blend-mode:overlay" opacity="0.4">
<path d="M5.54204 10.1171L5.39551 10.3071L6.46372 11.1306L6.61025 10.9406L5.54204 10.1171Z" fill="white"/>
</g>
<g style="mix-blend-mode:overlay" opacity="0.4">
<path d="M4.35496 11.78L4.22559 11.9822L5.36163 12.7093L5.49101 12.5071L4.35496 11.78Z" fill="white"/>
</g>
<g style="mix-blend-mode:overlay" opacity="0.4">
<path d="M3.32423 13.5425L3.21289 13.7551L4.40777 14.3809L4.51911 14.1682L3.32423 13.5425Z" fill="white"/>
</g>
<g style="mix-blend-mode:overlay" opacity="0.4">
<path d="M2.44582 15.3866L2.35352 15.6082L3.59856 16.1269L3.69087 15.9054L2.44582 15.3866Z" fill="white"/>
</g>
<g style="mix-blend-mode:overlay" opacity="0.4">
<path d="M1.73476 17.2976L1.66211 17.5264L2.94763 17.9347L3.02028 17.7059L1.73476 17.2976Z" fill="white"/>
</g>
<g style="mix-blend-mode:overlay" opacity="0.4">
<path d="M1.19213 19.2682L1.13965 19.5024L2.45581 19.7974L2.50829 19.5632L1.19213 19.2682Z" fill="white"/>
</g>
<g style="mix-blend-mode:overlay" opacity="0.4">
<path d="M0.820929 21.2731L0.789062 21.511L2.12592 21.6901L2.15779 21.4522L0.820929 21.2731Z" fill="white"/>
</g>
<g style="mix-blend-mode:overlay" opacity="0.4">
<path d="M0.629177 23.3066L0.618164 23.5464L1.96554 23.6083L1.97656 23.3685L0.629177 23.3066Z" fill="white"/>
</g>
<g style="mix-blend-mode:overlay" opacity="0.4">
<path d="M1.96284 25.2929L0.615234 25.3496L0.625326 25.5894L1.97293 25.5327L1.96284 25.2929Z" fill="white"/>
</g>
<g style="mix-blend-mode:overlay" opacity="0.4">
<path d="M2.11115 27.2107L0.773438 27.3833L0.804141 27.6213L2.14186 27.4488L2.11115 27.2107Z" fill="white"/>
</g>
<g style="mix-blend-mode:overlay" opacity="0.4">
<path d="M2.43545 29.1064L1.11816 29.3962L1.16974 29.6306L2.48703 29.3408L2.43545 29.1064Z" fill="white"/>
</g>
<g style="mix-blend-mode:overlay" opacity="0.4">
<path d="M2.91717 30.9704L1.62988 31.373L1.70153 31.6021L2.98882 31.1994L2.91717 30.9704Z" fill="white"/>
</g>
<g style="mix-blend-mode:overlay" opacity="0.4">
<path d="M3.56211 32.7829L2.31445 33.2954L2.40564 33.5174L3.65329 33.0049L3.56211 32.7829Z" fill="white"/>
</g>
<g style="mix-blend-mode:overlay" opacity="0.4">
<path d="M4.36166 34.5328L3.16406 35.1533L3.27447 35.3664L4.47207 34.7459L4.36166 34.5328Z" fill="white"/>
</g>
<g style="mix-blend-mode:overlay" opacity="0.4">
<path d="M5.30973 36.2048L4.1709 36.9275L4.2995 37.1301L5.43833 36.4074L5.30973 36.2048Z" fill="white"/>
</g>
<g style="mix-blend-mode:overlay" opacity="0.4">
<path d="M6.47961 37.5998L5.41406 38.4226L5.56046 38.6122L6.62601 37.7894L6.47961 37.5998Z" fill="white"/>
</g>
<g style="mix-blend-mode:overlay" opacity="0.4">
<path d="M7.62802 39.2713L6.63184 40.1807L6.79364 40.3579L7.78982 39.4486L7.62802 39.2713Z" fill="white"/>
</g>
<g style="mix-blend-mode:overlay" opacity="0.4">
<path d="M8.97679 40.642L8.06348 41.6345L8.24008 41.797L9.1534 40.8045L8.97679 40.642Z" fill="white"/>
</g>
<g style="mix-blend-mode:overlay" opacity="0.4">
<path d="M10.3501 41.8951L9.52734 42.9607L9.71694 43.1071L10.5397 42.0415L10.3501 41.8951Z" fill="white"/>
</g>
<g style="mix-blend-mode:overlay" opacity="0.4">
<path d="M12.0095 43.0045L11.2822 44.1404L11.4843 44.2698L12.2116 43.1339L12.0095 43.0045Z" fill="white"/>
</g>
<g style="mix-blend-mode:overlay" opacity="0.4">
<path d="M13.6667 43.9807L13.041 45.1755L13.2536 45.2869L13.8794 44.092L13.6667 43.9807Z" fill="white"/>
</g>
<g style="mix-blend-mode:overlay" opacity="0.4">
<path d="M15.4043 44.8057L14.8857 46.0508L15.1073 46.1431L15.6259 44.8979L15.4043 44.8057Z" fill="white"/>
</g>
<g style="mix-blend-mode:overlay" opacity="0.4">
<path d="M17.2071 45.4791L16.7988 46.7646L17.0276 46.8373L17.4359 45.5518L17.2071 45.4791Z" fill="white"/>
</g>
<g style="mix-blend-mode:overlay" opacity="0.4">
<path d="M19.0625 45.9961L18.7676 47.3123L19.0018 47.3647L19.2967 46.0486L19.0625 45.9961Z" fill="white"/>
</g>
<g style="mix-blend-mode:overlay" opacity="0.4">
<path d="M20.9537 46.3417L20.7744 47.6785L21.0123 47.7104L21.1916 46.3736L20.9537 46.3417Z" fill="white"/>
</g>
<g style="mix-blend-mode:overlay" opacity="0.4">
<path d="M22.8676 46.5225L22.8057 47.8699L23.0454 47.8809L23.1073 46.5335L22.8676 46.5225Z" fill="white"/>
</g>
<g style="mix-blend-mode:overlay" opacity="0.4">
<path d="M25.0328 46.5269L24.793 46.5369L24.849 47.8845L25.0888 47.8745L25.0328 46.5269Z" fill="white"/>
</g>
<g style="mix-blend-mode:overlay" opacity="0.4">
<path d="M26.947 46.3547L26.709 46.3855L26.882 47.7232L27.12 47.6924L26.947 46.3547Z" fill="white"/>
</g>
<g style="mix-blend-mode:overlay" opacity="0.4">
<path d="M28.8399 46.0167L28.6055 46.0681L28.8946 47.3856L29.1291 47.3341L28.8399 46.0167Z" fill="white"/>
</g>
<g style="mix-blend-mode:overlay" opacity="0.4">
<path d="M30.6968 45.5103L30.4678 45.582L30.8707 46.8692L31.0997 46.7976L30.6968 45.5103Z" fill="white"/>
</g>
<g style="mix-blend-mode:overlay" opacity="0.4">
<path d="M32.5022 44.8462L32.2803 44.9375L32.7934 46.1849L33.0153 46.0936L32.5022 44.8462Z" fill="white"/>
</g>
<g style="mix-blend-mode:overlay" opacity="0.4">
<path d="M34.2444 44.0281L34.0312 44.1384L34.6513 45.3362L34.8645 45.2259L34.2444 44.0281Z" fill="white"/>
</g>
<g style="mix-blend-mode:overlay" opacity="0.4">
<path d="M35.937 42.7005L35.7354 42.8301L36.4637 43.9631L36.6653 43.8335L35.937 42.7005Z" fill="white"/>
</g>
<g style="mix-blend-mode:overlay" opacity="0.4">
<path d="M37.4788 41.9544L37.2881 42.1001L38.1068 43.172L38.2975 43.0264L37.4788 41.9544Z" fill="white"/>
</g>
<g style="mix-blend-mode:overlay" opacity="0.4">
<path d="M38.9507 40.7105L38.7734 40.8723L39.6826 41.8687L39.8599 41.7069L38.9507 40.7105Z" fill="white"/>
</g>
<g style="mix-blend-mode:overlay" opacity="0.4">
<path d="M40.3051 39.3427L40.1426 39.5193L41.135 40.4328L41.2975 40.2562L40.3051 39.3427Z" fill="white"/>
</g>
<g style="mix-blend-mode:overlay" opacity="0.4">
<path d="M41.5372 37.869L41.3906 38.0591L42.4588 38.8826L42.6054 38.6925L41.5372 37.869Z" fill="white"/>
</g>
<g style="mix-blend-mode:overlay" opacity="0.4">
<path d="M42.6362 36.2861L42.5068 36.4883L43.6429 37.2154L43.7722 37.0132L42.6362 36.2861Z" fill="white"/>
</g>
<g style="mix-blend-mode:overlay" opacity="0.4">
<path d="M43.5928 34.6211L43.4814 34.8337L44.6763 35.4595L44.7876 35.2469L43.5928 34.6211Z" fill="white"/>
</g>
<g style="mix-blend-mode:overlay" opacity="0.4">
<path d="M44.3999 32.8754L44.3076 33.0969L45.5527 33.6157L45.645 33.3942L44.3999 32.8754Z" fill="white"/>
</g>
<g style="mix-blend-mode:overlay" opacity="0.4">
<path d="M45.0502 31.064L44.9775 31.2927L46.2631 31.701L46.3357 31.4723L45.0502 31.064Z" fill="white"/>
</g>
<g style="mix-blend-mode:overlay" opacity="0.4">
<path d="M45.5456 29.2053L45.4932 29.4395L46.8093 29.7344L46.8618 29.5002L45.5456 29.2053Z" fill="white"/>
</g>
<g style="mix-blend-mode:overlay" opacity="0.4">
<path d="M45.8707 27.309L45.8389 27.5469L47.1757 27.726L47.2076 27.4881L45.8707 27.309Z" fill="white"/>
</g>
<g style="mix-blend-mode:overlay" opacity="0.4">
<path d="M46.0325 25.3916L46.0215 25.6313L47.3689 25.6932L47.3799 25.4535L46.0325 25.3916Z" fill="white"/>
</g>
<g style="mix-blend-mode:overlay" opacity="0.4">
<path d="M47.3759 23.4091L46.0283 23.4658L46.0384 23.7056L47.386 23.6489L47.3759 23.4091Z" fill="white"/>
</g>
<g style="mix-blend-mode:overlay" opacity="0.4">
<path d="M47.1903 21.3814L45.8525 21.554L45.8832 21.792L47.221 21.6194L47.1903 21.3814Z" fill="white"/>
</g>
<g style="mix-blend-mode:overlay" opacity="0.4">
<path d="M46.83 19.3661L45.5127 19.656L45.5643 19.8904L46.8816 19.6005L46.83 19.3661Z" fill="white"/>
</g>
<g style="mix-blend-mode:overlay" opacity="0.4">
<path d="M46.2971 17.4032L45.0098 17.8059L45.0814 18.035L46.3687 17.6323L46.2971 17.4032Z" fill="white"/>
</g>
<g style="mix-blend-mode:overlay" opacity="0.4">
<path d="M45.5914 15.4839L44.3438 15.9963L44.4349 16.2183L45.6826 15.7059L45.5914 15.4839Z" fill="white"/>
</g>
<g style="mix-blend-mode:overlay" opacity="0.4">
<path d="M44.724 13.6339L43.5264 14.2544L43.6368 14.4675L44.8344 13.847L44.724 13.6339Z" fill="white"/>
</g>
<g style="mix-blend-mode:overlay" opacity="0.4">
<path d="M43.6994 11.8713L42.5605 12.594L42.6891 12.7966L43.828 12.0739L43.6994 11.8713Z" fill="white"/>
</g>
<g style="mix-blend-mode:overlay" opacity="0.4">
<path d="M42.3546 10.0327L41.2891 10.8555L41.4355 11.0451L42.501 10.2223L42.3546 10.0327Z" fill="white"/>
</g>
<g style="mix-blend-mode:overlay" opacity="0.4">
<path d="M41.2042 8.6373L40.208 9.54663L40.3698 9.72389L41.366 8.81456L41.2042 8.6373Z" fill="white"/>
</g>
<g style="mix-blend-mode:overlay" opacity="0.4">
<path d="M39.758 7.19961L38.8447 8.19214L39.0213 8.35465L39.9346 7.36212L39.758 7.19961Z" fill="white"/>
</g>
<g style="mix-blend-mode:overlay" opacity="0.4">
<path d="M38.1616 5.97253L37.3389 7.03809L37.5285 7.18449L38.3512 6.11893L38.1616 5.97253Z" fill="white"/>
</g>
<g style="mix-blend-mode:overlay" opacity="0.4">
<path d="M36.5134 4.72517L35.7861 5.86108L35.9883 5.99049L36.7155 4.85458L36.5134 4.72517Z" fill="white"/>
</g>
<g style="mix-blend-mode:overlay" opacity="0.4">
<path d="M34.7449 3.7126L34.1191 4.90747L34.3318 5.01881L34.9575 3.82394L34.7449 3.7126Z" fill="white"/>
</g>
<g style="mix-blend-mode:overlay" opacity="0.4">
<path d="M32.8916 2.85545L32.373 4.10059L32.5946 4.19286L33.1132 2.94772L32.8916 2.85545Z" fill="white"/>
</g>
<g style="mix-blend-mode:overlay" opacity="0.4">
<path d="M30.9708 2.16126L30.5625 3.44678L30.7912 3.51943L31.1995 2.2339L30.9708 2.16126Z" fill="white"/>
</g>
<g style="mix-blend-mode:overlay" opacity="0.4">
<path d="M28.999 1.64038L28.7041 2.95654L28.9383 3.00902L29.2332 1.69286L28.999 1.64038Z" fill="white"/>
</g>
<g style="mix-blend-mode:overlay" opacity="0.4">
<path d="M26.9869 1.2911L26.8076 2.62793L27.0455 2.65984L27.2248 1.32301L26.9869 1.2911Z" fill="white"/>
</g>
<g style="mix-blend-mode:overlay" opacity="0.4">
<path d="M24.9525 1.11893L24.8906 2.46631L25.1304 2.47732L25.1923 1.12994L24.9525 1.11893Z" fill="white"/>
</g>
</g>
</g>
<defs>
<linearGradient id="paint0_linear_5084_36695" x1="9.9192" y1="44.2856" x2="37.692" y2="5.2592" gradientUnits="userSpaceOnUse">
<stop stop-color="#109CF4"/>
<stop offset="1" stop-color="#32D44F"/>
</linearGradient>
</defs>
</svg>
