<svg xmlns="http://www.w3.org/2000/svg" width="375" viewBox="0 0 375 375" height="375" version="1.0"><path fill="#FFF" d="M 375 187.5 C 375 190.570312 374.925781 193.636719 374.773438 196.699219 C 374.625 199.765625 374.398438 202.824219 374.097656 205.878906 C 373.796875 208.933594 373.421875 211.976562 372.96875 215.011719 C 372.519531 218.046875 371.996094 221.070312 371.398438 224.078125 C 370.796875 227.089844 370.125 230.082031 369.378906 233.058594 C 368.636719 236.035156 367.816406 238.992188 366.925781 241.929688 C 366.035156 244.863281 365.074219 247.777344 364.039062 250.667969 C 363.003906 253.554688 361.902344 256.417969 360.726562 259.253906 C 359.554688 262.089844 358.308594 264.890625 356.996094 267.667969 C 355.6875 270.441406 354.304688 273.179688 352.859375 275.886719 C 351.414062 278.59375 349.902344 281.261719 348.324219 283.894531 C 346.746094 286.527344 345.105469 289.117188 343.402344 291.667969 C 341.695312 294.222656 339.929688 296.730469 338.101562 299.195312 C 336.273438 301.660156 334.386719 304.078125 332.4375 306.449219 C 330.492188 308.820312 328.488281 311.144531 326.429688 313.417969 C 324.367188 315.691406 322.253906 317.914062 320.082031 320.082031 C 317.914062 322.253906 315.691406 324.367188 313.417969 326.429688 C 311.144531 328.488281 308.820312 330.492188 306.449219 332.4375 C 304.078125 334.386719 301.660156 336.273438 299.195312 338.101562 C 296.730469 339.929688 294.222656 341.695312 291.667969 343.402344 C 289.117188 345.105469 286.527344 346.746094 283.894531 348.324219 C 281.261719 349.902344 278.59375 351.414062 275.886719 352.859375 C 273.179688 354.308594 270.441406 355.6875 267.667969 356.996094 C 264.890625 358.308594 262.089844 359.554688 259.253906 360.726562 C 256.417969 361.902344 253.554688 363.003906 250.667969 364.039062 C 247.777344 365.074219 244.863281 366.035156 241.929688 366.925781 C 238.992188 367.816406 236.035156 368.636719 233.058594 369.378906 C 230.082031 370.125 227.089844 370.796875 224.078125 371.398438 C 221.070312 371.996094 218.046875 372.519531 215.011719 372.96875 C 211.976562 373.421875 208.933594 373.796875 205.878906 374.097656 C 202.824219 374.398438 199.765625 374.625 196.699219 374.773438 C 193.636719 374.925781 190.570312 375 187.5 375 C 184.429688 375 181.363281 374.925781 178.300781 374.773438 C 175.234375 374.625 172.175781 374.398438 169.121094 374.097656 C 166.066406 373.796875 163.023438 373.421875 159.988281 372.96875 C 156.953125 372.519531 153.929688 371.996094 150.921875 371.398438 C 147.910156 370.796875 144.917969 370.125 141.941406 369.378906 C 138.964844 368.636719 136.007812 367.816406 133.070312 366.925781 C 130.136719 366.035156 127.222656 365.074219 124.332031 364.039062 C 121.445312 363.003906 118.582031 361.902344 115.746094 360.726562 C 112.910156 359.554688 110.105469 358.308594 107.332031 356.996094 C 104.558594 355.6875 101.820312 354.308594 99.113281 352.859375 C 96.40625 351.414062 93.738281 349.902344 91.105469 348.324219 C 88.472656 346.746094 85.882812 345.105469 83.332031 343.402344 C 80.777344 341.695312 78.269531 339.929688 75.804688 338.101562 C 73.339844 336.273438 70.921875 334.386719 68.550781 332.4375 C 66.179688 330.492188 63.855469 328.488281 61.582031 326.429688 C 59.308594 324.367188 57.085938 322.253906 54.917969 320.082031 C 52.746094 317.914062 50.632812 315.691406 48.570312 313.417969 C 46.511719 311.144531 44.507812 308.820312 42.558594 306.449219 C 40.613281 304.078125 38.726562 301.660156 36.898438 299.195312 C 35.070312 296.730469 33.304688 294.222656 31.597656 291.667969 C 29.894531 289.117188 28.253906 286.527344 26.675781 283.894531 C 25.097656 281.261719 23.585938 278.59375 22.140625 275.886719 C 20.691406 273.179688 19.3125 270.441406 18.003906 267.667969 C 16.691406 264.890625 15.445312 262.089844 14.273438 259.253906 C 13.097656 256.417969 11.996094 253.554688 10.960938 250.667969 C 9.925781 247.777344 8.964844 244.863281 8.074219 241.929688 C 7.183594 238.992188 6.363281 236.035156 5.617188 233.058594 C 4.875 230.082031 4.203125 227.089844 3.601562 224.078125 C 3.003906 221.070312 2.480469 218.046875 2.03125 215.011719 C 1.578125 211.976562 1.203125 208.933594 0.902344 205.878906 C 0.601562 202.824219 0.375 199.765625 0.226562 196.699219 C 0.0742188 193.636719 0 190.570312 0 187.5 C 0 184.429688 0.0742188 181.363281 0.226562 178.300781 C 0.375 175.234375 0.601562 172.175781 0.902344 169.121094 C 1.203125 166.066406 1.578125 163.023438 2.03125 159.988281 C 2.480469 156.953125 3.003906 153.929688 3.601562 150.921875 C 4.203125 147.910156 4.875 144.917969 5.617188 141.941406 C 6.363281 138.964844 7.183594 136.007812 8.074219 133.070312 C 8.964844 130.136719 9.925781 127.222656 10.960938 124.332031 C 11.996094 121.445312 13.097656 118.582031 14.273438 115.746094 C 15.445312 112.910156 16.691406 110.105469 18.003906 107.332031 C 19.3125 104.558594 20.691406 101.820312 22.140625 99.113281 C 23.585938 96.40625 25.097656 93.738281 26.675781 91.105469 C 28.253906 88.472656 29.894531 85.882812 31.597656 83.332031 C 33.304688 80.777344 35.070312 78.269531 36.898438 75.804688 C 38.726562 73.339844 40.613281 70.921875 42.558594 68.550781 C 44.507812 66.179688 46.511719 63.855469 48.570312 61.582031 C 50.632812 59.308594 52.746094 57.085938 54.917969 54.917969 C 57.085938 52.746094 59.308594 50.632812 61.582031 48.570312 C 63.855469 46.511719 66.179688 44.507812 68.550781 42.558594 C 70.921875 40.613281 73.339844 38.726562 75.804688 36.898438 C 78.269531 35.070312 80.777344 33.304688 83.332031 31.597656 C 85.882812 29.894531 88.472656 28.253906 91.105469 26.675781 C 93.738281 25.097656 96.40625 23.585938 99.113281 22.140625 C 101.820312 20.691406 104.558594 19.3125 107.332031 18.003906 C 110.105469 16.691406 112.910156 15.445312 115.746094 14.273438 C 118.582031 13.097656 121.445312 11.996094 124.332031 10.960938 C 127.222656 9.925781 130.136719 8.964844 133.070312 8.074219 C 136.007812 7.183594 138.964844 6.363281 141.941406 5.617188 C 144.917969 4.875 147.910156 4.203125 150.921875 3.601562 C 153.929688 3.003906 156.953125 2.480469 159.988281 2.03125 C 163.023438 1.578125 166.066406 1.203125 169.121094 0.902344 C 172.175781 0.601562 175.234375 0.375 178.300781 0.226562 C 181.363281 0.0742188 184.429688 0 187.5 0 C 190.570312 0 193.636719 0.0742188 196.699219 0.226562 C 199.765625 0.375 202.824219 0.601562 205.878906 0.902344 C 208.933594 1.203125 211.976562 1.578125 215.011719 2.03125 C 218.046875 2.480469 221.070312 3.003906 224.078125 3.601562 C 227.089844 4.203125 230.082031 4.875 233.058594 5.617188 C 236.035156 6.363281 238.992188 7.183594 241.929688 8.074219 C 244.863281 8.964844 247.777344 9.925781 250.667969 10.960938 C 253.554688 11.996094 256.417969 13.097656 259.253906 14.273438 C 262.089844 15.445312 264.890625 16.691406 267.667969 18.003906 C 270.441406 19.3125 273.179688 20.691406 275.886719 22.140625 C 278.59375 23.585938 281.261719 25.097656 283.894531 26.675781 C 286.527344 28.253906 289.117188 29.894531 291.667969 31.597656 C 294.222656 33.304688 296.730469 35.070312 299.195312 36.898438 C 301.660156 38.726562 304.078125 40.613281 306.449219 42.558594 C 308.820312 44.507812 311.144531 46.511719 313.417969 48.570312 C 315.691406 50.632812 317.914062 52.746094 320.082031 54.917969 C 322.253906 57.085938 324.367188 59.308594 326.429688 61.582031 C 328.488281 63.855469 330.492188 66.179688 332.4375 68.550781 C 334.386719 70.921875 336.273438 73.339844 338.101562 75.804688 C 339.929688 78.269531 341.695312 80.777344 343.402344 83.332031 C 345.105469 85.882812 346.746094 88.472656 348.324219 91.105469 C 349.902344 93.738281 351.414062 96.40625 352.859375 99.113281 C 354.304688 101.820312 355.6875 104.558594 356.996094 107.332031 C 358.308594 110.105469 359.554688 112.910156 360.726562 115.746094 C 361.902344 118.582031 363.003906 121.445312 364.039062 124.332031 C 365.074219 127.222656 366.035156 130.136719 366.925781 133.070312 C 367.816406 136.007812 368.636719 138.964844 369.378906 141.941406 C 370.125 144.917969 370.796875 147.910156 371.398438 150.921875 C 371.996094 153.929688 372.519531 156.953125 372.96875 159.988281 C 373.421875 163.023438 373.796875 166.066406 374.097656 169.121094 C 374.398438 172.175781 374.625 175.234375 374.773438 178.300781 C 374.925781 181.363281 375 184.429688 375 187.5 Z M 375 187.5"/><path fill="#F8FB6B" d="M 191.101562 98.652344 C 191.101562 105.847656 191.101562 105.660156 183.886719 105.894531 C 177.09375 106.058594 170.433594 107.082031 163.910156 108.972656 C 157.382812 110.867188 151.207031 113.558594 145.378906 117.054688 C 145.035156 117.265625 144.726562 117.671875 144.363281 117.714844 C 142.203125 117.992188 140.566406 121.242188 138.734375 120.03125 C 136.410156 118.484375 134.496094 115.886719 133.195312 113.335938 C 131.347656 109.746094 128.929688 106.597656 126.632812 103.339844 C 125.058594 101.105469 123.34375 101.105469 121.296875 103.039062 C 111.691406 112.089844 104.671875 122.746094 100.980469 135.457031 C 99.390625 140.921875 98.277344 141.871094 93.84375 141.652344 C 89.914062 141.46875 87.128906 138.445312 88.125 134.6875 C 89.953125 127.539062 92.621094 120.714844 96.128906 114.222656 C 100.363281 106.523438 105.269531 99.3125 110.003906 91.953125 C 113.179688 87.023438 112.832031 80.65625 109.039062 75.457031 C 107.394531 73.210938 107.980469 72.332031 110.015625 71.007812 C 117.003906 66.484375 124.039062 62.125 132 59.453125 C 133.085938 59.054688 134.15625 59.085938 135.214844 59.550781 C 145.878906 63.726562 154.675781 60.210938 162.230469 52.617188 C 165.996094 48.835938 170.847656 48.882812 175.367188 48.574219 C 183.230469 48.035156 191.28125 47.523438 199.019531 48.632812 C 210.71875 50.304688 222.480469 52.480469 233.550781 57.054688 C 236.894531 58.4375 238.324219 61.15625 237.695312 64.097656 C 237.066406 67.035156 234.328125 69.203125 230.707031 68.652344 C 223.46875 67.558594 216.207031 67.59375 208.933594 67.507812 C 199.796875 67.359375 190.867188 68.644531 182.144531 71.371094 C 178.421875 72.546875 175.011719 74.410156 174.402344 78.96875 C 173.648438 84.585938 174.8125 89.441406 180.078125 92.425781 C 181.050781 92.921875 182.078125 93.238281 183.160156 93.378906 C 184.246094 93.519531 185.320312 93.472656 186.386719 93.238281 C 191.109375 92.421875 191.101562 92.363281 191.097656 97.113281 C 191.097656 97.625 191.097656 98.140625 191.101562 98.652344 Z M 191.101562 98.652344"/><path fill="#5E81E1" d="M 289.9375 139.246094 C 293.765625 145.335938 297.867188 151.285156 301.308594 157.59375 C 302.78125 160.152344 303.933594 162.851562 304.761719 165.6875 C 306.515625 172.257812 313.269531 178.070312 321.167969 177.019531 C 324.339844 176.59375 325.152344 178.140625 325.21875 180.773438 C 325.429688 188.566406 325.171875 196.339844 324.449219 204.097656 C 324.1875 206.957031 321.777344 208.109375 320.238281 209.886719 C 313.867188 217.277344 311.375 225.371094 314.75 234.832031 C 315.195312 235.992188 315.394531 237.191406 315.355469 238.433594 C 315.316406 239.675781 315.035156 240.859375 314.515625 241.988281 C 310.128906 251.84375 305.089844 261.425781 298.542969 269.917969 C 292.972656 277.15625 287.464844 284.644531 280.011719 290.242188 C 278.632812 291.285156 277.476562 292.613281 276.148438 293.730469 C 273.167969 296.222656 269.011719 296.402344 266.691406 294.191406 C 264.578125 292.183594 264.476562 288.222656 266.886719 285.175781 C 271.308594 279.660156 275.21875 273.808594 278.621094 267.613281 C 282.496094 260.523438 285.550781 253.097656 287.78125 245.332031 C 288.71875 242.042969 290.054688 239.117188 288.539062 235.675781 C 286.65625 231.363281 282.007812 227.527344 278.125 227.785156 C 272.941406 228.144531 268.96875 230.476562 267.121094 235.652344 C 266.671875 236.882812 266.246094 238.152344 265.695312 239.753906 C 261.964844 238.164062 258.921875 235.625 255.992188 233.136719 C 254.722656 232.058594 256.039062 229.714844 257.097656 228.742188 C 261.839844 224.429688 262.3125 218.121094 264.546875 212.726562 C 267.859375 204.722656 268.382812 196.0625 268.945312 187.476562 C 269.042969 185.972656 268.636719 184.433594 268.476562 182.90625 C 268.25 180.632812 269.0625 179.480469 271.554688 179.539062 C 277.808594 179.730469 284.019531 179.292969 290.183594 178.226562 C 292.03125 177.894531 292.429688 177.171875 292.097656 175.589844 C 290.449219 167.828125 287.683594 160.492188 283.792969 153.578125 C 280.640625 148.046875 276.855469 142.984375 272.441406 138.394531 C 272.148438 138.105469 271.890625 137.789062 271.664062 137.445312 C 271.433594 137.105469 271.242188 136.742188 271.085938 136.363281 C 270.933594 135.980469 270.816406 135.589844 270.738281 135.183594 C 270.664062 134.78125 270.625 134.371094 270.632812 133.960938 C 270.636719 133.550781 270.683594 133.144531 270.769531 132.742188 C 270.855469 132.339844 270.980469 131.949219 271.144531 131.570312 C 271.308594 131.195312 271.507812 130.839844 271.746094 130.5 C 271.980469 130.164062 272.246094 129.855469 272.546875 129.570312 C 274.902344 127.105469 278.023438 127.105469 280.992188 129.609375 C 284.121094 132.238281 286.472656 135.582031 289.144531 138.636719 Z M 289.9375 139.246094"/><path fill="#FB2203" d="M 114.960938 307.871094 C 111.339844 306.386719 107.574219 303.113281 103.375 300.613281 C 102.75 300.242188 102.226562 299.765625 101.804688 299.175781 C 101.382812 298.585938 101.097656 297.9375 100.949219 297.226562 C 97.917969 285.648438 91.148438 277.980469 78.785156 276.285156 C 77.722656 276.097656 76.902344 275.546875 76.324219 274.636719 C 66.742188 262.378906 59.085938 249.09375 54.019531 234.320312 C 51.738281 227.835938 49.953125 221.21875 48.660156 214.464844 C 47.933594 210.425781 50.632812 205.957031 55.003906 206.585938 C 58.511719 207.085938 59.667969 209.9375 60.542969 212.542969 C 62.59375 218.867188 66.085938 224.378906 69.46875 229.972656 C 73.972656 237.332031 79.480469 243.878906 85.253906 250.246094 C 90.304688 255.789062 100.296875 255.636719 104.785156 249.773438 C 107.609375 246.078125 107.46875 239.234375 104.5 235.667969 C 101.761719 232.367188 102.007812 231.277344 105.945312 229.332031 C 106.222656 229.195312 106.5 229.066406 106.773438 228.917969 C 113.433594 225.1875 112.398438 226.117188 115.6875 231.894531 C 120.757812 240.816406 127.902344 247.839844 136.003906 253.96875 C 140.050781 256.957031 144.328125 259.570312 148.839844 261.800781 C 150.414062 262.601562 150.796875 263.539062 150.113281 265.25 C 149.714844 266.515625 149.195312 267.730469 148.550781 268.890625 C 145.558594 273.453125 143.980469 278.746094 141.222656 283.417969 C 140.261719 285.050781 140.710938 286.097656 142.515625 286.664062 C 154.828125 290.519531 167.277344 291.96875 180.019531 289.128906 C 181.820312 288.726562 183.628906 288.414062 185.445312 288.09375 C 188.9375 287.476562 191.546875 288.960938 192.449219 292.046875 C 193.460938 295.476562 192.019531 298.476562 188.398438 299.480469 C 182.984375 300.996094 177.378906 301.671875 171.808594 302.445312 C 163.667969 303.570312 155.539062 302.929688 147.417969 302.296875 C 142.257812 301.890625 137.140625 301.0625 132.535156 304.5625 C 130.191406 306.355469 128.226562 308.429688 127.15625 311.109375 C 126.234375 313.429688 124.996094 313.535156 123.136719 312.496094 Z M 114.960938 307.871094"/><path fill="#6CFC51" d="M 270.140625 144.914062 C 267.246094 146.390625 264.34375 147.855469 261.457031 149.339844 C 260.226562 149.957031 259.613281 149.390625 258.996094 148.367188 C 256.421875 144.210938 254.175781 139.746094 251.054688 136.050781 C 247.199219 131.375 242.898438 127.160156 238.148438 123.402344 C 233.394531 119.648438 228.300781 116.4375 222.863281 113.765625 C 221.128906 112.921875 220.960938 112.023438 221.804688 110.402344 C 224.625 104.953125 227.296875 99.429688 230.117188 93.980469 C 231.710938 90.898438 231.628906 90.109375 228.230469 89.136719 C 219.054688 86.527344 209.761719 84.828125 200.109375 85.875 C 195.523438 86.378906 191.015625 87.0625 186.492188 87.925781 C 182.539062 88.683594 179.578125 86.402344 179.160156 82.8125 C 178.769531 79.457031 181.414062 76.757812 185.0625 75.957031 C 195.113281 73.785156 205.28125 72.820312 215.5625 73.0625 C 220.578125 73.160156 225.5 74.292969 230.539062 74.355469 C 237.972656 74.460938 242.65625 70.785156 245.625 64.34375 C 245.789062 63.980469 245.980469 63.632812 246.308594 62.992188 C 251.140625 64.644531 255.183594 67.65625 259.5625 69.996094 C 261.453125 71.007812 263.175781 72.335938 264.960938 73.53125 C 268.199219 75.710938 270.667969 78.0625 271.734375 82.34375 C 274.335938 92.671875 281.699219 98.488281 291.949219 100.671875 C 293.507812 100.941406 294.78125 101.691406 295.773438 102.921875 C 303.210938 111.914062 308.628906 122.105469 313.367188 132.6875 C 317.625 142.0625 320.636719 151.820312 322.40625 161.960938 C 322.917969 164.960938 323.261719 167.929688 320.066406 169.875 C 316.5625 172.015625 312.847656 170.730469 311.375 166.875 C 305.464844 151.371094 296.972656 137.523438 285.097656 125.832031 C 280.242188 121.046875 273.0625 121.125 268.132812 126.109375 C 263.792969 130.5 264.039062 138.136719 268.703125 142.703125 C 269.210938 143.1875 269.875 143.519531 270.140625 144.914062 Z M 270.140625 144.914062"/><path fill="#FB44C5" d="M 247.230469 276.632812 C 257.894531 267.097656 266.550781 256.792969 270.472656 243.160156 C 271.046875 241.4375 271.707031 239.75 272.453125 238.097656 C 273.617188 235.207031 276.511719 233.464844 278.953125 234.160156 C 279.316406 234.257812 279.664062 234.386719 280 234.554688 C 280.335938 234.71875 280.652344 234.914062 280.949219 235.140625 C 281.25 235.371094 281.519531 235.625 281.769531 235.90625 C 282.015625 236.1875 282.234375 236.488281 282.421875 236.8125 C 282.609375 237.136719 282.765625 237.476562 282.886719 237.828125 C 283.007812 238.183594 283.09375 238.546875 283.144531 238.917969 C 283.191406 239.289062 283.207031 239.660156 283.183594 240.035156 C 283.160156 240.40625 283.101562 240.777344 283.003906 241.136719 C 281.773438 246.4375 280.007812 251.550781 277.703125 256.480469 C 273.527344 265.519531 268.324219 273.921875 262.085938 281.683594 C 258.492188 286.179688 258.496094 293.691406 261.324219 298.476562 C 263.550781 302.265625 263.230469 302.941406 259.554688 305.121094 C 254.101562 308.363281 248.472656 311.203125 242.792969 314.054688 C 241.65625 314.65625 240.445312 315.011719 239.160156 315.117188 C 237.878906 315.222656 236.625 315.074219 235.40625 314.667969 C 228.332031 312.625 221.324219 313.578125 214.828125 316.652344 C 212.15625 317.914062 210.15625 320.699219 207.996094 322.941406 C 206.953125 324.101562 205.660156 324.796875 204.117188 325.023438 C 194.746094 326.609375 185.285156 326.488281 175.910156 325.933594 C 163.726562 325.210938 151.847656 322.390625 140.269531 318.46875 C 139.402344 318.148438 138.582031 317.738281 137.808594 317.238281 C 134.832031 315.425781 133.753906 313.246094 134.65625 311 C 135.847656 308.015625 138.515625 306.636719 141.769531 307.125 C 149.179688 308.246094 156.632812 308.6875 164.121094 308.449219 C 171.613281 308.210938 179.019531 307.296875 186.34375 305.707031 C 187.914062 305.367188 189.488281 304.625 191.113281 305.46875 C 191.59375 305.714844 191.847656 305.367188 192.199219 305.195312 C 196.378906 303.164062 199.863281 295.507812 198.75 290.777344 C 197.128906 283.941406 192.308594 280.617188 184.496094 281.355469 C 181.894531 281.601562 181.125 280.96875 181.492188 278.417969 C 181.710938 276.480469 181.796875 274.535156 181.75 272.585938 C 181.75 270.378906 182.761719 269.507812 184.984375 269.5625 C 190.007812 269.703125 195.003906 269.359375 199.960938 268.527344 C 207.984375 267.222656 215.632812 264.761719 222.90625 261.136719 C 225.691406 259.773438 228.769531 259.035156 231.082031 256.554688 C 232.566406 254.957031 234.160156 256.238281 235.238281 257.964844 C 239.105469 264.078125 243.050781 270.144531 247.230469 276.632812 Z M 247.230469 276.632812"/><path fill="#F1F1F0" d="M 236.015625 187.457031 C 236.015625 195.96875 235.957031 204.480469 236.058594 212.992188 C 236.058594 214.746094 235.59375 215.765625 234.054688 216.65625 C 220.867188 224.335938 207.460938 231.617188 194.476562 239.636719 C 193.042969 240.523438 191.316406 241.058594 189.976562 242.128906 C 187.511719 244.105469 185.050781 243.507812 182.910156 241.871094 C 176.832031 237.234375 169.980469 233.863281 163.460938 229.992188 C 155.867188 225.472656 148.238281 221.027344 140.570312 216.644531 C 139.019531 215.757812 138.5625 214.730469 138.570312 212.980469 C 138.640625 195.734375 138.640625 178.503906 138.570312 161.28125 C 138.570312 159.652344 139.019531 158.695312 140.460938 157.863281 C 155.449219 149.167969 170.40625 140.417969 185.335938 131.617188 C 187.101562 130.566406 188.257812 131.417969 189.519531 132.140625 C 199.9375 138.109375 210.335938 144.109375 220.714844 150.136719 C 225.117188 152.679688 229.433594 155.402344 233.9375 157.746094 C 235.785156 158.695312 236.082031 159.808594 236.0625 161.609375 C 235.996094 170.230469 236.03125 178.855469 236.03125 187.476562 Z M 230.355469 187.304688 C 230.355469 180.628906 229.949219 173.925781 230.492188 167.300781 C 230.859375 162.796875 228.816406 160.851562 225.371094 158.921875 C 214.902344 153.058594 204.40625 147.136719 194.167969 140.847656 C 189.242188 137.824219 184.890625 136.136719 180.390625 141.148438 C 180.3125 141.210938 180.226562 141.265625 180.132812 141.304688 C 168.558594 147.242188 157.691406 154.410156 146.273438 160.605469 C 144.425781 161.589844 143.746094 162.753906 143.761719 164.917969 C 143.871094 179.488281 143.871094 194.0625 143.761719 208.644531 C 143.761719 211.230469 144.535156 212.726562 146.765625 214.007812 C 159.691406 221.449219 172.589844 229 185.480469 236.550781 C 186.4375 237.109375 187.253906 237.363281 188.300781 236.757812 C 201.53125 229.089844 214.773438 221.363281 228.054688 213.847656 C 230 212.746094 230.429688 211.496094 230.398438 209.46875 C 230.292969 202.085938 230.335938 194.695312 230.335938 187.304688 Z M 230.355469 187.304688"/><path fill="#5E81E1" d="M 337.871094 207.746094 C 349.105469 207.246094 355.394531 213.011719 357.878906 221.539062 C 359.917969 228.519531 358.269531 234.757812 353.246094 240.308594 C 350.558594 243.289062 347.3125 245.402344 343.5 246.652344 C 333.683594 250.125 319.699219 241.722656 318.652344 229.890625 C 318.375 227.246094 318.53125 224.628906 319.125 222.039062 C 319.71875 219.445312 320.714844 217.019531 322.117188 214.761719 C 324.796875 210.535156 329.660156 208.027344 335.105469 207.75 C 336.023438 207.703125 336.949219 207.746094 337.871094 207.746094 Z M 337.871094 207.746094"/><path fill="#F8FB6B" d="M 163.847656 35.96875 C 164.082031 46.347656 155.027344 55.761719 144.523438 55.941406 C 132.304688 56.144531 123.96875 46.820312 123.878906 36.460938 C 123.832031 24.894531 131.964844 16.84375 142.300781 15.839844 C 154.699219 14.632812 164.082031 25.5 163.847656 35.96875 Z M 163.847656 35.96875"/><path fill="#6CFC51" d="M 315.910156 75.390625 C 316.183594 85.671875 307.644531 94.835938 296.125 95.136719 C 285.660156 95.40625 276.308594 85.761719 276.535156 75.347656 C 276.800781 63.300781 285.328125 55.34375 296.433594 55.484375 C 306.878906 55.613281 315.75 61.929688 315.910156 75.390625 Z M 315.910156 75.390625"/><path fill="#FCA40D" d="M 53.03125 148.273438 C 52.953125 159.441406 44.414062 167.699219 33.398438 167.929688 C 21.59375 168.175781 13.550781 156.644531 13.59375 148.21875 C 13.648438 139.253906 22.40625 130.0625 27.691406 129.128906 C 34.058594 127.976562 39.53125 129.257812 44.886719 132.636719 C 50.039062 135.839844 53.0625 141.285156 53.03125 148.273438 Z M 53.03125 148.273438"/><path fill="#FCA40D" d="M 47.492188 185.546875 C 47 181.664062 48.003906 176.789062 48.109375 171.882812 C 48.125 171.15625 48.285156 170.46875 48.589844 169.808594 C 48.894531 169.152344 49.320312 168.585938 49.863281 168.105469 C 58.449219 159.765625 61.792969 150.105469 57.199219 138.496094 C 56.84375 137.476562 56.917969 136.492188 57.421875 135.539062 C 63.382812 121.167969 71.164062 107.941406 81.550781 96.289062 C 86.070312 91.109375 90.949219 86.300781 96.195312 81.859375 C 99.355469 79.234375 104.566406 79.394531 106.175781 83.507812 C 107.460938 86.808594 105.558594 89.21875 103.710938 91.238281 C 99.21875 96.164062 96.117188 101.863281 92.933594 107.582031 C 88.734375 115.117188 85.746094 123.140625 83.046875 131.300781 C 80.6875 138.433594 85.746094 147.054688 93.0625 148.078125 C 97.660156 148.695312 103.527344 145.238281 105.195312 140.898438 C 106.714844 136.886719 107.792969 136.585938 111.421875 139.050781 C 111.679688 139.222656 111.925781 139.398438 112.191406 139.558594 C 118.710938 143.527344 117.398438 143.089844 113.980469 148.796875 C 108.710938 157.605469 106.113281 167.273438 104.746094 177.351562 C 104.136719 182.347656 103.96875 187.359375 104.242188 192.382812 C 104.320312 194.152344 103.695312 194.945312 101.871094 195.191406 C 100.574219 195.46875 99.257812 195.613281 97.929688 195.625 C 92.488281 195.261719 87.113281 196.488281 81.683594 196.382812 C 79.789062 196.34375 79.097656 197.257812 79.492188 199.105469 C 82.191406 211.71875 87.054688 223.285156 95.800781 232.976562 C 97.03125 234.34375 98.195312 235.773438 99.367188 237.191406 C 101.621094 239.929688 101.613281 242.9375 99.367188 245.246094 C 96.902344 247.808594 93.558594 248.023438 90.90625 245.371094 C 86.925781 241.390625 83.582031 236.84375 80.171875 232.375 C 75.195312 225.800781 71.742188 218.410156 68.308594 211.019531 C 66.121094 206.328125 64.34375 201.457031 59.015625 199.171875 C 56.300781 198.015625 53.523438 197.324219 50.675781 197.707031 C 48.210938 198.042969 47.492188 197.015625 47.492188 194.886719 C 47.492188 192.136719 47.492188 189.367188 47.492188 185.546875 Z M 47.492188 185.546875"/><path fill="#FB2203" d="M 85.238281 284.722656 C 94.921875 290.265625 97.925781 301.753906 92.691406 311.492188 C 87.101562 321.878906 73.109375 323.234375 65.777344 319.035156 C 57.996094 314.582031 54.300781 302.40625 56.066406 297.351562 C 58.191406 291.242188 62.003906 287.109375 67.574219 284.101562 C 72.949219 281.230469 79.179688 281.230469 85.238281 284.722656 Z M 85.238281 284.722656"/><path fill="#FB44C5" d="M 247.53125 339.507812 C 247.851562 350.554688 238.730469 358.945312 228.25 359.160156 C 218.535156 359.359375 208.433594 350.167969 208.65625 339.261719 C 208.863281 328.976562 218.425781 319.355469 229.425781 320.003906 C 239.226562 320.582031 248.320312 330.378906 247.53125 339.507812 Z M 247.53125 339.507812"/><path fill="#5E81E1" d="M 289.164062 138.667969 C 289.839844 138.304688 290.136719 138.445312 289.933594 139.246094 Z M 289.164062 138.667969"/><path d="M 230.335938 187.304688 C 230.335938 194.695312 230.277344 202.085938 230.375 209.476562 C 230.40625 211.5 229.972656 212.753906 228.027344 213.855469 C 214.726562 221.394531 201.507812 229.097656 188.277344 236.765625 C 187.230469 237.382812 186.429688 237.117188 185.457031 236.554688 C 172.566406 229.003906 159.6875 221.453125 146.738281 214.015625 C 144.511719 212.734375 143.710938 211.238281 143.734375 208.648438 C 143.875 194.078125 143.875 179.503906 143.734375 164.921875 C 143.734375 162.753906 144.429688 161.589844 146.246094 160.609375 C 157.667969 154.414062 168.535156 147.246094 180.105469 141.308594 C 180.199219 141.269531 180.285156 141.21875 180.367188 141.15625 C 184.867188 136.140625 189.21875 137.828125 194.144531 140.855469 C 204.382812 147.140625 214.855469 153.066406 225.34375 158.929688 C 228.792969 160.859375 230.835938 162.804688 230.46875 167.304688 C 229.925781 173.933594 230.332031 180.632812 230.332031 187.308594 Z M 167.648438 155.332031 C 166.1875 161.964844 164.757812 168.433594 163.335938 174.972656 L 210.742188 174.972656 C 209.160156 168.273438 207.664062 161.863281 206.09375 155.332031 Z M 223.492188 191.207031 C 222.105469 190.039062 221.070312 189.046875 219.921875 188.214844 C 216.8125 185.96875 213.882812 182.671875 210.441406 181.984375 C 208.207031 181.53125 205.304688 185.140625 202.515625 186.566406 C 199.726562 187.988281 198.621094 189.871094 199.136719 192.878906 C 200.28125 199.535156 198.183594 204.671875 192.285156 208.273438 C 190.148438 209.585938 190.34375 213.363281 192.230469 215.136719 C 194.113281 216.910156 195.921875 218.675781 197.769531 220.433594 C 200.292969 222.808594 205.773438 222.1875 207.480469 219.269531 C 209.503906 215.855469 211.449219 212.402344 213.40625 208.953125 C 216.765625 203.066406 220.125 197.152344 223.492188 191.207031 Z M 150.304688 191.089844 C 155.886719 200.804688 161.324219 210.25 166.734375 219.710938 C 167.300781 220.703125 167.695312 221.597656 169.113281 221.742188 C 173.605469 222.21875 181.691406 217.679688 183.203125 213.539062 C 183.820312 211.859375 183.78125 210.121094 182.199219 208.785156 C 181.5 208.167969 180.96875 207.351562 180.199219 206.90625 C 175.421875 204.148438 173.933594 199.929688 174.835938 194.75 C 175.636719 190.171875 173.878906 187.308594 169.691406 185.449219 C 167.402344 184.433594 165.382812 182.800781 163.246094 181.453125 Z M 173.753906 177.9375 C 179.183594 185.328125 178.820312 193.019531 177.246094 200.902344 L 196.914062 200.902344 C 194.90625 192.894531 195.382812 185.308594 199.695312 177.9375 Z M 173.753906 177.9375"/><path fill="#F1F1F0" d="M 173.777344 177.9375 L 199.722656 177.9375 C 195.414062 185.328125 194.933594 192.890625 196.9375 200.902344 L 177.269531 200.902344 C 178.84375 193.019531 179.238281 185.296875 173.777344 177.9375 Z M 173.777344 177.9375"/></svg>