<svg xmlns="http://www.w3.org/2000/svg" xmlns:xlink="http://www.w3.org/1999/xlink" width="375" viewBox="0 0 375 375" height="375" version="1.0"><defs><clipPath id="a"><path d="M 3.550781 3.550781 L 371.800781 3.550781 L 371.800781 371.800781 L 3.550781 371.800781 Z M 3.550781 3.550781"/></clipPath><clipPath id="b"><path d="M 43 217 L 79 217 L 79 253 L 43 253 Z M 43 217"/></clipPath><clipPath id="c"><path d="M 61.316406 252.886719 C 61.894531 252.886719 62.472656 252.859375 63.046875 252.804688 C 63.621094 252.746094 64.191406 252.664062 64.753906 252.550781 C 65.320312 252.4375 65.878906 252.296875 66.433594 252.128906 C 66.984375 251.960938 67.527344 251.769531 68.0625 251.546875 C 68.59375 251.324219 69.113281 251.078125 69.625 250.808594 C 70.132812 250.535156 70.628906 250.238281 71.105469 249.917969 C 71.585938 249.597656 72.050781 249.253906 72.496094 248.886719 C 72.941406 248.523438 73.371094 248.136719 73.777344 247.726562 C 74.183594 247.320312 74.574219 246.890625 74.9375 246.445312 C 75.304688 246 75.648438 245.535156 75.96875 245.054688 C 76.289062 244.578125 76.585938 244.082031 76.859375 243.574219 C 77.128906 243.0625 77.375 242.542969 77.597656 242.007812 C 77.816406 241.476562 78.011719 240.933594 78.179688 240.382812 C 78.347656 239.828125 78.488281 239.269531 78.597656 238.703125 C 78.710938 238.136719 78.796875 237.566406 78.851562 236.992188 C 78.910156 236.417969 78.9375 235.84375 78.9375 235.265625 C 78.9375 234.6875 78.910156 234.113281 78.851562 233.539062 C 78.796875 232.964844 78.710938 232.394531 78.597656 231.828125 C 78.488281 231.261719 78.347656 230.703125 78.179688 230.152344 C 78.011719 229.597656 77.816406 229.054688 77.597656 228.523438 C 77.375 227.988281 77.128906 227.46875 76.859375 226.957031 C 76.585938 226.449219 76.289062 225.957031 75.96875 225.476562 C 75.648438 224.996094 75.304688 224.53125 74.9375 224.085938 C 74.574219 223.640625 74.183594 223.214844 73.777344 222.804688 C 73.371094 222.398438 72.941406 222.011719 72.496094 221.644531 C 72.050781 221.277344 71.585938 220.933594 71.105469 220.613281 C 70.628906 220.292969 70.132812 219.996094 69.625 219.722656 C 69.113281 219.453125 68.59375 219.207031 68.0625 218.984375 C 67.527344 218.765625 66.984375 218.570312 66.433594 218.402344 C 65.878906 218.234375 65.320312 218.09375 64.753906 217.980469 C 64.191406 217.871094 63.621094 217.785156 63.046875 217.726562 C 62.472656 217.671875 61.894531 217.644531 61.316406 217.644531 C 60.742188 217.644531 60.164062 217.671875 59.589844 217.726562 C 59.015625 217.785156 58.445312 217.871094 57.878906 217.980469 C 57.316406 218.09375 56.753906 218.234375 56.203125 218.402344 C 55.652344 218.570312 55.109375 218.765625 54.574219 218.984375 C 54.042969 219.207031 53.519531 219.453125 53.011719 219.722656 C 52.503906 219.996094 52.007812 220.292969 51.527344 220.613281 C 51.050781 220.933594 50.585938 221.277344 50.140625 221.644531 C 49.695312 222.011719 49.265625 222.398438 48.859375 222.804688 C 48.449219 223.214844 48.0625 223.640625 47.699219 224.085938 C 47.332031 224.53125 46.988281 224.996094 46.667969 225.476562 C 46.347656 225.957031 46.050781 226.449219 45.777344 226.957031 C 45.507812 227.46875 45.261719 227.988281 45.039062 228.523438 C 44.816406 229.054688 44.625 229.597656 44.457031 230.152344 C 44.289062 230.703125 44.148438 231.261719 44.035156 231.828125 C 43.925781 232.394531 43.839844 232.964844 43.78125 233.539062 C 43.726562 234.113281 43.699219 234.6875 43.699219 235.265625 C 43.699219 235.84375 43.726562 236.417969 43.78125 236.992188 C 43.839844 237.566406 43.925781 238.136719 44.035156 238.703125 C 44.148438 239.269531 44.289062 239.828125 44.457031 240.382812 C 44.625 240.933594 44.816406 241.476562 45.039062 242.007812 C 45.261719 242.542969 45.507812 243.0625 45.777344 243.574219 C 46.050781 244.082031 46.347656 244.578125 46.667969 245.054688 C 46.988281 245.535156 47.332031 246 47.699219 246.445312 C 48.0625 246.890625 48.449219 247.320312 48.859375 247.726562 C 49.265625 248.136719 49.695312 248.523438 50.140625 248.886719 C 50.585938 249.253906 51.050781 249.597656 51.527344 249.917969 C 52.007812 250.238281 52.503906 250.535156 53.011719 250.808594 C 53.519531 251.078125 54.042969 251.324219 54.574219 251.546875 C 55.109375 251.769531 55.652344 251.960938 56.203125 252.128906 C 56.753906 252.296875 57.316406 252.4375 57.878906 252.550781 C 58.445312 252.664062 59.015625 252.746094 59.589844 252.804688 C 60.164062 252.859375 60.742188 252.886719 61.316406 252.886719 Z M 61.316406 245.507812 C 60.640625 245.515625 59.972656 245.453125 59.308594 245.328125 C 58.644531 245.203125 58 245.011719 57.375 244.757812 C 56.75 244.503906 56.152344 244.191406 55.589844 243.820312 C 55.023438 243.449219 54.503906 243.027344 54.023438 242.550781 C 53.542969 242.078125 53.109375 241.5625 52.730469 241 C 52.351562 240.441406 52.03125 239.851562 51.769531 239.226562 C 51.507812 238.605469 51.308594 237.964844 51.175781 237.300781 C 51.039062 236.640625 50.96875 235.972656 50.964844 235.296875 C 50.964844 234.621094 51.027344 233.949219 51.15625 233.289062 C 51.28125 232.625 51.476562 231.980469 51.730469 231.355469 C 51.988281 230.730469 52.300781 230.136719 52.675781 229.574219 C 53.046875 229.007812 53.472656 228.488281 53.949219 228.007812 C 54.425781 227.53125 54.941406 227.101562 55.503906 226.726562 C 56.066406 226.347656 56.65625 226.03125 57.28125 225.769531 C 57.902344 225.511719 58.546875 225.3125 59.207031 225.179688 C 59.871094 225.046875 60.539062 224.980469 61.214844 224.980469 C 61.890625 224.976562 62.558594 225.042969 63.222656 225.175781 C 63.882812 225.304688 64.527344 225.5 65.152344 225.757812 C 65.777344 226.015625 66.371094 226.332031 66.929688 226.707031 C 67.492188 227.082031 68.011719 227.511719 68.488281 227.988281 C 68.96875 228.464844 69.394531 228.984375 69.769531 229.546875 C 70.144531 230.109375 70.460938 230.703125 70.71875 231.328125 C 70.976562 231.953125 71.167969 232.59375 71.300781 233.257812 C 71.429688 233.921875 71.496094 234.589844 71.492188 235.265625 C 71.5 235.9375 71.441406 236.605469 71.316406 237.265625 C 71.191406 237.925781 71.003906 238.566406 70.75 239.1875 C 70.496094 239.808594 70.1875 240.402344 69.816406 240.960938 C 69.445312 241.523438 69.023438 242.042969 68.550781 242.519531 C 68.078125 242.996094 67.5625 243.417969 67.003906 243.792969 C 66.445312 244.167969 65.855469 244.484375 65.234375 244.738281 C 64.613281 244.996094 63.972656 245.191406 63.3125 245.320312 C 62.65625 245.449219 61.988281 245.511719 61.316406 245.507812 Z M 61.316406 245.507812"/></clipPath><clipPath id="e"><path d="M 0 184.359375 C -0.03125 187.445312 0.015625 190.527344 0.136719 193.613281 C 0.257812 196.695312 0.453125 199.773438 0.722656 202.847656 C 0.996094 205.917969 1.34375 208.984375 1.765625 212.039062 C 2.1875 215.097656 2.683594 218.140625 3.253906 221.171875 C 3.824219 224.207031 4.472656 227.222656 5.191406 230.222656 C 5.910156 233.222656 6.703125 236.203125 7.566406 239.164062 C 8.433594 242.125 9.371094 245.0625 10.378906 247.980469 C 11.390625 250.894531 12.46875 253.785156 13.621094 256.648438 C 14.773438 259.507812 15.992188 262.34375 17.28125 265.144531 C 18.570312 267.945312 19.929688 270.714844 21.355469 273.453125 C 22.78125 276.1875 24.273438 278.886719 25.832031 281.550781 C 27.390625 284.214844 29.011719 286.835938 30.699219 289.421875 C 32.386719 292.003906 34.136719 294.542969 35.945312 297.042969 C 37.757812 299.539062 39.628906 301.992188 41.5625 304.394531 C 43.492188 306.800781 45.480469 309.160156 47.527344 311.464844 C 49.578125 313.773438 51.679688 316.03125 53.835938 318.234375 C 55.996094 320.441406 58.207031 322.59375 60.46875 324.6875 C 62.730469 326.785156 65.046875 328.824219 67.410156 330.808594 C 69.773438 332.792969 72.183594 334.714844 74.640625 336.578125 C 77.097656 338.445312 79.597656 340.25 82.144531 341.992188 C 84.691406 343.734375 87.277344 345.410156 89.90625 347.027344 C 92.535156 348.640625 95.203125 350.191406 97.90625 351.675781 C 100.609375 353.160156 103.351562 354.578125 106.125 355.929688 C 108.898438 357.277344 111.703125 358.558594 114.539062 359.773438 C 117.375 360.984375 120.242188 362.125 123.132812 363.199219 C 126.027344 364.269531 128.945312 365.269531 131.886719 366.199219 C 134.828125 367.128906 137.789062 367.984375 140.773438 368.769531 C 143.757812 369.550781 146.757812 370.261719 149.777344 370.898438 C 152.796875 371.535156 155.828125 372.097656 158.875 372.585938 C 161.921875 373.074219 164.976562 373.484375 168.042969 373.824219 C 171.109375 374.160156 174.183594 374.421875 177.261719 374.609375 C 180.34375 374.796875 183.425781 374.910156 186.507812 374.945312 C 244.589844 374.945312 285.050781 360.03125 314.011719 328.003906 C 314.011719 328.003906 264.367188 360.207031 186.859375 350.671875 C 89.949219 338.796875 22.113281 271.523438 22.113281 186.277344 C 22.105469 176.644531 23.011719 167.097656 24.824219 157.640625 L 26.429688 157.640625 C 28.167969 157.640625 29.898438 157.507812 31.617188 157.246094 C 33.335938 156.980469 35.027344 156.589844 36.6875 156.066406 C 38.347656 155.546875 39.957031 154.902344 41.515625 154.132812 C 43.078125 153.367188 44.574219 152.484375 46 151.488281 C 47.425781 150.496094 48.769531 149.394531 50.027344 148.195312 C 51.285156 146.996094 52.445312 145.707031 53.507812 144.328125 C 54.570312 142.949219 55.523438 141.5 56.363281 139.976562 C 57.203125 138.453125 57.925781 136.875 58.523438 135.242188 C 59.125 133.609375 59.597656 131.941406 59.941406 130.238281 C 60.289062 128.53125 60.5 126.808594 60.582031 125.074219 C 60.667969 123.335938 60.617188 121.601562 60.433594 119.871094 C 60.25 118.140625 59.9375 116.433594 59.496094 114.753906 C 59.054688 113.070312 58.484375 111.429688 57.792969 109.835938 C 57.101562 108.238281 56.289062 106.707031 55.363281 105.234375 C 54.4375 103.761719 53.402344 102.367188 52.265625 101.054688 C 51.125 99.738281 49.890625 98.519531 48.566406 97.394531 C 49.09375 96.492188 49.820312 95.410156 50.347656 94.507812 C 51.847656 92.28125 53.402344 90.09375 55.007812 87.941406 C 56.617188 85.789062 58.273438 83.679688 59.984375 81.609375 C 61.695312 79.542969 63.457031 77.515625 65.265625 75.53125 C 67.078125 73.550781 68.933594 71.613281 70.839844 69.71875 C 72.742188 67.828125 74.695312 65.984375 76.691406 64.1875 C 78.683594 62.394531 80.722656 60.648438 82.804688 58.949219 C 84.886719 57.253906 87.007812 55.609375 89.167969 54.019531 C 91.332031 52.425781 93.53125 50.890625 95.769531 49.40625 C 98.003906 47.921875 100.277344 46.492188 102.585938 45.121094 C 104.890625 43.75 107.230469 42.433594 109.605469 41.175781 C 111.976562 39.917969 114.378906 38.71875 116.808594 37.578125 C 119.238281 36.441406 121.695312 35.359375 124.179688 34.339844 C 126.664062 33.324219 129.171875 32.363281 131.703125 31.46875 C 134.230469 30.574219 136.78125 29.738281 139.355469 28.96875 C 141.925781 28.199219 144.515625 27.492188 147.121094 26.847656 C 149.726562 26.203125 152.347656 25.625 154.984375 25.109375 C 157.617188 24.59375 160.261719 24.144531 162.921875 23.757812 C 165.578125 23.371094 168.242188 23.050781 170.914062 22.796875 C 173.585938 22.542969 176.265625 22.355469 178.945312 22.230469 C 181.628906 22.109375 184.3125 22.050781 186.996094 22.058594 C 189.679688 22.070312 192.363281 22.144531 195.042969 22.285156 C 197.722656 22.421875 200.398438 22.628906 203.070312 22.902344 C 205.742188 23.171875 208.40625 23.507812 211.058594 23.910156 C 213.714844 24.3125 216.355469 24.78125 218.988281 25.3125 C 221.617188 25.84375 224.234375 26.441406 226.835938 27.101562 C 229.441406 27.761719 232.023438 28.488281 234.589844 29.273438 C 237.15625 30.0625 239.703125 30.910156 242.226562 31.824219 C 244.753906 32.734375 247.253906 33.710938 249.730469 34.742188 C 252.207031 35.777344 254.65625 36.875 257.082031 38.03125 C 259.503906 39.183594 261.898438 40.398438 264.261719 41.671875 C 266.625 42.945312 268.957031 44.273438 271.257812 45.660156 C 273.554688 47.046875 275.816406 48.492188 278.046875 49.988281 C 277.496094 50.894531 276.789062 51.972656 276.238281 52.875 C 275.664062 53.949219 275.132812 55.046875 274.644531 56.164062 C 274.152344 57.277344 273.707031 58.410156 273.300781 59.5625 C 272.898438 60.714844 272.539062 61.878906 272.226562 63.054688 C 271.914062 64.234375 271.644531 65.421875 271.421875 66.621094 C 271.199219 67.820312 271.019531 69.023438 270.890625 70.234375 C 270.761719 71.449219 270.675781 72.664062 270.640625 73.882812 C 270.601562 75.101562 270.613281 76.320312 270.667969 77.535156 C 270.722656 78.753906 270.828125 79.96875 270.976562 81.179688 C 271.125 82.386719 271.320312 83.589844 271.5625 84.785156 C 271.804688 85.980469 272.089844 87.164062 272.421875 88.335938 C 272.753906 89.511719 273.128906 90.667969 273.550781 91.8125 C 273.972656 92.957031 274.4375 94.082031 274.945312 95.191406 C 275.453125 96.300781 276 97.386719 276.589844 98.453125 C 277.183594 99.519531 277.8125 100.5625 278.484375 101.582031 C 279.15625 102.597656 279.863281 103.589844 280.609375 104.554688 C 281.355469 105.515625 282.140625 106.449219 282.957031 107.355469 C 283.777344 108.257812 284.628906 109.128906 285.511719 109.96875 C 286.398438 110.804688 287.3125 111.609375 288.261719 112.375 C 289.207031 113.144531 290.179688 113.875 291.183594 114.570312 C 292.1875 115.261719 293.214844 115.914062 294.265625 116.53125 C 295.320312 117.144531 296.394531 117.71875 297.492188 118.25 C 298.589844 118.78125 299.703125 119.269531 300.839844 119.71875 C 301.972656 120.164062 303.121094 120.566406 304.289062 120.925781 C 305.453125 121.285156 306.628906 121.597656 307.820312 121.863281 C 309.007812 122.132812 310.207031 122.355469 311.410156 122.53125 C 312.617188 122.707031 313.828125 122.835938 315.046875 122.917969 C 316.261719 123.003906 317.480469 123.039062 318.699219 123.03125 C 319.917969 123.019531 321.132812 122.960938 322.347656 122.859375 C 323.5625 122.753906 324.773438 122.605469 325.976562 122.410156 C 327.179688 122.214844 328.371094 121.972656 329.554688 121.683594 C 330.742188 121.394531 331.914062 121.0625 333.070312 120.6875 C 334.230469 120.308594 335.375 119.886719 336.5 119.421875 C 341.246094 129.9375 344.828125 140.835938 347.253906 152.117188 C 349.675781 163.394531 350.886719 174.804688 350.882812 186.34375 L 350.882812 189.910156 C 348.851562 190.566406 346.976562 191.523438 345.253906 192.789062 C 343.53125 194.050781 342.054688 195.550781 340.816406 197.289062 C 340.433594 197.828125 340.082031 198.378906 339.753906 198.953125 C 339.425781 199.523438 339.125 200.109375 338.855469 200.710938 C 338.585938 201.308594 338.347656 201.921875 338.136719 202.546875 C 337.925781 203.171875 337.746094 203.804688 337.597656 204.445312 C 337.449219 205.085938 337.335938 205.734375 337.25 206.386719 C 337.164062 207.039062 337.113281 207.695312 337.09375 208.351562 C 337.070312 209.011719 337.082031 209.667969 337.128906 210.328125 C 337.171875 210.984375 337.246094 211.636719 337.355469 212.285156 C 337.464844 212.9375 337.605469 213.578125 337.773438 214.214844 C 337.945312 214.851562 338.148438 215.476562 338.378906 216.09375 C 338.613281 216.707031 338.875 217.3125 339.164062 217.902344 C 339.457031 218.492188 339.777344 219.066406 340.125 219.625 C 340.472656 220.1875 340.847656 220.726562 341.246094 221.25 C 341.648438 221.769531 342.074219 222.273438 342.523438 222.753906 C 342.972656 223.234375 343.445312 223.691406 343.941406 224.125 C 344.4375 224.558594 344.953125 224.96875 345.484375 225.351562 C 334.164062 265.289062 305.554688 293.882812 270.492188 296.746094 C 214.195312 301.4375 157.546875 258.4375 157.015625 258.085938 L 154.660156 256.28125 C 135.785156 239.738281 114.199219 210.242188 112.59375 162.398438 L 186.023438 112.0625 L 259.410156 162.417969 C 257.210938 221.761719 225.054688 252.886719 202.941406 267.273438 C 211.574219 271.0625 220.558594 274.476562 229.371094 277.714844 C 232.074219 275.578125 234.648438 273.304688 237.101562 270.886719 C 258.332031 250.730469 283.683594 214.40625 283.683594 156.121094 L 283.683594 149.644531 L 185.78125 82.546875 L 87.945312 149.46875 L 87.945312 155.945312 C 87.945312 214.230469 113.296875 250.664062 134.53125 270.707031 C 136.136719 272.316406 137.945312 273.75 139.75 275.378906 L 142.261719 277.359375 C 153.5625 286.859375 166.042969 294.40625 179.703125 300.003906 C 202.367188 311.175781 236.96875 323.929688 272.515625 321.066406 C 330.972656 316.019531 375.023438 258.285156 375.023438 186.34375 C 375.066406 183.253906 375.035156 180.167969 374.929688 177.082031 C 374.824219 173.996094 374.640625 170.917969 374.382812 167.839844 C 374.121094 164.761719 373.785156 161.695312 373.375 158.632812 C 372.964844 155.574219 372.480469 152.527344 371.917969 149.492188 C 371.359375 146.453125 370.722656 143.433594 370.011719 140.429688 C 369.300781 137.425781 368.515625 134.441406 367.660156 131.472656 C 366.800781 128.507812 365.871094 125.566406 364.867188 122.644531 C 363.867188 119.726562 362.789062 116.832031 361.644531 113.964844 C 360.5 111.097656 359.28125 108.261719 357.996094 105.453125 C 356.710938 102.648438 355.355469 99.875 353.933594 97.132812 C 352.511719 94.394531 351.019531 91.691406 349.464844 89.027344 C 347.90625 86.359375 346.285156 83.734375 344.601562 81.148438 C 342.914062 78.5625 341.164062 76.019531 339.351562 73.519531 C 337.539062 71.019531 335.667969 68.566406 333.734375 66.15625 C 331.800781 63.75 329.8125 61.390625 327.761719 59.082031 C 325.710938 56.773438 323.605469 54.515625 321.445312 52.3125 C 319.285156 50.109375 317.070312 47.957031 314.804688 45.863281 C 312.539062 43.765625 310.21875 41.726562 307.851562 39.746094 C 305.484375 37.765625 303.070312 35.84375 300.605469 33.984375 C 298.144531 32.121094 295.636719 30.320312 293.085938 28.582031 C 290.535156 26.84375 287.941406 25.171875 285.304688 23.5625 C 282.671875 21.953125 280 20.40625 277.289062 18.929688 C 274.578125 17.453125 271.832031 16.042969 269.054688 14.699219 C 266.273438 13.359375 263.460938 12.085938 260.617188 10.882812 C 257.777344 9.679688 254.90625 8.546875 252.007812 7.484375 C 249.105469 6.421875 246.183594 5.433594 243.234375 4.515625 C 240.289062 3.601562 237.320312 2.753906 234.332031 1.984375 C 231.339844 1.214844 228.335938 0.519531 225.3125 -0.101562 C 222.285156 -0.726562 219.25 -1.273438 216.199219 -1.742188 C 213.148438 -2.214844 210.085938 -2.613281 207.015625 -2.933594 C 203.945312 -3.253906 200.871094 -3.496094 197.789062 -3.667969 C 194.707031 -3.835938 191.621094 -3.929688 188.535156 -3.945312 C 185.445312 -3.960938 182.359375 -3.902344 179.277344 -3.765625 C 176.191406 -3.628906 173.113281 -3.417969 170.039062 -3.128906 C 166.96875 -2.839844 163.902344 -2.476562 160.847656 -2.035156 C 157.789062 -1.597656 154.75 -1.082031 151.71875 -0.492188 C 148.6875 0.0976562 145.675781 0.761719 142.675781 1.5 C 139.679688 2.238281 136.703125 3.050781 133.746094 3.9375 C 130.789062 4.824219 127.855469 5.78125 124.945312 6.8125 C 122.035156 7.84375 119.152344 8.945312 116.296875 10.117188 C 113.441406 11.292969 110.613281 12.535156 107.820312 13.847656 C 105.027344 15.160156 102.265625 16.542969 99.539062 17.992188 C 96.816406 19.4375 94.125 20.953125 91.476562 22.535156 C 88.824219 24.117188 86.214844 25.765625 83.644531 27.476562 C 81.074219 29.1875 78.546875 30.960938 76.066406 32.796875 C 73.582031 34.632812 71.148438 36.527344 68.761719 38.484375 C 66.371094 40.4375 64.03125 42.453125 61.742188 44.523438 C 59.453125 46.59375 57.21875 48.722656 55.035156 50.902344 C 52.847656 53.085938 50.71875 55.320312 48.648438 57.609375 C 46.574219 59.894531 44.558594 62.230469 42.597656 64.617188 C 40.640625 67.003906 38.742188 69.4375 36.902344 71.917969 C 35.066406 74.398438 33.289062 76.921875 31.578125 79.492188 C 29.863281 82.058594 28.214844 84.667969 26.628906 87.320312 C 25.042969 89.96875 23.527344 92.65625 22.074219 95.378906 C 20.621094 98.105469 19.238281 100.863281 17.921875 103.65625 C 16.609375 106.449219 15.363281 109.273438 14.183594 112.128906 C 13.007812 114.984375 11.902344 117.863281 10.871094 120.773438 C 9.835938 123.683594 8.875 126.617188 7.984375 129.574219 C 7.097656 132.527344 6.28125 135.507812 5.539062 138.503906 C 4.796875 141.5 4.128906 144.511719 3.535156 147.542969 C 2.941406 150.574219 2.425781 153.617188 1.980469 156.671875 C 1.539062 159.726562 1.171875 162.792969 0.878906 165.863281 C 0.589844 168.9375 0.375 172.015625 0.234375 175.101562 C 0.09375 178.1875 0.03125 181.273438 0.0429688 184.359375 Z M 350.332031 198.214844 C 349.832031 204.699219 348.878906 211.117188 347.46875 217.46875 C 345.949219 215.824219 344.988281 213.898438 344.582031 211.695312 C 344.445312 211.058594 344.359375 210.414062 344.320312 209.761719 C 344.28125 209.113281 344.292969 208.460938 344.355469 207.8125 C 344.417969 207.164062 344.527344 206.523438 344.691406 205.890625 C 344.851562 205.257812 345.058594 204.640625 345.316406 204.042969 C 345.570312 203.441406 345.871094 202.863281 346.214844 202.3125 C 346.558594 201.757812 346.945312 201.234375 347.371094 200.738281 C 347.796875 200.246094 348.257812 199.785156 348.753906 199.363281 C 349.25 198.941406 349.777344 198.558594 350.332031 198.214844 Z M 282.714844 56.289062 C 283.089844 55.585938 283.617188 54.859375 283.96875 54.085938 C 289.167969 57.929688 294.121094 62.066406 298.835938 66.492188 C 303.550781 70.914062 307.988281 75.597656 312.152344 80.542969 C 316.316406 85.488281 320.179688 90.660156 323.738281 96.054688 C 327.300781 101.453125 330.53125 107.039062 333.4375 112.8125 C 331.527344 113.578125 329.570312 114.191406 327.566406 114.65625 C 325.5625 115.121094 323.535156 115.429688 321.484375 115.582031 C 319.433594 115.738281 317.382812 115.738281 315.332031 115.578125 C 313.28125 115.417969 311.253906 115.105469 309.25 114.636719 C 307.246094 114.167969 305.289062 113.550781 303.382812 112.785156 C 301.472656 112.015625 299.632812 111.109375 297.863281 110.058594 C 296.09375 109.011719 294.414062 107.835938 292.824219 106.53125 C 291.234375 105.226562 289.75 103.808594 288.378906 102.277344 C 287.003906 100.742188 285.753906 99.117188 284.628906 97.394531 C 283.503906 95.671875 282.515625 93.875 281.667969 92 C 280.816406 90.128906 280.113281 88.199219 279.558594 86.21875 C 279 84.238281 278.597656 82.226562 278.347656 80.1875 C 278.101562 78.144531 278.007812 76.09375 278.074219 74.039062 C 278.136719 71.980469 278.355469 69.941406 278.734375 67.917969 C 279.109375 65.894531 279.636719 63.914062 280.3125 61.972656 C 280.992188 60.03125 281.816406 58.148438 282.78125 56.332031 Z M 26.253906 150.546875 C 29.9375 134.003906 36.054688 118.417969 44.601562 103.78125 C 45.976562 105.039062 47.203125 106.425781 48.289062 107.941406 C 49.371094 109.457031 50.285156 111.066406 51.027344 112.773438 C 51.773438 114.484375 52.328125 116.25 52.703125 118.074219 C 53.074219 119.898438 53.25 121.742188 53.234375 123.605469 C 53.234375 124.488281 53.191406 125.371094 53.105469 126.25 C 53.019531 127.128906 52.886719 128 52.714844 128.867188 C 52.542969 129.734375 52.328125 130.589844 52.074219 131.433594 C 51.816406 132.28125 51.519531 133.109375 51.179688 133.925781 C 50.84375 134.742188 50.464844 135.539062 50.046875 136.316406 C 49.632812 137.097656 49.175781 137.851562 48.6875 138.585938 C 48.195312 139.320312 47.667969 140.03125 47.109375 140.710938 C 46.546875 141.394531 45.953125 142.046875 45.328125 142.671875 C 44.703125 143.296875 44.050781 143.886719 43.367188 144.449219 C 42.683594 145.007812 41.976562 145.53125 41.242188 146.023438 C 40.503906 146.511719 39.75 146.964844 38.96875 147.378906 C 38.191406 147.796875 37.390625 148.171875 36.574219 148.507812 C 35.757812 148.84375 34.929688 149.140625 34.082031 149.398438 C 33.238281 149.652344 32.382812 149.867188 31.515625 150.035156 C 30.648438 150.207031 29.777344 150.335938 28.898438 150.421875 C 28.019531 150.507812 27.136719 150.546875 26.253906 150.546875 Z M 26.253906 150.546875"/></clipPath><clipPath id="g"><path d="M 159 155 L 216 155 L 216 178 L 159 178 Z M 159 155"/></clipPath><clipPath id="h"><path d="M 209.878906 155.589844 C 211.683594 162.949219 213.46875 170.328125 215.273438 177.882812 L 159.878906 177.882812 C 161.6875 170.328125 163.292969 162.949219 164.925781 155.589844 Z M 209.878906 155.589844"/></clipPath><clipPath id="j"><path d="M 144 185 L 184 185 L 184 232 L 144 232 Z M 144 185"/></clipPath><clipPath id="k"><path d="M 144.769531 196.519531 C 149.640625 193.105469 154.308594 189.691406 158.800781 186.101562 C 158.933594 185.964844 159.082031 185.863281 159.253906 185.792969 C 159.425781 185.71875 159.605469 185.683594 159.792969 185.683594 C 159.980469 185.683594 160.15625 185.71875 160.328125 185.792969 C 160.5 185.863281 160.652344 185.964844 160.785156 186.101562 C 164.375 188.433594 168.160156 190.769531 171.929688 193.105469 C 172.300781 193.285156 172.585938 193.558594 172.785156 193.921875 C 172.984375 194.285156 173.058594 194.675781 173.007812 195.085938 L 173.007812 207.3125 C 173.027344 208.160156 173.332031 208.894531 173.910156 209.515625 C 176.621094 212.226562 179.484375 214.914062 182.367188 217.621094 C 182.675781 218.054688 182.90625 218.523438 183.070312 219.03125 C 183.230469 219.535156 183.308594 220.054688 183.308594 220.585938 C 183.308594 221.113281 183.230469 221.632812 183.070312 222.140625 C 182.90625 222.644531 182.675781 223.113281 182.367188 223.546875 C 179.484375 226.257812 176.796875 228.769531 173.910156 231.277344 C 173.511719 231.664062 173.03125 231.847656 172.480469 231.828125 L 166.90625 231.828125 C 166.644531 231.882812 166.378906 231.890625 166.113281 231.847656 C 165.847656 231.804688 165.597656 231.714844 165.363281 231.582031 C 165.132812 231.449219 164.929688 231.277344 164.757812 231.070312 C 164.585938 230.863281 164.460938 230.628906 164.375 230.375 C 158.976562 221.210938 153.582031 211.851562 148.382812 202.6875 C 147.066406 200.699219 145.863281 198.640625 144.769531 196.519531 Z M 144.769531 196.519531"/></clipPath><clipPath id="m"><path d="M 192 185 L 231 185 L 231 232 L 192 232 Z M 192 185"/></clipPath><clipPath id="n"><path d="M 230.382812 196.761719 C 228.578125 200 226.617188 203.238281 224.8125 206.476562 C 220.40625 214.40625 215.625 222.3125 211.132812 230.222656 C 211.011719 230.492188 210.851562 230.738281 210.652344 230.957031 C 210.457031 231.175781 210.226562 231.359375 209.96875 231.507812 C 209.710938 231.652344 209.4375 231.757812 209.148438 231.816406 C 208.855469 231.875 208.5625 231.886719 208.269531 231.851562 C 201.792969 231.851562 201.792969 231.851562 197.101562 227.445312 C 196.464844 226.679688 195.730469 226.015625 194.902344 225.464844 C 194.378906 225.167969 193.917969 224.792969 193.523438 224.34375 C 193.125 223.894531 192.8125 223.390625 192.585938 222.835938 C 192.359375 222.28125 192.226562 221.703125 192.195312 221.105469 C 192.160156 220.503906 192.226562 219.917969 192.390625 219.339844 C 192.515625 218.804688 192.757812 218.328125 193.117188 217.90625 C 195.804688 215.199219 198.6875 212.6875 201.199219 210 C 201.78125 209.382812 202.082031 208.648438 202.101562 207.796875 L 202.101562 195.375 C 202.085938 194.96875 202.175781 194.589844 202.367188 194.234375 C 202.5625 193.878906 202.832031 193.597656 203.183594 193.390625 C 206.96875 191.054688 210.738281 188.542969 214.503906 186.035156 C 214.625 185.921875 214.765625 185.835938 214.921875 185.773438 C 215.078125 185.714844 215.238281 185.683594 215.40625 185.683594 C 215.574219 185.683594 215.734375 185.714844 215.890625 185.773438 C 216.046875 185.835938 216.183594 185.921875 216.308594 186.035156 C 220.847656 189.582031 225.539062 193.171875 230.382812 196.761719 Z M 230.382812 196.761719"/></clipPath><clipPath id="p"><path d="M 173 181 L 203 181 L 203 208 L 173 208 Z M 173 181"/></clipPath><clipPath id="q"><path d="M 176.421875 207.929688 L 177.5 197.488281 C 177.882812 195.519531 177.707031 193.605469 176.972656 191.738281 C 175.539062 188.675781 174.460938 185.4375 173.382812 182.378906 C 173.214844 182.097656 173.152344 181.796875 173.183594 181.472656 L 202.148438 181.472656 C 201.066406 184.183594 200.339844 187.070312 199.085938 189.582031 C 198.375 191.253906 197.929688 192.996094 197.746094 194.808594 C 197.5625 196.617188 197.648438 198.414062 198.007812 200.199219 C 198.183594 202.707031 198.558594 205.21875 198.910156 207.929688 Z M 176.421875 207.929688"/></clipPath><linearGradient x1="-843.45" gradientTransform="matrix(-2.20251 0 0 2.20279 -1796.37 -1173.527)" xmlns:xlink="http://www.w3.org/1999/xlink" y1="647.55" x2="-843.45" gradientUnits="userSpaceOnUse" y2="631.55" xlink:type="simple" xlink:actuate="onLoad" id="d" xlink:show="other"><stop stop-color="#B5DED7" offset="0"/><stop stop-color="#B4DED7" offset=".004"/><stop stop-color="#B3DDD6" offset=".008"/><stop stop-color="#B3DDD6" offset=".012"/><stop stop-color="#B2DDD6" offset=".016"/><stop stop-color="#B1DDD6" offset=".02"/><stop stop-color="#B0DCD5" offset=".023"/><stop stop-color="#AFDCD5" offset=".027"/><stop stop-color="#AFDCD5" offset=".031"/><stop stop-color="#AEDBD5" offset=".035"/><stop stop-color="#ADDBD4" offset=".039"/><stop stop-color="#ACDBD4" offset=".043"/><stop stop-color="#ACDAD4" offset=".047"/><stop stop-color="#ABDAD3" offset=".051"/><stop stop-color="#AADAD3" offset=".055"/><stop stop-color="#A9DAD3" offset=".059"/><stop stop-color="#A9D9D3" offset=".063"/><stop stop-color="#A8D9D2" offset=".066"/><stop stop-color="#A7D9D2" offset=".07"/><stop stop-color="#A6D8D2" offset=".074"/><stop stop-color="#A5D8D2" offset=".078"/><stop stop-color="#A5D8D1" offset=".082"/><stop stop-color="#A4D8D1" offset=".086"/><stop stop-color="#A3D7D1" offset=".09"/><stop stop-color="#A2D7D1" offset=".094"/><stop stop-color="#A2D7D0" offset=".098"/><stop stop-color="#A1D6D0" offset=".102"/><stop stop-color="#A0D6D0" offset=".105"/><stop stop-color="#9FD6D0" offset=".109"/><stop stop-color="#9FD5CF" offset=".113"/><stop stop-color="#9ED5CF" offset=".117"/><stop stop-color="#9DD5CF" offset=".121"/><stop stop-color="#9CD5CF" offset=".125"/><stop stop-color="#9CD4CE" offset=".129"/><stop stop-color="#9BD4CE" offset=".133"/><stop stop-color="#9AD4CE" offset=".137"/><stop stop-color="#99D3CD" offset=".141"/><stop stop-color="#98D3CD" offset=".145"/><stop stop-color="#98D3CD" offset=".148"/><stop stop-color="#97D3CD" offset=".152"/><stop stop-color="#96D2CC" offset=".156"/><stop stop-color="#95D2CC" offset=".16"/><stop stop-color="#95D2CC" offset=".164"/><stop stop-color="#94D1CC" offset=".168"/><stop stop-color="#93D1CB" offset=".172"/><stop stop-color="#92D1CB" offset=".176"/><stop stop-color="#92D1CB" offset=".18"/><stop stop-color="#91D0CB" offset=".184"/><stop stop-color="#90D0CA" offset=".188"/><stop stop-color="#8FD0CA" offset=".191"/><stop stop-color="#8ECFCA" offset=".195"/><stop stop-color="#8ECFCA" offset=".199"/><stop stop-color="#8DCFC9" offset=".203"/><stop stop-color="#8CCEC9" offset=".207"/><stop stop-color="#8BCEC9" offset=".211"/><stop stop-color="#8BCEC8" offset=".215"/><stop stop-color="#8ACEC8" offset=".219"/><stop stop-color="#89CDC8" offset=".223"/><stop stop-color="#88CDC8" offset=".227"/><stop stop-color="#88CDC7" offset=".23"/><stop stop-color="#87CCC7" offset=".234"/><stop stop-color="#86CCC7" offset=".238"/><stop stop-color="#85CCC7" offset=".242"/><stop stop-color="#85CCC6" offset=".246"/><stop stop-color="#84CBC6" offset=".25"/><stop stop-color="#83CBC6" offset=".254"/><stop stop-color="#82CBC6" offset=".258"/><stop stop-color="#81CAC5" offset=".262"/><stop stop-color="#81CAC5" offset=".266"/><stop stop-color="#80CAC5" offset=".27"/><stop stop-color="#7FC9C5" offset=".273"/><stop stop-color="#7EC9C4" offset=".277"/><stop stop-color="#7EC9C4" offset=".281"/><stop stop-color="#7DC9C4" offset=".285"/><stop stop-color="#7CC8C4" offset=".289"/><stop stop-color="#7BC8C3" offset=".293"/><stop stop-color="#7BC8C3" offset=".297"/><stop stop-color="#7AC7C3" offset=".301"/><stop stop-color="#79C7C2" offset=".305"/><stop stop-color="#78C7C2" offset=".309"/><stop stop-color="#78C7C2" offset=".313"/><stop stop-color="#77C6C2" offset=".316"/><stop stop-color="#76C6C1" offset=".32"/><stop stop-color="#75C6C1" offset=".324"/><stop stop-color="#74C5C1" offset=".328"/><stop stop-color="#74C5C1" offset=".332"/><stop stop-color="#73C5C0" offset=".336"/><stop stop-color="#72C4C0" offset=".34"/><stop stop-color="#71C4C0" offset=".344"/><stop stop-color="#71C4C0" offset=".348"/><stop stop-color="#70C4BF" offset=".352"/><stop stop-color="#6FC3BF" offset=".355"/><stop stop-color="#6EC3BF" offset=".359"/><stop stop-color="#6EC3BF" offset=".363"/><stop stop-color="#6DC2BE" offset=".367"/><stop stop-color="#6CC2BE" offset=".371"/><stop stop-color="#6BC2BE" offset=".375"/><stop stop-color="#6AC2BD" offset=".379"/><stop stop-color="#6AC1BD" offset=".383"/><stop stop-color="#69C1BD" offset=".387"/><stop stop-color="#68C1BD" offset=".391"/><stop stop-color="#67C0BC" offset=".395"/><stop stop-color="#67C0BC" offset=".398"/><stop stop-color="#66C0BC" offset=".402"/><stop stop-color="#65BFBC" offset=".406"/><stop stop-color="#64BFBB" offset=".41"/><stop stop-color="#64BFBB" offset=".414"/><stop stop-color="#63BFBB" offset=".418"/><stop stop-color="#62BEBB" offset=".422"/><stop stop-color="#61BEBA" offset=".426"/><stop stop-color="#61BEBA" offset=".43"/><stop stop-color="#60BDBA" offset=".434"/><stop stop-color="#5FBDBA" offset=".438"/><stop stop-color="#5EBDB9" offset=".441"/><stop stop-color="#5DBDB9" offset=".445"/><stop stop-color="#5DBCB9" offset=".449"/><stop stop-color="#5CBCB9" offset=".453"/><stop stop-color="#5BBCB8" offset=".457"/><stop stop-color="#5ABBB8" offset=".461"/><stop stop-color="#5ABBB8" offset=".465"/><stop stop-color="#59BBB7" offset=".469"/><stop stop-color="#58BBB7" offset=".473"/><stop stop-color="#57BAB7" offset=".477"/><stop stop-color="#57BAB7" offset=".48"/><stop stop-color="#56BAB6" offset=".484"/><stop stop-color="#55B9B6" offset=".488"/><stop stop-color="#54B9B6" offset=".492"/><stop stop-color="#54B9B6" offset=".496"/><stop stop-color="#53B8B5" offset=".5"/><stop stop-color="#52B8B5" offset=".504"/><stop stop-color="#51B8B5" offset=".508"/><stop stop-color="#50B8B5" offset=".512"/><stop stop-color="#50B7B4" offset=".516"/><stop stop-color="#4FB7B4" offset=".52"/><stop stop-color="#4EB7B4" offset=".523"/><stop stop-color="#4DB6B4" offset=".527"/><stop stop-color="#4DB6B3" offset=".531"/><stop stop-color="#4CB6B3" offset=".535"/><stop stop-color="#4BB6B3" offset=".539"/><stop stop-color="#4AB5B3" offset=".543"/><stop stop-color="#4AB5B2" offset=".547"/><stop stop-color="#49B5B2" offset=".551"/><stop stop-color="#48B4B2" offset=".555"/><stop stop-color="#47B4B1" offset=".559"/><stop stop-color="#46B4B1" offset=".563"/><stop stop-color="#46B3B1" offset=".566"/><stop stop-color="#45B3B1" offset=".57"/><stop stop-color="#44B3B0" offset=".574"/><stop stop-color="#43B3B0" offset=".578"/><stop stop-color="#43B2B0" offset=".582"/><stop stop-color="#42B2B0" offset=".586"/><stop stop-color="#41B2AF" offset=".59"/><stop stop-color="#40B1AF" offset=".594"/><stop stop-color="#40B1AF" offset=".598"/><stop stop-color="#3FB1AF" offset=".602"/><stop stop-color="#3EB1AE" offset=".605"/><stop stop-color="#3DB0AE" offset=".609"/><stop stop-color="#3DB0AE" offset=".613"/><stop stop-color="#3CB0AE" offset=".617"/><stop stop-color="#3BAFAD" offset=".621"/><stop stop-color="#3AAFAD" offset=".625"/><stop stop-color="#3AAFAD" offset=".633"/><stop stop-color="#39AEAC" offset=".641"/><stop stop-color="#38AEAC" offset=".648"/><stop stop-color="#37AEAB" offset=".656"/><stop stop-color="#37ADAB" offset=".664"/><stop stop-color="#36ADAB" offset=".672"/><stop stop-color="#35ACAA" offset=".68"/><stop stop-color="#34ACAA" offset=".688"/><stop stop-color="#34ACA9" offset=".695"/><stop stop-color="#33ABA9" offset=".703"/><stop stop-color="#32ABA8" offset=".711"/><stop stop-color="#31ABA8" offset=".719"/><stop stop-color="#31AAA8" offset=".727"/><stop stop-color="#30AAA7" offset=".734"/><stop stop-color="#2FA9A7" offset=".742"/><stop stop-color="#2EA9A6" offset=".75"/><stop stop-color="#2EA9A6" offset=".758"/><stop stop-color="#2DA8A5" offset=".766"/><stop stop-color="#2CA8A5" offset=".773"/><stop stop-color="#2BA7A5" offset=".781"/><stop stop-color="#2BA7A4" offset=".789"/><stop stop-color="#2AA7A4" offset=".797"/><stop stop-color="#29A6A3" offset=".805"/><stop stop-color="#28A6A3" offset=".813"/><stop stop-color="#27A6A2" offset=".82"/><stop stop-color="#27A5A2" offset=".828"/><stop stop-color="#26A5A1" offset=".836"/><stop stop-color="#25A4A1" offset=".844"/><stop stop-color="#24A4A1" offset=".852"/><stop stop-color="#24A4A0" offset=".859"/><stop stop-color="#23A3A0" offset=".867"/><stop stop-color="#22A39F" offset=".875"/><stop stop-color="#21A29F" offset=".883"/><stop stop-color="#21A29E" offset=".891"/><stop stop-color="#20A29E" offset=".898"/><stop stop-color="#1FA19E" offset=".906"/><stop stop-color="#1EA19D" offset=".914"/><stop stop-color="#1EA09D" offset=".922"/><stop stop-color="#1DA09C" offset=".93"/><stop stop-color="#1CA09C" offset=".938"/><stop stop-color="#1B9F9B" offset=".945"/><stop stop-color="#1B9F9B" offset=".953"/><stop stop-color="#1A9F9A" offset=".961"/><stop stop-color="#199E9A" offset=".969"/><stop stop-color="#199E9A" offset=".977"/><stop stop-color="#189E99" offset=".984"/><stop stop-color="#189D98" offset="1"/></linearGradient><linearGradient x1="-900.73" gradientTransform="matrix(-2.20251 0 0 2.20279 -1796.37 -1173.527)" xmlns:xlink="http://www.w3.org/1999/xlink" y1="702.96" x2="-900.73" gradientUnits="userSpaceOnUse" y2="532.746" xlink:type="simple" xlink:actuate="onLoad" id="f" xlink:show="other"><stop stop-color="#B5DED7" offset="0"/><stop stop-color="#B4DED7" offset=".004"/><stop stop-color="#B3DED6" offset=".008"/><stop stop-color="#B3DDD6" offset=".012"/><stop stop-color="#B2DDD6" offset=".016"/><stop stop-color="#B1DDD6" offset=".02"/><stop stop-color="#B0DCD5" offset=".023"/><stop stop-color="#B0DCD5" offset=".027"/><stop stop-color="#AFDCD5" offset=".031"/><stop stop-color="#AEDBD5" offset=".035"/><stop stop-color="#ADDBD4" offset=".039"/><stop stop-color="#ADDBD4" offset=".043"/><stop stop-color="#ACDBD4" offset=".047"/><stop stop-color="#ABDAD4" offset=".051"/><stop stop-color="#AADAD3" offset=".055"/><stop stop-color="#AADAD3" offset=".059"/><stop stop-color="#A9D9D3" offset=".063"/><stop stop-color="#A8D9D3" offset=".066"/><stop stop-color="#A7D9D2" offset=".07"/><stop stop-color="#A7D9D2" offset=".074"/><stop stop-color="#A6D8D2" offset=".078"/><stop stop-color="#A5D8D2" offset=".082"/><stop stop-color="#A4D8D1" offset=".086"/><stop stop-color="#A4D7D1" offset=".09"/><stop stop-color="#A3D7D1" offset=".094"/><stop stop-color="#A2D7D0" offset=".098"/><stop stop-color="#A1D7D0" offset=".102"/><stop stop-color="#A1D6D0" offset=".105"/><stop stop-color="#A0D6D0" offset=".109"/><stop stop-color="#9FD6CF" offset=".113"/><stop stop-color="#9ED5CF" offset=".117"/><stop stop-color="#9DD5CF" offset=".121"/><stop stop-color="#9DD5CF" offset=".125"/><stop stop-color="#9CD4CE" offset=".129"/><stop stop-color="#9BD4CE" offset=".133"/><stop stop-color="#9AD4CE" offset=".137"/><stop stop-color="#9AD4CE" offset=".141"/><stop stop-color="#99D3CD" offset=".145"/><stop stop-color="#98D3CD" offset=".148"/><stop stop-color="#97D3CD" offset=".152"/><stop stop-color="#97D2CD" offset=".156"/><stop stop-color="#96D2CC" offset=".16"/><stop stop-color="#95D2CC" offset=".164"/><stop stop-color="#94D2CC" offset=".168"/><stop stop-color="#94D1CC" offset=".172"/><stop stop-color="#93D1CB" offset=".176"/><stop stop-color="#92D1CB" offset=".18"/><stop stop-color="#91D0CB" offset=".184"/><stop stop-color="#91D0CB" offset=".188"/><stop stop-color="#90D0CA" offset=".191"/><stop stop-color="#8FD0CA" offset=".195"/><stop stop-color="#8ECFCA" offset=".199"/><stop stop-color="#8ECFC9" offset=".203"/><stop stop-color="#8DCFC9" offset=".207"/><stop stop-color="#8CCEC9" offset=".211"/><stop stop-color="#8BCEC9" offset=".215"/><stop stop-color="#8BCEC8" offset=".219"/><stop stop-color="#8ACEC8" offset=".223"/><stop stop-color="#89CDC8" offset=".227"/><stop stop-color="#88CDC8" offset=".23"/><stop stop-color="#87CDC7" offset=".234"/><stop stop-color="#87CCC7" offset=".238"/><stop stop-color="#86CCC7" offset=".242"/><stop stop-color="#85CCC7" offset=".246"/><stop stop-color="#84CBC6" offset=".25"/><stop stop-color="#84CBC6" offset=".254"/><stop stop-color="#83CBC6" offset=".258"/><stop stop-color="#82CBC6" offset=".262"/><stop stop-color="#81CAC5" offset=".266"/><stop stop-color="#81CAC5" offset=".27"/><stop stop-color="#80CAC5" offset=".273"/><stop stop-color="#7FC9C5" offset=".277"/><stop stop-color="#7EC9C4" offset=".281"/><stop stop-color="#7EC9C4" offset=".285"/><stop stop-color="#7DC9C4" offset=".289"/><stop stop-color="#7CC8C3" offset=".293"/><stop stop-color="#7BC8C3" offset=".297"/><stop stop-color="#7BC8C3" offset=".301"/><stop stop-color="#7AC7C3" offset=".305"/><stop stop-color="#79C7C2" offset=".309"/><stop stop-color="#78C7C2" offset=".313"/><stop stop-color="#78C7C2" offset=".316"/><stop stop-color="#77C6C2" offset=".32"/><stop stop-color="#76C6C1" offset=".324"/><stop stop-color="#75C6C1" offset=".328"/><stop stop-color="#74C5C1" offset=".332"/><stop stop-color="#74C5C1" offset=".336"/><stop stop-color="#73C5C0" offset=".34"/><stop stop-color="#72C5C0" offset=".344"/><stop stop-color="#71C4C0" offset=".348"/><stop stop-color="#71C4C0" offset=".352"/><stop stop-color="#70C4BF" offset=".355"/><stop stop-color="#6FC3BF" offset=".359"/><stop stop-color="#6EC3BF" offset=".363"/><stop stop-color="#6EC3BF" offset=".367"/><stop stop-color="#6DC2BE" offset=".371"/><stop stop-color="#6CC2BE" offset=".375"/><stop stop-color="#6BC2BE" offset=".379"/><stop stop-color="#6BC2BE" offset=".383"/><stop stop-color="#6AC1BD" offset=".387"/><stop stop-color="#69C1BD" offset=".391"/><stop stop-color="#68C1BD" offset=".395"/><stop stop-color="#68C0BC" offset=".398"/><stop stop-color="#67C0BC" offset=".402"/><stop stop-color="#66C0BC" offset=".406"/><stop stop-color="#65C0BC" offset=".41"/><stop stop-color="#65BFBB" offset=".414"/><stop stop-color="#64BFBB" offset=".418"/><stop stop-color="#63BFBB" offset=".422"/><stop stop-color="#62BEBB" offset=".426"/><stop stop-color="#62BEBA" offset=".43"/><stop stop-color="#61BEBA" offset=".434"/><stop stop-color="#60BEBA" offset=".438"/><stop stop-color="#5FBDBA" offset=".441"/><stop stop-color="#5EBDB9" offset=".445"/><stop stop-color="#5EBDB9" offset=".449"/><stop stop-color="#5DBCB9" offset=".453"/><stop stop-color="#5CBCB9" offset=".457"/><stop stop-color="#5BBCB8" offset=".461"/><stop stop-color="#5BBBB8" offset=".465"/><stop stop-color="#5ABBB8" offset=".469"/><stop stop-color="#59BBB8" offset=".473"/><stop stop-color="#58BBB7" offset=".477"/><stop stop-color="#58BAB7" offset=".48"/><stop stop-color="#57BAB7" offset=".484"/><stop stop-color="#56BAB7" offset=".488"/><stop stop-color="#55B9B6" offset=".492"/><stop stop-color="#55B9B6" offset=".496"/><stop stop-color="#54B9B6" offset=".5"/><stop stop-color="#53B9B5" offset=".504"/><stop stop-color="#52B8B5" offset=".508"/><stop stop-color="#52B8B5" offset=".512"/><stop stop-color="#51B8B5" offset=".516"/><stop stop-color="#50B7B4" offset=".52"/><stop stop-color="#4FB7B4" offset=".523"/><stop stop-color="#4FB7B4" offset=".527"/><stop stop-color="#4EB7B4" offset=".531"/><stop stop-color="#4DB6B3" offset=".535"/><stop stop-color="#4CB6B3" offset=".539"/><stop stop-color="#4BB6B3" offset=".543"/><stop stop-color="#4BB5B3" offset=".547"/><stop stop-color="#4AB5B2" offset=".551"/><stop stop-color="#49B5B2" offset=".555"/><stop stop-color="#48B5B2" offset=".559"/><stop stop-color="#48B4B2" offset=".563"/><stop stop-color="#47B4B1" offset=".566"/><stop stop-color="#46B4B1" offset=".57"/><stop stop-color="#45B3B1" offset=".574"/><stop stop-color="#45B3B1" offset=".578"/><stop stop-color="#44B3B0" offset=".582"/><stop stop-color="#43B2B0" offset=".586"/><stop stop-color="#42B2B0" offset=".59"/><stop stop-color="#42B2B0" offset=".594"/><stop stop-color="#41B2AF" offset=".598"/><stop stop-color="#40B1AF" offset=".602"/><stop stop-color="#3FB1AF" offset=".605"/><stop stop-color="#3FB1AE" offset=".609"/><stop stop-color="#3EB0AE" offset=".613"/><stop stop-color="#3DB0AE" offset=".617"/><stop stop-color="#3CB0AE" offset=".621"/><stop stop-color="#3CB0AD" offset=".625"/><stop stop-color="#3BAFAD" offset=".629"/><stop stop-color="#3AAFAD" offset=".633"/><stop stop-color="#3AAFAD" offset=".641"/><stop stop-color="#39AEAC" offset=".648"/><stop stop-color="#38AEAC" offset=".656"/><stop stop-color="#37AEAB" offset=".664"/><stop stop-color="#37ADAB" offset=".672"/><stop stop-color="#36ADAB" offset=".68"/><stop stop-color="#35ACAA" offset=".688"/><stop stop-color="#34ACAA" offset=".695"/><stop stop-color="#34ACA9" offset=".703"/><stop stop-color="#33ABA9" offset=".711"/><stop stop-color="#32ABA8" offset=".719"/><stop stop-color="#31ABA8" offset=".727"/><stop stop-color="#31AAA8" offset=".734"/><stop stop-color="#30AAA7" offset=".742"/><stop stop-color="#2FA9A7" offset=".75"/><stop stop-color="#2EA9A6" offset=".758"/><stop stop-color="#2EA9A6" offset=".766"/><stop stop-color="#2DA8A5" offset=".773"/><stop stop-color="#2CA8A5" offset=".781"/><stop stop-color="#2BA7A5" offset=".789"/><stop stop-color="#2BA7A4" offset=".797"/><stop stop-color="#2AA7A4" offset=".805"/><stop stop-color="#29A6A3" offset=".813"/><stop stop-color="#28A6A3" offset=".82"/><stop stop-color="#28A6A2" offset=".828"/><stop stop-color="#27A5A2" offset=".836"/><stop stop-color="#26A5A2" offset=".844"/><stop stop-color="#25A4A1" offset=".852"/><stop stop-color="#25A4A1" offset=".859"/><stop stop-color="#24A4A0" offset=".867"/><stop stop-color="#23A3A0" offset=".875"/><stop stop-color="#22A39F" offset=".883"/><stop stop-color="#22A29F" offset=".891"/><stop stop-color="#21A29E" offset=".898"/><stop stop-color="#20A29E" offset=".906"/><stop stop-color="#1FA19E" offset=".914"/><stop stop-color="#1FA19D" offset=".922"/><stop stop-color="#1EA19D" offset=".93"/><stop stop-color="#1DA09C" offset=".938"/><stop stop-color="#1CA09C" offset=".945"/><stop stop-color="#1C9F9B" offset=".953"/><stop stop-color="#1B9F9B" offset=".961"/><stop stop-color="#1A9F9B" offset=".969"/><stop stop-color="#199E9A" offset=".984"/><stop stop-color="#199E99" offset=".992"/><stop stop-color="#189D99" offset="1"/></linearGradient><linearGradient x1="107.13" gradientTransform="matrix(2.20251 0 0 -2.20279 -76.075 726.201)" xmlns:xlink="http://www.w3.org/1999/xlink" y1="253.98" x2="132.28" gradientUnits="userSpaceOnUse" y2="253.98" xlink:type="simple" xlink:actuate="onLoad" id="i" xlink:show="other"><stop stop-color="#B5DED7" offset="0"/><stop stop-color="#B4DED7" offset=".004"/><stop stop-color="#B4DED7" offset=".008"/><stop stop-color="#B3DDD6" offset=".012"/><stop stop-color="#B2DDD6" offset=".016"/><stop stop-color="#B1DDD6" offset=".02"/><stop stop-color="#B1DCD5" offset=".023"/><stop stop-color="#B0DCD5" offset=".027"/><stop stop-color="#AFDCD5" offset=".031"/><stop stop-color="#AEDCD5" offset=".035"/><stop stop-color="#AEDBD4" offset=".039"/><stop stop-color="#ADDBD4" offset=".043"/><stop stop-color="#ACDBD4" offset=".047"/><stop stop-color="#ABDAD4" offset=".051"/><stop stop-color="#ABDAD3" offset=".055"/><stop stop-color="#AADAD3" offset=".059"/><stop stop-color="#A9DAD3" offset=".063"/><stop stop-color="#A8D9D3" offset=".066"/><stop stop-color="#A8D9D2" offset=".07"/><stop stop-color="#A7D9D2" offset=".074"/><stop stop-color="#A6D8D2" offset=".078"/><stop stop-color="#A5D8D2" offset=".082"/><stop stop-color="#A4D8D1" offset=".086"/><stop stop-color="#A4D7D1" offset=".09"/><stop stop-color="#A3D7D1" offset=".094"/><stop stop-color="#A2D7D1" offset=".098"/><stop stop-color="#A1D7D0" offset=".102"/><stop stop-color="#A1D6D0" offset=".105"/><stop stop-color="#A0D6D0" offset=".109"/><stop stop-color="#9FD6CF" offset=".113"/><stop stop-color="#9ED5CF" offset=".117"/><stop stop-color="#9ED5CF" offset=".121"/><stop stop-color="#9DD5CF" offset=".125"/><stop stop-color="#9CD5CE" offset=".129"/><stop stop-color="#9BD4CE" offset=".133"/><stop stop-color="#9BD4CE" offset=".137"/><stop stop-color="#9AD4CE" offset=".141"/><stop stop-color="#99D3CD" offset=".145"/><stop stop-color="#98D3CD" offset=".148"/><stop stop-color="#97D3CD" offset=".152"/><stop stop-color="#97D2CD" offset=".156"/><stop stop-color="#96D2CC" offset=".16"/><stop stop-color="#95D2CC" offset=".164"/><stop stop-color="#94D2CC" offset=".168"/><stop stop-color="#94D1CC" offset=".172"/><stop stop-color="#93D1CB" offset=".176"/><stop stop-color="#92D1CB" offset=".18"/><stop stop-color="#91D0CB" offset=".184"/><stop stop-color="#91D0CB" offset=".188"/><stop stop-color="#90D0CA" offset=".191"/><stop stop-color="#8FD0CA" offset=".195"/><stop stop-color="#8ECFCA" offset=".199"/><stop stop-color="#8ECFC9" offset=".203"/><stop stop-color="#8DCFC9" offset=".207"/><stop stop-color="#8CCEC9" offset=".211"/><stop stop-color="#8BCEC9" offset=".215"/><stop stop-color="#8BCEC8" offset=".219"/><stop stop-color="#8ACEC8" offset=".223"/><stop stop-color="#89CDC8" offset=".227"/><stop stop-color="#88CDC8" offset=".23"/><stop stop-color="#87CDC7" offset=".234"/><stop stop-color="#87CCC7" offset=".238"/><stop stop-color="#86CCC7" offset=".242"/><stop stop-color="#85CCC7" offset=".246"/><stop stop-color="#84CBC6" offset=".25"/><stop stop-color="#84CBC6" offset=".254"/><stop stop-color="#83CBC6" offset=".258"/><stop stop-color="#82CBC6" offset=".262"/><stop stop-color="#81CAC5" offset=".266"/><stop stop-color="#81CAC5" offset=".27"/><stop stop-color="#80CAC5" offset=".273"/><stop stop-color="#7FC9C5" offset=".277"/><stop stop-color="#7EC9C4" offset=".281"/><stop stop-color="#7EC9C4" offset=".285"/><stop stop-color="#7DC9C4" offset=".289"/><stop stop-color="#7CC8C3" offset=".293"/><stop stop-color="#7BC8C3" offset=".297"/><stop stop-color="#7AC8C3" offset=".301"/><stop stop-color="#7AC7C3" offset=".305"/><stop stop-color="#79C7C2" offset=".309"/><stop stop-color="#78C7C2" offset=".313"/><stop stop-color="#77C6C2" offset=".316"/><stop stop-color="#77C6C2" offset=".32"/><stop stop-color="#76C6C1" offset=".324"/><stop stop-color="#75C6C1" offset=".328"/><stop stop-color="#74C5C1" offset=".332"/><stop stop-color="#74C5C1" offset=".336"/><stop stop-color="#73C5C0" offset=".34"/><stop stop-color="#72C4C0" offset=".344"/><stop stop-color="#71C4C0" offset=".348"/><stop stop-color="#71C4C0" offset=".352"/><stop stop-color="#70C4BF" offset=".355"/><stop stop-color="#6FC3BF" offset=".359"/><stop stop-color="#6EC3BF" offset=".363"/><stop stop-color="#6DC3BF" offset=".367"/><stop stop-color="#6DC2BE" offset=".371"/><stop stop-color="#6CC2BE" offset=".375"/><stop stop-color="#6BC2BE" offset=".379"/><stop stop-color="#6AC2BD" offset=".383"/><stop stop-color="#6AC1BD" offset=".387"/><stop stop-color="#69C1BD" offset=".391"/><stop stop-color="#68C1BD" offset=".395"/><stop stop-color="#67C0BC" offset=".398"/><stop stop-color="#67C0BC" offset=".402"/><stop stop-color="#66C0BC" offset=".406"/><stop stop-color="#65BFBC" offset=".41"/><stop stop-color="#64BFBB" offset=".414"/><stop stop-color="#64BFBB" offset=".418"/><stop stop-color="#63BFBB" offset=".422"/><stop stop-color="#62BEBB" offset=".426"/><stop stop-color="#61BEBA" offset=".43"/><stop stop-color="#61BEBA" offset=".434"/><stop stop-color="#60BDBA" offset=".438"/><stop stop-color="#5FBDBA" offset=".441"/><stop stop-color="#5EBDB9" offset=".445"/><stop stop-color="#5DBDB9" offset=".449"/><stop stop-color="#5DBCB9" offset=".453"/><stop stop-color="#5CBCB9" offset=".457"/><stop stop-color="#5BBCB8" offset=".461"/><stop stop-color="#5ABBB8" offset=".465"/><stop stop-color="#5ABBB8" offset=".469"/><stop stop-color="#59BBB7" offset=".473"/><stop stop-color="#58BBB7" offset=".477"/><stop stop-color="#57BAB7" offset=".48"/><stop stop-color="#57BAB7" offset=".484"/><stop stop-color="#56BAB6" offset=".488"/><stop stop-color="#55B9B6" offset=".492"/><stop stop-color="#54B9B6" offset=".496"/><stop stop-color="#54B9B6" offset=".5"/><stop stop-color="#53B8B5" offset=".504"/><stop stop-color="#52B8B5" offset=".508"/><stop stop-color="#51B8B5" offset=".512"/><stop stop-color="#50B8B5" offset=".516"/><stop stop-color="#50B7B4" offset=".52"/><stop stop-color="#4FB7B4" offset=".523"/><stop stop-color="#4EB7B4" offset=".527"/><stop stop-color="#4DB6B4" offset=".531"/><stop stop-color="#4DB6B3" offset=".535"/><stop stop-color="#4CB6B3" offset=".539"/><stop stop-color="#4BB6B3" offset=".543"/><stop stop-color="#4AB5B3" offset=".547"/><stop stop-color="#4AB5B2" offset=".551"/><stop stop-color="#49B5B2" offset=".555"/><stop stop-color="#48B4B2" offset=".559"/><stop stop-color="#47B4B1" offset=".563"/><stop stop-color="#47B4B1" offset=".566"/><stop stop-color="#46B3B1" offset=".57"/><stop stop-color="#45B3B1" offset=".574"/><stop stop-color="#44B3B0" offset=".578"/><stop stop-color="#43B3B0" offset=".582"/><stop stop-color="#43B2B0" offset=".586"/><stop stop-color="#42B2B0" offset=".59"/><stop stop-color="#41B2AF" offset=".594"/><stop stop-color="#40B1AF" offset=".598"/><stop stop-color="#40B1AF" offset=".602"/><stop stop-color="#3FB1AF" offset=".605"/><stop stop-color="#3EB1AE" offset=".609"/><stop stop-color="#3DB0AE" offset=".613"/><stop stop-color="#3DB0AE" offset=".617"/><stop stop-color="#3CB0AE" offset=".621"/><stop stop-color="#3BAFAD" offset=".625"/><stop stop-color="#3AAFAD" offset=".629"/><stop stop-color="#3AAFAD" offset=".633"/><stop stop-color="#39AFAD" offset=".641"/><stop stop-color="#39AEAC" offset=".648"/><stop stop-color="#38AEAC" offset=".656"/><stop stop-color="#37ADAB" offset=".664"/><stop stop-color="#36ADAB" offset=".672"/><stop stop-color="#36ADAA" offset=".68"/><stop stop-color="#35ACAA" offset=".688"/><stop stop-color="#34ACAA" offset=".695"/><stop stop-color="#33ACA9" offset=".703"/><stop stop-color="#33ABA9" offset=".711"/><stop stop-color="#32ABA8" offset=".719"/><stop stop-color="#31AAA8" offset=".727"/><stop stop-color="#30AAA7" offset=".734"/><stop stop-color="#30AAA7" offset=".742"/><stop stop-color="#2FA9A7" offset=".75"/><stop stop-color="#2EA9A6" offset=".758"/><stop stop-color="#2DA8A6" offset=".766"/><stop stop-color="#2CA8A5" offset=".773"/><stop stop-color="#2CA8A5" offset=".781"/><stop stop-color="#2BA7A4" offset=".789"/><stop stop-color="#2AA7A4" offset=".797"/><stop stop-color="#29A7A3" offset=".805"/><stop stop-color="#29A6A3" offset=".813"/><stop stop-color="#28A6A3" offset=".82"/><stop stop-color="#27A5A2" offset=".828"/><stop stop-color="#26A5A2" offset=".836"/><stop stop-color="#26A5A1" offset=".844"/><stop stop-color="#25A4A1" offset=".852"/><stop stop-color="#24A4A0" offset=".859"/><stop stop-color="#23A3A0" offset=".867"/><stop stop-color="#23A3A0" offset=".875"/><stop stop-color="#22A39F" offset=".883"/><stop stop-color="#21A29F" offset=".891"/><stop stop-color="#20A29E" offset=".898"/><stop stop-color="#20A29E" offset=".906"/><stop stop-color="#1FA19D" offset=".914"/><stop stop-color="#1EA19D" offset=".922"/><stop stop-color="#1DA09D" offset=".93"/><stop stop-color="#1DA09C" offset=".938"/><stop stop-color="#1CA09C" offset=".945"/><stop stop-color="#1B9F9B" offset=".953"/><stop stop-color="#1A9F9B" offset=".961"/><stop stop-color="#1A9E9A" offset=".969"/><stop stop-color="#199E9A" offset=".977"/><stop stop-color="#199E99" offset=".984"/><stop stop-color="#189E99" offset=".992"/><stop stop-color="#189D98" offset="1"/></linearGradient><linearGradient x1="100.27" gradientTransform="matrix(2.20251 0 0 -2.20279 -76.075 726.201)" xmlns:xlink="http://www.w3.org/1999/xlink" y1="234.87" x2="117.767" gradientUnits="userSpaceOnUse" y2="234.87" xlink:type="simple" xlink:actuate="onLoad" id="l" xlink:show="other"><stop stop-color="#B5DED7" offset="0"/><stop stop-color="#B4DED7" offset=".004"/><stop stop-color="#B3DDD6" offset=".008"/><stop stop-color="#B2DDD6" offset=".012"/><stop stop-color="#B2DDD6" offset=".016"/><stop stop-color="#B1DCD6" offset=".02"/><stop stop-color="#B0DCD5" offset=".023"/><stop stop-color="#AFDCD5" offset=".027"/><stop stop-color="#AFDCD5" offset=".031"/><stop stop-color="#AEDBD4" offset=".035"/><stop stop-color="#ADDBD4" offset=".039"/><stop stop-color="#ACDBD4" offset=".043"/><stop stop-color="#ABDAD4" offset=".047"/><stop stop-color="#ABDAD3" offset=".051"/><stop stop-color="#AADAD3" offset=".055"/><stop stop-color="#A9DAD3" offset=".059"/><stop stop-color="#A8D9D3" offset=".063"/><stop stop-color="#A8D9D2" offset=".066"/><stop stop-color="#A7D9D2" offset=".07"/><stop stop-color="#A6D8D2" offset=".074"/><stop stop-color="#A5D8D2" offset=".078"/><stop stop-color="#A5D8D1" offset=".082"/><stop stop-color="#A4D8D1" offset=".086"/><stop stop-color="#A3D7D1" offset=".09"/><stop stop-color="#A2D7D1" offset=".094"/><stop stop-color="#A2D7D0" offset=".098"/><stop stop-color="#A1D6D0" offset=".102"/><stop stop-color="#A0D6D0" offset=".105"/><stop stop-color="#9FD6D0" offset=".109"/><stop stop-color="#9FD5CF" offset=".113"/><stop stop-color="#9ED5CF" offset=".117"/><stop stop-color="#9DD5CF" offset=".121"/><stop stop-color="#9CD5CE" offset=".125"/><stop stop-color="#9BD4CE" offset=".129"/><stop stop-color="#9BD4CE" offset=".133"/><stop stop-color="#9AD4CE" offset=".137"/><stop stop-color="#99D3CD" offset=".141"/><stop stop-color="#98D3CD" offset=".145"/><stop stop-color="#98D3CD" offset=".148"/><stop stop-color="#97D3CD" offset=".152"/><stop stop-color="#96D2CC" offset=".156"/><stop stop-color="#95D2CC" offset=".16"/><stop stop-color="#95D2CC" offset=".164"/><stop stop-color="#94D1CC" offset=".168"/><stop stop-color="#93D1CB" offset=".172"/><stop stop-color="#92D1CB" offset=".176"/><stop stop-color="#92D1CB" offset=".18"/><stop stop-color="#91D0CB" offset=".184"/><stop stop-color="#90D0CA" offset=".188"/><stop stop-color="#8FD0CA" offset=".191"/><stop stop-color="#8FCFCA" offset=".195"/><stop stop-color="#8ECFCA" offset=".199"/><stop stop-color="#8DCFC9" offset=".203"/><stop stop-color="#8CCEC9" offset=".207"/><stop stop-color="#8BCEC9" offset=".211"/><stop stop-color="#8BCEC8" offset=".215"/><stop stop-color="#8ACEC8" offset=".219"/><stop stop-color="#89CDC8" offset=".223"/><stop stop-color="#88CDC8" offset=".227"/><stop stop-color="#88CDC7" offset=".23"/><stop stop-color="#87CCC7" offset=".234"/><stop stop-color="#86CCC7" offset=".238"/><stop stop-color="#85CCC7" offset=".242"/><stop stop-color="#85CCC6" offset=".246"/><stop stop-color="#84CBC6" offset=".25"/><stop stop-color="#83CBC6" offset=".254"/><stop stop-color="#82CBC6" offset=".258"/><stop stop-color="#82CAC5" offset=".262"/><stop stop-color="#81CAC5" offset=".266"/><stop stop-color="#80CAC5" offset=".27"/><stop stop-color="#7FCAC5" offset=".273"/><stop stop-color="#7FC9C4" offset=".277"/><stop stop-color="#7EC9C4" offset=".281"/><stop stop-color="#7DC9C4" offset=".285"/><stop stop-color="#7CC8C4" offset=".289"/><stop stop-color="#7BC8C3" offset=".293"/><stop stop-color="#7BC8C3" offset=".297"/><stop stop-color="#7AC7C3" offset=".301"/><stop stop-color="#79C7C3" offset=".305"/><stop stop-color="#78C7C2" offset=".309"/><stop stop-color="#78C7C2" offset=".313"/><stop stop-color="#77C6C2" offset=".316"/><stop stop-color="#76C6C1" offset=".32"/><stop stop-color="#75C6C1" offset=".324"/><stop stop-color="#75C5C1" offset=".328"/><stop stop-color="#74C5C1" offset=".332"/><stop stop-color="#73C5C0" offset=".336"/><stop stop-color="#72C5C0" offset=".34"/><stop stop-color="#72C4C0" offset=".344"/><stop stop-color="#71C4C0" offset=".348"/><stop stop-color="#70C4BF" offset=".352"/><stop stop-color="#6FC3BF" offset=".355"/><stop stop-color="#6FC3BF" offset=".359"/><stop stop-color="#6EC3BF" offset=".363"/><stop stop-color="#6DC3BE" offset=".367"/><stop stop-color="#6CC2BE" offset=".371"/><stop stop-color="#6BC2BE" offset=".375"/><stop stop-color="#6BC2BE" offset=".379"/><stop stop-color="#6AC1BD" offset=".383"/><stop stop-color="#69C1BD" offset=".387"/><stop stop-color="#68C1BD" offset=".391"/><stop stop-color="#68C0BD" offset=".395"/><stop stop-color="#67C0BC" offset=".398"/><stop stop-color="#66C0BC" offset=".402"/><stop stop-color="#65C0BC" offset=".406"/><stop stop-color="#65BFBB" offset=".41"/><stop stop-color="#64BFBB" offset=".414"/><stop stop-color="#63BFBB" offset=".418"/><stop stop-color="#62BEBB" offset=".422"/><stop stop-color="#62BEBA" offset=".426"/><stop stop-color="#61BEBA" offset=".43"/><stop stop-color="#60BEBA" offset=".434"/><stop stop-color="#5FBDBA" offset=".438"/><stop stop-color="#5FBDB9" offset=".441"/><stop stop-color="#5EBDB9" offset=".445"/><stop stop-color="#5DBCB9" offset=".449"/><stop stop-color="#5CBCB9" offset=".453"/><stop stop-color="#5BBCB8" offset=".457"/><stop stop-color="#5BBBB8" offset=".461"/><stop stop-color="#5ABBB8" offset=".465"/><stop stop-color="#59BBB8" offset=".469"/><stop stop-color="#58BBB7" offset=".473"/><stop stop-color="#58BAB7" offset=".477"/><stop stop-color="#57BAB7" offset=".48"/><stop stop-color="#56BAB7" offset=".484"/><stop stop-color="#55B9B6" offset=".488"/><stop stop-color="#55B9B6" offset=".492"/><stop stop-color="#54B9B6" offset=".496"/><stop stop-color="#53B9B5" offset=".5"/><stop stop-color="#52B8B5" offset=".504"/><stop stop-color="#52B8B5" offset=".508"/><stop stop-color="#51B8B5" offset=".512"/><stop stop-color="#50B7B4" offset=".516"/><stop stop-color="#4FB7B4" offset=".52"/><stop stop-color="#4FB7B4" offset=".523"/><stop stop-color="#4EB7B4" offset=".527"/><stop stop-color="#4DB6B3" offset=".531"/><stop stop-color="#4CB6B3" offset=".535"/><stop stop-color="#4BB6B3" offset=".539"/><stop stop-color="#4BB5B3" offset=".543"/><stop stop-color="#4AB5B2" offset=".547"/><stop stop-color="#49B5B2" offset=".551"/><stop stop-color="#48B4B2" offset=".555"/><stop stop-color="#48B4B2" offset=".559"/><stop stop-color="#47B4B1" offset=".563"/><stop stop-color="#46B4B1" offset=".566"/><stop stop-color="#45B3B1" offset=".57"/><stop stop-color="#45B3B1" offset=".574"/><stop stop-color="#44B3B0" offset=".578"/><stop stop-color="#43B2B0" offset=".582"/><stop stop-color="#42B2B0" offset=".586"/><stop stop-color="#42B2B0" offset=".59"/><stop stop-color="#41B2AF" offset=".594"/><stop stop-color="#40B1AF" offset=".598"/><stop stop-color="#3FB1AF" offset=".602"/><stop stop-color="#3FB1AE" offset=".605"/><stop stop-color="#3EB0AE" offset=".609"/><stop stop-color="#3DB0AE" offset=".613"/><stop stop-color="#3CB0AE" offset=".617"/><stop stop-color="#3BB0AD" offset=".621"/><stop stop-color="#3BAFAD" offset=".625"/><stop stop-color="#3AAFAD" offset=".629"/><stop stop-color="#3AAFAD" offset=".633"/><stop stop-color="#39AFAC" offset=".641"/><stop stop-color="#38AEAC" offset=".648"/><stop stop-color="#38AEAC" offset=".656"/><stop stop-color="#37ADAB" offset=".664"/><stop stop-color="#36ADAB" offset=".672"/><stop stop-color="#35ADAA" offset=".68"/><stop stop-color="#35ACAA" offset=".688"/><stop stop-color="#34ACA9" offset=".695"/><stop stop-color="#33ABA9" offset=".703"/><stop stop-color="#32ABA9" offset=".711"/><stop stop-color="#32ABA8" offset=".719"/><stop stop-color="#31AAA8" offset=".727"/><stop stop-color="#30AAA7" offset=".734"/><stop stop-color="#2FAAA7" offset=".742"/><stop stop-color="#2FA9A6" offset=".75"/><stop stop-color="#2EA9A6" offset=".758"/><stop stop-color="#2DA8A6" offset=".766"/><stop stop-color="#2CA8A5" offset=".773"/><stop stop-color="#2CA8A5" offset=".781"/><stop stop-color="#2BA7A4" offset=".789"/><stop stop-color="#2AA7A4" offset=".797"/><stop stop-color="#29A6A3" offset=".805"/><stop stop-color="#29A6A3" offset=".813"/><stop stop-color="#28A6A3" offset=".82"/><stop stop-color="#27A5A2" offset=".828"/><stop stop-color="#26A5A2" offset=".836"/><stop stop-color="#26A5A1" offset=".844"/><stop stop-color="#25A4A1" offset=".852"/><stop stop-color="#24A4A0" offset=".859"/><stop stop-color="#23A3A0" offset=".867"/><stop stop-color="#23A39F" offset=".875"/><stop stop-color="#22A39F" offset=".883"/><stop stop-color="#21A29F" offset=".891"/><stop stop-color="#20A29E" offset=".898"/><stop stop-color="#20A19E" offset=".906"/><stop stop-color="#1FA19D" offset=".914"/><stop stop-color="#1EA19D" offset=".922"/><stop stop-color="#1DA09C" offset=".93"/><stop stop-color="#1DA09C" offset=".938"/><stop stop-color="#1CA09C" offset=".945"/><stop stop-color="#1B9F9B" offset=".953"/><stop stop-color="#1A9F9B" offset=".961"/><stop stop-color="#199E9A" offset=".969"/><stop stop-color="#199E9A" offset=".977"/><stop stop-color="#199E99" offset=".984"/><stop stop-color="#189D99" offset=".992"/><stop stop-color="#189D98" offset="1"/></linearGradient><linearGradient x1="121.786" gradientTransform="matrix(2.20251 0 0 -2.20279 -76.075 726.201)" xmlns:xlink="http://www.w3.org/1999/xlink" y1="234.91" x2="139.14" gradientUnits="userSpaceOnUse" y2="234.91" xlink:type="simple" xlink:actuate="onLoad" id="o" xlink:show="other"><stop stop-color="#B4DED7" offset="0"/><stop stop-color="#B3DDD6" offset=".004"/><stop stop-color="#B3DDD6" offset=".008"/><stop stop-color="#B2DDD6" offset=".012"/><stop stop-color="#B1DDD6" offset=".016"/><stop stop-color="#B0DCD5" offset=".02"/><stop stop-color="#B0DCD5" offset=".023"/><stop stop-color="#AFDCD5" offset=".027"/><stop stop-color="#AEDBD5" offset=".031"/><stop stop-color="#ADDBD4" offset=".035"/><stop stop-color="#ADDBD4" offset=".039"/><stop stop-color="#ACDBD4" offset=".043"/><stop stop-color="#ABDAD4" offset=".047"/><stop stop-color="#AADAD3" offset=".051"/><stop stop-color="#AADAD3" offset=".055"/><stop stop-color="#A9D9D3" offset=".059"/><stop stop-color="#A8D9D3" offset=".063"/><stop stop-color="#A7D9D2" offset=".066"/><stop stop-color="#A6D9D2" offset=".07"/><stop stop-color="#A6D8D2" offset=".074"/><stop stop-color="#A5D8D1" offset=".078"/><stop stop-color="#A4D8D1" offset=".082"/><stop stop-color="#A3D7D1" offset=".086"/><stop stop-color="#A3D7D1" offset=".09"/><stop stop-color="#A2D7D0" offset=".094"/><stop stop-color="#A1D6D0" offset=".098"/><stop stop-color="#A0D6D0" offset=".102"/><stop stop-color="#A0D6D0" offset=".105"/><stop stop-color="#9FD6CF" offset=".109"/><stop stop-color="#9ED5CF" offset=".113"/><stop stop-color="#9DD5CF" offset=".117"/><stop stop-color="#9DD5CF" offset=".121"/><stop stop-color="#9CD4CE" offset=".125"/><stop stop-color="#9BD4CE" offset=".129"/><stop stop-color="#9AD4CE" offset=".133"/><stop stop-color="#9AD4CE" offset=".137"/><stop stop-color="#99D3CD" offset=".141"/><stop stop-color="#98D3CD" offset=".145"/><stop stop-color="#97D3CD" offset=".148"/><stop stop-color="#96D2CD" offset=".152"/><stop stop-color="#96D2CC" offset=".156"/><stop stop-color="#95D2CC" offset=".16"/><stop stop-color="#94D2CC" offset=".164"/><stop stop-color="#93D1CB" offset=".168"/><stop stop-color="#93D1CB" offset=".172"/><stop stop-color="#92D1CB" offset=".176"/><stop stop-color="#91D0CB" offset=".18"/><stop stop-color="#90D0CA" offset=".184"/><stop stop-color="#90D0CA" offset=".188"/><stop stop-color="#8FCFCA" offset=".191"/><stop stop-color="#8ECFCA" offset=".195"/><stop stop-color="#8DCFC9" offset=".199"/><stop stop-color="#8DCFC9" offset=".203"/><stop stop-color="#8CCEC9" offset=".207"/><stop stop-color="#8BCEC9" offset=".211"/><stop stop-color="#8ACEC8" offset=".215"/><stop stop-color="#8ACDC8" offset=".219"/><stop stop-color="#89CDC8" offset=".223"/><stop stop-color="#88CDC8" offset=".227"/><stop stop-color="#87CDC7" offset=".23"/><stop stop-color="#86CCC7" offset=".234"/><stop stop-color="#86CCC7" offset=".238"/><stop stop-color="#85CCC7" offset=".242"/><stop stop-color="#84CBC6" offset=".246"/><stop stop-color="#83CBC6" offset=".25"/><stop stop-color="#83CBC6" offset=".254"/><stop stop-color="#82CBC5" offset=".258"/><stop stop-color="#81CAC5" offset=".262"/><stop stop-color="#80CAC5" offset=".266"/><stop stop-color="#80CAC5" offset=".27"/><stop stop-color="#7FC9C4" offset=".273"/><stop stop-color="#7EC9C4" offset=".277"/><stop stop-color="#7DC9C4" offset=".281"/><stop stop-color="#7DC8C4" offset=".285"/><stop stop-color="#7CC8C3" offset=".289"/><stop stop-color="#7BC8C3" offset=".293"/><stop stop-color="#7AC8C3" offset=".297"/><stop stop-color="#7AC7C3" offset=".301"/><stop stop-color="#79C7C2" offset=".305"/><stop stop-color="#78C7C2" offset=".309"/><stop stop-color="#77C6C2" offset=".313"/><stop stop-color="#77C6C2" offset=".316"/><stop stop-color="#76C6C1" offset=".32"/><stop stop-color="#75C6C1" offset=".324"/><stop stop-color="#74C5C1" offset=".328"/><stop stop-color="#73C5C1" offset=".332"/><stop stop-color="#73C5C0" offset=".336"/><stop stop-color="#72C4C0" offset=".34"/><stop stop-color="#71C4C0" offset=".344"/><stop stop-color="#70C4C0" offset=".348"/><stop stop-color="#70C4BF" offset=".352"/><stop stop-color="#6FC3BF" offset=".355"/><stop stop-color="#6EC3BF" offset=".359"/><stop stop-color="#6DC3BE" offset=".363"/><stop stop-color="#6DC2BE" offset=".367"/><stop stop-color="#6CC2BE" offset=".371"/><stop stop-color="#6BC2BE" offset=".375"/><stop stop-color="#6AC1BD" offset=".379"/><stop stop-color="#6AC1BD" offset=".383"/><stop stop-color="#69C1BD" offset=".387"/><stop stop-color="#68C1BD" offset=".391"/><stop stop-color="#67C0BC" offset=".395"/><stop stop-color="#67C0BC" offset=".398"/><stop stop-color="#66C0BC" offset=".402"/><stop stop-color="#65BFBC" offset=".406"/><stop stop-color="#64BFBB" offset=".41"/><stop stop-color="#63BFBB" offset=".414"/><stop stop-color="#63BFBB" offset=".418"/><stop stop-color="#62BEBB" offset=".422"/><stop stop-color="#61BEBA" offset=".426"/><stop stop-color="#60BEBA" offset=".43"/><stop stop-color="#60BDBA" offset=".434"/><stop stop-color="#5FBDBA" offset=".438"/><stop stop-color="#5EBDB9" offset=".441"/><stop stop-color="#5DBDB9" offset=".445"/><stop stop-color="#5DBCB9" offset=".449"/><stop stop-color="#5CBCB8" offset=".453"/><stop stop-color="#5BBCB8" offset=".457"/><stop stop-color="#5ABBB8" offset=".461"/><stop stop-color="#5ABBB8" offset=".465"/><stop stop-color="#59BBB7" offset=".469"/><stop stop-color="#58BAB7" offset=".473"/><stop stop-color="#57BAB7" offset=".477"/><stop stop-color="#57BAB7" offset=".48"/><stop stop-color="#56BAB6" offset=".484"/><stop stop-color="#55B9B6" offset=".488"/><stop stop-color="#54B9B6" offset=".492"/><stop stop-color="#53B9B6" offset=".496"/><stop stop-color="#53B8B5" offset=".5"/><stop stop-color="#52B8B5" offset=".504"/><stop stop-color="#51B8B5" offset=".508"/><stop stop-color="#50B8B5" offset=".512"/><stop stop-color="#50B7B4" offset=".516"/><stop stop-color="#4FB7B4" offset=".52"/><stop stop-color="#4EB7B4" offset=".523"/><stop stop-color="#4DB6B4" offset=".527"/><stop stop-color="#4DB6B3" offset=".531"/><stop stop-color="#4CB6B3" offset=".535"/><stop stop-color="#4BB6B3" offset=".539"/><stop stop-color="#4AB5B3" offset=".543"/><stop stop-color="#4AB5B2" offset=".547"/><stop stop-color="#49B5B2" offset=".551"/><stop stop-color="#48B4B2" offset=".555"/><stop stop-color="#47B4B1" offset=".559"/><stop stop-color="#47B4B1" offset=".563"/><stop stop-color="#46B3B1" offset=".566"/><stop stop-color="#45B3B1" offset=".57"/><stop stop-color="#44B3B0" offset=".574"/><stop stop-color="#43B3B0" offset=".578"/><stop stop-color="#43B2B0" offset=".582"/><stop stop-color="#42B2B0" offset=".586"/><stop stop-color="#41B2AF" offset=".59"/><stop stop-color="#40B1AF" offset=".594"/><stop stop-color="#40B1AF" offset=".598"/><stop stop-color="#3FB1AF" offset=".602"/><stop stop-color="#3EB1AE" offset=".605"/><stop stop-color="#3DB0AE" offset=".609"/><stop stop-color="#3DB0AE" offset=".613"/><stop stop-color="#3CB0AE" offset=".617"/><stop stop-color="#3BAFAD" offset=".621"/><stop stop-color="#3AAFAD" offset=".625"/><stop stop-color="#3AAFAD" offset=".633"/><stop stop-color="#39AEAC" offset=".641"/><stop stop-color="#38AEAC" offset=".648"/><stop stop-color="#37AEAB" offset=".656"/><stop stop-color="#37ADAB" offset=".664"/><stop stop-color="#36ADAB" offset=".672"/><stop stop-color="#35ADAA" offset=".68"/><stop stop-color="#34ACAA" offset=".688"/><stop stop-color="#34ACA9" offset=".695"/><stop stop-color="#33ABA9" offset=".703"/><stop stop-color="#32ABA8" offset=".711"/><stop stop-color="#31ABA8" offset=".719"/><stop stop-color="#31AAA8" offset=".727"/><stop stop-color="#30AAA7" offset=".734"/><stop stop-color="#2FA9A7" offset=".742"/><stop stop-color="#2EA9A6" offset=".75"/><stop stop-color="#2EA9A6" offset=".758"/><stop stop-color="#2DA8A5" offset=".766"/><stop stop-color="#2CA8A5" offset=".773"/><stop stop-color="#2BA8A5" offset=".781"/><stop stop-color="#2BA7A4" offset=".789"/><stop stop-color="#2AA7A4" offset=".797"/><stop stop-color="#29A6A3" offset=".805"/><stop stop-color="#28A6A3" offset=".813"/><stop stop-color="#28A6A2" offset=".82"/><stop stop-color="#27A5A2" offset=".828"/><stop stop-color="#26A5A2" offset=".836"/><stop stop-color="#25A4A1" offset=".844"/><stop stop-color="#25A4A1" offset=".852"/><stop stop-color="#24A4A0" offset=".859"/><stop stop-color="#23A3A0" offset=".867"/><stop stop-color="#22A39F" offset=".875"/><stop stop-color="#22A39F" offset=".883"/><stop stop-color="#21A29F" offset=".891"/><stop stop-color="#20A29E" offset=".898"/><stop stop-color="#1FA19E" offset=".906"/><stop stop-color="#1FA19D" offset=".914"/><stop stop-color="#1EA19D" offset=".922"/><stop stop-color="#1DA09C" offset=".93"/><stop stop-color="#1CA09C" offset=".938"/><stop stop-color="#1C9F9B" offset=".945"/><stop stop-color="#1B9F9B" offset=".953"/><stop stop-color="#1A9F9B" offset=".961"/><stop stop-color="#199E9A" offset=".969"/><stop stop-color="#199E9A" offset=".977"/><stop stop-color="#199E99" offset=".984"/><stop stop-color="#189D98" offset="1"/></linearGradient><linearGradient x1="113.155" gradientTransform="matrix(2.20251 0 0 -2.20279 -76.075 726.201)" xmlns:xlink="http://www.w3.org/1999/xlink" y1="241.28" x2="126.32" gradientUnits="userSpaceOnUse" y2="241.28" xlink:type="simple" xlink:actuate="onLoad" id="r" xlink:show="other"><stop stop-color="#B5DED7" offset="0"/><stop stop-color="#B4DED7" offset=".004"/><stop stop-color="#B4DED7" offset=".008"/><stop stop-color="#B3DDD6" offset=".012"/><stop stop-color="#B2DDD6" offset=".016"/><stop stop-color="#B1DDD6" offset=".02"/><stop stop-color="#B1DCD5" offset=".023"/><stop stop-color="#B0DCD5" offset=".027"/><stop stop-color="#AFDCD5" offset=".031"/><stop stop-color="#AEDCD5" offset=".035"/><stop stop-color="#AEDBD4" offset=".039"/><stop stop-color="#ADDBD4" offset=".043"/><stop stop-color="#ACDBD4" offset=".047"/><stop stop-color="#ABDAD4" offset=".051"/><stop stop-color="#ABDAD3" offset=".055"/><stop stop-color="#AADAD3" offset=".059"/><stop stop-color="#A9D9D3" offset=".063"/><stop stop-color="#A8D9D3" offset=".066"/><stop stop-color="#A7D9D2" offset=".07"/><stop stop-color="#A7D9D2" offset=".074"/><stop stop-color="#A6D8D2" offset=".078"/><stop stop-color="#A5D8D2" offset=".082"/><stop stop-color="#A4D8D1" offset=".086"/><stop stop-color="#A4D7D1" offset=".09"/><stop stop-color="#A3D7D1" offset=".094"/><stop stop-color="#A2D7D0" offset=".098"/><stop stop-color="#A1D7D0" offset=".102"/><stop stop-color="#A1D6D0" offset=".105"/><stop stop-color="#A0D6D0" offset=".109"/><stop stop-color="#9FD6CF" offset=".113"/><stop stop-color="#9ED5CF" offset=".117"/><stop stop-color="#9ED5CF" offset=".121"/><stop stop-color="#9DD5CF" offset=".125"/><stop stop-color="#9CD5CE" offset=".129"/><stop stop-color="#9BD4CE" offset=".133"/><stop stop-color="#9AD4CE" offset=".137"/><stop stop-color="#9AD4CE" offset=".141"/><stop stop-color="#99D3CD" offset=".145"/><stop stop-color="#98D3CD" offset=".148"/><stop stop-color="#97D3CD" offset=".152"/><stop stop-color="#97D2CD" offset=".156"/><stop stop-color="#96D2CC" offset=".16"/><stop stop-color="#95D2CC" offset=".164"/><stop stop-color="#94D2CC" offset=".168"/><stop stop-color="#94D1CC" offset=".172"/><stop stop-color="#93D1CB" offset=".176"/><stop stop-color="#92D1CB" offset=".18"/><stop stop-color="#91D0CB" offset=".184"/><stop stop-color="#91D0CA" offset=".188"/><stop stop-color="#90D0CA" offset=".191"/><stop stop-color="#8FD0CA" offset=".195"/><stop stop-color="#8ECFCA" offset=".199"/><stop stop-color="#8DCFC9" offset=".203"/><stop stop-color="#8DCFC9" offset=".207"/><stop stop-color="#8CCEC9" offset=".211"/><stop stop-color="#8BCEC9" offset=".215"/><stop stop-color="#8ACEC8" offset=".219"/><stop stop-color="#8ACDC8" offset=".223"/><stop stop-color="#89CDC8" offset=".227"/><stop stop-color="#88CDC8" offset=".23"/><stop stop-color="#87CDC7" offset=".234"/><stop stop-color="#87CCC7" offset=".238"/><stop stop-color="#86CCC7" offset=".242"/><stop stop-color="#85CCC7" offset=".246"/><stop stop-color="#84CBC6" offset=".25"/><stop stop-color="#83CBC6" offset=".254"/><stop stop-color="#83CBC6" offset=".258"/><stop stop-color="#82CBC6" offset=".262"/><stop stop-color="#81CAC5" offset=".266"/><stop stop-color="#80CAC5" offset=".27"/><stop stop-color="#80CAC5" offset=".273"/><stop stop-color="#7FC9C4" offset=".277"/><stop stop-color="#7EC9C4" offset=".281"/><stop stop-color="#7DC9C4" offset=".285"/><stop stop-color="#7DC8C4" offset=".289"/><stop stop-color="#7CC8C3" offset=".293"/><stop stop-color="#7BC8C3" offset=".297"/><stop stop-color="#7AC8C3" offset=".301"/><stop stop-color="#7AC7C3" offset=".305"/><stop stop-color="#79C7C2" offset=".309"/><stop stop-color="#78C7C2" offset=".313"/><stop stop-color="#77C6C2" offset=".316"/><stop stop-color="#76C6C2" offset=".32"/><stop stop-color="#76C6C1" offset=".324"/><stop stop-color="#75C6C1" offset=".328"/><stop stop-color="#74C5C1" offset=".332"/><stop stop-color="#73C5C1" offset=".336"/><stop stop-color="#73C5C0" offset=".34"/><stop stop-color="#72C4C0" offset=".344"/><stop stop-color="#71C4C0" offset=".348"/><stop stop-color="#70C4BF" offset=".352"/><stop stop-color="#70C3BF" offset=".355"/><stop stop-color="#6FC3BF" offset=".359"/><stop stop-color="#6EC3BF" offset=".363"/><stop stop-color="#6DC3BE" offset=".367"/><stop stop-color="#6DC2BE" offset=".371"/><stop stop-color="#6CC2BE" offset=".375"/><stop stop-color="#6BC2BE" offset=".379"/><stop stop-color="#6AC1BD" offset=".383"/><stop stop-color="#69C1BD" offset=".387"/><stop stop-color="#69C1BD" offset=".391"/><stop stop-color="#68C1BD" offset=".395"/><stop stop-color="#67C0BC" offset=".398"/><stop stop-color="#66C0BC" offset=".402"/><stop stop-color="#66C0BC" offset=".406"/><stop stop-color="#65BFBC" offset=".41"/><stop stop-color="#64BFBB" offset=".414"/><stop stop-color="#63BFBB" offset=".418"/><stop stop-color="#63BFBB" offset=".422"/><stop stop-color="#62BEBB" offset=".426"/><stop stop-color="#61BEBA" offset=".43"/><stop stop-color="#60BEBA" offset=".434"/><stop stop-color="#60BDBA" offset=".438"/><stop stop-color="#5FBDB9" offset=".441"/><stop stop-color="#5EBDB9" offset=".445"/><stop stop-color="#5DBCB9" offset=".449"/><stop stop-color="#5CBCB9" offset=".453"/><stop stop-color="#5CBCB8" offset=".457"/><stop stop-color="#5BBCB8" offset=".461"/><stop stop-color="#5ABBB8" offset=".465"/><stop stop-color="#59BBB8" offset=".469"/><stop stop-color="#59BBB7" offset=".473"/><stop stop-color="#58BAB7" offset=".477"/><stop stop-color="#57BAB7" offset=".48"/><stop stop-color="#56BAB7" offset=".484"/><stop stop-color="#56BAB6" offset=".488"/><stop stop-color="#55B9B6" offset=".492"/><stop stop-color="#54B9B6" offset=".496"/><stop stop-color="#53B9B6" offset=".5"/><stop stop-color="#52B8B5" offset=".504"/><stop stop-color="#52B8B5" offset=".508"/><stop stop-color="#51B8B5" offset=".512"/><stop stop-color="#50B7B5" offset=".516"/><stop stop-color="#4FB7B4" offset=".52"/><stop stop-color="#4FB7B4" offset=".523"/><stop stop-color="#4EB7B4" offset=".527"/><stop stop-color="#4DB6B3" offset=".531"/><stop stop-color="#4CB6B3" offset=".535"/><stop stop-color="#4CB6B3" offset=".539"/><stop stop-color="#4BB5B3" offset=".543"/><stop stop-color="#4AB5B2" offset=".547"/><stop stop-color="#49B5B2" offset=".551"/><stop stop-color="#49B5B2" offset=".555"/><stop stop-color="#48B4B2" offset=".559"/><stop stop-color="#47B4B1" offset=".563"/><stop stop-color="#46B4B1" offset=".566"/><stop stop-color="#45B3B1" offset=".57"/><stop stop-color="#45B3B1" offset=".574"/><stop stop-color="#44B3B0" offset=".578"/><stop stop-color="#43B2B0" offset=".582"/><stop stop-color="#42B2B0" offset=".586"/><stop stop-color="#42B2B0" offset=".59"/><stop stop-color="#41B2AF" offset=".594"/><stop stop-color="#40B1AF" offset=".598"/><stop stop-color="#3FB1AF" offset=".602"/><stop stop-color="#3FB1AE" offset=".605"/><stop stop-color="#3EB0AE" offset=".609"/><stop stop-color="#3DB0AE" offset=".613"/><stop stop-color="#3CB0AE" offset=".617"/><stop stop-color="#3CB0AD" offset=".621"/><stop stop-color="#3BAFAD" offset=".625"/><stop stop-color="#3AAFAD" offset=".629"/><stop stop-color="#3AAFAD" offset=".633"/><stop stop-color="#39AFAC" offset=".641"/><stop stop-color="#38AEAC" offset=".648"/><stop stop-color="#38AEAC" offset=".656"/><stop stop-color="#37ADAB" offset=".664"/><stop stop-color="#36ADAB" offset=".672"/><stop stop-color="#35ADAA" offset=".68"/><stop stop-color="#35ACAA" offset=".688"/><stop stop-color="#34ACA9" offset=".695"/><stop stop-color="#33ABA9" offset=".703"/><stop stop-color="#32ABA9" offset=".711"/><stop stop-color="#32ABA8" offset=".719"/><stop stop-color="#31AAA8" offset=".727"/><stop stop-color="#30AAA7" offset=".734"/><stop stop-color="#2FAAA7" offset=".742"/><stop stop-color="#2FA9A6" offset=".75"/><stop stop-color="#2EA9A6" offset=".758"/><stop stop-color="#2DA8A6" offset=".766"/><stop stop-color="#2CA8A5" offset=".773"/><stop stop-color="#2CA8A5" offset=".781"/><stop stop-color="#2BA7A4" offset=".789"/><stop stop-color="#2AA7A4" offset=".797"/><stop stop-color="#29A6A3" offset=".805"/><stop stop-color="#29A6A3" offset=".813"/><stop stop-color="#28A6A2" offset=".82"/><stop stop-color="#27A5A2" offset=".828"/><stop stop-color="#26A5A2" offset=".836"/><stop stop-color="#25A4A1" offset=".844"/><stop stop-color="#25A4A1" offset=".852"/><stop stop-color="#24A4A0" offset=".859"/><stop stop-color="#23A3A0" offset=".867"/><stop stop-color="#22A39F" offset=".875"/><stop stop-color="#22A39F" offset=".883"/><stop stop-color="#21A29F" offset=".891"/><stop stop-color="#20A29E" offset=".898"/><stop stop-color="#1FA19E" offset=".906"/><stop stop-color="#1FA19D" offset=".914"/><stop stop-color="#1EA19D" offset=".922"/><stop stop-color="#1DA09C" offset=".93"/><stop stop-color="#1CA09C" offset=".938"/><stop stop-color="#1C9F9C" offset=".945"/><stop stop-color="#1B9F9B" offset=".953"/><stop stop-color="#1A9F9B" offset=".961"/><stop stop-color="#199E9A" offset=".969"/><stop stop-color="#199E9A" offset=".977"/><stop stop-color="#199E99" offset=".984"/><stop stop-color="#189D98" offset="1"/></linearGradient></defs><g clip-path="url(#a)"><path fill="#FFF" d="M 371.800781 187.675781 C 371.800781 190.691406 371.726562 193.699219 371.578125 196.710938 C 371.429688 199.71875 371.210938 202.726562 370.914062 205.722656 C 370.617188 208.722656 370.25 211.710938 369.808594 214.691406 C 369.367188 217.671875 368.851562 220.640625 368.261719 223.597656 C 367.675781 226.550781 367.015625 229.492188 366.28125 232.414062 C 365.550781 235.335938 364.746094 238.242188 363.871094 241.125 C 362.996094 244.007812 362.054688 246.867188 361.039062 249.707031 C 360.023438 252.542969 358.9375 255.355469 357.785156 258.136719 C 356.632812 260.921875 355.410156 263.675781 354.125 266.398438 C 352.835938 269.125 351.480469 271.816406 350.058594 274.472656 C 348.640625 277.128906 347.15625 279.75 345.605469 282.335938 C 344.054688 284.917969 342.445312 287.464844 340.769531 289.96875 C 339.097656 292.476562 337.363281 294.9375 335.566406 297.359375 C 333.773438 299.78125 331.917969 302.15625 330.007812 304.484375 C 328.09375 306.8125 326.128906 309.09375 324.105469 311.328125 C 322.082031 313.558594 320.003906 315.742188 317.871094 317.871094 C 315.742188 320.003906 313.558594 322.082031 311.328125 324.105469 C 309.09375 326.128906 306.8125 328.09375 304.484375 330.007812 C 302.15625 331.917969 299.78125 333.773438 297.359375 335.566406 C 294.9375 337.363281 292.476562 339.097656 289.96875 340.769531 C 287.464844 342.445312 284.917969 344.054688 282.335938 345.605469 C 279.75 347.15625 277.128906 348.640625 274.472656 350.058594 C 271.816406 351.480469 269.125 352.835938 266.398438 354.125 C 263.675781 355.410156 260.921875 356.632812 258.136719 357.785156 C 255.355469 358.9375 252.542969 360.023438 249.707031 361.039062 C 246.867188 362.054688 244.007812 362.996094 241.125 363.871094 C 238.242188 364.746094 235.335938 365.550781 232.414062 366.28125 C 229.492188 367.015625 226.550781 367.675781 223.597656 368.261719 C 220.640625 368.851562 217.671875 369.367188 214.691406 369.808594 C 211.710938 370.25 208.722656 370.617188 205.722656 370.914062 C 202.726562 371.210938 199.71875 371.429688 196.710938 371.578125 C 193.699219 371.726562 190.691406 371.800781 187.675781 371.800781 C 184.664062 371.800781 181.652344 371.726562 178.640625 371.578125 C 175.632812 371.429688 172.628906 371.210938 169.628906 370.914062 C 166.628906 370.621094 163.640625 370.25 160.660156 369.808594 C 157.679688 369.367188 154.710938 368.851562 151.753906 368.261719 C 148.800781 367.675781 145.859375 367.015625 142.9375 366.28125 C 140.015625 365.550781 137.109375 364.746094 134.226562 363.871094 C 131.34375 362.996094 128.484375 362.054688 125.644531 361.039062 C 122.808594 360.023438 120 358.9375 117.214844 357.785156 C 114.429688 356.632812 111.675781 355.410156 108.953125 354.125 C 106.226562 352.835938 103.539062 351.480469 100.878906 350.058594 C 98.222656 348.640625 95.601562 347.15625 93.015625 345.605469 C 90.433594 344.054688 87.886719 342.445312 85.382812 340.769531 C 82.875 339.097656 80.414062 337.363281 77.992188 335.566406 C 75.574219 333.773438 73.199219 331.917969 70.867188 330.007812 C 68.539062 328.09375 66.257812 326.128906 64.023438 324.105469 C 61.792969 322.082031 59.609375 320.003906 57.480469 317.871094 C 55.347656 315.742188 53.273438 313.558594 51.25 311.328125 C 49.226562 309.09375 47.257812 306.8125 45.34375 304.484375 C 43.433594 302.15625 41.582031 299.78125 39.785156 297.359375 C 37.992188 294.9375 36.257812 292.476562 34.582031 289.96875 C 32.90625 287.464844 31.296875 284.917969 29.746094 282.335938 C 28.199219 279.75 26.710938 277.128906 25.292969 274.472656 C 23.871094 271.816406 22.515625 269.125 21.230469 266.398438 C 19.941406 263.675781 18.71875 260.921875 17.566406 258.136719 C 16.414062 255.355469 15.328125 252.542969 14.3125 249.707031 C 13.300781 246.867188 12.355469 244.007812 11.480469 241.125 C 10.605469 238.242188 9.800781 235.335938 9.070312 232.414062 C 8.335938 229.492188 7.675781 226.550781 7.089844 223.597656 C 6.5 220.640625 5.984375 217.671875 5.542969 214.691406 C 5.101562 211.710938 4.734375 208.722656 4.4375 205.722656 C 4.140625 202.726562 3.921875 199.71875 3.773438 196.710938 C 3.625 193.699219 3.550781 190.691406 3.550781 187.675781 C 3.550781 184.664062 3.625 181.652344 3.773438 178.640625 C 3.921875 175.632812 4.140625 172.628906 4.4375 169.628906 C 4.734375 166.628906 5.101562 163.640625 5.542969 160.660156 C 5.984375 157.679688 6.5 154.710938 7.089844 151.753906 C 7.675781 148.800781 8.335938 145.859375 9.070312 142.9375 C 9.800781 140.015625 10.605469 137.109375 11.480469 134.226562 C 12.355469 131.34375 13.300781 128.484375 14.3125 125.644531 C 15.328125 122.808594 16.414062 120 17.566406 117.214844 C 18.71875 114.429688 19.941406 111.675781 21.230469 108.953125 C 22.515625 106.226562 23.871094 103.539062 25.292969 100.878906 C 26.710938 98.222656 28.199219 95.601562 29.746094 93.015625 C 31.296875 90.433594 32.90625 87.886719 34.582031 85.382812 C 36.257812 82.875 37.992188 80.414062 39.785156 77.992188 C 41.582031 75.574219 43.433594 73.199219 45.34375 70.867188 C 47.257812 68.539062 49.226562 66.257812 51.25 64.023438 C 53.273438 61.792969 55.347656 59.609375 57.480469 57.480469 C 59.609375 55.347656 61.792969 53.273438 64.023438 51.25 C 66.257812 49.226562 68.539062 47.257812 70.867188 45.34375 C 73.199219 43.433594 75.574219 41.582031 77.992188 39.785156 C 80.414062 37.992188 82.875 36.257812 85.382812 34.582031 C 87.886719 32.90625 90.433594 31.296875 93.015625 29.746094 C 95.601562 28.199219 98.222656 26.710938 100.878906 25.292969 C 103.539062 23.871094 106.226562 22.515625 108.953125 21.230469 C 111.675781 19.941406 114.429688 18.71875 117.214844 17.566406 C 120 16.414062 122.808594 15.328125 125.644531 14.3125 C 128.484375 13.300781 131.34375 12.355469 134.226562 11.480469 C 137.109375 10.605469 140.015625 9.800781 142.9375 9.070312 C 145.859375 8.335938 148.800781 7.675781 151.753906 7.089844 C 154.710938 6.5 157.679688 5.984375 160.660156 5.542969 C 163.640625 5.101562 166.628906 4.734375 169.628906 4.4375 C 172.628906 4.140625 175.632812 3.921875 178.640625 3.773438 C 181.652344 3.625 184.664062 3.550781 187.675781 3.550781 C 190.691406 3.550781 193.699219 3.625 196.710938 3.773438 C 199.71875 3.921875 202.726562 4.140625 205.722656 4.4375 C 208.722656 4.734375 211.710938 5.101562 214.691406 5.542969 C 217.671875 5.984375 220.640625 6.5 223.597656 7.089844 C 226.550781 7.675781 229.492188 8.335938 232.414062 9.070312 C 235.335938 9.800781 238.242188 10.605469 241.125 11.480469 C 244.007812 12.355469 246.867188 13.300781 249.707031 14.3125 C 252.542969 15.328125 255.355469 16.414062 258.136719 17.566406 C 260.921875 18.71875 263.675781 19.941406 266.398438 21.230469 C 269.125 22.515625 271.816406 23.871094 274.472656 25.292969 C 277.128906 26.710938 279.75 28.199219 282.335938 29.746094 C 284.921875 31.296875 287.464844 32.90625 289.96875 34.582031 C 292.476562 36.257812 294.9375 37.992188 297.359375 39.785156 C 299.78125 41.582031 302.15625 43.433594 304.484375 45.34375 C 306.8125 47.257812 309.09375 49.226562 311.328125 51.25 C 313.558594 53.273438 315.742188 55.347656 317.871094 57.480469 C 320.003906 59.609375 322.082031 61.792969 324.105469 64.023438 C 326.128906 66.257812 328.09375 68.539062 330.007812 70.867188 C 331.917969 73.199219 333.773438 75.574219 335.566406 77.992188 C 337.363281 80.414062 339.097656 82.875 340.769531 85.382812 C 342.445312 87.886719 344.054688 90.433594 345.605469 93.015625 C 347.15625 95.601562 348.640625 98.222656 350.058594 100.878906 C 351.480469 103.539062 352.835938 106.226562 354.125 108.953125 C 355.410156 111.675781 356.632812 114.429688 357.785156 117.214844 C 358.9375 120 360.023438 122.808594 361.039062 125.644531 C 362.054688 128.484375 362.996094 131.34375 363.871094 134.226562 C 364.746094 137.109375 365.550781 140.015625 366.28125 142.9375 C 367.015625 145.859375 367.675781 148.800781 368.261719 151.753906 C 368.851562 154.710938 369.367188 157.679688 369.808594 160.660156 C 370.25 163.640625 370.617188 166.628906 370.914062 169.628906 C 371.210938 172.628906 371.429688 175.632812 371.578125 178.640625 C 371.726562 181.652344 371.800781 184.664062 371.800781 187.675781 Z M 371.800781 187.675781"/></g><g clip-path="url(#b)"><g clip-path="url(#c)"><path fill="url(#d)" d="M 78.9375 217.644531 L 78.9375 252.886719 L 43.699219 252.886719 L 43.699219 217.644531 Z M 78.9375 217.644531"/></g></g><g clip-path="url(#e)"><path fill="url(#f)" d="M 375 0 L 375 374.945312 L 0 374.945312 L 0 0 Z M 375 0"/></g><g clip-path="url(#g)"><g clip-path="url(#h)"><path fill="url(#i)" d="M 159.878906 177.882812 L 159.878906 155.589844 L 215.273438 155.589844 L 215.273438 177.882812 Z M 159.878906 177.882812"/></g></g><g clip-path="url(#j)"><g clip-path="url(#k)"><path fill="url(#l)" d="M 144.769531 231.890625 L 144.769531 185.683594 L 183.308594 185.683594 L 183.308594 231.890625 Z M 144.769531 231.890625"/></g></g><g clip-path="url(#m)"><g clip-path="url(#n)"><path fill="url(#o)" d="M 192.160156 231.886719 L 192.160156 185.683594 L 230.382812 185.683594 L 230.382812 231.886719 Z M 192.160156 231.886719"/></g></g><g clip-path="url(#p)"><g clip-path="url(#q)"><path fill="url(#r)" d="M 173.152344 207.929688 L 173.152344 181.472656 L 202.148438 181.472656 L 202.148438 207.929688 Z M 173.152344 207.929688"/></g></g></svg>