<?xml version="1.0" standalone="no"?>
<!DOCTYPE svg PUBLIC "-//W3C//DTD SVG 20010904//EN"
 "http://www.w3.org/TR/2001/REC-SVG-20010904/DTD/svg10.dtd">
<svg version="1.0" xmlns="http://www.w3.org/2000/svg"
 width="1000.000000pt" height="1000.000000pt" viewBox="0 0 1000.000000 1000.000000"
 preserveAspectRatio="xMidYMid meet">

<g transform="translate(0.000000,1000.000000) scale(0.100000,-0.100000)"
fill="#000000" stroke="none">
<path d="M0 5000 l0 -5000 5000 0 5000 0 0 5000 0 5000 -5000 0 -5000 0 0
-5000z m7334 3947 c28 -35 152 -243 236 -397 35 -63 100 -178 145 -255 45 -77
152 -261 237 -410 126 -219 572 -991 1056 -1830 516 -892 545 -945 545 -975 0
-17 -20 -64 -48 -112 -45 -76 -127 -218 -390 -673 -54 -93 -141 -244 -193
-335 -53 -91 -163 -282 -245 -425 -82 -143 -216 -375 -297 -515 -81 -140 -190
-329 -242 -420 -423 -735 -774 -1341 -794 -1373 l-24 -37 -2245 0 -2244 0 -39
57 c-42 63 -109 178 -249 428 -76 136 -207 364 -616 1070 -64 111 -203 353
-547 950 -145 252 -278 482 -407 705 -340 585 -385 669 -379 697 4 16 45 91
90 168 72 120 445 765 841 1455 62 107 170 294 240 415 70 121 214 371 320
555 361 626 654 1133 702 1215 16 28 40 56 54 62 19 10 495 12 2247 10 l2224
-2 22 -28z"/>
<path d="M2974 8512 c-34 -59 -128 -222 -209 -362 -81 -140 -199 -345 -263
-455 -63 -110 -188 -326 -277 -480 -89 -154 -233 -404 -320 -555 -87 -151
-188 -327 -225 -390 -275 -472 -680 -1180 -680 -1188 0 -6 41 -82 92 -169 50
-87 176 -304 279 -483 102 -179 287 -498 409 -710 122 -212 283 -491 358 -620
74 -129 184 -319 244 -422 59 -104 157 -272 216 -375 60 -104 182 -315 271
-470 l163 -283 2043 0 2043 0 85 148 c46 81 158 275 249 432 90 157 262 456
382 665 120 209 222 385 226 390 5 6 60 100 122 210 63 110 158 274 210 365
52 91 191 332 308 535 117 204 248 429 290 500 42 72 96 165 119 208 l43 77
-52 93 c-29 50 -94 164 -145 252 -51 88 -194 336 -318 550 -495 858 -1102
1910 -1307 2265 l-216 375 -2039 2 -2040 3 -61 -108z m1927 -1072 c120 -23
252 -117 364 -263 28 -36 66 -73 85 -83 19 -11 74 -47 123 -81 86 -61 90 -63
152 -63 36 0 101 -7 144 -16 74 -15 81 -15 97 0 51 52 205 94 374 102 70 4
139 13 175 25 33 10 78 22 100 27 33 6 43 15 68 57 41 71 103 132 167 162 75
36 194 39 256 6 l41 -22 38 26 c50 34 187 93 216 93 52 0 154 -140 240 -330
31 -69 34 -83 34 -170 0 -74 -8 -123 -33 -224 -56 -218 -161 -516 -182 -516
-4 0 -10 24 -14 54 -13 111 -124 388 -161 402 -7 3 -26 -1 -41 -9 -25 -13 -30
-26 -60 -161 -38 -169 -84 -315 -126 -400 -16 -32 -31 -56 -32 -55 -2 2 -20
45 -41 94 -21 50 -56 119 -78 155 -38 64 -113 166 -127 175 -4 3 -58 -20 -120
-50 -101 -50 -112 -58 -106 -78 24 -80 37 -190 32 -267 -6 -89 -14 -130 -25
-130 -3 0 -48 34 -100 75 -51 41 -97 75 -101 75 -4 0 -10 -33 -13 -72 -3 -40
-13 -104 -23 -141 l-17 -68 -41 45 c-45 49 -151 136 -166 136 -6 0 -10 -10
-10 -23 0 -20 -33 -130 -60 -202 l-10 -27 -33 29 c-19 16 -79 53 -134 81
l-101 52 -37 -42 c-40 -44 -94 -152 -115 -230 -11 -42 -10 -50 8 -80 16 -28
57 -130 76 -191 5 -15 11 -13 48 15 51 39 162 91 185 86 9 -2 39 -45 66 -96
28 -50 53 -92 56 -92 3 0 41 41 84 90 43 50 82 90 87 90 5 0 36 -54 68 -119
l59 -120 79 102 c44 55 84 102 89 104 6 2 44 -65 85 -149 66 -136 78 -153 102
-156 49 -6 87 48 141 198 64 177 147 380 157 380 9 0 100 -192 144 -305 19
-49 38 -91 44 -93 5 -1 29 6 53 16 39 17 45 24 57 68 17 63 110 280 174 407
l52 102 13 -55 c21 -92 62 -366 78 -529 25 -255 16 -486 -23 -606 -19 -56 1
-46 -232 -119 -149 -47 -334 -130 -415 -186 l-46 -31 -29 65 c-17 36 -30 72
-30 80 0 10 -25 23 -72 38 -58 17 -96 22 -183 21 -197 -1 -363 -47 -824 -229
-401 -159 -554 -209 -723 -235 -75 -11 -79 -13 -128 -65 -28 -30 -63 -79 -77
-110 l-25 -56 55 -116 c58 -123 98 -238 116 -335 6 -32 13 -62 15 -66 6 -9
123 7 256 34 253 51 568 177 800 318 41 25 76 44 79 42 6 -7 -58 -82 -111
-130 -55 -49 -186 -139 -256 -174 -72 -37 -40 -35 83 3 311 98 737 325 908
484 15 14 27 21 27 15 0 -6 -60 -69 -133 -140 -320 -310 -674 -516 -1096 -638
-531 -153 -1126 -123 -1641 82 -865 344 -1472 1122 -1602 2053 -17 126 -17
546 1 665 34 234 97 465 179 660 35 82 48 104 50 85 10 -77 67 -260 82 -260 3
0 23 42 43 93 59 149 193 368 301 493 l33 38 37 -27 c114 -88 347 -147 574
-147 l68 0 29 62 c101 219 294 391 495 443 104 27 261 17 370 -22 207 -76 263
-94 334 -109 73 -15 124 -15 81 1 -136 48 -335 147 -335 165 0 4 19 13 43 19
106 30 228 38 318 21z m-1491 -5016 c16 -18 29 -18 52 3 17 15 18 13 18 -68
l0 -83 -63 62 -63 62 -83 0 c-82 0 -84 -1 -67 -19 15 -16 17 -44 17 -211 0
-160 -3 -195 -16 -209 -8 -10 -15 -20 -15 -22 0 -2 37 -3 83 -1 l82 4 63 61
62 61 0 -82 c0 -82 -6 -96 -30 -67 -12 14 -15 13 -35 -5 -19 -18 -34 -20 -160
-20 l-139 0 -33 32 -33 32 0 212 0 212 38 33 37 34 137 -3 c104 -2 139 -6 148
-18z m807 -16 c32 -31 33 -35 33 -113 0 -77 -1 -83 -30 -110 -16 -16 -30 -35
-30 -43 0 -20 97 -202 123 -229 l20 -23 -96 0 -97 0 -51 103 c-28 56 -53 104
-54 105 -6 7 -115 7 -115 1 0 -4 7 -12 15 -19 11 -9 15 -32 15 -78 0 -54 4
-70 22 -89 l21 -23 -128 0 -128 0 21 23 c21 23 22 31 22 259 0 197 -2 238 -15
248 -8 7 -15 15 -15 19 0 3 98 5 217 3 l218 -3 32 -31z m2823 31 c0 -4 -7 -12
-15 -19 -13 -10 -15 -51 -15 -248 0 -228 1 -236 22 -259 l21 -23 -126 0 c-70
0 -127 3 -127 8 0 4 9 13 20 20 19 12 20 23 20 250 0 228 -1 238 -20 250 -12
7 -19 16 -16 20 5 9 236 10 236 1z m-2013 -31 l33 -32 0 -210 0 -210 -32 -33
-32 -33 -170 0 -170 0 -33 32 -33 32 0 212 0 212 29 31 29 31 173 0 173 0 33
-32z m1513 -30 l0 -62 -43 42 -43 42 -83 0 c-80 0 -83 -1 -68 -18 10 -11 17
-40 19 -82 l3 -65 39 -3 c29 -3 44 2 62 19 l24 22 0 -63 0 -63 -23 21 c-18 17
-35 22 -82 22 -56 0 -57 -1 -42 -18 14 -15 17 -40 17 -125 0 -95 2 -109 20
-124 11 -10 20 -21 20 -25 0 -5 -54 -8 -120 -8 -66 0 -120 4 -120 9 0 5 7 14
15 21 13 10 15 51 15 248 0 205 -2 238 -17 254 -16 17 -9 18 195 18 l212 0 0
-62z m-798 -23 c73 -36 96 -59 78 -80 -10 -13 -16 -11 -44 10 -54 41 -105 57
-181 57 -76 0 -127 -16 -181 -57 -28 -21 -34 -23 -44 -10 -15 18 -3 35 47 66
93 58 226 63 325 14z m-56 -80 c19 -8 46 -23 59 -33 22 -17 22 -20 8 -35 -14
-14 -19 -13 -56 11 -58 38 -146 38 -204 0 -40 -26 -41 -26 -58 -8 -16 18 -14
20 37 49 44 25 64 31 116 31 34 0 79 -7 98 -15z m-13 -102 c28 -14 28 -15 12
-33 -16 -17 -20 -18 -38 -5 -12 8 -35 15 -52 15 -17 0 -40 -7 -52 -15 -18 -13
-22 -12 -38 5 -16 17 -16 19 6 31 58 31 105 31 162 2z m-48 -128 c0 -27 -3
-30 -30 -30 -21 0 -31 5 -33 18 -6 33 6 49 35 45 24 -3 28 -8 28 -33z"/>
<path d="M7205 7258 c-22 -11 -49 -29 -61 -39 l-20 -19 23 -68 c31 -92 31
-166 -2 -214 -14 -21 -33 -42 -43 -47 -15 -8 -17 -2 -18 54 -2 116 -60 222
-148 271 -64 35 -123 31 -189 -15 -92 -63 -131 -175 -125 -358 l3 -114 -22 27
c-12 15 -34 52 -50 83 -24 49 -28 66 -26 134 1 42 -3 77 -8 77 -28 0 -102 -46
-111 -69 -18 -47 -38 -154 -46 -241 l-7 -85 -24 73 c-13 40 -27 110 -30 155
l-6 82 -92 -1 c-223 -4 -343 -84 -442 -295 -41 -87 -101 -274 -101 -315 0 -12
-4 -26 -10 -29 -15 -10 -12 115 5 199 18 85 49 169 99 262 20 37 34 70 31 72
-8 9 -121 31 -185 37 -61 6 -235 -13 -285 -31 -41 -15 26 44 71 63 24 10 44
21 44 25 0 11 -99 83 -145 106 -64 32 -173 61 -270 72 -110 12 -205 13 -205 2
0 -5 36 -45 79 -90 59 -59 99 -90 153 -117 l73 -36 -50 6 c-76 9 -176 63 -324
175 -162 124 -212 154 -307 186 -86 28 -216 33 -304 9 -196 -52 -396 -238
-474 -441 -14 -38 -41 -123 -60 -189 -47 -166 -71 -225 -118 -295 -48 -73
-105 -121 -183 -155 l-58 -26 62 68 c38 40 76 96 95 138 33 69 101 303 92 313
-3 2 -53 -20 -111 -49 l-106 -54 -51 -83 c-48 -79 -127 -250 -128 -275 -1 -7
-7 -25 -15 -42 -14 -28 -15 -25 -9 50 3 44 12 111 20 149 7 38 12 71 10 74 -8
8 -77 -147 -101 -226 -37 -126 -59 -283 -59 -427 0 -153 19 -233 90 -385 33
-72 38 -88 20 -66 -63 76 -162 281 -192 396 -13 52 -15 90 -10 195 7 133 23
296 32 328 10 34 -20 16 -90 -55 -127 -130 -171 -256 -164 -472 l5 -128 -24
38 c-12 22 -31 59 -40 84 -35 96 -37 77 -12 -162 21 -201 82 -345 203 -476 21
-23 37 -45 34 -47 -11 -11 -150 98 -193 152 -94 115 -170 310 -182 466 -4 46
-10 77 -17 77 -6 -1 -28 -23 -49 -50 l-37 -49 9 -83 c40 -345 193 -746 419
-1098 194 -301 494 -616 762 -800 84 -57 297 -180 312 -180 15 0 8 46 -16 95
-30 64 -103 163 -179 243 -33 34 -58 64 -55 67 6 7 208 -137 284 -201 122
-105 28 27 -165 231 -201 212 -318 391 -390 597 -25 73 -55 227 -35 178 33
-77 118 -232 168 -305 76 -112 244 -283 355 -360 116 -81 284 -164 421 -209
122 -39 309 -76 390 -76 l49 0 -15 35 c-7 19 -14 44 -14 55 0 14 -7 20 -22 21
-13 0 -32 2 -43 4 -11 1 -53 6 -94 9 -94 8 -216 39 -296 75 -69 31 -170 97
-198 129 -18 20 -18 20 22 15 38 -5 40 -4 56 33 13 29 16 60 12 124 -4 100
-38 194 -110 315 l-46 77 35 -31 c19 -17 60 -58 91 -91 31 -33 58 -58 61 -56
17 17 -75 167 -181 296 -44 52 -89 115 -102 140 -60 119 -98 314 -80 406 l8
39 13 -67 c14 -73 67 -184 114 -239 l29 -34 1 75 c1 41 7 93 15 115 l13 40 1
-41 c1 -61 35 -161 78 -231 98 -161 511 -564 662 -646 240 -131 592 -65 965
182 56 36 107 70 115 75 8 5 -14 -28 -49 -73 -35 -45 -67 -84 -72 -87 -4 -3
-8 -9 -8 -13 0 -4 71 19 158 51 323 122 522 170 702 172 130 1 210 -13 290
-53 46 -23 56 -33 65 -63 l10 -37 40 31 c61 46 164 91 342 147 88 28 171 59
182 69 30 25 42 103 43 277 1 145 -25 532 -41 625 l-8 45 -26 -56 c-38 -83
-57 -156 -57 -220 0 -52 3 -61 31 -87 l31 -29 -30 -22 c-54 -38 -246 -112
-356 -136 l-28 -6 8 38 c18 79 9 173 -24 246 -17 37 -35 67 -40 67 -13 0 -56
-110 -71 -178 -6 -29 -11 -82 -11 -117 0 -54 -4 -68 -22 -85 -46 -42 -415
-216 -498 -234 -38 -9 -450 -43 -665 -56 -104 -7 -280 -10 -390 -8 l-200 3
-97 43 c-218 98 -415 231 -590 400 -163 158 -262 290 -282 376 -18 74 40 116
160 116 92 0 132 -9 303 -72 166 -61 244 -71 314 -40 91 40 207 177 207 244 0
24 -4 27 -52 35 l-53 9 75 8 c261 26 609 110 853 207 202 81 316 146 447 258
124 106 212 147 817 375 l243 92 30 47 c36 57 36 60 9 104 -21 34 -25 35 -75
16 -11 -4 -34 80 -34 126 0 40 30 64 64 52 17 -7 26 -7 26 0 0 18 -32 73 -58
102 -32 33 -79 35 -137 5z m-320 -189 c41 -29 76 -84 82 -131 5 -33 3 -38 -15
-38 -11 0 -33 5 -48 10 -36 14 -63 -4 -113 -79 -43 -62 -62 -76 -80 -58 -16
16 -13 63 9 146 44 158 91 200 165 150z m-2523 -26 c64 -28 103 -68 188 -186
88 -124 172 -167 325 -167 95 0 209 26 296 68 32 16 59 25 59 21 0 -4 -40 -44
-88 -90 -80 -77 -159 -130 -237 -159 -27 -10 -26 -7 20 40 l49 50 -49 -6 c-28
-3 -55 -7 -62 -9 -7 -2 -40 0 -75 6 -92 14 -192 66 -271 143 -121 115 -200
124 -390 41 -60 -26 -111 -44 -115 -41 -3 4 9 21 26 39 18 18 32 39 32 45 0
22 -32 63 -62 78 -26 13 -32 13 -71 -4 -23 -11 -58 -36 -77 -55 -45 -47 -55
-46 -31 2 30 57 69 100 126 136 135 86 282 103 407 48z m18 -319 l80 -46 0
-93 0 -94 -77 -47 -78 -47 -82 44 -83 44 0 96 0 97 78 46 c42 25 78 46 80 46
2 0 39 -21 82 -46z m-999 -743 c24 -25 29 -37 29 -80 0 -44 -5 -56 -33 -87
-26 -29 -42 -37 -80 -41 -26 -3 -47 -3 -47 0 0 3 14 19 31 37 27 27 30 35 24
68 -3 20 -20 51 -36 67 -27 29 -28 32 -12 48 29 28 89 22 124 -12z m-584 -433
c45 -42 13 -128 -48 -128 l-29 0 21 21 c23 23 20 60 -7 90 -11 12 -11 18 -2
27 18 18 39 15 65 -10z m1385 -305 c160 -189 369 -353 597 -470 61 -32 63 -34
27 -28 -65 11 -208 54 -262 80 -122 59 -392 371 -517 596 -54 97 -45 95 24 -6
33 -49 92 -127 131 -172z m-824 25 c46 -44 47 -125 1 -174 -28 -30 -73 -48
-103 -40 l-24 6 29 29 c16 16 29 39 29 51 0 34 -27 88 -50 100 -18 10 -19 14
-8 27 31 37 86 38 126 1z m4013 -226 c-36 -67 -101 -102 -191 -102 -45 0 -138
-12 -195 -25 -29 -6 -28 -5 10 19 54 35 128 62 260 97 132 34 128 33 116 11z
m-4461 -130 c46 -58 2 -152 -71 -152 l-32 0 21 23 c29 31 28 69 -3 105 -19 23
-22 32 -12 40 33 26 69 21 97 -16z"/>
<path d="M4098 6948 c-21 -6 -38 -14 -38 -19 0 -15 74 -59 98 -59 13 0 49 7
79 16 30 9 75 19 99 22 50 8 58 21 23 39 -29 15 -206 16 -261 1z"/>
<path d="M4223 6709 l-73 -41 0 -83 0 -83 71 -41 c39 -23 74 -41 79 -41 4 0
39 19 79 41 l71 42 0 77 c0 61 -4 80 -17 92 -18 15 -127 78 -134 78 -2 0 -37
-19 -76 -41z m137 -55 c6 -14 10 -27 10 -30 0 -2 -31 -4 -70 -4 -38 0 -70 3
-70 8 0 4 3 17 6 30 6 19 13 22 60 22 49 0 55 -2 64 -26z m-34 -76 c-3 -27 -8
-33 -27 -33 -20 0 -25 6 -27 33 -3 30 -1 32 27 32 29 0 31 -2 27 -32z m-78 10
c7 -7 12 -19 12 -27 0 -8 7 -23 16 -33 14 -14 14 -20 4 -33 -20 -24 -33 -18
-62 27 -25 39 -26 44 -11 60 19 21 25 22 41 6z m142 -4 c11 -13 10 -23 -8 -60
-23 -46 -41 -54 -62 -29 -10 13 -10 19 4 33 9 10 16 25 16 33 0 15 19 39 31
39 4 0 12 -7 19 -16z"/>
<path d="M2784 6805 c-97 -149 -181 -362 -223 -570 -11 -54 -22 -99 -25 -102
-13 -13 -94 158 -116 246 -6 24 -15 40 -20 35 -23 -25 -75 -309 -88 -487 -13
-167 9 -129 60 103 l23 105 7 -86 c13 -150 9 -150 133 3 98 121 112 144 142
229 19 52 71 188 116 303 l82 209 2 -104 c4 -129 7 -145 38 -165 23 -15 31
-13 235 82 115 54 210 102 210 105 0 4 -21 10 -47 14 -70 10 -269 78 -369 124
-48 23 -91 41 -96 41 -4 0 -33 -38 -64 -85z"/>
<path d="M7367 6698 c-61 -23 -78 -34 -74 -47 3 -9 22 -61 42 -116 19 -55 38
-107 41 -115 5 -13 6 -13 13 0 10 18 71 272 71 295 0 19 -1 19 -93 -17z"/>
<path d="M6880 6516 c-47 -20 -74 -37 -73 -47 1 -8 28 -74 60 -148 l58 -133
13 32 c7 18 17 55 22 82 12 60 13 248 3 247 -5 0 -42 -15 -83 -33z"/>
<path d="M6322 6235 c-34 -26 -62 -50 -62 -53 0 -9 159 -186 171 -190 27 -10
-1 201 -35 266 l-12 23 -62 -46z"/>
<path d="M6090 6097 c-41 -17 -77 -32 -79 -33 -2 -2 14 -18 35 -36 20 -18 59
-59 86 -91 26 -32 48 -54 49 -50 3 47 -4 229 -9 234 -4 4 -41 -7 -82 -24z"/>
<path d="M5824 5962 c-28 -9 -61 -24 -74 -32 -22 -15 -22 -15 22 -47 23 -17
62 -50 85 -73 22 -23 44 -37 47 -31 7 10 25 140 26 179 0 27 -31 29 -106 4z"/>
<path d="M5725 5307 c-14 -24 -25 -49 -25 -55 0 -6 19 -16 43 -22 23 -6 64
-18 91 -26 60 -17 56 -17 56 1 0 47 -79 145 -117 145 -16 0 -29 -12 -48 -43z"/>
<path d="M6056 5241 c-20 -38 -32 -72 -27 -75 9 -6 145 -36 163 -36 5 0 7 8 4
18 -13 32 -90 162 -97 162 -3 0 -23 -31 -43 -69z"/>
<path d="M6380 5273 c0 -10 -9 -47 -20 -81 -11 -35 -20 -70 -20 -77 0 -8 27
-17 77 -24 42 -6 78 -10 80 -8 6 7 -98 207 -108 207 -5 0 -9 -8 -9 -17z"/>
<path d="M5520 5053 c-24 -52 -90 -204 -90 -209 0 -6 114 -5 191 2 l67 7 -53
81 c-28 44 -60 96 -71 114 -22 39 -27 40 -44 5z"/>
<path d="M5851 5028 c-5 -13 -20 -52 -35 -87 -14 -36 -26 -69 -26 -73 0 -9
176 -1 193 9 4 2 2 14 -4 26 -18 34 -103 146 -112 147 -4 0 -11 -10 -16 -22z"/>
<path d="M6116 5000 c-17 -44 -36 -103 -36 -110 0 -6 111 -1 118 5 6 5 -25 58
-52 90 -19 23 -26 27 -30 15z"/>
<path d="M3920 2391 c0 -5 7 -14 15 -21 12 -10 15 -36 15 -116 l0 -104 53 0
c29 0 58 5 65 12 8 8 12 46 12 103 0 83 -2 94 -23 113 -18 17 -36 22 -80 22
-31 0 -57 -4 -57 -9z"/>
<path d="M4730 2394 c0 -3 7 -12 15 -20 12 -13 15 -51 15 -219 0 -152 3 -206
12 -212 16 -9 148 -11 148 -2 0 4 -7 12 -15 19 -12 10 -15 47 -15 214 0 144
-3 205 -12 214 -12 12 -148 18 -148 6z"/>
</g>
</svg>
