<svg xmlns="http://www.w3.org/2000/svg" width="375" viewBox="0 0 375 375" height="375" version="1.0"><defs><clipPath id="a"><path d="M 4.5 4.5 L 370.5 4.5 L 370.5 370.5 L 4.5 370.5 Z M 4.5 4.5"/></clipPath><clipPath id="b"><path d="M 43 65 L 333 65 L 333 311.355469 L 43 311.355469 Z M 43 65"/></clipPath></defs><g clip-path="url(#a)"><path fill="#5B0B0B" d="M 370.5 187.5 C 370.5 190.492188 370.425781 193.484375 370.277344 196.476562 C 370.128906 199.46875 369.910156 202.453125 369.617188 205.433594 C 369.324219 208.414062 368.957031 211.386719 368.515625 214.351562 C 368.078125 217.3125 367.566406 220.261719 366.980469 223.199219 C 366.398438 226.136719 365.742188 229.058594 365.015625 231.964844 C 364.285156 234.867188 363.488281 237.753906 362.617188 240.621094 C 361.75 243.484375 360.808594 246.328125 359.800781 249.148438 C 358.792969 251.96875 357.714844 254.761719 356.566406 257.527344 C 355.421875 260.296875 354.207031 263.035156 352.929688 265.742188 C 351.648438 268.449219 350.300781 271.121094 348.890625 273.765625 C 347.476562 276.40625 346.003906 279.011719 344.460938 281.578125 C 342.921875 284.148438 341.320312 286.675781 339.65625 289.167969 C 337.992188 291.65625 336.269531 294.105469 334.484375 296.511719 C 332.699219 298.917969 330.859375 301.277344 328.960938 303.59375 C 327.058594 305.90625 325.101562 308.175781 323.09375 310.394531 C 321.082031 312.613281 319.015625 314.78125 316.898438 316.898438 C 314.78125 319.015625 312.613281 321.082031 310.394531 323.09375 C 308.175781 325.101562 305.90625 327.058594 303.59375 328.960938 C 301.277344 330.859375 298.917969 332.699219 296.511719 334.484375 C 294.105469 336.269531 291.65625 337.992188 289.167969 339.65625 C 286.675781 341.320312 284.148438 342.921875 281.578125 344.460938 C 279.011719 346.003906 276.40625 347.476562 273.765625 348.890625 C 271.121094 350.300781 268.449219 351.648438 265.742188 352.929688 C 263.035156 354.207031 260.296875 355.421875 257.527344 356.566406 C 254.761719 357.714844 251.96875 358.792969 249.148438 359.800781 C 246.328125 360.808594 243.484375 361.75 240.621094 362.617188 C 237.753906 363.488281 234.867188 364.285156 231.964844 365.015625 C 229.058594 365.742188 226.136719 366.398438 223.199219 366.980469 C 220.261719 367.566406 217.3125 368.078125 214.351562 368.515625 C 211.386719 368.957031 208.414062 369.324219 205.433594 369.617188 C 202.453125 369.910156 199.46875 370.128906 196.476562 370.277344 C 193.484375 370.425781 190.492188 370.5 187.5 370.5 C 184.503906 370.5 181.511719 370.425781 178.519531 370.277344 C 175.527344 370.128906 172.542969 369.910156 169.5625 369.617188 C 166.582031 369.324219 163.609375 368.957031 160.644531 368.515625 C 157.683594 368.078125 154.734375 367.566406 151.796875 366.980469 C 148.859375 366.398438 145.9375 365.742188 143.03125 365.015625 C 140.128906 364.285156 137.242188 363.488281 134.375 362.617188 C 131.511719 361.75 128.667969 360.808594 125.847656 359.800781 C 123.027344 358.792969 120.234375 357.714844 117.46875 356.566406 C 114.699219 355.421875 111.960938 354.207031 109.253906 352.929688 C 106.546875 351.648438 103.875 350.300781 101.234375 348.890625 C 98.589844 347.476562 95.984375 346.003906 93.417969 344.460938 C 90.847656 342.921875 88.320312 341.320312 85.828125 339.65625 C 83.339844 337.992188 80.890625 336.269531 78.484375 334.484375 C 76.078125 332.699219 73.71875 330.859375 71.402344 328.960938 C 69.089844 327.058594 66.820312 325.101562 64.601562 323.09375 C 62.382812 321.082031 60.214844 319.015625 58.097656 316.898438 C 55.980469 314.78125 53.914062 312.613281 51.902344 310.394531 C 49.894531 308.175781 47.9375 305.90625 46.039062 303.59375 C 44.136719 301.277344 42.296875 298.917969 40.511719 296.511719 C 38.726562 294.105469 37.003906 291.65625 35.339844 289.167969 C 33.675781 286.675781 32.074219 284.148438 30.535156 281.578125 C 28.992188 279.011719 27.519531 276.40625 26.105469 273.761719 C 24.695312 271.121094 23.347656 268.449219 22.066406 265.742188 C 20.789062 263.035156 19.574219 260.296875 18.429688 257.527344 C 17.28125 254.761719 16.203125 251.96875 15.195312 249.148438 C 14.1875 246.328125 13.246094 243.484375 12.378906 240.621094 C 11.507812 237.753906 10.710938 234.867188 9.980469 231.964844 C 9.253906 229.058594 8.597656 226.136719 8.015625 223.199219 C 7.429688 220.261719 6.917969 217.3125 6.480469 214.351562 C 6.039062 211.386719 5.671875 208.414062 5.378906 205.433594 C 5.085938 202.453125 4.867188 199.46875 4.71875 196.476562 C 4.570312 193.484375 4.5 190.492188 4.5 187.5 C 4.5 184.503906 4.570312 181.511719 4.71875 178.519531 C 4.867188 175.527344 5.085938 172.542969 5.378906 169.5625 C 5.671875 166.582031 6.039062 163.609375 6.480469 160.644531 C 6.917969 157.683594 7.429688 154.734375 8.015625 151.796875 C 8.597656 148.859375 9.253906 145.9375 9.980469 143.03125 C 10.710938 140.128906 11.507812 137.242188 12.378906 134.375 C 13.246094 131.511719 14.1875 128.667969 15.195312 125.847656 C 16.203125 123.027344 17.28125 120.234375 18.429688 117.46875 C 19.574219 114.699219 20.789062 111.964844 22.066406 109.253906 C 23.347656 106.546875 24.695312 103.875 26.105469 101.234375 C 27.519531 98.589844 28.992188 95.984375 30.535156 93.417969 C 32.074219 90.847656 33.675781 88.320312 35.339844 85.828125 C 37.003906 83.339844 38.726562 80.890625 40.511719 78.484375 C 42.296875 76.078125 44.136719 73.71875 46.039062 71.402344 C 47.9375 69.089844 49.894531 66.820312 51.902344 64.601562 C 53.914062 62.382812 55.980469 60.214844 58.097656 58.097656 C 60.214844 55.980469 62.382812 53.914062 64.601562 51.902344 C 66.820312 49.894531 69.089844 47.9375 71.402344 46.039062 C 73.71875 44.136719 76.078125 42.296875 78.484375 40.511719 C 80.890625 38.726562 83.339844 37.003906 85.828125 35.339844 C 88.320312 33.675781 90.847656 32.074219 93.417969 30.535156 C 95.984375 28.992188 98.589844 27.519531 101.234375 26.105469 C 103.875 24.695312 106.546875 23.347656 109.253906 22.066406 C 111.960938 20.789062 114.699219 19.574219 117.46875 18.429688 C 120.234375 17.28125 123.027344 16.203125 125.847656 15.195312 C 128.667969 14.1875 131.511719 13.246094 134.375 12.378906 C 137.242188 11.507812 140.128906 10.710938 143.03125 9.980469 C 145.9375 9.253906 148.859375 8.597656 151.796875 8.015625 C 154.734375 7.429688 157.683594 6.917969 160.644531 6.480469 C 163.609375 6.039062 166.582031 5.671875 169.5625 5.378906 C 172.542969 5.085938 175.527344 4.867188 178.519531 4.71875 C 181.511719 4.570312 184.503906 4.5 187.5 4.5 C 190.492188 4.5 193.484375 4.570312 196.476562 4.71875 C 199.46875 4.867188 202.453125 5.085938 205.433594 5.378906 C 208.414062 5.671875 211.386719 6.039062 214.351562 6.480469 C 217.3125 6.917969 220.261719 7.429688 223.199219 8.015625 C 226.136719 8.597656 229.058594 9.253906 231.964844 9.980469 C 234.867188 10.710938 237.753906 11.507812 240.621094 12.378906 C 243.484375 13.246094 246.328125 14.1875 249.148438 15.195312 C 251.96875 16.203125 254.761719 17.28125 257.527344 18.429688 C 260.296875 19.574219 263.035156 20.789062 265.742188 22.066406 C 268.449219 23.347656 271.121094 24.695312 273.765625 26.105469 C 276.40625 27.519531 279.011719 28.992188 281.578125 30.535156 C 284.148438 32.074219 286.675781 33.675781 289.167969 35.339844 C 291.65625 37.003906 294.105469 38.726562 296.511719 40.511719 C 298.917969 42.296875 301.277344 44.136719 303.59375 46.039062 C 305.90625 47.9375 308.175781 49.894531 310.394531 51.902344 C 312.613281 53.914062 314.78125 55.980469 316.898438 58.097656 C 319.015625 60.214844 321.082031 62.382812 323.09375 64.601562 C 325.101562 66.820312 327.058594 69.089844 328.960938 71.402344 C 330.859375 73.71875 332.699219 76.078125 334.484375 78.484375 C 336.269531 80.890625 337.992188 83.339844 339.65625 85.828125 C 341.320312 88.320312 342.921875 90.847656 344.460938 93.417969 C 346.003906 95.984375 347.476562 98.589844 348.890625 101.234375 C 350.300781 103.875 351.648438 106.546875 352.929688 109.253906 C 354.207031 111.964844 355.421875 114.699219 356.566406 117.46875 C 357.714844 120.234375 358.792969 123.027344 359.800781 125.847656 C 360.808594 128.667969 361.75 131.511719 362.617188 134.375 C 363.488281 137.242188 364.285156 140.128906 365.015625 143.03125 C 365.742188 145.9375 366.398438 148.859375 366.980469 151.796875 C 367.566406 154.734375 368.078125 157.683594 368.515625 160.644531 C 368.957031 163.609375 369.324219 166.582031 369.617188 169.5625 C 369.910156 172.542969 370.128906 175.527344 370.277344 178.519531 C 370.425781 181.511719 370.5 184.503906 370.5 187.5 Z M 370.5 187.5"/></g><path fill="#FFF" d="M 128.902344 176.976562 C 126.132812 176.359375 123.054688 176.667969 120.59375 178.179688 C 118.132812 179.71875 116.285156 182.179688 115.671875 184.949219 C 114.132812 190.796875 117.824219 196.644531 123.671875 198.183594 C 124.59375 198.488281 125.519531 198.488281 126.441406 198.488281 C 131.363281 198.488281 135.671875 195.105469 136.902344 190.183594 C 137.519531 187.414062 137.210938 184.335938 135.671875 181.875 C 134.132812 179.410156 131.671875 177.566406 128.902344 176.976562"/><path fill="#FFF" d="M 255.015625 177.875 C 252.550781 176.359375 249.476562 176.050781 246.707031 176.667969 C 243.960938 177.285156 241.5 179.105469 239.9375 181.566406 C 238.398438 184.027344 238.117188 187.105469 238.707031 189.875 C 239.9375 194.796875 244.550781 198.183594 249.167969 198.183594 C 250.089844 198.183594 251.015625 198.183594 251.9375 197.875 C 257.785156 196.335938 261.476562 190.488281 259.9375 184.644531 C 259.320312 181.875 257.476562 179.410156 255.015625 177.875"/><g clip-path="url(#b)"><path fill="#FFF" d="M 141.800781 191.105469 C 139.671875 199.722656 130.75 204.644531 122.132812 202.492188 C 113.515625 200.335938 107.976562 191.414062 110.132812 183.105469 C 111.980469 176.050781 118.441406 171.128906 125.824219 171.128906 C 127.054688 171.128906 128.59375 171.4375 129.824219 171.746094 C 138.75 173.898438 143.957031 182.488281 141.800781 191.105469 Z M 235.652344 178.796875 C 237.808594 175.128906 241.5 172.359375 245.78125 171.4375 C 254.398438 169.28125 263.324219 174.207031 265.476562 182.796875 C 267.628906 191.414062 262.398438 200.027344 253.476562 202.183594 C 249.167969 203.105469 244.859375 202.796875 241.167969 200.335938 C 237.472656 198.183594 234.703125 194.796875 233.78125 190.488281 C 232.882812 186.796875 233.472656 182.488281 235.652344 178.796875 Z M 300.863281 251.109375 C 286.402344 270.46875 263.015625 281.855469 231.960938 284.625 C 230.089844 284.933594 228.550781 283.085938 228.859375 281.238281 C 229.191406 280.316406 229.5 279.699219 230.421875 279.085938 C 239.9375 275.085938 247.011719 267.085938 249.476562 257.546875 C 250.398438 253.546875 247.628906 249.878906 243.628906 249.878906 L 243.320312 249.878906 C 240.578125 249.878906 238.117188 251.722656 237.472656 254.46875 C 235.347656 263.085938 226.398438 269.855469 215.960938 269.855469 C 206.730469 269.855469 198.421875 264.621094 195.34375 257.238281 C 194.726562 255.699219 195.652344 254.160156 196.882812 253.546875 C 207.960938 250.1875 226.089844 240.03125 226.089844 229.570312 C 226.089844 224.339844 223.039062 220.644531 218.703125 218.183594 C 217.78125 217.566406 217.191406 216.644531 217.472656 215.414062 C 217.78125 212.953125 218.421875 210.183594 219.011719 207.105469 C 219.933594 203.105469 224.859375 201.875 227.320312 204.953125 C 229.5 207.414062 231.652344 209.261719 234.421875 210.796875 C 238.707031 213.261719 243.628906 214.800781 248.859375 214.800781 C 251.320312 214.800781 253.78125 214.492188 255.9375 213.875 C 271.324219 209.875 280.554688 194.488281 276.554688 179.410156 C 275.9375 176.949219 275.015625 174.820312 273.785156 172.667969 C 272.554688 170.515625 274.707031 168.050781 277.167969 168.667969 C 281.476562 169.898438 285.476562 172.050781 289.171875 174.515625 C 291.632812 176.335938 295.015625 176.050781 297.171875 173.589844 C 299.632812 170.820312 299.015625 166.511719 295.941406 164.359375 C 273.167969 148.359375 240.269531 150.820312 222.113281 170.820312 C 214.421875 179.410156 206.730469 198.796875 204.574219 211.105469 C 204.265625 212.644531 203.035156 213.566406 201.496094 213.261719 C 195.652344 212.644531 190.113281 212.644531 186.726562 212.644531 C 183.34375 212.644531 177.496094 212.644531 171.339844 213.261719 C 169.804688 213.566406 168.570312 212.335938 168.265625 211.105469 C 166.417969 198.796875 158.417969 179.410156 150.75 170.820312 C 132.902344 150.820312 99.976562 148.667969 76.898438 164.359375 C 73.820312 166.511719 73.207031 170.820312 75.667969 173.589844 C 77.824219 176.050781 81.207031 176.335938 83.976562 174.515625 C 87.667969 172.050781 91.667969 169.898438 95.976562 168.667969 C 98.4375 168.050781 100.285156 170.515625 99.363281 172.667969 C 98.132812 174.820312 97.207031 176.949219 96.59375 179.410156 C 92.902344 194.488281 102.132812 209.875 117.210938 213.875 C 119.671875 214.492188 122.132812 214.800781 124.289062 214.800781 C 133.210938 214.800781 141.492188 210.796875 146.722656 203.722656 C 148.878906 200.953125 153.1875 202.183594 154.109375 205.566406 C 155.03125 209.261719 155.648438 213.261719 155.957031 215.722656 C 155.957031 216.644531 155.648438 217.875 154.726562 218.183594 C 150.75 220.644531 147.957031 224.03125 147.957031 228.953125 C 147.957031 239.414062 166.417969 249.570312 177.804688 252.929688 C 179.34375 253.546875 180.265625 255.082031 179.648438 256.621094 C 176.574219 264.007812 168.570312 269.238281 159.339844 269.238281 C 148.878906 269.238281 140.289062 262.777344 137.828125 253.851562 C 137.210938 251.109375 134.75 249.261719 131.980469 249.261719 L 131.671875 249.261719 C 127.671875 249.261719 124.59375 252.929688 125.824219 256.929688 C 128.59375 267.390625 136.902344 276.007812 147.957031 279.394531 C 148.289062 280.929688 148.597656 282.46875 149.1875 284.007812 C 114.441406 282.164062 89.207031 270.777344 73.515625 249.878906 C 53.847656 223.722656 55.386719 189.257812 58.15625 180.027344 C 58.4375 178.796875 59.050781 177.257812 59.386719 176.335938 C 61.847656 169.898438 70.128906 160.050781 77.824219 151.128906 C 85.824219 141.894531 92.59375 133.894531 94.746094 127.433594 C 100.59375 110.507812 96.59375 94.816406 83.976562 84.378906 C 81.207031 81.917969 76.898438 82.839844 75.054688 85.917969 L 74.746094 86.535156 C 73.515625 88.6875 73.820312 91.429688 75.359375 93.277344 C 80.59375 100.355469 51.078125 101.585938 56.589844 87.457031 C 57.820312 84.6875 61.230469 75.761719 79.054688 76.996094 C 89.207031 77.609375 103.054688 87.457031 106.746094 100.96875 C 107.976562 104.972656 112.59375 106.816406 116.285156 104.355469 C 126.75 96.96875 162.726562 92.96875 185.1875 92.96875 C 185.804688 92.96875 186.417969 92.96875 187.035156 92.96875 C 187.652344 92.96875 188.265625 92.96875 188.882812 92.96875 C 211.652344 92.96875 247.320312 96.96875 257.785156 104.355469 C 261.167969 106.816406 266.089844 104.972656 267.324219 100.96875 C 271.015625 87.765625 284.863281 77.609375 295.015625 76.996094 C 312.863281 75.761719 316.222656 84.6875 317.453125 87.457031 C 323.019531 101.585938 293.476562 100.355469 298.710938 93.277344 C 300.222656 91.125 300.554688 88.6875 299.324219 86.535156 L 299.015625 85.917969 C 297.171875 82.535156 292.863281 81.917969 289.785156 84.378906 C 277.167969 94.816406 273.167969 110.507812 279.015625 127.433594 C 281.167969 133.589844 287.9375 141.589844 295.941406 151.128906 C 303.324219 159.742188 311.632812 169.898438 314.402344 176.335938 C 314.683594 177.257812 315.324219 178.796875 315.632812 180.027344 C 319.019531 190.796875 320.558594 224.953125 300.863281 251.082031 Z M 328.53125 178.796875 L 328.222656 177.875 C 327.632812 176.359375 326.992188 174.207031 326.710938 172.976562 C 324.53125 167.128906 319.324219 160.050781 313.761719 153.28125 C 312.863281 152.359375 312.863281 150.820312 313.761719 149.589844 C 324.839844 137.28125 338.070312 105.277344 329.761719 84.070312 C 326.070312 74.839844 317.148438 64.378906 295.015625 65.609375 C 281.476562 66.53125 267.324219 76.378906 260.246094 89.304688 C 259.628906 90.535156 258.089844 91.148438 256.859375 90.535156 C 237.808594 83.457031 204.574219 81.300781 187.957031 81.609375 C 172.265625 81.300781 141.210938 83.148438 121.519531 89.609375 C 118.75 90.535156 115.980469 89.609375 114.441406 87.148438 C 106.746094 75.148438 93.515625 66.222656 80.898438 65.609375 C 58.769531 64.378906 49.847656 74.839844 46.152344 84.070312 C 37.84375 104.972656 51.078125 137.28125 62.128906 149.589844 C 63.078125 150.511719 63.078125 152.050781 62.128906 153.28125 C 56.589844 160.359375 51.382812 167.128906 49.230469 172.976562 C 48.921875 174.207031 48 176.359375 47.691406 177.875 L 47.382812 178.796875 L 47.691406 178.796875 C 44 192.644531 43.691406 229.875 65.207031 258.46875 C 84.285156 284.007812 115.054688 296.933594 156.878906 297.855469 C 157.496094 297.855469 158.417969 298.164062 158.726562 298.777344 C 166.109375 306.472656 177.1875 311.085938 189.1875 311.085938 C 201.496094 311.085938 212.574219 306.164062 219.933594 298.472656 C 220.574219 297.855469 221.164062 297.546875 221.808594 297.546875 C 262.089844 296.316406 291.941406 283.085938 310.402344 258.46875 C 331.917969 229.875 331.609375 192.953125 328.53125 178.796875"/></g></svg>