
<svg xmlns="http://www.w3.org/2000/svg" xmlns:xlink="http://www.w3.org/1999/xlink" viewBox="0 0 400 400"><defs><style>.cls-1,.cls-13,.cls-4{fill:none;}.cls-2{fill:#112b49;}.cls-3{fill:#fff;}.cls-13,.cls-4{stroke:#000;}.cls-4{stroke-miterlimit:10;stroke-width:4.1px;}.cls-5{fill:#fcfffc;}.cls-6{clip-path:url(#clip-path);}.cls-7{fill:#00877d;}.cls-8{fill:#aec308;}.cls-9{fill:#05a53e;}.cls-10{fill:#fea229;}.cls-11{fill:#ed7a1b;}.cls-12{fill:#78ccd0;}.cls-13{stroke-linecap:round;stroke-linejoin:round;stroke-width:4.61px;}</style><clipPath id="clip-path"><path class="cls-1" d="M42.16,350.2,380.83,245.44,372.5,30.69,115.64,2.35S-34.3,122-32.68,126.94,42.16,350.2,42.16,350.2Z"/></clipPath></defs><g id="Layer_6" data-name="Layer 6"><path class="cls-2" d="M180.46,397.65l-127.29-117L90.88,111.86l165-51.72,127.29,117L345.47,345.93ZM90.3,269,189,359.67l127.87-40.08,29.23-130.78L247.4,98.11,119.53,138.19Z"/><path class="cls-2" d="M42.16,216.11,152.93,318l143.59-45L329.34,126.1,218.57,24.25,75,69.26Z"/><path class="cls-3" d="M148,339.86l-127.29-117L58.46,54.07l165-51.72,127.29,117L313,288.14ZM57.88,211.19l98.65,90.7L284.4,261.81,313.62,131,215,40.33,87.1,80.41Z"/><ellipse class="cls-3" cx="152.96" cy="94.45" rx="20.27" ry="14.23" transform="translate(27.43 223.13) rotate(-77.4)"/><ellipse class="cls-4" cx="152.96" cy="94.45" rx="20.27" ry="14.23" transform="translate(27.43 223.13) rotate(-77.4)"/><path d="M167.05,86.47c-1.48-3.35-4-5.77-7.12-6.48-6.55-1.46-13.55,4.92-15.64,14.26s1.54,18.09,8.09,19.55A7.65,7.65,0,0,0,154,114c5.79-1.75,11-8.08,12.88-16.43A26.84,26.84,0,0,0,167.05,86.47Z"/><ellipse class="cls-5" cx="153.46" cy="89.48" rx="5.08" ry="3.57" transform="translate(32.67 219.73) rotate(-77.4)"/><g class="cls-6"><path class="cls-7" d="M277.86,237.83c8.71-.1,17.63-1,24.23-7.84,7-7.24,5.43-19.15-.64-26.27-1-1.23-5.12-6.17-7-5.18,5.39-2.8,10.81-5.62,15.62-9.4,5.77-4.55,11.77-11.36,11.86-19.26.12-9.36-7.66-15-15.79-16.59-1.49-.29-6.46-1.62-7.65-.25,7.21-8.28,17.28-21.24,12.37-32.54-5.42-12.46-20.78-16.71-33.49-13.74L240.1,164.9Z"/><path class="cls-8" d="M310.06,304.58A142.94,142.94,0,0,0,300.87,279a174.14,174.14,0,0,0-11.21-20.25c-3-4.58-6.1-9-9.47-13.28-.25-.32-4.09-4.51-4-4.75C286.07,222,294.14,200,296.07,172.3,300.26,112,258,90.9,258,90.9c-24.71-63.09-65.88-10-65.88-10-18.56-44.31-38.78,12.41-38.78,12.41-26.8,9.39-56.87,8.74-66.38,8.24-.79-.07-1.56-.12-2.34-.14l-.72-.06,0,0c-9.52-.16-18.3,3-25.24,12.81-7.7,10.87-13.74,29-6.87,41.53,2.8,5.11,7.67,7.65,12.69,9.91,1.52.69,3.06,1.34,4.6,2h0s6.48,16.6,35,22.39c.68.14,1.39.31,2.12.5l-.68,2.4s3.82,22.12,27.22,36.36h0s-12.3,35.6-13.38,64.9c0,0,85.32,67.73,193.84,29.53C319.31,321.59,311.62,310.85,310.06,304.58Z"/><path class="cls-9" d="M310.06,304.58A142.94,142.94,0,0,0,300.87,279a174.14,174.14,0,0,0-11.21-20.25c-3-4.58-6.1-9-9.47-13.28-.25-.32-4.09-4.51-4-4.75C286.07,222,294.14,200,296.07,172.3c.15-2.12.23-4.19.27-6.22l-2.66-1.84c4.63-50.32-31.59-69.3-31.59-69.3-.27-.71-.54-1.4-.82-2.08a35.26,35.26,0,0,0-3.29-2,80.94,80.94,0,0,0-8.62-16.75,25.06,25.06,0,0,0-5-3.55c6.87,14.44,9.33,33.7-10.47,51.12,0,0,43.64,16.21,8.67,70.88,0,0-26.83,17.05-54.37,20.3,0,0,36.26-3.85,24.1,27.8,0,0,42.6,28.92,35.71,93.43a181.07,181.07,0,0,0,65.14-10.38C319.31,321.59,311.62,310.85,310.06,304.58Z"/><path class="cls-10" d="M105.19,190.3l1,.24Z"/><path class="cls-10" d="M281.39,331.88l.13-1.42c4.83-77.31-36.35-98-36.35-98L267.58,171l-3.2,3c-73.28,71.78-130,24.11-158.19,16.52l-.68,2.4s3.82,22.12,27.22,36.36h0s-12.3,35.6-13.38,64.9C119.35,294.22,188.22,347,281.39,331.88Z"/><path class="cls-10" d="M105,190.26l-1-.21Z"/><path class="cls-10" d="M92.26,186.65c1.37.53,2.82,1,4.36,1.51C95.08,187.68,93.63,187.18,92.26,186.65Z"/><path class="cls-11" d="M281.52,330.46c4.83-77.31-36.35-98-36.35-98L267.58,171l-3.2,3a176.16,176.16,0,0,1-21.49,18.11c-.09.16-.18.31-.28.46,0,0-1,.66-2.9,1.73-18,12-34.79,17.27-50.17,18.47,6.37-.32,33.57-.12,22.8,27.9,0,0,42.6,28.92,35.71,93.42q5.88.15,11.92-.08h.22c1.28-.06,2.57-.12,3.86-.2l.83-.06,3.29-.25,1.12-.11c1-.09,2-.19,3-.3l1.28-.15,2.92-.37,1.39-.19c.94-.13,1.89-.27,2.84-.43l.63-.1Z"/><polygon class="cls-11" points="188.24 212.9 188.24 212.9 188.24 212.9 188.24 212.9"/><ellipse class="cls-9" cx="97.79" cy="140.1" rx="11.67" ry="5.85" transform="translate(-65.34 190.91) rotate(-72.39)"/><ellipse class="cls-9" cx="71.81" cy="132.3" rx="11.63" ry="5.22" transform="matrix(0.28, -0.96, 0.96, 0.28, -75.46, 163.49)"/><path class="cls-12" d="M219.94,158.39c-2.67-10.25-7.6-14.54-11.46-16.33a5.41,5.41,0,0,0-7.23,2.89l-7.53,18.22,26-3.68"/><path class="cls-12" d="M164,170.43s.06,9,8.86,16.92a5.11,5.11,0,0,0,8-1.53,51.05,51.05,0,0,0,5.44-18l.08-2.92Z"/><path class="cls-7" d="M303.7,285.7l1.56-.39c5.05-9.33,11.27-23.56,2.8-32.57-6.32-6.72-17.47-7.56-26.07-7.25l-.13,1.85C285.78,252,295.79,265.17,303.7,285.7Z"/><path class="cls-13" d="M277.36,106.76c12.71-3,28.07,1.28,33.49,13.74,4.91,11.3-5.16,24.26-12.37,32.54,1.19-1.37,6.16,0,7.65.25,8.13,1.57,15.91,7.23,15.79,16.59-.09,7.9-6.09,14.71-11.86,19.26-4.81,3.78-10.23,6.6-15.62,9.4,1.89-1,6,4,7,5.18,6.07,7.12,7.63,19,.64,26.27-6.6,6.84-15.52,7.74-24.23,7.84"/><path class="cls-13" d="M282,245.49c8.6-.31,19.75.53,26.07,7.25,8.47,9,2.25,23.24-2.8,32.57"/><path class="cls-13" d="M238.59,146c-4.82,11.74-18.3,12.94-18.3,12.94-21.13,3.7-42.45,7.09-63.33,12.23-14.23,3.5-28.53,8.44-43.23,8.74-9.17.19-16.82-2.47-25.34-5.3a247.44,247.44,0,0,1-23.91-8.92c-5-2.26-9.89-4.8-12.69-9.91-6.87-12.55-.83-30.66,6.87-41.53,12.06-17,29.7-14.09,47.1-8.29,14.95,5,28.41,15.84,26,33.72-.21,1.58-1.27,4.67-1.85,7.66"/><path class="cls-13" d="M249.57,122.53s11.35,3.58,9.5,22.2"/><ellipse class="cls-13" cx="97.79" cy="140.1" rx="11.67" ry="5.85" transform="translate(-65.34 190.91) rotate(-72.39)"/><ellipse class="cls-13" cx="71.81" cy="132.3" rx="11.63" ry="5.22" transform="matrix(0.28, -0.96, 0.96, 0.28, -75.46, 163.49)"/><path class="cls-13" d="M69.07,167.66s6.48,16.6,35,22.39,90.14,62.16,170.06-26.18"/><path class="cls-13" d="M193.72,163.17,201.25,145a5.41,5.41,0,0,1,7.23-2.89c3.86,1.79,8.79,6.08,11.46,16.33"/><path class="cls-13" d="M164,170.43s.06,9,8.86,16.92a5.11,5.11,0,0,0,8-1.53,51.05,51.05,0,0,0,5.44-18"/><path class="cls-13" d="M105.51,193s8.94,51.87,83.43,47.9"/><path class="cls-13" d="M132.73,229.32s-12.3,35.6-13.38,64.9c-.06,1.6,9.24,6.67,10.38,7.41A202.37,202.37,0,0,0,160,317.7a218.23,218.23,0,0,0,109.63,16.67c15-1.65,29.76-4.3,43.57-10.62a125,125,0,0,0-3.13-19.17A142.94,142.94,0,0,0,300.87,279a174.14,174.14,0,0,0-11.21-20.25c-3-4.58-6.1-9-9.47-13.28-.25-.32-4.09-4.51-4-4.75C286.07,222,294.14,200,296.07,172.3,300.26,112,258,90.9,258,90.9c-24.71-63.09-65.88-10-65.88-10-18.56-44.31-38.78,12.41-38.78,12.41-32.34,11.33-69.44,8-69.44,8"/><line class="cls-13" x1="231.72" y1="238.6" x2="260.35" y2="226.18"/><path class="cls-13" d="M267.58,171l-22.41,61.41s41.18,20.7,36.35,98"/><line class="cls-13" x1="232.74" y1="216.7" x2="222.72" y2="223.82"/></g><path class="cls-1" d="M232.09,28.46A141.14,141.14,0,0,0,122.28,49.12L11.6,24.39-20.07,166.12l80.86,18.07A141.52,141.52,0,1,0,232.09,28.46Z"/><circle class="cls-3" cx="210.25" cy="106.67" r="20.27"/><circle class="cls-4" cx="210.25" cy="106.67" r="20.27"/><path d="M229.33,99.8a17.32,17.32,0,1,0-18.14,26.56,19.21,19.21,0,0,0,2.24.33,20.27,20.27,0,0,0,15.9-26.89Z"/><circle class="cls-5" cx="210.51" cy="101.64" r="5.08"/><polygon class="cls-3" points="288.75 242.35 284.4 261.81 156.53 301.89 57.88 211.19 62.23 191.73 29.34 184.38 20.75 222.82 148.04 339.86 313.04 288.14 321.63 249.7 288.75 242.35"/></g></svg>