<svg xmlns="http://www.w3.org/2000/svg" width="375" viewBox="0 0 375 375" height="375" version="1.0"><path fill="#00AB55" d="M 373.246094 188 C 373.246094 191.054688 373.167969 194.105469 373.019531 197.15625 C 372.871094 200.203125 372.644531 203.25 372.347656 206.289062 C 372.046875 209.328125 371.671875 212.355469 371.226562 215.378906 C 370.777344 218.398438 370.257812 221.40625 369.660156 224.398438 C 369.066406 227.394531 368.398438 230.375 367.65625 233.335938 C 366.914062 236.296875 366.101562 239.238281 365.214844 242.160156 C 364.328125 245.082031 363.371094 247.980469 362.34375 250.855469 C 361.3125 253.730469 360.214844 256.582031 359.046875 259.402344 C 357.878906 262.222656 356.644531 265.011719 355.339844 267.773438 C 354.035156 270.535156 352.660156 273.261719 351.222656 275.953125 C 349.785156 278.644531 348.28125 281.300781 346.710938 283.921875 C 345.140625 286.539062 343.511719 289.121094 341.816406 291.660156 C 340.117188 294.199219 338.363281 296.691406 336.542969 299.144531 C 334.726562 301.597656 332.847656 304.003906 330.914062 306.367188 C 328.976562 308.726562 326.984375 311.039062 324.933594 313.300781 C 322.882812 315.5625 320.78125 317.773438 318.621094 319.933594 C 316.464844 322.089844 314.253906 324.195312 311.992188 326.246094 C 309.730469 328.296875 307.421875 330.292969 305.0625 332.230469 C 302.703125 334.164062 300.296875 336.042969 297.84375 337.863281 C 295.394531 339.683594 292.898438 341.441406 290.363281 343.136719 C 287.824219 344.832031 285.246094 346.464844 282.628906 348.035156 C 280.011719 349.605469 277.355469 351.109375 274.664062 352.550781 C 271.972656 353.988281 269.246094 355.359375 266.488281 356.667969 C 263.730469 357.972656 260.9375 359.210938 258.121094 360.378906 C 255.300781 361.546875 252.453125 362.644531 249.578125 363.671875 C 246.707031 364.703125 243.808594 365.660156 240.886719 366.546875 C 237.96875 367.433594 235.027344 368.246094 232.066406 368.988281 C 229.105469 369.730469 226.128906 370.398438 223.136719 370.996094 C 220.140625 371.589844 217.136719 372.113281 214.117188 372.5625 C 211.097656 373.007812 208.070312 373.382812 205.03125 373.683594 C 201.996094 373.980469 198.953125 374.207031 195.902344 374.355469 C 192.855469 374.503906 189.804688 374.582031 186.753906 374.582031 C 183.699219 374.582031 180.648438 374.503906 177.601562 374.355469 C 174.554688 374.207031 171.511719 373.980469 168.472656 373.683594 C 165.433594 373.382812 162.40625 373.007812 159.386719 372.5625 C 156.367188 372.113281 153.363281 371.589844 150.371094 370.996094 C 147.375 370.398438 144.398438 369.730469 141.4375 368.988281 C 138.476562 368.246094 135.539062 367.433594 132.617188 366.546875 C 129.695312 365.660156 126.796875 364.703125 123.925781 363.671875 C 121.050781 362.644531 118.203125 361.546875 115.386719 360.378906 C 112.566406 359.210938 109.777344 357.972656 107.015625 356.667969 C 104.257812 355.359375 101.53125 353.988281 98.839844 352.550781 C 96.148438 351.109375 93.492188 349.605469 90.875 348.035156 C 88.257812 346.464844 85.679688 344.832031 83.144531 343.136719 C 80.605469 341.4375 78.109375 339.683594 75.660156 337.863281 C 73.207031 336.042969 70.800781 334.164062 68.441406 332.230469 C 66.082031 330.292969 63.773438 328.296875 61.511719 326.246094 C 59.25 324.195312 57.039062 322.089844 54.882812 319.933594 C 52.722656 317.773438 50.621094 315.5625 48.570312 313.300781 C 46.519531 311.039062 44.527344 308.726562 42.59375 306.367188 C 40.65625 304.003906 38.777344 301.597656 36.960938 299.144531 C 35.140625 296.691406 33.386719 294.199219 31.691406 291.660156 C 29.996094 289.121094 28.363281 286.539062 26.792969 283.921875 C 25.222656 281.300781 23.71875 278.644531 22.28125 275.953125 C 20.84375 273.261719 19.46875 270.535156 18.164062 267.773438 C 16.859375 265.011719 15.625 262.222656 14.457031 259.402344 C 13.289062 256.582031 12.191406 253.730469 11.160156 250.855469 C 10.132812 247.980469 9.175781 245.082031 8.289062 242.160156 C 7.40625 239.238281 6.589844 236.296875 5.847656 233.335938 C 5.109375 230.375 4.4375 227.394531 3.84375 224.398438 C 3.25 221.40625 2.726562 218.398438 2.277344 215.378906 C 1.832031 212.355469 1.457031 209.328125 1.160156 206.289062 C 0.859375 203.25 0.632812 200.203125 0.484375 197.15625 C 0.335938 194.105469 0.261719 191.054688 0.261719 188 C 0.261719 184.945312 0.335938 181.894531 0.484375 178.84375 C 0.632812 175.796875 0.859375 172.75 1.160156 169.710938 C 1.457031 166.671875 1.832031 163.644531 2.277344 160.621094 C 2.726562 157.601562 3.25 154.59375 3.84375 151.601562 C 4.4375 148.605469 5.109375 145.625 5.847656 142.664062 C 6.589844 139.703125 7.40625 136.761719 8.289062 133.839844 C 9.175781 130.917969 10.132812 128.019531 11.160156 125.144531 C 12.191406 122.269531 13.289062 119.417969 14.457031 116.597656 C 15.625 113.777344 16.859375 110.988281 18.164062 108.226562 C 19.46875 105.464844 20.84375 102.738281 22.28125 100.046875 C 23.71875 97.355469 25.222656 94.699219 26.792969 92.078125 C 28.363281 89.460938 29.996094 86.878906 31.691406 84.339844 C 33.386719 81.800781 35.140625 79.308594 36.960938 76.855469 C 38.777344 74.402344 40.65625 71.996094 42.59375 69.632812 C 44.527344 67.273438 46.519531 64.960938 48.570312 62.699219 C 50.621094 60.4375 52.722656 58.226562 54.882812 56.066406 C 57.039062 53.910156 59.25 51.804688 61.511719 49.753906 C 63.773438 47.703125 66.082031 45.707031 68.441406 43.769531 C 70.800781 41.835938 73.207031 39.957031 75.660156 38.136719 C 78.109375 36.316406 80.605469 34.558594 83.144531 32.863281 C 85.679688 31.167969 88.257812 29.535156 90.875 27.964844 C 93.492188 26.394531 96.148438 24.890625 98.839844 23.449219 C 101.53125 22.011719 104.257812 20.640625 107.015625 19.332031 C 109.777344 18.027344 112.566406 16.789062 115.386719 15.621094 C 118.203125 14.453125 121.050781 13.355469 123.925781 12.328125 C 126.796875 11.296875 129.695312 10.339844 132.617188 9.453125 C 135.539062 8.566406 138.476562 7.753906 141.4375 7.011719 C 144.398438 6.269531 147.375 5.601562 150.371094 5.003906 C 153.363281 4.410156 156.367188 3.886719 159.386719 3.4375 C 162.40625 2.992188 165.433594 2.617188 168.472656 2.316406 C 171.511719 2.019531 174.554688 1.792969 177.601562 1.644531 C 180.648438 1.496094 183.699219 1.417969 186.753906 1.417969 C 189.804688 1.417969 192.855469 1.496094 195.902344 1.644531 C 198.953125 1.792969 201.996094 2.019531 205.03125 2.316406 C 208.070312 2.617188 211.097656 2.992188 214.117188 3.4375 C 217.136719 3.886719 220.140625 4.410156 223.136719 5.003906 C 226.128906 5.601562 229.105469 6.269531 232.066406 7.011719 C 235.027344 7.753906 237.96875 8.566406 240.886719 9.453125 C 243.808594 10.339844 246.707031 11.296875 249.578125 12.328125 C 252.453125 13.355469 255.300781 14.453125 258.121094 15.621094 C 260.9375 16.789062 263.730469 18.027344 266.488281 19.332031 C 269.246094 20.640625 271.972656 22.011719 274.664062 23.449219 C 277.355469 24.890625 280.011719 26.394531 282.628906 27.964844 C 285.246094 29.535156 287.824219 31.167969 290.363281 32.863281 C 292.898438 34.558594 295.394531 36.316406 297.84375 38.136719 C 300.296875 39.957031 302.703125 41.835938 305.0625 43.769531 C 307.421875 45.707031 309.730469 47.703125 311.992188 49.753906 C 314.253906 51.804688 316.464844 53.910156 318.621094 56.066406 C 320.78125 58.226562 322.882812 60.4375 324.933594 62.699219 C 326.984375 64.960938 328.976562 67.273438 330.914062 69.632812 C 332.847656 71.996094 334.726562 74.402344 336.542969 76.855469 C 338.363281 79.308594 340.117188 81.800781 341.816406 84.339844 C 343.511719 86.878906 345.140625 89.460938 346.710938 92.078125 C 348.28125 94.699219 349.785156 97.355469 351.222656 100.046875 C 352.660156 102.738281 354.035156 105.464844 355.339844 108.226562 C 356.644531 110.988281 357.878906 113.777344 359.046875 116.597656 C 360.214844 119.417969 361.3125 122.269531 362.34375 125.144531 C 363.371094 128.019531 364.328125 130.917969 365.214844 133.839844 C 366.101562 136.761719 366.914062 139.703125 367.65625 142.664062 C 368.398438 145.625 369.066406 148.605469 369.660156 151.601562 C 370.257812 154.59375 370.777344 157.601562 371.226562 160.621094 C 371.671875 163.644531 372.046875 166.671875 372.347656 169.710938 C 372.644531 172.75 372.871094 175.796875 373.019531 178.84375 C 373.167969 181.894531 373.246094 184.945312 373.246094 188 Z M 373.246094 188"/><path fill="#FFF" d="M 287.558594 145.425781 L 273.589844 250.53125 C 273.519531 250.816406 273.445312 251.105469 273.300781 251.320312 L 273.085938 252.617188 C 272.871094 253.699219 272.148438 254.636719 271.140625 254.996094 L 266.75 256.652344 C 265.742188 257.011719 264.660156 256.867188 263.796875 256.292969 L 185.671875 199.671875 C 184.808594 199.023438 183.585938 198.878906 182.574219 199.308594 L 158.167969 209.828125 C 155.933594 210.765625 155.574219 213.789062 157.519531 215.230469 L 228.371094 268.324219 C 230.316406 269.835938 229.882812 272.863281 227.652344 273.726562 L 221.457031 276.101562 C 220.449219 276.464844 219.296875 276.320312 218.507812 275.671875 L 141.246094 218.472656 C 140.382812 217.824219 139.15625 217.679688 138.148438 218.113281 L 113.308594 229.0625 C 111.148438 230 110.789062 233.023438 112.660156 234.464844 L 183.871094 287.847656 C 185.746094 289.285156 185.457031 292.238281 183.296875 293.25 L 173.933594 297.5 C 172.855469 298.003906 171.703125 297.859375 170.765625 297.140625 L 90.914062 237.347656 L 87.890625 235.113281 L 86.59375 234.03125 C 86.59375 234.03125 86.523438 234.03125 86.523438 233.960938 C 86.234375 233.601562 86.019531 233.167969 85.875 232.664062 C 85.800781 232.375 85.800781 232.015625 85.800781 231.726562 L 86.160156 225.675781 C 86.234375 224.523438 86.953125 223.441406 88.035156 223.011719 L 131.597656 204.425781 L 176.457031 183.535156 C 177.105469 183.246094 177.535156 182.667969 177.609375 181.949219 L 180.558594 152.84375 C 180.703125 151.332031 179.191406 150.25 177.824219 150.828125 L 93.144531 188.433594 C 91.777344 189.007812 90.339844 188 90.410156 186.558594 L 90.84375 176.546875 C 90.84375 175.824219 91.347656 175.105469 91.996094 174.816406 L 181.710938 135.410156 C 182.359375 135.125 182.792969 134.546875 182.863281 133.828125 L 185.601562 104.148438 C 185.746094 102.632812 184.230469 101.554688 182.863281 102.203125 L 97.96875 140.09375 C 96.601562 140.742188 95.089844 139.660156 95.234375 138.148438 L 96.316406 125.253906 C 96.386719 124.535156 96.820312 123.886719 97.464844 123.597656 L 194.097656 80.445312 C 194.097656 80.445312 194.167969 80.445312 194.167969 80.445312 C 194.382812 80.230469 194.601562 80.085938 194.890625 79.941406 L 199.425781 78.355469 C 200 78.140625 200.722656 78.285156 201.152344 78.71875 L 205.832031 82.679688 C 206.335938 83.039062 206.554688 83.6875 206.480469 84.265625 L 195.105469 181.589844 C 195.03125 182.238281 195.320312 182.886719 195.824219 183.246094 L 219.296875 201.253906 C 220.378906 202.121094 222.035156 201.398438 222.179688 200.03125 L 234.492188 107.53125 C 234.707031 106.164062 236.292969 105.445312 237.445312 106.378906 L 245.507812 112.71875 C 246.011719 113.078125 246.300781 113.726562 246.226562 114.375 L 233.265625 211.195312 C 233.195312 211.84375 233.410156 212.492188 233.988281 212.925781 L 258.035156 231.007812 C 259.1875 231.871094 260.773438 231.152344 260.917969 229.78125 L 273.230469 137.140625 C 273.375 135.773438 275.03125 135.050781 276.109375 135.914062 L 286.765625 143.769531 C 287.414062 144.128906 287.703125 144.777344 287.558594 145.425781 Z M 287.558594 145.425781"/></svg>